<svg width="60" height="60" viewBox="0 0 60 60" fill="none" xmlns="http://www.w3.org/2000/svg">
<path d="M30.0002 59.7989C13.4318 59.7989 0 46.4124 0 29.8996C0 13.3865 13.4318 2.44241e-05 30.0002 2.44241e-05C46.5685 2.44241e-05 60 13.3865 60 29.8996C60 46.4124 46.5685 59.7989 30.0002 59.7989Z" fill="#FFC220"/>
<path d="M20.1875 1.63696C8.43788 5.6884 5.78905e-05 16.8115 0 29.8997C0 46.4125 13.4313 59.799 30 59.7991C35.4207 59.7991 40.5049 58.3651 44.8936 55.8586C41.8175 56.9199 38.5154 57.4993 35.0771 57.4993C18.5084 57.4993 5.07716 44.1128 5.07715 27.5999C5.07715 16.4873 11.1596 6.79091 20.1875 1.63696Z" fill="#E6A31D"/>
<path d="M16.2335 49.6589C15.7314 49.4558 16.0658 47.9967 16.9804 46.3997C17.8951 44.803 19.0437 43.6729 19.5458 43.8761C20.0481 44.079 19.7138 45.5384 18.7991 47.1351C17.8842 48.7321 16.7358 49.8621 16.2335 49.6589Z" fill="#002D58"/>
<path d="M52.9113 42.4227C50.8789 46.9641 46.2666 49.785 41.6634 51.209C35.3682 53.1403 28.4717 52.2858 22.5406 49.5514C21.0038 48.8616 19.5221 48.0472 18.0698 47.1953L17.3965 48.0699C18.666 49.2874 20.0807 50.3682 21.5963 51.3069C26.211 54.1556 31.7397 55.5037 37.1712 54.8895C43.397 54.187 49.8562 50.9487 52.7071 45.1634C53.093 44.3504 53.3727 43.4808 53.5202 42.5948L52.9099 42.4214L52.9113 42.4227Z" fill="#002D58"/>
<path d="M54.0598 41.8736C54.5755 43.8818 54.4859 44.6467 54.0762 44.7637C53.6664 44.8807 53.0954 43.6579 52.524 42.1349C51.9265 40.5415 51.8054 39.4383 52.2795 39.2786C52.6226 39.163 53.5568 39.9109 54.0611 41.8736H54.0598Z" fill="#002D58"/>
<path d="M52.9113 42.4227C50.8789 46.9641 46.2666 49.785 41.6634 51.209C35.3682 53.1403 28.4717 52.2858 22.5406 49.5514C21.0038 48.8616 19.5221 48.0472 18.0698 47.1953L17.3965 48.0699C18.666 49.2874 20.0807 50.3682 21.5963 51.3069C26.211 54.1556 31.7397 55.5037 37.1712 54.8895C43.397 54.187 49.8562 50.9487 52.7071 45.1634C53.093 44.3504 53.3727 43.4808 53.5202 42.5948L52.9099 42.4214L52.9113 42.4227Z" fill="#002D58"/>
<path d="M29.871 37.4264C29.585 40.9726 29.6755 43.4971 30.5265 43.5886C31.3776 43.6805 32.3587 42.1035 33.0055 37.7633C33.5008 34.4344 33.3673 31.547 31.838 31.4715C30.8457 31.4223 30.1433 34.0725 29.871 37.4264Z" fill="#002D58"/>
<path d="M45.6382 35.1652C45.3897 38.9379 45.1003 40.7993 45.9386 40.8946C46.7773 40.9895 47.8741 39.0679 48.2466 35.4255C48.5672 32.2955 48.2466 29.2991 47.1102 29.5608C46.2357 29.7623 45.8444 32.0248 45.6382 35.1652Z" fill="#002D58"/>
</svg>
