<svg width="72" height="72" viewBox="0 0 72 72" fill="none" xmlns="http://www.w3.org/2000/svg">
<path d="M17.738 10.3549L15.9764 9.05615C15.6806 10.5735 14.1119 11.7308 14.1119 11.7308C9.91992 15.3955 7.37391 20.8862 7.73396 26.9683C7.75967 27.4055 7.81109 27.8427 7.87538 28.267H16.6707C15.6292 25.9396 15.0248 23.355 15.0248 20.6418C15.0248 19.4588 15.1405 18.3015 15.3463 17.17C15.642 15.6398 15.372 14.0582 14.6776 12.6823C15.5649 11.6536 17.0436 10.7535 17.738 10.342V10.3549Z" fill="#A9DDF7"/>
<path d="M61.689 28.2799C60.6088 21.0919 54.4881 15.5755 46.9915 15.5755C41.4494 15.5755 36.6274 18.5973 34.0428 23.0721L35.4315 24.178C36.666 25.1681 37.0132 26.8912 36.3059 28.2799H61.689Z" fill="#A9DDF7"/>
<path d="M25.0949 16.1547C25.7764 15.3318 26.175 14.2902 26.2136 13.223C24.4776 13.403 23.1789 14.7017 22.7289 16.1419V13.223H21.8159V17.8007C22.4588 17.7749 23.0889 17.6206 23.6547 17.312C24.1947 17.0163 24.6962 16.6305 25.0949 16.1547Z" fill="#001E60"/>
<path d="M35.4332 24.1657L31.0098 20.6295C29.6854 19.5623 27.7695 19.678 26.5736 20.8867L19.2441 28.2676H36.3076C37.0149 26.866 36.6677 25.1558 35.4332 24.1657Z" fill="#001E60"/>
<path d="M53.9755 39.8533L46.2603 28.2805V72H61.6907V39.8533H53.9755Z" fill="#001E60"/>
<path d="M35.4847 20.8739C35.1632 21.2596 34.8546 21.6454 34.5717 22.0697C38.2107 22.314 41.2196 24.8729 42.1583 28.2805H43.4828C42.5827 24.4486 39.4194 21.4911 35.4718 20.8867L35.4847 20.8739Z" fill="#001E60"/>
<path d="M47.5461 15.5761C47.3404 15.5761 47.1218 15.5632 46.9032 15.5632C46.6846 15.5632 46.466 15.5632 46.2603 15.5761V28.2676H47.5461V15.5761Z" fill="#001E60"/>
<path d="M51.6866 28.2805C52.6253 24.8729 55.6342 22.314 59.2732 22.0697C58.9903 21.6582 58.6817 21.2596 58.3603 20.8739C54.4255 21.4782 51.2623 24.4357 50.3493 28.2676H51.6737L51.6866 28.2805Z" fill="#001E60"/>
<path d="M39.4788 0.347877L38.5717 1.48295C38.2525 1.88239 38.3175 2.46497 38.717 2.78418L48.7922 10.8358C49.1917 11.155 49.7743 11.09 50.0935 10.6905L51.0006 9.55546C51.3198 9.15602 51.2547 8.57343 50.8553 8.25422L40.78 0.202611C40.3806 -0.1166 39.798 -0.0515618 39.4788 0.347877Z" fill="#001E60"/>
<path d="M2.59277 39.8403H41.1431L46.2609 28.2804H7.6848L2.59277 39.8403Z" fill="#4DBDF5"/>
<path d="M31.0104 20.6423L34.0451 23.0726C36.3725 19.0349 40.513 16.1932 45.3607 15.666L49.0898 10.9983C48.9869 10.9726 48.884 10.9211 48.794 10.844C48.794 10.844 48.794 10.844 48.7811 10.844L38.6999 2.79444C38.6099 2.71728 38.5328 2.62728 38.4685 2.52441L31.139 11.7055C29.1845 14.1486 28.2715 17.0933 28.3358 19.9994C29.2488 19.8322 30.2261 20.0379 30.9976 20.668L31.0104 20.6423Z" fill="#4DBDF5"/>
<path d="M7.6848 71.9999H46.2351V43.2736H7.6848V71.9999Z" fill="#4DBDF5"/>
<path d="M7.68555 39.8403V43.2736H46.2616V28.2803L41.1438 39.8403H7.68555Z" fill="#0053E2"/>
<path d="M61.692 28.2803H46.2616L53.9768 39.8532H69.4072L61.692 28.2803Z" fill="#0053E2"/>
<path d="M19.2327 28.2803L26.5621 20.8995C27.0636 20.398 27.6937 20.0894 28.3495 19.9736C28.3366 19.0735 28.3752 18.2763 28.568 17.3376C27.8094 16.8747 26.9607 16.6304 26.0863 16.6304C25.2119 16.6304 24.4404 16.8618 23.7075 17.2861C22.7302 17.8519 21.5601 17.9548 20.4542 17.6848C19.7341 17.5048 18.9883 17.4919 18.2683 17.6591C16.9181 17.9677 15.8251 18.8678 15.0407 20.1408C15.0407 20.3079 15.015 20.4751 15.015 20.6551C15.015 23.3812 15.6065 25.9529 16.6609 28.2803H19.2455H19.2327Z" fill="#0053E2"/>
</svg>
