<svg width="72" height="72" viewBox="0 0 72 72" fill="none" xmlns="http://www.w3.org/2000/svg">
<path d="M57.5754 50.1208H50.3939C49.541 50.1208 48.8497 50.8122 48.8497 51.665V58.8465C48.8497 59.6994 49.541 60.3908 50.3939 60.3908H57.5754C58.4282 60.3908 59.1196 59.6994 59.1196 58.8465V51.665C59.1196 50.8122 58.4282 50.1208 57.5754 50.1208Z" fill="white"/>
<path d="M21.8688 5.36914C14.0804 5.36914 7.75464 11.7238 7.75464 19.5199C7.75464 27.316 14.0929 33.6706 21.8688 33.6706C29.6572 33.6706 35.9829 27.316 35.9829 19.5199C35.9829 11.7238 29.6447 5.36914 21.8688 5.36914Z" fill="white"/>
<path fill-rule="evenodd" clip-rule="evenodd" d="M60.3133 2.56445C61.0776 2.56478 61.6925 3.19387 61.6925 3.9583V68.0064C61.6925 68.7708 61.0776 69.3853 60.3133 69.3856H32.2314C31.4669 69.3855 30.8523 68.7562 30.8522 67.9917V34.8821C32.3824 34.1764 33.7902 33.2518 35.0337 32.1441H44.9941V30.8557H36.3368C39.0581 27.85 40.7174 23.8665 40.7174 19.5058C40.7174 18.561 40.6346 17.6346 40.4846 16.7313H42.4304V15.4429H40.2196C40.1113 15.0058 39.985 14.576 39.8433 14.153H43.7042V12.8646H39.3558C39.1692 12.4296 38.9634 12.0048 38.7423 11.5893H44.9941V10.2994H37.9795C36.2395 7.62879 33.7687 5.47763 30.8522 4.13107V3.94366C30.8522 3.17907 31.4668 2.56451 32.2314 2.56445H60.3133ZM50.388 50.1207C49.5351 50.1207 48.8433 50.8124 48.8433 51.6653V58.8468C48.8436 59.6995 49.5353 60.39 50.388 60.39H57.5695C58.422 60.3898 59.1124 59.6993 59.1127 58.8468V51.6653C59.1127 50.8126 58.4221 50.1209 57.5695 50.1207H50.388ZM33.4349 57.8424H41.1406V56.5526H33.4349V57.8424ZM33.4349 55.2627H43.7042V53.9742H33.4349V55.2627ZM33.4349 52.699H44.9941V51.4105H33.4349V52.699ZM50.388 29.5658C49.5351 29.5658 48.8433 30.2576 48.8433 31.1105V38.292C48.8436 39.1446 49.5353 39.8352 50.388 39.8352H57.5695C58.422 39.8349 59.1124 39.1445 59.1127 38.292V31.1105C59.1127 30.2578 58.4221 29.5661 57.5695 29.5658H50.388ZM33.4349 37.2876H43.7042V35.9977H33.4349V37.2876ZM33.4349 34.7078H42.4304V33.4194H33.4349V34.7078ZM50.388 9.01099C49.5351 9.01099 48.8433 9.70278 48.8433 10.5556V17.7372C48.8436 18.5898 49.5353 19.2804 50.388 19.2804H57.5695C58.422 19.2801 59.1124 18.5897 59.1127 17.7372V10.5556C59.1127 9.70294 58.4221 9.01125 57.5695 9.01099H50.388Z" fill="#4DBDF5"/>
<path d="M20.8062 7.78845C20.7253 7.96951 20.6803 8.1702 20.6803 8.38142V10.3887C16.1049 10.9287 12.9986 14.5161 12.9043 19.2965H14.1737L11.5954 23.1486L9.03174 19.2965H10.4915C10.5988 13.3265 14.9772 8.33879 20.8062 7.78845Z" fill="#4DBDF5"/>
<path d="M41.1468 57.8438H33.4412V56.5539H41.1468V57.8438Z" fill="#A9DDF7"/>
<path d="M43.7105 55.264H33.4412V53.9756H43.7105V55.264Z" fill="#A9DDF7"/>
<path d="M45.0004 52.7003H33.4412V51.4119H45.0004V52.7003Z" fill="#A9DDF7"/>
<path d="M43.7105 37.289H33.4412V35.9991H43.7105V37.289Z" fill="#A9DDF7"/>
<path d="M42.4367 34.7092H33.4412V33.4208H42.4367V34.7092Z" fill="#A9DDF7"/>
<path d="M45.0004 32.1455H35.04C35.4965 31.7389 35.9328 31.3102 36.3431 30.8571H45.0004V32.1455Z" fill="#A9DDF7"/>
<path d="M42.4367 16.7327H40.4909C40.4187 16.2974 40.3309 15.8678 40.2259 15.4442H42.4367V16.7327Z" fill="#A9DDF7"/>
<path d="M43.7105 14.1544H39.8496C39.7032 13.717 39.5425 13.2867 39.3621 12.8659H43.7105V14.1544Z" fill="#A9DDF7"/>
<path d="M45.0004 11.5907H38.7486C38.5133 11.1485 38.2581 10.7187 37.9858 10.3008H45.0004V11.5907Z" fill="#A9DDF7"/>
<path d="M21.8943 5.36734C29.7055 5.36734 36.0324 11.6942 36.0324 19.5054C36.0324 27.3165 29.7055 33.6434 21.8943 33.6434C14.0832 33.6434 7.75626 27.3165 7.75626 19.5054C7.75626 11.6942 14.0832 5.36734 21.8943 5.36734ZM21.8943 2.83358C12.6888 2.83358 5.20752 10.3149 5.20752 19.5204C5.20752 28.7259 12.6888 36.2072 21.8943 36.2072C31.0998 36.2072 38.5811 28.7259 38.5811 19.5204C38.5811 10.3149 31.0998 2.83358 21.8943 2.83358Z" fill="#0053E2"/>
<path d="M57.5758 29.5656H50.3944C49.5415 29.5656 48.8501 30.2569 48.8501 31.1098V38.2912C48.8501 39.1441 49.5415 39.8355 50.3944 39.8355H57.5758C58.4287 39.8355 59.1201 39.1441 59.1201 38.2912V31.1098C59.1201 30.2569 58.4287 29.5656 57.5758 29.5656Z" fill="#0053E2"/>
<path d="M61.3485 0.0297852C62.9676 0.0298207 64.2577 1.28942 64.2577 2.89361V68.9959C64.2577 70.6001 62.9526 71.905 61.3485 71.9051L55.0513 71.9798H31.2139C29.6097 71.9798 28.3047 70.6748 28.3047 69.0705V35.8159C29.1854 35.5719 30.0366 35.2586 30.8537 34.8818V67.9915C30.8538 68.756 31.4683 69.3853 32.2329 69.3853H60.3133C61.078 69.3853 61.6925 68.7707 61.6925 68.0061H61.6779V3.95803C61.6779 3.19341 61.0633 2.56418 60.2987 2.56418H53.9722C53.9719 3.98799 52.8177 5.14218 51.3939 5.14251H41.1377C39.7139 5.14216 38.5597 3.98797 38.5594 2.56418H32.2329C31.4683 2.56418 30.8537 3.17876 30.8537 3.94339V4.1308C30.0366 3.75345 29.1852 3.43964 28.3047 3.19522V2.939C28.3047 1.33479 29.6097 0.0297852 31.2139 0.0297852H61.3485Z" fill="#0053E2"/>
<path d="M57.5758 9.01095H50.3943C49.5415 9.01095 48.8501 9.70233 48.8501 10.5552V17.7367C48.8501 18.5895 49.5415 19.2809 50.3943 19.2809H57.5758C58.4287 19.2809 59.12 18.5895 59.12 17.7367V10.5552C59.12 9.70233 58.4287 9.01095 57.5758 9.01095Z" fill="#001E60"/>
<path d="M20.6804 8.38138C20.6804 7.5782 21.3311 6.9275 22.1342 6.9275C22.9374 6.9275 23.5881 7.5782 23.5881 8.38138V18.9026L29.1445 24.4589C29.7124 25.0268 29.7123 25.9481 29.1445 26.516C28.5765 27.0839 27.6553 27.0839 27.0874 26.516L21.1064 20.5336L20.6804 20.109V8.38138Z" fill="#001E60"/>
<path d="M63.8091 0C65.4282 2.37242e-05 66.7183 1.25963 66.7183 2.86383V68.9661C66.7183 70.5703 65.4133 71.8753 63.8091 71.8753L57.5119 71.95H54.9467L61.2439 71.8753C62.8481 71.8753 64.1531 70.5703 64.1531 68.9661V2.86383C64.1531 1.36012 63.0195 0.159195 61.5441 0.0146412L61.2439 0H63.8091Z" fill="#001E60"/>
<path d="M23.7946 2.57905C33.1199 2.57909 40.7213 10.1804 40.7213 19.5058C40.7213 28.8311 33.1349 36.4325 23.7946 36.4325C22.7955 36.4325 21.8171 36.3392 20.8648 36.1719C21.2044 36.1926 21.5465 36.207 21.8912 36.207C31.0967 36.207 38.5778 28.7259 38.5778 19.5204C38.5777 10.315 31.0966 2.83381 21.8912 2.83381C21.4481 2.83382 21.0094 2.85542 20.575 2.88945C21.6176 2.68786 22.6936 2.57905 23.7946 2.57905Z" fill="#001E60"/>
</svg>
