<svg width="72" height="72" viewBox="0 0 72 72" fill="none" xmlns="http://www.w3.org/2000/svg">
<path d="M54.6286 57.2134C54.2463 54.7927 51.8257 53.1365 49.405 53.6461C46.9843 54.0283 45.3281 56.449 45.8377 58.8697C46.2199 61.2903 48.6406 62.9466 51.0612 62.437C53.4819 62.0547 55.1382 59.6341 54.6286 57.2134ZM50.5516 60.1437C49.405 60.3985 48.2584 59.6341 48.131 58.4874C47.8762 57.3408 48.6406 56.1942 49.7872 56.0668C50.9338 55.812 52.0805 56.5764 52.2079 57.723C52.4627 58.8697 51.6983 60.0163 50.5516 60.1437Z" fill="#4DBDF5"/>
<path d="M37.5565 53.0091C39.9772 52.6269 41.6334 50.2062 41.1238 47.7855C40.7416 45.3649 38.3209 43.7086 35.9002 44.2182C33.4795 44.6005 31.8233 47.0211 32.3329 49.4418C32.7151 51.8625 35.1358 53.5187 37.5565 53.0091ZM34.6262 49.0596C34.3714 47.9129 35.1358 46.7663 36.2824 46.6389C37.4291 46.3841 38.5757 47.1485 38.7031 48.2952C38.9579 49.4418 38.1935 50.5884 37.0468 50.7158C35.9002 50.9706 34.7536 50.2062 34.6262 49.0596Z" fill="#4DBDF5"/>
<path d="M49.3563 41.8364L35.2503 62.1321L37.1335 63.4409L51.2394 43.1452L49.3563 41.8364Z" fill="#4DBDF5"/>
<path d="M26.6766 25.0605L26.5721 25.4884C26.3183 26.1454 25.6415 25.8817 25.6415 25.8817C25.1846 25.7186 25.2682 25.1103 25.2682 25.1103L25.2981 24.5966C25.4255 24.5966 13.8317 20.9019 13.8317 20.9019L11.2837 28.8009C13.1947 29.4379 14.2139 31.4763 13.7043 33.5148C13.0673 35.4259 11.0289 36.5725 9.11783 35.9355L8.7356 37.2095L21.5676 37.247L21.9856 35.9355C22.1241 35.5058 22.4414 35.4962 22.75 35.5533C23.1322 35.624 23.2596 36.0629 23.1322 36.3177L22.8574 37.2495L38.1012 37.2887L38.6586 35.6922C37.0023 36.0744 35.6115 36.0606 35.2293 36.0606V33.2643C36.8353 33.4343 39.5673 33.0052 39.9495 31.7312L42.4752 32.4896L41.061 37.2887L60.4983 37.3369C60.4983 37.4643 61.7624 45.3655 61.7624 45.3655C62.0411 45.2958 62.5 45.2359 62.6274 45.2359C62.7548 45.2359 63.1369 45.2359 63.3917 45.2359L65.8124 37.5917L26.6766 25.0605ZM25.5718 28.5094L24.024 33.3874C24.024 33.6422 23.6418 33.7696 23.387 33.7696C23.387 33.7696 23.2596 33.7696 23.1322 33.7696C22.75 33.7696 22.6226 33.26 22.75 33.0052L24.2789 28.1639C24.4819 27.6982 24.7307 27.6534 25.1687 27.7828C25.4573 27.9122 25.6803 28.0814 25.5718 28.5094ZM44.0812 37.2887C46.3863 35.0876 49.1934 34.1731 51.6706 34.9163C52.9447 35.2985 54.0951 36.0701 55.2004 37.3369L44.0812 37.2887Z" fill="#4DBDF5"/>
<path d="M65.9372 37.4998L65.8439 37.5981L28.3494 25.6502C28.3494 25.6502 25.3927 24.6226 25.4194 24.6312L13.861 20.9051L15.1763 16.7334L65.9372 37.4998Z" fill="#001E60"/>
<path d="M39.8892 37.2909H38.1237L37.9955 37.6729L36.8907 41.3208L8.4451 46.1196L6.0625 45.3681L8.73748 37.2138L39.8892 37.2909Z" fill="#001E60"/>
<path d="M49.0264 37.3133H44.0995C43.2068 38.206 42.4118 39.2942 41.8002 40.4922L40.0123 40.7945L41.0525 37.2934L49.0264 37.3133Z" fill="#001E60"/>
<path d="M49.1807 37.3133C50.8976 37.378 51.6581 38.1811 52.1617 38.7454L44.775 39.9908C45.9695 38.3376 47.5734 37.3197 49.1807 37.3133Z" fill="#001E60"/>
<path d="M60.4902 37.3419L55.516 38.1805C55.4264 37.8259 55.3269 37.5124 55.1876 37.3282L60.4902 37.3419Z" fill="#001E60"/>
<path d="M40.9718 23.3544C40.1427 23.7244 39.8145 24.6168 39.7188 24.9997C39.5913 25.5093 39.572 26.0939 39.572 26.6036L42.8127 23.3437C42.1757 23.0889 41.4814 23.0996 40.9718 23.3544Z" fill="#A9DDF7"/>
<path fill-rule="evenodd" clip-rule="evenodd" d="M37.8811 10.5809L65.9385 37.5036L41.3013 27.4171L44.245 24.3389C44.5879 25.1074 44.7298 26.4139 44.7614 27.0165H46.5455C46.8003 25.7425 46.4171 24.341 45.5253 23.1944L46.0354 22.6843C46.4174 22.3021 46.4176 21.7924 46.0354 21.4102C45.6533 21.0284 45.1435 21.0284 44.7614 21.4102L44.1244 22.0472C42.8504 21.2829 41.3212 21.0283 40.0472 21.6653C39.0281 22.1749 38.3713 22.834 37.8811 24.5953C37.7831 25.0364 37.742 25.4969 37.7281 25.954L26.5429 21.4002L27.435 20.5194C27.6897 20.2647 27.6894 19.8821 27.435 19.6273C27.1802 19.3725 26.7977 19.3725 26.5429 19.6273L25.3336 20.879L15.2023 16.7309L13.2857 22.6843L9.08838 18.7352L15.9687 11.6011C17.4975 13.0021 19.7904 13.0017 21.1917 11.473C22.7204 9.94419 22.593 7.65135 21.1917 6.24994L26.9249 0.261719L37.8811 10.5809ZM33.04 13.6391C32.7852 13.3844 32.4027 13.3843 32.1479 13.6391L28.5809 17.3343C28.3266 17.589 28.3765 17.9306 28.6308 18.1853C28.758 18.3126 29.1645 18.4811 29.473 18.2251L33.04 14.5312C33.2948 14.2764 33.2948 13.8939 33.04 13.6391ZM34.1871 11.473C33.9918 11.6783 34.0057 12.1103 34.2606 12.3651C34.3879 12.4923 34.7931 12.6587 35.0792 12.3651L37.2611 9.99693L36.3666 9.15445L34.1871 11.473Z" fill="#A9DDF7"/>
<path d="M49.7865 56.0668C50.9331 55.8121 52.0801 56.5764 52.2077 57.7228C52.4621 58.8693 51.6969 60.0166 50.5505 60.144C49.4044 60.3983 48.2585 59.6339 48.1305 58.488C47.8757 57.3414 48.6399 56.1943 49.7865 56.0668Z" fill="#0053E2"/>
<path d="M36.2823 46.6397C37.4288 46.3851 38.5748 47.1492 38.7022 48.2957C38.9564 49.4421 38.1925 50.5883 37.0462 50.7156C35.8998 50.9703 34.7528 50.2059 34.625 49.0596C34.3704 47.9131 35.1357 46.7672 36.2823 46.6397Z" fill="#0053E2"/>
<path fill-rule="evenodd" clip-rule="evenodd" d="M61.7642 45.3657C59.9809 45.7481 58.5791 47.0222 58.5791 49.1878C58.5797 51.3532 60.3639 53.1368 62.5294 53.1368H63.0383L64.5674 62.6921L25.2688 69.2414L24.9416 67.3528C24.8034 66.9477 24.5314 66.8137 24.1254 66.8165C23.7202 66.9548 23.5863 67.2266 23.5892 67.6327L23.9102 69.4766L11.0578 71.7385L9.40183 61.9282C11.4401 61.546 12.7145 59.6342 12.46 57.5959C12.2052 55.5575 10.2931 54.2842 8.2547 54.539L6.85376 46.3847L19.522 44.2472L20.0619 47.3489C20.0639 47.6196 20.3365 47.888 20.7425 47.8851C21.1487 47.8823 21.2816 47.4751 21.2787 47.069L20.7512 44.0406L60.4902 37.3383L61.7642 45.3657ZM22.5764 58.2977C22.1716 58.4359 22.0386 58.7078 22.0414 59.1138L23.0268 64.5223C23.1641 64.792 23.4367 65.0615 23.7074 65.0598L23.843 65.0585C24.2482 64.9203 24.3821 64.6484 24.3792 64.2423L23.3926 58.8339C23.2544 58.4287 22.9826 58.2948 22.5764 58.2977ZM35.2496 62.1322L37.1333 63.4411L51.2385 43.1448L49.3561 41.836L35.2496 62.1322ZM54.6276 57.214C54.2454 54.7933 51.8252 53.1374 49.4046 53.6469C46.984 54.0292 45.3279 56.4493 45.8375 58.87C46.2201 61.2902 48.6402 62.9465 51.0606 62.437C53.481 62.0549 55.1367 59.6343 54.6276 57.214ZM21.0274 49.7788C20.6224 49.917 20.4896 50.1889 20.4924 50.595L21.4766 55.8678C21.6138 56.1375 21.8865 56.407 22.1571 56.4053L22.2927 56.404C22.6979 56.2658 22.8318 55.994 22.829 55.5878L21.8436 50.315C21.7054 49.9098 21.4336 49.7759 21.0274 49.7788ZM41.1233 47.7856C40.7411 45.365 38.3197 43.709 35.8991 44.2186C33.4789 44.6011 31.8227 47.0213 32.332 49.4416C32.7145 51.8619 35.1359 53.5194 37.5563 53.0099C39.9766 52.6276 41.6325 50.206 41.1233 47.7856Z" fill="#0053E2"/>
<path d="M40.0101 40.7895L36.8782 41.3349L38.0975 37.2788L41.0485 37.3075L40.0101 40.7895Z" fill="#0053E2"/>
<path d="M55.2074 37.3333C55.4164 37.6817 55.4985 38.1883 55.521 38.1843L52.1517 38.7416C51.445 38.0399 50.9573 37.4427 49.2249 37.3076C49.6069 37.3076 49.2453 37.3133 49.2249 37.3076C47.6096 37.3077 46.0049 38.3225 44.8061 39.9862L41.8126 40.4847C42.4248 39.2833 43.1947 38.2028 44.0895 37.308L49.2249 37.3076L55.2074 37.3333Z" fill="#0053E2"/>
<path d="M41.2851 27.4122L39.7647 28.8828C39.7921 29.0199 39.8182 29.1633 39.8443 29.3096L37.6247 28.6017L37.7267 28.5009V25.9565L41.2851 27.4122Z" fill="#0053E2"/>
<path d="M25.7714 25.9217C26.0762 25.9634 26.3999 25.8679 26.5273 25.6131L26.6766 25.0607C26.804 25.0607 25.2977 24.5929 25.2977 24.5929C25.1572 25.8949 25.4807 25.8122 25.7714 25.9217Z" fill="white"/>
<path d="M22.875 37.2588H21.5711L21.9632 36.0146C22.1224 35.4921 22.4487 35.4591 22.8291 35.5816C23.2096 35.7042 23.2223 36.0843 23.1377 36.3779L22.875 37.2588Z" fill="white"/>
<path d="M22.7435 33.045C22.6161 33.2998 22.7717 33.7215 23.1257 33.8094C23.4784 33.8974 23.8106 33.9157 24.0082 33.4404L25.5459 28.5681C25.6733 28.3133 25.6103 27.937 25.163 27.7894C24.8357 27.6476 24.422 27.6848 24.2724 28.2037L22.7435 33.045Z" fill="white"/>
<path d="M42.4783 32.496L39.9303 31.7316C39.548 33.133 36.4903 33.3878 35.2163 33.2604V36.0633C35.3437 36.0633 36.9134 36.1192 38.6562 35.6811L38.1066 37.2748L41.0547 37.3106L42.4783 32.496Z" fill="white"/>
<path d="M51.7638 34.9347C49.2158 34.1703 46.2407 35.1325 44.0748 37.2984L55.2127 37.3394C54.3209 36.3202 53.0379 35.3169 51.7638 34.9347Z" fill="white"/>
<path d="M24.1232 66.8186C24.5292 66.8158 24.8012 66.9498 24.9394 67.3549L25.2666 69.2435L24.815 69.3194L23.908 69.4787L23.587 67.6348C23.5841 67.2286 23.718 66.9569 24.1232 66.8186Z" fill="white"/>
<path d="M22.5742 58.2997C22.9804 58.2969 23.2522 58.4308 23.3904 58.836L24.377 64.2444C24.3799 64.6505 24.246 64.9224 23.8408 65.0606L23.7052 65.0618C23.4345 65.0636 23.1619 64.7941 23.0246 64.5244L22.0392 59.1159C22.0364 58.7099 22.1694 58.438 22.5742 58.2997Z" fill="white"/>
<path d="M21.0252 49.7809C21.4314 49.778 21.7032 49.9119 21.8414 50.3171L22.8268 55.5899C22.8296 55.9961 22.6958 56.2679 22.2906 56.4061L22.1549 56.4073C21.8843 56.409 21.6116 56.1396 21.4744 55.8699L20.4902 50.597C20.4874 50.191 20.6202 49.9191 21.0252 49.7809Z" fill="white"/>
<path d="M21.2766 47.0711C21.2794 47.4772 21.1465 47.8844 20.7403 47.8872C20.3343 47.89 20.0618 47.6217 20.0597 47.351L19.5198 44.2493L20.749 44.0427L21.2766 47.0711Z" fill="white"/>
<path fill-rule="evenodd" clip-rule="evenodd" d="M44.7921 21.385C45.1742 21.0029 45.6603 21.003 46.0425 21.385C46.4246 21.7671 46.473 22.2495 46.091 22.6317L45.5436 23.1841C46.4154 24.1799 46.8149 25.7331 46.5603 27.0071L44.7587 27.032C44.7338 26.4845 44.5901 25.0619 44.2411 24.3445L41.298 27.4155L37.7316 25.9595C37.7616 25.5045 37.7883 25.0378 37.8859 24.5987C38.1408 23.1974 38.936 22.1949 40.0408 21.6574C41.26 21.1315 42.5329 21.104 44.1501 22.0295L44.7921 21.385ZM42.815 23.3443C42.1781 23.0895 41.4837 23.1003 40.9741 23.3549C40.2098 23.737 39.8485 24.4906 39.721 25.0003C39.5936 25.5099 39.5743 26.0945 39.5743 26.6041L42.815 23.3443Z" fill="white"/>
<path d="M35.1078 12.3385L37.2647 9.99634L36.3639 9.15527L34.216 11.4467C33.9612 11.7015 33.9612 12.0837 34.216 12.3385C34.216 12.3385 34.6818 12.7634 35.1078 12.3385Z" fill="white"/>
<path d="M26.555 19.6028C26.8098 19.3484 27.1924 19.3481 27.4471 19.6028C27.7018 19.8574 27.7015 20.24 27.4471 20.4948L26.5674 21.4043L25.3108 20.8905L26.555 19.6028Z" fill="white"/>
<path d="M32.16 13.6158C32.4148 13.361 32.7973 13.361 33.0521 13.6158C33.3067 13.8706 33.3067 14.2519 33.0521 14.5066L29.485 18.2018C29.485 18.2018 29.1909 18.5553 28.593 18.2018C28.3383 17.947 28.317 17.5455 28.593 17.3098L32.16 13.6158Z" fill="white"/>
</svg>
