<svg width="72" height="72" viewBox="0 0 72 72" fill="none" xmlns="http://www.w3.org/2000/svg">
<g clip-path="url(#clip0_22949_27312)">
<path d="M40.0821 24.8037C41.0273 26.6393 41.4327 28.082 41.7028 29.2621H38.0382C37.4982 27.9512 36.9278 27.0329 35.8965 27.0329C34.2355 27.0329 33.7387 29.3927 33.7387 29.3927H30.1997C30.2085 29.3487 30.2159 29.305 30.2248 29.2621C30.1997 28.9353 30.951 25.8808 32.2879 24.8037L40.0821 24.8037Z" fill="#001E60"/>
<path fill-rule="evenodd" clip-rule="evenodd" d="M43.0076 33.9816C45.1053 33.9816 46.9414 35.0301 48.1215 36.7344L54.1521 45.9123C55.7255 48.2724 55.3319 51.5507 53.2341 53.6485L49.4326 57.1888C48.2526 58.2376 46.81 58.8929 45.2367 58.893H31.4699C29.8967 58.8929 28.454 58.2376 27.274 57.1888L23.2101 53.386C21.2435 51.4193 20.718 48.4034 22.1601 45.9123L27.274 36.9969C27.9521 35.8105 29.0694 34.8999 30.3406 34.4028C30.5129 35.054 30.7357 35.6669 31.0077 36.2108C31.5321 37.2596 33.1057 37.5214 33.8924 36.6038C34.4168 36.0795 34.6006 35.2855 34.2074 34.4989C34.1266 34.3373 34.0465 34.1637 33.9744 33.9816H43.0076ZM38.2227 48.1108C38.0857 48.1118 37.9516 48.1563 37.8412 48.2375C37.731 48.3187 37.6487 48.4325 37.6068 48.5628C37.5254 48.8084 37.2996 51.1767 37.2996 51.4027C37.2996 51.6423 37.3952 51.8721 37.5646 52.0416C37.7342 52.2112 37.9649 52.3066 38.2048 52.3066C38.4444 52.3065 38.6743 52.211 38.8437 52.0416C39.0131 51.8721 39.1087 51.6423 39.1088 51.4027C39.1088 51.1767 38.8919 48.8083 38.8104 48.5628C38.769 48.4372 38.6899 48.3271 38.5851 48.2465C38.4804 48.1661 38.3545 48.1187 38.2227 48.1108ZM36.0793 46.9533C35.8352 46.9985 33.6636 47.9932 33.4737 48.1108V48.1287C33.3697 48.1869 33.2785 48.2655 33.2048 48.3592C33.131 48.4532 33.0755 48.5615 33.0435 48.6767C33.0117 48.7916 33.0031 48.9118 33.0179 49.0301C33.0328 49.1485 33.0713 49.2632 33.1306 49.3668C33.1896 49.4741 33.2697 49.5693 33.3662 49.6447C33.4625 49.7199 33.5732 49.7747 33.6914 49.806C33.8098 49.8373 33.9339 49.8444 34.055 49.8265C34.1762 49.8086 34.2926 49.7664 34.3969 49.7023C34.5869 49.5937 36.5311 48.2097 36.7029 48.0288C36.7943 47.9249 36.8509 47.7951 36.8655 47.6575C36.88 47.52 36.8523 47.3813 36.7848 47.2606C36.7152 47.141 36.6082 47.047 36.4814 46.9917C36.3547 46.9366 36.2141 46.9231 36.0793 46.9533ZM40.3751 46.9712C40.2446 46.9419 40.1078 46.9539 39.9845 47.0058C39.8614 47.0577 39.7576 47.1469 39.6875 47.2606C39.6186 47.3809 39.5897 47.5197 39.6043 47.6575C39.6189 47.7953 39.6757 47.9256 39.7682 48.0288C39.9309 48.2097 41.8765 49.5938 42.0754 49.7023C42.1793 49.7648 42.2947 49.8056 42.4147 49.8227C42.5349 49.8397 42.6573 49.8321 42.7745 49.8009C42.8917 49.7697 43.0015 49.7154 43.0972 49.6408C43.1929 49.5663 43.2725 49.4729 43.3315 49.3668C43.3941 49.263 43.4361 49.1476 43.4531 49.0275C43.4702 48.9075 43.4626 48.7849 43.4314 48.6677C43.4002 48.5506 43.3458 48.4408 43.2713 48.3451C43.1968 48.2493 43.1033 48.1698 42.9973 48.1108C42.7984 47.9933 40.6388 46.9993 40.393 46.9533L40.3751 46.9712ZM33.6735 43.0506C33.5553 43.0819 33.4446 43.1367 33.3482 43.212C33.2519 43.2873 33.1716 43.3814 33.1127 43.4885C33.049 43.5933 33.007 43.7103 32.9897 43.8317C32.9725 43.953 32.9807 44.077 33.0128 44.1953C33.0449 44.3138 33.1004 44.4257 33.1767 44.5218C33.2528 44.6177 33.3481 44.6967 33.4558 44.7549C33.6457 44.8634 35.8172 45.8582 36.0614 45.9034C36.1962 45.9336 36.3368 45.9201 36.4635 45.865C36.5902 45.8097 36.696 45.7156 36.7656 45.5961C36.8332 45.4753 36.8621 45.3368 36.8476 45.1992C36.833 45.0616 36.7763 44.9318 36.685 44.8278C36.5312 44.6651 34.6049 43.2808 34.3969 43.1723L34.379 43.1544C34.2747 43.0902 34.1582 43.048 34.0371 43.0302C33.916 43.0123 33.7919 43.0194 33.6735 43.0506ZM42.4147 43.034C42.2947 43.0511 42.1793 43.0918 42.0754 43.1544C41.8765 43.2629 39.9309 44.647 39.7682 44.8278C39.6758 44.9311 39.6189 45.0614 39.6043 45.1992C39.5897 45.337 39.6186 45.4758 39.6875 45.5961C39.756 45.7165 39.8614 45.8121 39.9884 45.8675C40.1155 45.9229 40.258 45.9352 40.393 45.9034C40.6387 45.8574 42.7984 44.8633 42.9973 44.7549L42.9794 44.7728C43.0906 44.7155 43.1887 44.6356 43.2675 44.5385C43.3463 44.4413 43.4046 44.3287 43.4378 44.2081C43.4708 44.0877 43.4789 43.9616 43.4608 43.8381C43.4426 43.7142 43.3979 43.5946 43.3315 43.4885C43.2725 43.3828 43.1927 43.2902 43.0972 43.2158C43.0014 43.1413 42.8918 43.0857 42.7745 43.0545C42.6573 43.0233 42.5349 43.017 42.4147 43.034ZM38.2227 40.568C37.9829 40.568 37.7521 40.6634 37.5825 40.833C37.4131 41.0025 37.3176 41.2323 37.3175 41.4719C37.3175 41.716 37.5255 44.0841 37.5889 44.3118C37.6308 44.4423 37.7128 44.5571 37.8232 44.6383C37.9336 44.7195 38.0678 44.7628 38.2048 44.7638C38.3428 44.7632 38.4771 44.7193 38.5889 44.6383C38.7008 44.5572 38.7848 44.443 38.8283 44.3118C38.9098 44.0663 39.1267 41.6979 39.1267 41.4719C39.1266 41.2322 39.0311 41.0025 38.8616 40.833C38.6921 40.6635 38.4624 40.5681 38.2227 40.568Z" fill="#001E60"/>
<path d="M41.7079 29.2643C41.8117 29.962 41.8117 30.3921 41.8117 31.3616C41.7523 32.6959 41.5674 33.0577 41.3069 33.9812H37.8527C38.2086 33.1994 38.4019 32.2636 38.402 31.231C38.402 30.4444 38.2769 29.989 38.046 29.2643H41.7079Z" fill="#4DBDF5"/>
<path d="M33.2368 13.2439C33.9779 13.1968 34.8036 13.5591 35.4071 13.9212C36.1938 14.3146 37.1121 14.8385 37.8988 15.363C39.4721 16.4119 40.9141 17.7235 42.2252 19.1657C43.5363 20.608 44.8472 21.9196 46.5517 22.9685C47.7316 23.624 48.9116 24.2794 50.2226 24.6727C50.4343 24.7257 50.6491 24.7678 50.8628 24.8033H5.90805C5.25251 24.8033 4.59697 24.2788 4.59692 23.4922C4.59692 22.7055 5.25249 22.1811 5.90805 22.1811H14.8235C18.7568 21.7877 22.2976 20.0835 25.4443 17.199C27.8436 15.0084 30.5127 13.6916 33.2368 13.2439Z" fill="#4DBDF5"/>
<path d="M29.9641 31.4901C29.9641 33.1946 30.3575 34.8991 31.0131 36.2102C31.5375 37.2591 33.1108 37.5213 33.8975 36.6035C34.422 36.079 34.6054 35.2851 34.2121 34.4984C33.8187 33.7117 33.5042 32.6701 33.5042 31.4901C33.5042 30.3101 33.6128 30.0479 33.7439 29.3923H30.1997C30.0686 30.0479 29.9641 30.8346 29.9641 31.4901Z" fill="#4DBDF5"/>
<path d="M67.0178 15.8878C65.8378 15.8878 64.6578 16.0189 63.8711 16.2811C63.8711 15.2322 62.8222 14.3145 61.5111 14.3145C60.2 14.3145 59.2821 15.1011 59.151 16.2811C58.3644 16.0189 57.3155 15.8878 56.1355 15.8878C53.3821 15.8878 51.1532 16.5434 51.1532 17.4612C51.1532 18.379 53.3821 19.0345 56.1355 19.0345C58.8888 19.0345 58.3644 19.0345 59.151 18.6412H63.74C64.6578 18.9034 65.7067 19.0345 67.0178 19.0345C69.7712 19.0345 72.0001 18.379 72.0001 17.4612C72.0001 16.5434 69.7712 15.8878 67.0178 15.8878Z" fill="#A9DDF7"/>
<path d="M16.2772 15.8878C15.0972 15.8878 13.9172 16.0189 13.1305 16.2811C13.1305 15.2322 12.0816 14.3145 10.7705 14.3145C9.45936 14.3145 8.54159 15.1011 8.41047 16.2811C7.6238 16.0189 6.57487 15.8878 5.39486 15.8878C2.6415 15.8878 0.412598 16.5434 0.412598 17.4612C0.412598 18.379 2.6415 19.0345 5.39486 19.0345C8.14823 19.0345 7.6238 18.9034 8.41047 18.6412H12.9994C13.9172 18.9034 14.9661 19.0345 16.2772 19.0345C19.0306 19.0345 21.2595 18.379 21.2595 17.4612C21.2595 16.5434 19.0306 15.8878 16.2772 15.8878Z" fill="#A9DDF7"/>
<path d="M30.2462 33.9815L30.3513 34.4027C29.0801 34.8997 27.9628 35.8104 27.2847 36.9968L22.1708 45.9122C20.7287 48.4033 21.2542 51.4192 23.2208 53.3859L27.2847 57.1887C28.4647 58.2375 29.9074 58.8928 31.4806 58.8929H27.9621C26.3888 58.8929 24.9462 58.2375 23.7662 57.1887L19.7022 53.3859C17.7355 51.4192 17.2101 48.4034 18.6523 45.9122L23.7662 36.9968C24.8151 35.1613 26.913 33.9815 29.0107 33.9815H30.2462Z" fill="#0053E2"/>
<path d="M14.9552 19.5591H6.56396V22.1813H14.9552V19.5591Z" fill="#0053E2"/>
<path d="M66.3503 22.1813H55.8613C52.059 21.788 48.3879 20.0835 45.2412 17.1991C41.57 13.7901 37.2433 12.479 33.0477 13.2657C33.8344 13.1346 34.7522 13.5279 35.4077 13.9212C36.1944 14.3146 37.1122 14.839 37.8989 15.3635C39.4722 16.4124 40.9144 17.7235 42.2256 19.1658C43.5367 20.608 44.8478 21.9191 46.5523 22.968C47.7323 23.6236 48.9123 24.2791 50.2234 24.6725C51.7968 25.0658 53.5013 24.9347 54.1568 24.9347H66.3503C67.0058 24.9347 67.6614 24.4102 67.6614 23.6236C67.6614 22.8369 67.0058 22.3124 66.3503 22.3124V22.1813Z" fill="#0053E2"/>
<path d="M65.8268 19.5591H57.4356V22.1813H65.8268V19.5591Z" fill="#0053E2"/>
<path d="M12.9916 18.6417H8.40261V19.5595H12.9916V18.6417Z" fill="#0053E2"/>
<path d="M63.8592 18.6417H59.2702V19.5595H63.8592V18.6417Z" fill="#0053E2"/>
<path fill-rule="evenodd" clip-rule="evenodd" d="M37.3177 41.4722C37.3177 41.2324 37.413 41.0024 37.5826 40.8328C37.7522 40.6632 37.9823 40.5679 38.2221 40.5679C38.462 40.5679 38.692 40.6632 38.8616 40.8328C39.0312 41.0024 39.1265 41.2324 39.1265 41.4722C39.1265 41.6983 38.9094 44.0678 38.828 44.312C38.7845 44.4432 38.7008 44.5574 38.5889 44.6386C38.4769 44.7197 38.3423 44.7636 38.204 44.7641C38.067 44.7631 37.9338 44.7188 37.8233 44.6376C37.7129 44.5564 37.6309 44.4425 37.5891 44.312C37.5258 44.0859 37.3177 41.7164 37.3177 41.4722ZM42.9972 44.7551C42.7982 44.8636 40.6368 45.8584 40.3926 45.9037C40.2576 45.9355 40.1159 45.9227 39.9887 45.8673C39.8616 45.8119 39.7558 45.7167 39.6872 45.5962C39.6183 45.4757 39.589 45.3367 39.6036 45.1987C39.6182 45.0607 39.676 44.9308 39.7686 44.8275C39.9314 44.6466 41.8758 43.2629 42.0747 43.1544C42.1787 43.0917 42.2942 43.0506 42.4144 43.0335C42.5346 43.0164 42.657 43.0237 42.7743 43.055C42.8916 43.0862 43.0014 43.1407 43.0972 43.2153C43.193 43.2898 43.2728 43.3829 43.3318 43.489C43.3983 43.5951 43.442 43.7138 43.4601 43.8377C43.4783 43.9615 43.4706 44.0878 43.4374 44.2085C43.4043 44.3293 43.3464 44.4418 43.2675 44.539C43.1886 44.6362 43.0904 44.7159 42.9791 44.7732L42.9972 44.7551ZM40.3926 46.9527C40.6368 46.9979 42.7982 47.9928 42.9972 48.1103C43.1033 48.1694 43.1963 48.2492 43.2709 48.3449C43.3455 48.4407 43.4 48.5506 43.4312 48.6679C43.4624 48.7852 43.4697 48.9076 43.4527 49.0277C43.4356 49.1479 43.3945 49.2634 43.3318 49.3674C43.2728 49.4735 43.193 49.5665 43.0972 49.6411C43.0014 49.7157 42.8916 49.7702 42.7743 49.8014C42.657 49.8327 42.5346 49.8399 42.4144 49.8229C42.2942 49.8058 42.1787 49.7647 42.0747 49.702C41.8758 49.5935 39.9314 48.2098 39.7686 48.0289C39.676 47.9256 39.6182 47.7957 39.6036 47.6577C39.589 47.5197 39.6183 47.3806 39.6872 47.2602C39.7574 47.1464 39.8613 47.0574 39.9845 47.0055C40.1077 46.9536 40.2441 46.9415 40.3745 46.9708L40.3926 46.9527ZM38.2221 48.1103C38.0851 48.1114 37.9518 48.1557 37.8414 48.2369C37.731 48.318 37.649 48.432 37.6071 48.5625C37.5257 48.8067 37.2997 51.1761 37.2997 51.4022C37.2997 51.6421 37.3949 51.8721 37.5645 52.0417C37.7341 52.2113 37.9642 52.3066 38.204 52.3066C38.4439 52.3066 38.6739 52.2113 38.8435 52.0417C39.0131 51.8721 39.1084 51.6421 39.1084 51.4022C39.1084 51.1761 38.8913 48.8067 38.81 48.5625C38.7685 48.4369 38.6903 48.3267 38.5855 48.2461C38.4807 48.1654 38.3541 48.1182 38.2221 48.1103ZM33.4742 48.1103C33.6641 47.9928 35.8346 46.9979 36.0788 46.9527C36.2138 46.9224 36.3549 46.9358 36.4817 46.9911C36.6086 47.0464 36.7145 47.1407 36.7842 47.2602C36.8518 47.381 36.8803 47.5198 36.8657 47.6575C36.8511 47.7952 36.7942 47.925 36.7028 48.0289C36.5309 48.2098 34.5865 49.5935 34.3966 49.702C34.2923 49.7661 34.1761 49.8084 34.0549 49.8263C33.9338 49.8442 33.8103 49.8372 33.6919 49.806C33.5735 49.7747 33.4627 49.7197 33.3662 49.6443C33.2697 49.5689 33.1895 49.4747 33.1305 49.3674C33.0711 49.2636 33.0328 49.1491 33.0179 49.0305C33.0031 48.9118 33.0118 48.7914 33.0438 48.6762C33.0758 48.561 33.1303 48.4532 33.2041 48.3592C33.278 48.2652 33.3698 48.1867 33.4742 48.1284V48.1103ZM34.3785 43.1544C34.2742 43.0902 34.158 43.048 34.0368 43.0301C33.9157 43.0122 33.7922 43.0191 33.6738 43.0504C33.5554 43.0817 33.4446 43.1367 33.3481 43.2121C33.2516 43.2875 33.1714 43.3817 33.1124 43.489C33.0486 43.5939 33.0069 43.7106 32.9897 43.8321C32.9724 43.9537 32.9801 44.0774 33.0123 44.1959C33.0444 44.3143 33.1004 44.425 33.1767 44.5211C33.253 44.6173 33.348 44.6969 33.4561 44.7551C33.646 44.8636 35.8165 45.8584 36.0607 45.9037C36.1957 45.934 36.3368 45.9206 36.4637 45.8653C36.5905 45.81 36.6964 45.7157 36.7661 45.5962C36.8337 45.4754 36.8622 45.3365 36.8476 45.1989C36.833 45.0612 36.7761 44.9314 36.6847 44.8275C36.5309 44.6647 34.6046 43.281 34.3966 43.1725L34.3785 43.1544Z" fill="white"/>
</g>
<defs>
<clipPath id="clip0_22949_27312">
<rect width="72" height="72" fill="white"/>
</clipPath>
</defs>
</svg>
