<svg width="72" height="72" viewBox="0 0 72 72" fill="none" xmlns="http://www.w3.org/2000/svg">
<g clip-path="url(#clip0_22949_27314)">
<path d="M42.3876 56.5716C38.4501 56.5716 35.2075 59.93 34.667 64.2921H17.3215C16.7811 59.93 13.5384 56.5716 9.60095 56.5716C5.66346 56.5716 2.42083 59.93 1.88039 64.2921H-0.126953C-0.126953 65.5145 0.683702 66.8656 1.88039 66.8656C1.88039 66.8914 4.17082 66.8656 4.17082 66.8656C4.68552 69.7866 6.92448 71.987 9.61381 71.987H11.8656C14.555 71.987 16.7939 69.7866 17.3086 66.8656H23.7553C24.27 69.7866 26.509 71.987 29.1983 71.987H31.4501C34.1394 71.987 36.3784 69.7866 36.8931 66.8656H36.9574C37.4722 69.7866 39.7111 71.987 42.4005 71.987H44.6523C47.3416 71.987 49.5806 69.7609 50.0953 66.8399H56.9794C57.4941 69.7609 59.7331 71.987 62.4224 71.987H64.6743C67.3636 71.987 69.6025 69.7866 70.1172 66.8656H70.7349C71.4169 66.8656 71.9702 66.3123 71.9702 65.6304V64.2921H50.1339C49.5934 59.93 46.3508 56.5716 42.4133 56.5716H42.3876Z" fill="#001E60"/>
<path d="M71.2625 57.8583C70.2073 57.8583 69.3581 57.0091 69.3581 55.9539V53.6506C69.3581 53.419 69.5511 53.226 69.7827 53.226H56.0787C56.3103 53.226 56.5033 53.419 56.5033 53.6506V56.2885C56.5033 57.1635 55.7956 57.8583 54.9335 57.8583H52.6045V60.2131C52.6045 61.0495 53.2736 61.7186 54.11 61.7186H71.9444V57.8583H71.2625ZM62.4996 57.3565C61.8434 57.3565 61.303 56.9962 61.303 56.5587C61.303 56.1212 61.8434 54.8344 62.4996 54.8344C63.1559 54.8344 63.6963 56.1212 63.6963 56.5587C63.6963 56.9962 63.1559 57.3565 62.4996 57.3565Z" fill="#001E60"/>
<path d="M30.1891 48.851H35.2332L33.792 46.2003C33.3803 45.454 32.5953 44.9907 31.7461 44.9907H30.1119C28.9795 44.9907 28.0788 45.9558 28.1946 47.1139C28.2847 48.1175 29.1854 48.851 30.202 48.851H30.1891Z" fill="#001E60"/>
<path d="M61.6772 34.6966H52.6185C51.9236 34.6966 51.3574 35.2628 51.3574 35.9577V38.84L55.1148 46.2646H61.6772C62.3721 46.2646 62.9383 45.6984 62.9383 45.0036V35.9448C62.9383 35.2499 62.3721 34.6838 61.6772 34.6838V34.6966Z" fill="#4DBDF5"/>
<path d="M65.3574 17.9688H62.7839C63.5559 17.9688 64.1864 18.5993 64.1736 19.3713V50.1506L66.7599 50.5752V19.3842C66.7599 18.6121 66.1294 17.9816 65.3574 17.9816V17.9688Z" fill="#4DBDF5"/>
<path d="M56.9414 66.8399H50.0701V71.9741L64.2116 71.9998L62.3844 71.9869C59.6951 71.9869 57.4561 69.7608 56.9414 66.8399Z" fill="#A9DDF7"/>
<path d="M56.5039 56.2756V53.6377C56.5039 53.4061 56.3109 53.2131 56.0793 53.2131H52.605V57.8455H54.934C55.809 57.8455 56.5039 57.1377 56.5039 56.2756Z" fill="#A9DDF7"/>
<path d="M69.7833 53.226C69.5516 53.226 69.3586 53.419 69.3586 53.6506V55.9539C69.3586 57.0091 70.2079 57.8583 71.263 57.8583H71.945V53.226H69.7833Z" fill="#A9DDF7"/>
<path d="M27.2044 34.6966H21.0151C20.7191 34.6966 20.4875 34.9282 20.4875 35.2242V48.3234C20.4875 48.6194 20.7191 48.851 21.0151 48.851H30.2025C29.1989 48.851 28.2981 48.1175 28.1952 47.1138C28.0794 45.9686 28.993 44.9907 30.1125 44.9907H31.7467C32.5959 44.9907 33.3808 45.4539 33.7926 46.2003L27.6676 34.9669C27.5776 34.7996 27.3974 34.6966 27.2044 34.6966Z" fill="#A9DDF7"/>
<path d="M8.4563 34.6966C7.58131 34.6966 6.80925 35.2371 6.50042 36.0477L1.97104 48.1304C1.84237 48.4778 2.09972 48.851 2.47288 48.851H18.0298C18.3258 48.851 18.5574 48.6194 18.5574 48.3234V35.2242C18.5574 34.9282 18.3258 34.6966 18.0298 34.6966H8.4563Z" fill="#A9DDF7"/>
<path d="M29.9066 35.4816L35.1308 45.0679L33.7668 42.5716L41.6418 34.6966H30.3698C29.9709 34.6966 29.7136 35.1213 29.9066 35.4816Z" fill="#A9DDF7"/>
<path d="M37.8073 48.851H38.4507C38.0003 48.851 37.5628 48.7609 37.151 48.6065C37.3312 48.7609 37.5628 48.851 37.8073 48.851Z" fill="#A9DDF7"/>
<path d="M62.8219 17.9688H51.4727C50.7006 17.9688 50.0701 18.5993 50.0701 19.3456V36.318L51.3569 38.8529V35.9705C51.3569 35.2757 51.923 34.7095 52.6179 34.7095H61.6767C62.3715 34.7095 62.9377 35.2757 62.9377 35.9705V45.0293C62.9377 45.7242 62.3715 46.2903 61.6767 46.2903H55.1142L49.2595 34.7095L53.6859 43.4595L48.2815 48.8639H56.4138L64.2245 50.1635V19.3842C64.2245 18.6121 63.5939 17.9816 62.8219 17.9816V17.9688ZM61.8826 24.8658L55.8477 31.9944C55.5774 32.3161 55.0756 32.0073 55.2171 31.6213L56.9671 27.0919H53.0168C52.6951 27.0919 52.4892 26.7316 52.6565 26.4614L55.9506 20.8768C56.0664 20.6838 56.2852 20.5551 56.5168 20.5551H59.8237C60.1197 20.5551 60.3127 20.8768 60.1583 21.147L58.3182 24.261H61.5995C61.9212 24.261 62.0884 24.6342 61.8697 24.8786L61.8826 24.8658Z" fill="#A9DDF7"/>
<path d="M61.3072 56.5581C61.3072 56.9956 61.8476 57.3559 62.5038 57.3559C63.1601 57.3559 63.7005 56.9956 63.7005 56.5581C63.7005 56.1206 63.1601 54.8338 62.5038 54.8338C61.8476 54.8338 61.3072 56.1206 61.3072 56.5581Z" fill="#0053E2"/>
<path d="M9.61801 61.718C7.76508 61.718 6.27245 63.4423 6.27245 65.5783C6.27245 67.7143 7.76508 69.4386 9.61801 69.4386C11.4709 69.4386 12.9636 67.7143 12.9636 65.5783C12.9636 63.4423 11.4709 61.718 9.61801 61.718Z" fill="#0053E2"/>
<path d="M52.6473 35.9571C52.6473 35.2623 53.2134 34.6961 53.9083 34.6961H52.6215C51.9267 34.6961 51.3605 35.2623 51.3605 35.9571V38.8394L52.6473 41.3872V35.9571Z" fill="#0053E2"/>
<path d="M71.9486 52.685C71.9486 51.9515 71.4211 51.3339 70.7005 51.2181L56.4175 48.8504H37.8109C37.6951 48.8504 37.5793 48.8247 37.4764 48.7861C37.4764 48.7861 37.4764 48.7861 37.4635 48.7861C37.2319 48.696 37.0389 48.5416 36.923 48.3228L29.9231 35.481C29.7301 35.1336 29.9874 34.6961 30.3863 34.6961H49.276C48.9157 33.9755 48.6454 33.4479 48.6068 33.3579C48.594 33.3321 48.5682 33.2678 48.5168 33.2034C48.491 33.1777 48.4653 33.1391 48.4396 33.1134C48.2337 32.8946 47.9506 32.7788 47.6546 32.7788H7.90664C6.56841 32.7788 5.37172 33.6152 4.90848 34.8634L-0.0712891 48.8633V64.3044H1.93607C2.47651 59.9423 5.71915 56.5839 9.65663 56.5839C13.5941 56.5839 16.8367 59.9423 17.3772 64.3044H34.7227C35.2631 59.9423 38.5058 56.5839 42.4433 56.5839C46.3807 56.5839 49.6234 59.9423 50.1638 64.3044H72.0001V61.7309H54.1656C53.3292 61.7309 52.6601 61.0618 52.6601 60.2254V53.8688C52.6601 53.5214 52.8789 53.2383 53.1491 53.2383H72.0001V52.6979L71.9486 52.685ZM18.5481 48.3228C18.5481 48.6188 18.3165 48.8504 18.0206 48.8504H2.46363C2.09047 48.8504 1.83312 48.4773 1.96179 48.1298L6.49119 36.0472C6.80002 35.2365 7.57208 34.6961 8.44707 34.6961H18.0077C18.3036 34.6961 18.5353 34.9277 18.5353 35.2236V48.3228H18.5481ZM30.1933 48.8504H21.0058C20.7099 48.8504 20.4783 48.6188 20.4783 48.3228V35.2236C20.4783 34.9277 20.7099 34.6961 21.0058 34.6961H27.1952C27.3882 34.6961 27.5683 34.799 27.6584 34.9663L33.7834 46.1997C33.5089 45.7022 33.5089 45.7022 33.7834 46.1997L35.2245 48.8504H30.1804H30.1933Z" fill="#0053E2"/>
<path d="M42.3898 69.4389C44.2375 69.4389 45.7353 67.7106 45.7353 65.5786C45.7353 63.4466 44.2375 61.7183 42.3898 61.7183C40.542 61.7183 39.0442 63.4466 39.0442 65.5786C39.0442 67.7106 40.542 69.4389 42.3898 69.4389Z" fill="#0053E2"/>
<path d="M48.8356 53.2257C48.1665 53.2257 47.6775 53.8691 47.8577 54.5125L48.3724 56.3654C48.6169 57.2404 49.4146 57.8452 50.3282 57.8452H53.2621V53.2129H48.8356V53.2257Z" fill="white"/>
<path d="M61.6139 24.2484H58.3326L60.1727 21.1344C60.3271 20.8771 60.1341 20.5425 59.8381 20.5425H56.5312C56.2995 20.5425 56.0808 20.6712 55.965 20.8642L52.6709 26.4487C52.5036 26.7318 52.7095 27.0792 53.0312 27.0792H56.9815L55.2315 31.6086C55.0771 31.9946 55.5918 32.2906 55.862 31.9818L61.8969 24.8531C62.1157 24.6086 61.9356 24.2355 61.6267 24.2355L61.6139 24.2484Z" fill="white"/>
<path d="M41.6562 34.6968L33.7812 42.5718L36.9209 48.3236C36.9853 48.4394 37.0753 48.5295 37.1654 48.6067C37.5772 48.7611 38.0147 48.8512 38.4651 48.8512H48.2959L53.7003 43.4468L49.2738 34.6968H41.6562Z" fill="white"/>
</g>
<defs>
<clipPath id="clip0_22949_27314">
<rect width="72" height="72" fill="white"/>
</clipPath>
</defs>
</svg>
