<svg width="72" height="72" viewBox="0 0 72 72" fill="none" xmlns="http://www.w3.org/2000/svg">
<g clip-path="url(#clip0_22949_27326)">
<path d="M58.5275 -0.0161133C60.5691 -0.0161133 62.2261 1.64229 62.2261 3.68389V68.1558C64.3564 68.1558 66.0878 69.8873 66.0879 72.0177H58.3643C58.3642 69.8875 56.6341 68.156 54.5039 68.1558H54.5328V3.68389C54.5328 1.76998 53.0769 0.19375 51.2127 0.00411321L50.8342 -0.0161133H58.5275Z" fill="#001E60"/>
<path d="M29.5277 18.3109V6.04644C29.5277 4.81852 30.5337 3.81252 31.7616 3.81252H29.7052C28.4773 3.81252 27.4713 4.81852 27.4713 6.04644V18.3109C27.4713 19.5388 28.4773 20.5448 29.7052 20.5448H31.6729C30.4449 20.5448 29.5425 19.5536 29.5425 18.3109H29.5277Z" fill="#001E60"/>
<path d="M12.1727 10.9019L15.2645 14.5701C15.8709 15.2949 16.2108 16.2124 16.2108 17.1591V26.495C16.2104 27.4858 15.3971 28.2993 14.4063 28.2995H11.0646V25.9172H7.20278V28.2071C6.46046 27.983 5.91406 27.2911 5.91406 26.4792V14.4964C5.91406 13.4165 6.29913 12.3812 7.00918 11.5823L9.59817 8.48913L12.1727 10.9019Z" fill="#001E60"/>
<path d="M54.5437 28.2838H23.6213V30.8579H54.5437V28.2838Z" fill="#4DBDF5"/>
<path d="M16.4229 0.27832L9.6027 8.47434L11.7627 10.5159L18.6568 2.27555L16.4229 0.27832Z" fill="#4DBDF5"/>
<path d="M23.6559 29.6902L22.1303 31.3921C20.8137 32.6496 20.0745 34.5728 20.0744 36.6438V53.9245C20.0741 57.4748 17.1885 60.3594 13.638 60.3594V60.3738C10.0878 60.3735 7.20324 57.4892 7.20312 53.9389V27.2659H11.0649V53.9389C11.0651 55.3589 12.2181 56.5131 13.638 56.5134C15.0582 56.5134 16.2125 55.3591 16.2126 53.9389V36.6597C16.2126 33.5677 17.3816 30.6674 19.4084 28.6702L23.6111 23.9705L23.6559 29.6902Z" fill="#4DBDF5"/>
<path d="M48.4469 3.84424H30.5015C29.2736 3.84424 28.2676 4.85024 28.2676 6.07816V18.3426C28.2676 19.5705 29.17 20.5765 30.398 20.5765H48.4469C49.6749 20.3398 50.6809 19.3338 50.6809 18.1059V6.07816C50.6809 4.85024 49.6749 3.84424 48.4469 3.84424Z" fill="#A9DDF7"/>
<path d="M11.0644 25.9201H7.20312V27.2666H11.0644V25.9201Z" fill="#0053E2"/>
<path d="M62.2069 28.2847H54.5286V30.8588H62.2069V28.2847Z" fill="#0053E2"/>
<path fill-rule="evenodd" clip-rule="evenodd" d="M23.6169 30.8582H54.536V68.1544H54.5071C56.6373 68.1546 58.3674 69.886 58.3675 72.0162H19.7551C19.7552 69.8859 21.4866 68.1544 23.6169 68.1544V30.8582ZM34.8325 43.8176C33.8117 45.8296 34.1955 48.2863 35.7933 49.8841C37.8349 51.9255 41.1344 51.9256 43.1759 49.8841H43.1615C44.7592 48.2863 45.1578 45.8296 44.1223 43.8176L39.4774 34.7055L34.8325 43.8176Z" fill="#0053E2"/>
<path fill-rule="evenodd" clip-rule="evenodd" d="M50.8375 -0.0175781C52.8791 -0.0175781 54.536 1.64082 54.536 3.68243V28.2851H23.6169V3.68243C23.6169 1.64082 25.2739 -0.0175781 27.3155 -0.0175781H50.8375ZM29.7037 3.82979C28.4759 3.82999 27.4701 4.83557 27.4701 6.06337V18.3279C27.4703 19.5554 28.4761 20.5612 29.7037 20.5614H30.1241C30.2042 20.5704 30.2864 20.5759 30.3697 20.5759H48.4175C49.6454 20.3392 50.6525 19.3333 50.6525 18.1054V6.07782C50.6523 4.85005 49.6453 3.84424 48.4175 3.84424H31.5139C31.595 3.83522 31.6777 3.82979 31.761 3.82979H29.7037Z" fill="#0053E2"/>
<path d="M43.1693 49.8835C41.1277 51.9251 37.8286 51.9251 35.787 49.8835C34.1892 48.2857 33.8046 45.8299 34.8254 43.8178L39.4708 34.7046L44.1162 43.8178C45.1518 45.8299 44.7524 48.2857 43.1546 49.8835H43.1693Z" fill="white"/>
</g>
<defs>
<clipPath id="clip0_22949_27326">
<rect width="72" height="72" fill="white"/>
</clipPath>
</defs>
</svg>
