<svg width="64" height="64" viewBox="0 0 64 64" fill="none" xmlns="http://www.w3.org/2000/svg">
<g clip-path="url(#clip0_16411_295017)">
<path d="M31.9777 63.9554C49.6385 63.9554 63.9554 49.6385 63.9554 31.9777C63.9554 14.3169 49.6385 0 31.9777 0C14.3169 0 0 14.3169 0 31.9777C0 49.6385 14.3169 63.9554 31.9777 63.9554Z" fill="#D3EFF8"/>
<path d="M52.2761 38.4926H11.6699V43.8545H52.2761V38.4926Z" fill="#6BC4E8"/>
<path d="M11.6699 29.3725C11.6699 28.2961 12.1344 27.272 12.9441 26.5627L15.7968 24.064H31.973H48.1493L51.002 26.5627C51.8117 27.272 52.2761 28.2961 52.2761 29.3725V38.5231H11.6699V29.3725Z" fill="#0047BA"/>
<path d="M52.2761 43.825H11.6699V46.777H52.2761V43.825Z" fill="#001F60"/>
<path d="M11.6699 46.7775H20.3756V50.2115C20.3756 51.2763 19.5125 52.1394 18.4477 52.1394H13.5979C12.5331 52.1394 11.6699 51.2763 11.6699 50.2115V46.7775Z" fill="#001F60"/>
<path d="M43.5703 46.7775H52.2759V50.2115C52.2759 51.2763 51.4128 52.1394 50.348 52.1394H45.4982C44.4335 52.1394 43.5703 51.2763 43.5703 50.2115V46.7775Z" fill="#001F60"/>
<path d="M11.6699 31.535H14.9232C16.5204 31.535 17.8151 32.8297 17.8151 34.4268V37.0174H11.6699V31.535Z" fill="#E60900"/>
<path d="M52.276 31.535H49.0227C47.4256 31.535 46.1309 32.8297 46.1309 34.4268V37.0174H52.276V31.535Z" fill="#E60900"/>
<path d="M17.8151 37.0175H11.6699V38.5236H17.8151V37.0175Z" fill="white"/>
<path d="M52.276 37.0175H46.1309V38.5236H52.276V37.0175Z" fill="white"/>
<path d="M15.7051 16.6633C15.7051 16.2594 15.7896 15.86 15.9534 15.4908L19.0844 8.43184C19.548 7.38647 20.5843 6.71252 21.7278 6.71252H31.821H41.9142C43.0577 6.71252 44.0939 7.38646 44.5576 8.43184L47.6886 15.4908C47.8523 15.86 47.937 16.2594 47.937 16.6633V24.0636H15.7051V16.6633Z" fill="#6BC4E8"/>
<path d="M17.2148 16.6292C17.2148 16.2474 17.2905 15.8694 17.4374 15.517L19.1091 11.5045C19.5582 10.4269 20.6111 9.72498 21.7785 9.72498H31.8247H41.953C43.0786 9.72498 44.1019 10.3781 44.5759 11.399L46.4668 15.4716C46.6439 15.8532 46.7357 16.2688 46.7357 16.6894V24.0636H17.2148V16.6292Z" fill="#001F60"/>
<path d="M44.9855 24.064H18.959V37.0169H44.9855V24.064Z" fill="#001F60"/>
<path d="M18.9609 18.7618C18.9609 17.1647 20.2556 15.87 21.8527 15.87H42.0956C43.6927 15.87 44.9874 17.1647 44.9874 18.7618V24.0635H18.9609V18.7618Z" fill="#BFDFEC"/>
<path d="M30.1055 20.0484C30.1055 19.9842 30.1181 19.9208 30.1426 19.8615C30.1671 19.8022 30.2031 19.7484 30.2485 19.7031C30.2939 19.6577 30.3477 19.6217 30.4069 19.5972C30.4662 19.5727 30.5297 19.5601 30.5938 19.5601H32.0588C32.1882 19.5601 32.3125 19.6115 32.4041 19.7031C32.4956 19.7946 32.5471 19.9188 32.5471 20.0484V20.8622H30.1055V20.0484Z" fill="#F58220"/>
<path d="M30.1055 20.0484C30.1055 19.9842 30.1181 19.9208 30.1426 19.8615C30.1671 19.8022 30.2031 19.7484 30.2485 19.7031C30.2939 19.6577 30.3477 19.6217 30.4069 19.5972C30.4662 19.5727 30.5297 19.5601 30.5938 19.5601H32.0588V20.8622H30.1055V20.0484Z" fill="#FFB71B"/>
<path d="M32.7125 20.8625H29.9453V21.1882H32.7125V20.8625Z" fill="#F58220"/>
<path fill-rule="evenodd" clip-rule="evenodd" d="M32.5491 21.1875H30.1075L29.9447 21.8387L29.8566 22.05C29.3775 23.1999 29.1308 24.4334 29.1309 25.6792C29.1322 26.6976 29.2971 27.7092 29.6192 28.6753H34.6651L34.9195 27.912C35.0745 27.4473 35.1535 26.9606 35.1535 26.4708V25.9593C35.1535 25.2599 34.9925 24.5699 34.683 23.9426C34.3736 23.3155 33.924 22.7678 33.3688 22.3423L32.7119 21.8387L32.5491 21.1875ZM33.6268 23.4822C33.5446 23.4122 33.4381 23.3777 33.3305 23.3863C33.2229 23.395 33.1232 23.446 33.0532 23.5281C32.9832 23.6103 32.9488 23.7168 32.9574 23.8244C32.966 23.932 33.017 24.0317 33.0991 24.1017C33.3791 24.3402 33.6072 24.8201 33.6072 25.4197C33.6072 25.4731 33.6177 25.526 33.6381 25.5754C33.6586 25.6248 33.6885 25.6697 33.7263 25.7074C33.7641 25.7452 33.809 25.7752 33.8583 25.7957C33.9077 25.8161 33.9607 25.8266 34.0141 25.8266C34.0675 25.8266 34.1205 25.8161 34.1698 25.7957C34.2191 25.7752 34.264 25.7452 34.3019 25.7074C34.3396 25.6697 34.3695 25.6248 34.39 25.5754C34.4105 25.526 34.421 25.4731 34.421 25.4197C34.421 24.6377 34.1271 23.9083 33.6268 23.4822Z" fill="white"/>
<path d="M31.6505 26.5592C32.3247 26.5592 32.8713 26.0126 32.8713 25.3384C32.8713 24.6642 32.3247 24.1176 31.6505 24.1176C30.9762 24.1176 30.4297 24.6642 30.4297 25.3384C30.4297 26.0126 30.9762 26.5592 31.6505 26.5592Z" fill="#FFB71B"/>
<mask id="mask0_16411_295017" style="mask-type:luminance" maskUnits="userSpaceOnUse" x="33" y="22" width="5" height="8">
<path d="M37.5639 22.5663H33.8301V29.5673H37.5639V22.5663Z" fill="white"/>
</mask>
<g mask="url(#mask0_16411_295017)">
<path fill-rule="evenodd" clip-rule="evenodd" d="M35.5395 23.4448C35.5395 23.4167 35.5212 23.3922 35.4954 23.381C35.3376 23.3124 35.2283 23.165 35.2283 22.9941C35.2283 22.7579 35.4373 22.5663 35.6951 22.5663C35.9529 22.5663 36.1618 22.7579 36.1618 22.9941C36.1618 23.1326 36.0901 23.2557 35.9788 23.3339C35.9491 23.3548 35.9285 23.3875 35.9285 23.4239C35.9285 23.4741 35.9665 23.516 36.0161 23.5234C36.6347 23.6161 37.0953 23.9709 37.0953 24.3943C37.0953 24.8884 36.4684 25.2889 35.6951 25.2889C34.9218 25.2889 34.2949 24.8884 34.2949 24.3943C34.2949 23.9471 34.8084 23.5768 35.4793 23.5104C35.4957 23.5089 35.5109 23.5013 35.522 23.4892C35.5332 23.4771 35.5394 23.4612 35.5395 23.4448Z" fill="#F58220"/>
<path fill-rule="evenodd" clip-rule="evenodd" d="M35.2283 23.0328C35.2283 23.1862 35.3083 23.3189 35.4244 23.3821C35.4463 23.394 35.4617 23.4159 35.4617 23.4407C35.4616 23.4566 35.4554 23.4718 35.4444 23.4832C35.4334 23.4947 35.4185 23.5015 35.4027 23.5022C34.7825 23.5376 34.2949 23.906 34.2949 24.3551C34.2949 24.8277 34.8346 25.2108 35.5006 25.2108C36.1666 25.2108 36.7064 24.8277 36.7064 24.3551C36.7064 23.9752 36.3575 23.6531 35.8747 23.5415C35.8164 23.528 35.7729 23.4775 35.7729 23.4177C35.7729 23.379 35.7921 23.3435 35.8188 23.3155C35.8863 23.2446 35.9285 23.1442 35.9285 23.0328C35.9285 22.818 35.7717 22.6438 35.5784 22.6438C35.3851 22.6438 35.2283 22.8181 35.2283 23.0328Z" fill="#FFB71B"/>
<path d="M37.4071 25.3663V28.9446C37.4071 29.1097 37.3415 29.2679 37.2248 29.3846C37.1081 29.5014 36.9498 29.5669 36.7847 29.5669H34.6066C34.4416 29.5669 34.2833 29.5014 34.1667 29.3846C34.0499 29.2679 33.9844 29.1097 33.9844 28.9446V25.3663H37.4071Z" fill="#BFDFEC"/>
<path d="M37.0959 25.3663V28.9446C37.0959 29.1097 37.0304 29.2679 36.9136 29.3846C36.7969 29.5014 36.6386 29.5669 36.4736 29.5669H34.6066C34.4416 29.5669 34.2833 29.5014 34.1667 29.3846C34.0499 29.2679 33.9844 29.1097 33.9844 28.9446V25.3663H37.0959Z" fill="white"/>
<path d="M37.3306 24.5888C37.3925 24.5888 37.4518 24.6134 37.4956 24.6571C37.5393 24.7009 37.5639 24.7602 37.5639 24.8221V25.1333C37.5639 25.1639 37.5579 25.1943 37.5462 25.2226C37.5345 25.2509 37.5173 25.2766 37.4956 25.2983C37.4739 25.32 37.4482 25.3372 37.4199 25.3489C37.3916 25.3606 37.3612 25.3667 37.3306 25.3667H34.0634C34.0015 25.3667 33.9422 25.3421 33.8984 25.2983C33.8546 25.2546 33.8301 25.1951 33.8301 25.1333V24.822C33.8301 24.7601 33.8546 24.7007 33.8984 24.657C33.9422 24.6132 34.0015 24.5886 34.0634 24.5886L37.3306 24.5888Z" fill="#001F60"/>
<path d="M37.1737 24.2777C37.2356 24.2777 37.2949 24.3024 37.3387 24.3462C37.3825 24.3899 37.4071 24.4493 37.4071 24.5112V24.8221C37.4071 24.8528 37.401 24.8831 37.3893 24.9115C37.3776 24.9397 37.3604 24.9655 37.3387 24.9872C37.317 25.0088 37.2913 25.026 37.263 25.0377C37.2346 25.0495 37.2044 25.0555 37.1737 25.0555H34.2177C34.1558 25.0555 34.0965 25.0309 34.0527 24.9871C34.0089 24.9434 33.9844 24.884 33.9844 24.8221V24.511C33.9844 24.4491 34.0089 24.3898 34.0527 24.346C34.0965 24.3022 34.1558 24.2777 34.2177 24.2776L37.1737 24.2777Z" fill="#001F60"/>
<path d="M37.4107 26.6113H36.166V26.9225H37.4107V26.6113Z" fill="#0047BA"/>
<path d="M37.4107 27.3113H36.166V27.6224H37.4107V27.3113Z" fill="#0047BA"/>
<path d="M37.4107 28.0112H36.166V28.3224H37.4107V28.0112Z" fill="#0047BA"/>
<path d="M37.0959 25.3663H33.9844V25.6775H37.0959V25.3663Z" fill="#BFDFEC"/>
<path d="M36.9416 24.5888C37.0035 24.5888 37.0628 24.6134 37.1066 24.6571C37.1504 24.7009 37.175 24.7602 37.175 24.8221V25.1333C37.175 25.1639 37.1689 25.1943 37.1572 25.2226C37.1455 25.2509 37.1283 25.2766 37.1067 25.2983C37.085 25.32 37.0592 25.3372 37.031 25.3489C37.0026 25.3606 36.9723 25.3667 36.9416 25.3667H34.0634C34.0015 25.3667 33.9422 25.3421 33.8984 25.2983C33.8546 25.2546 33.8301 25.1951 33.8301 25.1333V24.822C33.8301 24.7601 33.8546 24.7007 33.8984 24.657C33.9422 24.6132 34.0015 24.5886 34.0634 24.5886L36.9416 24.5888Z" fill="#6BC4E8"/>
<path d="M36.7847 24.2777C36.8466 24.2777 36.906 24.3024 36.9497 24.3462C36.9935 24.3899 37.0181 24.4493 37.0181 24.5112V24.8221C37.0182 24.8528 37.012 24.8831 37.0003 24.9115C36.9886 24.9397 36.9714 24.9655 36.9497 24.9872C36.9281 25.0088 36.9024 25.026 36.8741 25.0377C36.8457 25.0495 36.8154 25.0555 36.7847 25.0555H34.2177C34.1558 25.0555 34.0965 25.0309 34.0527 24.9871C34.0089 24.9434 33.9844 24.884 33.9844 24.8221V24.511C33.9844 24.4491 34.0089 24.3898 34.0527 24.346C34.0965 24.3022 34.1558 24.2777 34.2177 24.2776L36.7847 24.2777Z" fill="#6BC4E8"/>
<path d="M37.4069 26.6113H37.0957V26.9225H37.4069V26.6113Z" fill="#001F60"/>
<path d="M37.4069 27.3113H37.0957V27.6224H37.4069V27.3113Z" fill="#001F60"/>
<path d="M37.4069 28.0112H37.0957V28.3224H37.4069V28.0112Z" fill="#001F60"/>
</g>
<path d="M25.9004 26.1212H38.3591V35.5712C38.3591 36.3697 37.7117 37.0171 36.9132 37.0171H27.3463C26.5478 37.0171 25.9004 36.3697 25.9004 35.5712V26.1212Z" fill="#0047BA"/>
<path d="M33.1713 31.1064C33.291 31.0818 34.3489 30.597 34.4431 30.5423C34.4943 30.5127 34.5392 30.4733 34.5752 30.4263C34.6113 30.3794 34.6377 30.3258 34.6531 30.2686C34.6683 30.2115 34.6723 30.1518 34.6645 30.0931C34.6568 30.0345 34.6376 29.9779 34.608 29.9267C34.5785 29.8754 34.539 29.8305 34.4921 29.7944C34.4452 29.7585 34.3915 29.732 34.3344 29.7167C34.2773 29.7014 34.2176 29.6974 34.1589 29.7051C34.1003 29.7129 34.0437 29.7321 33.9924 29.7617C33.8979 29.8162 32.9492 30.49 32.8682 30.5812C32.8227 30.6311 32.7942 30.6941 32.787 30.7613C32.7797 30.8283 32.794 30.896 32.8277 30.9545C32.8615 31.0129 32.9129 31.0591 32.9747 31.0864C33.0364 31.1136 33.1053 31.1205 33.1712 31.1061L33.1713 31.1064Z" fill="#FFC220"/>
<path d="M34.4431 32.1803C34.3487 32.1258 33.2908 31.641 33.1713 31.6161C33.1054 31.6017 33.0365 31.6086 32.9748 31.6359C32.9129 31.6631 32.8615 31.7094 32.8277 31.7679C32.7939 31.8264 32.7797 31.8941 32.787 31.9614C32.7943 32.0285 32.8229 32.0915 32.8685 32.1414C32.9496 32.2326 33.8982 32.9063 33.9927 32.9609C34.0963 33.0207 34.2193 33.0368 34.3347 33.0059C34.4501 32.975 34.5486 32.8994 34.6083 32.7959C34.6681 32.6924 34.6843 32.5694 34.6533 32.4539C34.6224 32.3385 34.5468 32.2401 34.4433 32.1803H34.4431Z" fill="#FFC220"/>
<path d="M32.1207 32.1737C32.0532 32.1739 31.9876 32.1955 31.9331 32.2353C31.8787 32.2751 31.8382 32.3311 31.8175 32.3953C31.7793 32.5111 31.6699 33.6696 31.6699 33.7786C31.6699 33.8982 31.7174 34.0128 31.8019 34.0973C31.8864 34.1818 32.0011 34.2293 32.1207 34.2293C32.2401 34.2293 32.3548 34.1818 32.4394 34.0973C32.5238 34.0128 32.5714 33.8982 32.5714 33.7786C32.5714 33.6696 32.4622 32.5111 32.4237 32.3953C32.403 32.3311 32.3625 32.2751 32.3081 32.2353C32.2537 32.1955 32.188 32.1739 32.1207 32.1737Z" fill="#FFC220"/>
<path d="M31.0762 31.6158C30.9566 31.6404 29.8987 32.1252 29.8046 32.18C29.7525 32.2091 29.7068 32.2484 29.67 32.2953C29.6332 32.3423 29.6061 32.3961 29.5903 32.4537C29.5745 32.5113 29.5703 32.5713 29.5779 32.6305C29.5855 32.6897 29.6048 32.7468 29.6346 32.7985C29.6645 32.8501 29.7042 32.8954 29.7517 32.9316C29.7991 32.9678 29.8533 32.9941 29.9111 33.0092C29.9688 33.0243 30.029 33.0278 30.0881 33.0194C30.1472 33.0111 30.204 32.991 30.2553 32.9606C30.3497 32.906 31.2984 32.2322 31.3795 32.141C31.4249 32.0911 31.4533 32.0281 31.4606 31.961C31.4678 31.8939 31.4535 31.8262 31.4198 31.7679C31.386 31.7094 31.3346 31.6632 31.2728 31.6359C31.2111 31.6086 31.1423 31.6017 31.0764 31.6161L31.0762 31.6158Z" fill="#FFC220"/>
<path d="M30.2553 29.762C30.204 29.7315 30.1472 29.7115 30.0881 29.7032C30.029 29.6948 29.9688 29.6983 29.9111 29.7134C29.8533 29.7284 29.7992 29.7548 29.7517 29.7909C29.7042 29.8272 29.6645 29.8724 29.6346 29.9241C29.6048 29.9757 29.5855 30.0328 29.5779 30.092C29.5703 30.1512 29.5745 30.2113 29.5903 30.2689C29.6062 30.3264 29.6332 30.3802 29.67 30.4272C29.7068 30.4742 29.7525 30.5134 29.8046 30.5426C29.8989 30.5971 30.9568 31.0819 31.0762 31.1068C31.1422 31.1211 31.2109 31.1142 31.2727 31.0869C31.3344 31.0596 31.3858 31.0134 31.4196 30.955C31.4533 30.8966 31.4676 30.8289 31.4604 30.7619C31.4531 30.6947 31.4247 30.6317 31.3793 30.5818C31.2984 30.4903 30.3497 29.8166 30.2553 29.762Z" fill="#FFC220"/>
<path d="M32.1205 28.4926C32.001 28.4926 31.8863 28.5401 31.8019 28.6246C31.7174 28.7091 31.6699 28.8237 31.6699 28.9433C31.6699 29.0523 31.7791 30.2108 31.8175 30.3266C31.838 30.391 31.8784 30.4471 31.9329 30.4869C31.9874 30.5267 32.0531 30.5482 32.1206 30.5482C32.1881 30.5482 32.2539 30.5267 32.3083 30.4869C32.3628 30.4471 32.4032 30.391 32.4237 30.3266C32.4619 30.2108 32.5713 29.0523 32.5713 28.9433C32.5714 28.8841 32.5597 28.8255 32.537 28.7707C32.5144 28.716 32.4812 28.6663 32.4393 28.6245C32.3974 28.5827 32.3477 28.5494 32.2931 28.5268C32.2384 28.5042 32.1798 28.4926 32.1205 28.4926Z" fill="#FFC220"/>
<path fill-rule="evenodd" clip-rule="evenodd" d="M26.255 22.8785C26.4362 22.8351 26.6466 22.8193 26.8133 22.7234C26.936 22.6541 27.0586 22.5751 27.1812 22.496C27.2645 22.448 27.3138 22.3777 27.1965 22.3353C27.1086 22.3011 26.9666 22.3521 26.8686 22.3669C26.7658 22.3868 26.6922 22.4343 26.604 22.4874C26.5157 22.5404 26.4421 22.5975 26.3635 22.6694C26.2899 22.7266 26.1673 22.7959 26.255 22.8785Z" fill="#333333"/>
<path d="M26.8267 26.1209H28.1348C28.1552 26.0615 28.1739 26.003 28.1903 25.9471C28.2767 25.6574 28.3838 25.2805 28.3682 24.9805C28.3591 24.7812 28.1986 24.3468 28.0923 24.1754C27.7965 23.7001 27.5356 23.4513 27.1719 23.1047C27.1133 23.0487 27.052 22.9903 26.9874 22.9279C26.9723 22.9137 26.9547 22.8943 26.9353 22.8732C26.879 22.8113 26.8091 22.7346 26.7521 22.7327C26.6715 22.7281 26.1439 22.8707 26.1545 22.9632C26.1582 23.0147 26.2717 23.0846 26.3602 23.1391C26.3995 23.1633 26.4338 23.1844 26.4514 23.1996C26.5662 23.2983 26.6115 23.3519 26.6894 23.4936C26.9505 23.9785 27.1191 24.4632 27.1136 25.0397C27.1083 25.4045 26.9921 25.7782 26.8267 26.1209Z" fill="#F9E741"/>
<path d="M29.3396 26.1206C29.4881 25.578 29.526 25.0201 29.4072 24.5167C29.228 23.7495 28.9449 23.3251 28.1643 23.174C27.8179 23.1076 27.5969 23.0068 27.5203 22.6451C27.5093 22.5922 27.507 22.5493 27.5054 22.5179C27.501 22.4337 27.0856 22.4317 26.9315 22.5373C26.7178 22.6864 26.751 22.7545 26.8966 22.9353C27.0179 23.0873 27.1493 23.2287 27.2801 23.3694C27.5993 23.7129 27.9147 24.0522 28.0718 24.5315C28.2324 25.0198 28.1676 25.6129 27.9854 26.1206H29.3396Z" fill="#FFCD00"/>
</g>
<defs>
<clipPath id="clip0_16411_295017">
<rect width="64" height="64" fill="white"/>
</clipPath>
</defs>
</svg>
