<svg width="72" height="72" viewBox="0 0 72 72" fill="none" xmlns="http://www.w3.org/2000/svg">
<g clip-path="url(#clip0_22949_27322)">
<path d="M37.0374 12.5393C36.9473 11.0464 36.4196 9.66933 35.5445 8.56255C34.9911 9.64359 34.6436 10.8533 34.5407 12.1274C35.4158 12.1274 36.2523 12.2819 37.0374 12.5393Z" fill="#001E60"/>
<path d="M35.1097 20.9174C34.7237 20.66 34.2603 20.5055 33.7584 20.5055C33.2565 20.5055 32.7546 20.6728 32.3557 20.956C31.7251 18.5236 30.0391 16.5932 27.7098 16.0784C26.9633 15.9111 26.2298 15.9111 25.4962 16.0398C25.5863 16.0527 25.6892 16.0527 25.7793 16.0784C28.3018 16.7476 29.9619 19.6947 29.9619 23.0794H37.0392V19.3468C36.0997 19.4498 35.4057 20.0551 35.0969 20.9174H35.1097Z" fill="#001E60"/>
<path d="M23.2698 16.5417C23.3727 16.5932 23.4886 16.6318 23.5915 16.6833C23.8875 16.516 24.2092 16.3873 24.5181 16.2843C24.6211 15.6537 24.7884 15.0231 25.0715 14.1608L23.9133 13.8005C23.5658 14.8944 23.3599 15.6795 23.2698 16.5546V16.5417Z" fill="#001E60"/>
<path d="M49.3177 4.92051C47.8377 3.96816 45.9845 3.28609 44.0927 3.28609C41.3 3.28609 38.7776 4.48294 37.0144 6.38763C37.6193 7.03111 38.1341 7.76468 38.533 8.56259C39.8329 6.91529 41.8405 5.86 44.0927 5.86C47.1042 5.86 49.3177 8.24085 49.3177 8.24085V4.92051Z" fill="#001E60"/>
<path d="M58.4293 18.5142C58.1591 18.0509 57.8502 17.6133 57.5027 17.1886L57.1939 16.8283C56.6662 16.2106 56.1643 15.5285 55.7267 14.8078C55.006 13.6109 54.5041 12.2982 54.5041 10.9598V1.20469C54.5041 0.509735 53.95 0.00146484 53.2679 0.00146484L52.2715 0.00158758C52.8094 0.15228 53.2172 0.639914 53.2172 1.21755V8.93976H49.3563V10.2391H53.2172V10.9598C53.2172 11.1271 53.2172 11.2815 53.2429 11.4488C53.3587 13.4179 54.1824 15.3097 55.2506 16.8412L55.508 17.2015C56.6662 18.8617 57.0909 20.5476 57.0909 23.0829V23.1215V23.1859H50.1928C50.4631 22.7998 50.6175 22.3236 50.6175 21.8088C50.6175 20.4704 49.5365 19.4022 48.1981 19.4022C47.7476 19.4022 47.3229 19.5309 46.9497 19.7626C46.9626 19.6467 46.9883 19.5309 46.9883 19.4022C46.9883 18.6558 46.6923 17.9351 46.1647 17.4846C46.1389 17.5104 46.1775 17.4589 46.1647 17.4846C45.74 17.1372 45.2123 16.9184 44.6203 16.9184C44.6203 15.5799 43.5393 14.4989 42.2137 14.4989C41.6603 14.4989 41.1584 14.692 40.7466 15.0008C40.3991 14.6147 40.0259 14.2544 39.6141 13.9327V15.3354C39.7299 15.6186 39.8329 15.9017 39.9229 16.1977C39.8586 16.4293 39.8071 16.661 39.8071 16.9055C39.8071 17.4074 39.9616 17.8707 40.2189 18.2568C40.0516 18.3212 39.7685 18.3984 39.6141 18.4885V23.0958H48.0822V72H59.6648V23.0572C59.6648 21.4485 59.2401 19.8784 58.4422 18.5013L58.4293 18.5142Z" fill="#001E60"/>
<path d="M39.6139 18.4928C39.7683 18.4028 40.0386 18.3127 40.2187 18.2612C39.9613 17.8751 39.8069 17.4118 39.8069 16.9099C39.8069 16.6654 39.8584 16.4208 39.9227 16.202C39.8455 15.9318 39.7426 15.6615 39.6396 15.3913L39.6139 15.3493V18.5214V18.4928Z" fill="#4DBDF5"/>
<path d="M27.3621 16.0219C27.4779 16.0347 27.5831 16.0474 27.6989 16.0732C30.0154 16.6008 31.7335 18.5272 32.3641 20.9596C32.763 20.6764 33.239 20.5071 33.7667 20.5071C34.2943 20.5071 34.6866 20.6529 35.0967 20.8994C35.4407 20.0647 36.044 19.4816 37.0393 19.3509V12.9362C37.0393 12.8075 37.0393 12.71 37.0393 12.5441C36.2414 12.2867 35.3283 12.0967 34.4403 12.0967C31.4546 12.0967 28.8421 13.6667 27.3621 16.0219Z" fill="#4DBDF5"/>
<path d="M32.3438 14.5985C32.6992 14.5985 32.9873 14.3104 32.9873 13.955C32.9873 13.5996 32.6992 13.3115 32.3438 13.3115C31.9884 13.3115 31.7003 13.5996 31.7003 13.955C31.7003 14.3104 31.9884 14.5985 32.3438 14.5985Z" fill="#A9DDF7"/>
<path d="M25.7809 16.0528C25.6908 16.0271 25.5879 16.0271 25.4978 16.0142C24.8415 16.13 24.2108 16.3488 23.6188 16.6577C23.3872 16.529 23.1298 16.4389 22.8853 16.3359V23.0538H29.9635C29.9635 19.6563 28.3034 16.722 25.7809 16.0528Z" fill="#A9DDF7"/>
<path d="M20.3114 23.0667V15.9627C20.054 15.9885 19.7837 16.0013 19.5263 16.0657C16.5663 16.7349 14.623 19.682 14.623 23.0667H20.3243H20.3114Z" fill="#A9DDF7"/>
<path d="M57.0899 23.1916V23.0622C57.0899 20.5269 56.6781 18.841 55.507 17.1808L55.2496 16.8205C54.1814 15.289 53.3578 13.3972 53.2419 11.4281C53.2291 11.2737 53.2162 11.1064 53.2162 10.9391V10.2184H49.3553V8.95719H53.2162V1.19686C53.2162 0.617728 52.8172 0.154434 52.2896 0H50.5651C49.8701 0 49.3167 0.566241 49.3167 1.24833V11.0034C49.3167 13.1398 48.0169 15.2247 46.627 16.8848L46.1333 17.4759C46.6763 17.868 46.9745 18.6351 46.9745 19.3815C46.9745 19.4973 46.9684 19.6446 46.9427 19.7733C47.303 19.5546 47.7211 19.4114 48.1844 19.4114C49.5228 19.4114 50.6037 20.4626 50.6037 21.7881C50.6037 22.3029 50.4605 22.7926 50.1902 23.1916H57.0899Z" fill="#0053E2"/>
<path d="M39.6131 12.9147C39.6131 7.58668 35.2889 3.26253 29.961 3.26253C24.633 3.26253 20.3088 7.58668 20.3088 12.9147V23.0687H11.9436V71.973H48.0813V23.0687H39.6131V12.9147ZM22.8827 12.9147C22.8827 9.0152 26.0615 5.83643 29.961 5.83643C33.8604 5.83643 37.0392 9.0152 37.0392 12.9147V23.0687H22.8827V12.9147ZM40.2308 44.4322C40.2308 50.1848 35.5721 54.8436 29.8194 54.8436C26.9366 54.8436 24.3241 53.6725 22.4451 51.7807L24.2726 49.9532C25.6883 51.3817 27.6573 52.2697 29.8194 52.2697C34.1435 52.2697 37.6569 48.7563 37.6569 44.4322C37.6569 40.108 34.1435 36.5946 29.8194 36.5946C27.6702 36.5946 25.7269 37.4569 24.3112 38.8597L26.01 40.5584L18.8803 42.4631L20.785 35.3334L22.4838 37.0322C24.3627 35.1661 26.9495 34.0079 29.8194 34.0079C35.5721 34.0079 40.2308 38.6666 40.2308 44.4193V44.4322Z" fill="#0053E2"/>
<path d="M29.82 34.0186C26.9629 34.0186 24.3762 35.1768 22.4843 37.0429L20.7856 35.3441L18.8809 42.4738L26.0106 40.5691L24.3118 38.8704C25.7275 37.4676 27.6708 36.6053 29.82 36.6053C34.1441 36.6053 37.6575 40.1187 37.6575 44.4429C37.6575 48.767 34.1441 52.2804 29.82 52.2804C27.645 52.2804 25.6888 51.3924 24.2732 49.9639L22.4457 51.7914C24.3247 53.6832 26.9372 54.8543 29.82 54.8543C35.5726 54.8543 40.2314 50.1956 40.2314 44.4429C40.2314 38.6902 35.5726 34.0314 29.82 34.0314V34.0186Z" fill="white"/>
</g>
<defs>
<clipPath id="clip0_22949_27322">
<rect width="72" height="72" fill="white"/>
</clipPath>
</defs>
</svg>
