<svg width="72" height="72" viewBox="0 0 72 72" fill="none" xmlns="http://www.w3.org/2000/svg">
<g clip-path="url(#clip0_22949_27325)">
<path d="M57.241 18.2709C53.2773 16.2185 48.8903 15.885 44.8882 16.9625C48.2105 12.6781 49.4676 6.90573 47.7359 1.33861C47.6204 0.979439 47.4922 0.620268 47.3639 0.273926C47.2869 0.299581 47.2228 0.312412 47.1458 0.338067C41.2067 2.1724 36.9864 6.95706 35.5754 12.5755C34.2157 8.4707 31.3167 4.86617 27.1734 2.72398C27.1093 2.6855 27.0451 2.65984 26.9682 2.62136C26.7758 2.94204 26.5962 3.26274 26.4166 3.59626C23.2354 9.75345 24.1461 16.9368 28.1483 22.055C20.8495 19.2843 12.3449 21.7984 7.80394 28.5585C7.5987 28.8664 7.39345 29.1871 7.21387 29.5078C7.278 29.5462 7.32931 29.5975 7.39345 29.636C11.2673 32.24 15.8211 33.0353 20.0798 32.2528C15.8339 36.2037 13.6789 42.1941 14.936 48.3C14.9488 48.377 14.9745 48.4411 14.9873 48.5181C15.3593 48.4668 15.7313 48.4026 16.0905 48.3257C21.7987 47.1455 26.2498 43.2716 28.392 38.2946C29.3797 42.3096 31.7913 45.9911 35.4985 48.4796C35.5626 48.5181 35.6267 48.5566 35.6909 48.5951C35.9218 48.3 36.1398 48.005 36.3451 47.6843C41.63 39.7954 39.5263 29.1229 31.6374 23.838C31.1884 23.543 30.8617 23.3398 30.3999 23.0832C32.1958 23.5578 33.9258 24.3529 35.5549 25.4432C36.9018 26.3412 37.8854 27.3146 38.9552 28.4681C38.9552 28.4681 50.7797 30.4686 56.9332 19.3612C57.1127 19.0277 57.2667 18.6814 57.4078 18.3479C57.3437 18.3094 57.2795 18.2709 57.2154 18.2452L57.241 18.2709Z" fill="#4DBDF5"/>
<path d="M29.4058 41.2573C30.6754 44.0919 32.7227 46.6187 35.4939 48.479C35.558 48.5175 35.6226 48.5571 35.6868 48.5955C35.9176 48.3006 36.1355 48.0054 36.3407 47.6848C37.6852 45.6779 38.5506 43.49 38.9651 41.2573H51.1274C52.1279 41.2573 52.8976 42.1687 52.7308 43.1564L51.9228 47.993C51.8199 48.5827 51.3066 49.019 50.704 49.019H50.4609L47.0361 69.5805C46.7924 71.0428 45.5223 72.1084 44.0472 72.1084H28.6542C27.1662 72.1084 25.909 71.0428 25.6653 69.5805L22.2405 49.019H21.9962C21.3937 49.0187 20.8815 48.5826 20.7786 47.993L20.5669 46.7328C23.079 45.4231 25.1857 43.5271 26.7489 41.2573H29.4058Z" fill="#0053E2"/>
<path d="M46.2362 33.6387H47.5061C48.5452 33.6387 49.3918 34.4853 49.3918 35.5243V41.2582H44.3506V35.5243C44.3506 34.4853 45.1972 33.6387 46.2362 33.6387Z" fill="#A9DDF7"/>
<path d="M30.3948 23.0757C32.1501 23.5461 33.8607 24.2998 35.4544 25.3719C36.4803 26.0516 37.3921 26.8354 38.2128 27.6818C38.2175 27.6779 38.2219 27.6732 38.2266 27.6693C38.4733 27.9277 38.7132 28.1923 38.9431 28.4635C43.9277 29.0724 49.5866 27.4935 53.2826 24.0966C57.3432 25.0635 61.0645 27.5039 63.5721 31.2469C63.7771 31.5545 63.97 31.8761 64.1622 32.1965C64.099 32.2344 63.9865 32.3228 63.983 32.3255H63.9442C60.0578 34.9291 55.5166 35.7233 51.2583 34.9411C55.5037 38.892 57.6588 44.8965 56.4018 50.9892C56.3889 51.0658 56.3632 51.1305 56.3504 51.2072C55.9917 51.1559 55.6196 51.0911 55.2481 51.0143C53.4709 50.6462 51.7926 50.4032 50.2661 50.0998L47.0217 69.5753C46.778 71.0374 45.5089 72.1029 44.034 72.1032H41.4685C42.9563 72.1029 44.2125 71.0374 44.4562 69.5753L47.4589 51.5792H22.6495L22.2261 49.0137H50.6419C51.2442 49.0134 51.7578 48.5771 51.8608 47.9878L52.6688 43.1512C52.8355 42.1637 52.0784 41.2537 51.0654 41.2534H49.3918V35.5236C49.3916 34.4847 48.5454 33.6383 47.5065 33.6383H46.2363C45.1975 33.6385 44.3512 34.4849 44.351 35.5236V41.2534H38.9481C40.1692 34.706 37.5043 27.7631 31.6187 23.8198C31.2142 23.554 30.8087 23.3092 30.3948 23.0757Z" fill="#001E60"/>
<path d="M29.4378 41.3298C27.501 43.3306 25.0512 44.8695 22.2424 45.7417C24.0379 44.5232 25.5639 42.9967 26.7696 41.2396H29.3989C29.4118 41.2781 29.4249 41.3041 29.4378 41.3298Z" fill="#001E60"/>
</g>
<defs>
<clipPath id="clip0_22949_27325">
<rect width="72" height="72" fill="white"/>
</clipPath>
</defs>
</svg>
