<svg width="72" height="72" viewBox="0 0 72 72" fill="none" xmlns="http://www.w3.org/2000/svg">
<g clip-path="url(#clip0_22949_27321)">
<path d="M71.5698 68.8427L60.6746 23.394L51.8399 64.8107L50.7429 69.9396C50.4909 71.0958 49.4681 71.9111 48.2822 71.9111H69.124C70.7545 71.9111 71.9552 70.414 71.5698 68.8575V68.8427Z" fill="#001E60"/>
<path d="M60.451 23.394C60.451 23.7202 60.1842 23.987 59.8581 23.987C59.532 23.987 59.2651 23.7202 59.2651 23.394H56.0188C56.0188 24.906 56.76 26.1809 57.6494 26.1809C57.9755 26.1809 58.2423 26.4477 58.2423 26.7738C58.2423 27.0999 57.9755 27.3667 57.6494 27.3667C56.0781 27.3667 54.8329 25.6176 54.8329 23.394H51.5866C51.5866 24.906 52.3278 26.1809 53.2172 26.1809C53.5433 26.1809 53.8101 26.4477 53.8101 26.7738C53.8101 27.0999 53.5433 27.3667 53.2172 27.3667C51.6459 27.3667 50.4007 25.6176 50.4007 23.394H47.1544C47.1544 24.906 47.8956 26.1809 48.785 26.1809C49.1111 26.1809 49.3779 26.4477 49.3779 26.7738C49.3779 27.0999 49.1111 27.3667 48.785 27.3667C47.2137 27.3667 45.9685 25.6176 45.9685 23.394H42.7222C42.7222 24.906 43.4634 26.1809 44.3528 26.1809C44.6789 26.1809 44.9457 26.4477 44.9457 26.7738C44.9457 27.0999 44.6789 27.3667 44.3528 27.3667C42.7815 27.3667 41.5363 25.6176 41.5363 23.394H38.29C38.29 24.906 39.0312 26.1809 39.9206 26.1809C40.2467 26.1809 40.5135 26.4477 40.5135 26.7738C40.5135 27.0999 40.2467 27.3667 39.9206 27.3667C38.3493 27.3667 37.1041 25.6176 37.1041 23.394H33.8578C33.8578 24.906 34.599 26.1809 35.4884 26.1809C35.8145 26.1809 36.0813 26.4477 36.0813 26.7738C36.0813 27.0999 35.8145 27.3667 35.4884 27.3667C33.9171 27.3667 32.6719 25.6176 32.6719 23.394H29.4256C29.4256 24.906 30.1668 26.1809 31.0562 26.1809C31.3823 26.1809 31.6491 26.4477 31.6491 26.7738C31.6491 27.0999 31.3823 27.3667 31.0562 27.3667C29.4849 27.3667 28.2397 25.6176 28.2397 23.394H24.9934C24.9934 24.906 25.7346 26.1809 26.624 26.1809C26.9501 26.1809 27.2169 26.4477 27.2169 26.7738C27.2169 27.0999 26.9501 27.3667 26.624 27.3667C25.0527 27.3667 23.8075 25.6176 23.8075 23.394H20.5612C20.5612 24.906 21.3024 26.1809 22.1918 26.1809C22.5179 26.1809 22.7847 26.4477 22.7847 26.7738C22.7847 27.0999 22.5179 27.3667 22.1918 27.3667C20.6205 27.3667 19.3753 25.6176 19.3753 23.394H16.129C16.129 24.906 16.8702 26.1809 17.7596 26.1809C18.0857 26.1809 18.3525 26.4477 18.3525 26.7738C18.3525 27.0999 18.0857 27.3667 17.7596 27.3667C16.1883 27.3667 14.9431 25.6176 14.9431 23.394H11.6968C11.6968 24.906 12.438 26.1809 13.3274 26.1809C13.6535 26.1809 13.9203 26.4477 13.9203 26.7738C13.9203 27.0999 13.6535 27.3667 13.3274 27.3667C11.7561 27.3667 10.5109 25.6176 10.5109 23.394H10.2886L8.9248 29.8867H59.3541L60.7178 23.394H60.451Z" fill="#4DBDF5"/>
<path d="M44.898 39.3589C45.9801 39.5071 46.9881 38.6622 47.1512 37.4763C47.3142 36.2904 46.5731 35.2084 45.491 35.0601C44.4089 34.9119 43.4009 35.7568 43.2378 36.9427C43.0747 38.1286 43.8159 39.2107 44.898 39.3589Z" fill="#4DBDF5"/>
<path d="M52.1763 35.0453C51.0942 34.897 50.0862 35.742 49.9232 36.9279C49.7601 38.1137 50.5013 39.1959 51.5834 39.3441C52.6655 39.4923 53.6735 38.6474 53.8365 37.4615C53.9996 36.2756 53.2584 35.1935 52.1763 35.0453Z" fill="#4DBDF5"/>
<path d="M43.9345 42.5311C42.8524 42.3829 41.8444 43.2278 41.6813 44.4137C41.5183 45.5996 42.2595 46.6817 43.3416 46.8299C44.4237 46.9782 45.4317 46.1332 45.5947 44.9473C45.7578 43.7615 45.0166 42.6793 43.9345 42.5311Z" fill="#4DBDF5"/>
<path d="M50.6199 42.5311C49.5378 42.3829 48.5298 43.2278 48.3667 44.4137C48.2036 45.5996 48.9448 46.6817 50.0269 46.8299C51.109 46.9782 52.117 46.1332 52.2801 44.9473C52.4431 43.7615 51.702 42.6793 50.6199 42.5311Z" fill="#4DBDF5"/>
<path d="M42.378 50.0021C41.2959 49.8539 40.2879 50.6988 40.1249 51.8847C39.9618 53.0706 40.703 54.1527 41.7851 54.3009C42.8672 54.4491 43.8752 53.6042 44.0383 52.4183C44.2013 51.2325 43.4602 50.1504 42.378 50.0021Z" fill="#4DBDF5"/>
<path d="M49.0486 50.0021C47.9665 49.8539 46.9585 50.6988 46.7954 51.8847C46.6324 53.0706 47.3735 54.1527 48.4556 54.3009C49.5378 54.4491 50.5457 53.6042 50.7088 52.4183C50.8719 51.2325 50.1307 50.1504 49.0486 50.0021Z" fill="#4DBDF5"/>
<path d="M40.8068 57.4731C39.7247 57.3249 38.7167 58.1698 38.5536 59.3557C38.3905 60.5416 39.1317 61.6237 40.2138 61.7719C41.2959 61.9202 42.3039 61.0752 42.467 59.8893C42.63 58.7035 41.8889 57.6214 40.8068 57.4731Z" fill="#4DBDF5"/>
<path d="M47.4921 57.4731C46.41 57.3249 45.402 58.1698 45.239 59.3557C45.0759 60.5416 45.8171 61.6237 46.8992 61.7719C47.9813 61.9202 48.9893 61.0752 49.1523 59.8893C49.3154 58.7035 48.5742 57.6214 47.4921 57.4731Z" fill="#4DBDF5"/>
<path d="M42.309 66.7821L41.2121 71.911L51.8405 64.8106H44.7697C43.5838 64.8106 42.5462 65.6407 42.309 66.7821Z" fill="#4DBDF5"/>
<path d="M8.88223 29.8867L0.536639 69.0058C0.210524 70.5474 1.3964 72.0001 2.99733 72.0001H41.2121L41.3455 71.9111H41.2121L51.8405 64.8107L51.8109 64.9145H51.8405L59.3115 29.8867H8.88223ZM43.2429 36.9427C43.406 35.7568 44.414 34.9119 45.4961 35.0601C46.5782 35.2083 47.3194 36.2904 47.1563 37.4763C46.9932 38.6622 45.9853 39.5071 44.9031 39.3589C43.821 39.2107 43.0799 38.1286 43.2429 36.9427ZM36.5724 36.9427C36.7354 35.7568 37.7434 34.9119 38.8255 35.0601C39.9077 35.2083 40.6488 36.2904 40.4858 37.4763C40.3227 38.6622 39.3147 39.5071 38.2326 39.3589C37.1505 39.2107 36.4093 38.1286 36.5724 36.9427ZM29.887 36.9427C30.0501 35.7568 31.0581 34.9119 32.1402 35.0601C33.2223 35.2083 33.9635 36.2904 33.8004 37.4763C33.6373 38.6622 32.6294 39.5071 31.5472 39.3589C30.4651 39.2107 29.724 38.1286 29.887 36.9427ZM23.2017 36.9427C23.3647 35.7568 24.3727 34.9119 25.4548 35.0601C26.5369 35.2083 27.2781 36.2904 27.115 37.4763C26.952 38.6622 25.944 39.5071 24.8619 39.3589C23.7798 39.2107 23.0386 38.1286 23.2017 36.9427ZM16.5163 36.9427C16.6793 35.7568 17.6873 34.9119 18.7694 35.0601C19.8516 35.2083 20.5927 36.2904 20.4297 37.4763C20.2666 38.6622 19.2586 39.5071 18.1765 39.3589C17.0944 39.2107 16.3532 38.1286 16.5163 36.9427ZM9.84575 36.9427C10.0088 35.7568 11.0168 34.9119 12.0989 35.0601C13.181 35.2083 13.9222 36.2904 13.7591 37.4763C13.5961 38.6622 12.5881 39.5071 11.506 39.3589C10.4239 39.2107 9.68269 38.1286 9.84575 36.9427ZM8.27447 44.4137C8.43753 43.2278 9.44552 42.3829 10.5276 42.5311C11.6097 42.6793 12.3509 43.7614 12.1879 44.9473C12.0248 46.1332 11.0168 46.9781 9.93469 46.8299C8.85258 46.6817 8.11141 45.5996 8.27447 44.4137ZM7.50365 67.3752C7.34059 68.561 6.3326 69.406 5.25049 69.2577C4.16838 69.1095 3.42721 68.0274 3.59026 66.8415C3.75332 65.6556 4.76131 64.8107 5.84342 64.9589C6.92553 65.1072 7.66671 66.1893 7.50365 67.3752ZM9.06011 59.9042C8.89705 61.09 7.88906 61.9349 6.80695 61.7867C5.72484 61.6385 4.98367 60.5564 5.14673 59.3705C5.30978 58.1847 6.31778 57.3397 7.39989 57.4879C8.482 57.6362 9.22317 58.7183 9.06011 59.9042ZM8.37823 54.3157C7.29612 54.1675 6.55495 53.0854 6.71801 51.8995C6.88106 50.7136 7.88906 49.8687 8.97117 50.0169C10.0533 50.1652 10.7944 51.2473 10.6314 52.4332C10.4683 53.619 9.46034 54.464 8.37823 54.3157ZM14.189 67.3752C14.026 68.561 13.018 69.406 11.9359 69.2577C10.8537 69.1095 10.1126 68.0274 10.2756 66.8415C10.4387 65.6556 11.4467 64.8107 12.5288 64.9589C13.6109 65.1072 14.3521 66.1893 14.189 67.3752ZM15.7455 59.9042C15.5824 61.09 14.5744 61.9349 13.4923 61.7867C12.4102 61.6385 11.669 60.5564 11.8321 59.3705C11.9951 58.1847 13.0031 57.3397 14.0852 57.4879C15.1674 57.6362 15.9085 58.7183 15.7455 59.9042ZM17.3168 52.4183C17.1537 53.6042 16.1457 54.4491 15.0636 54.3009C13.9815 54.1527 13.2403 53.0705 13.4034 51.8847C13.5664 50.6988 14.5744 49.8539 15.6565 50.0021C16.7386 50.1504 17.4798 51.2324 17.3168 52.4183ZM16.6201 46.8299C15.5379 46.6817 14.7968 45.5996 14.9598 44.4137C15.1229 43.2278 16.1309 42.3829 17.213 42.5311C18.2951 42.6793 19.0363 43.7614 18.8732 44.9473C18.7102 46.1332 17.7022 46.9781 16.6201 46.8299ZM22.4308 59.9042C22.2678 61.09 21.2598 61.9349 20.1777 61.7867C19.0956 61.6385 18.3544 60.5564 18.5175 59.3705C18.6805 58.1847 19.6885 57.3397 20.7706 57.4879C21.8527 57.6362 22.5939 58.7183 22.4308 59.9042ZM23.9873 52.4183C23.8242 53.6042 22.8162 54.4491 21.7341 54.3009C20.652 54.1527 19.9109 53.0705 20.0739 51.8847C20.237 50.6988 21.245 49.8539 22.3271 50.0021C23.4092 50.1504 24.1504 51.2324 23.9873 52.4183ZM23.2906 46.8299C22.2085 46.6817 21.4673 45.5996 21.6304 44.4137C21.7934 43.2278 22.8014 42.3829 23.8835 42.5311C24.9656 42.6793 25.7068 43.7614 25.5438 44.9473C25.3807 46.1332 24.3727 46.9781 23.2906 46.8299ZM29.1014 59.9042C28.9383 61.09 27.9303 61.9349 26.8482 61.7867C25.7661 61.6385 25.0249 60.5564 25.188 59.3705C25.3511 58.1847 26.359 57.3397 27.4412 57.4879C28.5233 57.6362 29.2644 58.7183 29.1014 59.9042ZM30.6727 52.4183C30.5096 53.6042 29.5016 54.4491 28.4195 54.3009C27.3374 54.1527 26.5962 53.0705 26.7593 51.8847C26.9223 50.6988 27.9303 49.8539 29.0124 50.0021C30.0945 50.1504 30.8357 51.2324 30.6727 52.4183ZM29.976 46.8299C28.8938 46.6817 28.1527 45.5996 28.3157 44.4137C28.4788 43.2278 29.4868 42.3829 30.5689 42.5311C31.651 42.6793 32.3922 43.7614 32.2291 44.9473C32.0661 46.1332 31.0581 46.9781 29.976 46.8299ZM35.7867 59.9042C35.6237 61.09 34.6157 61.9349 33.5336 61.7867C32.4515 61.6385 31.7103 60.5564 31.8734 59.3705C32.0364 58.1847 33.0444 57.3397 34.1265 57.4879C35.2086 57.6362 35.9498 58.7183 35.7867 59.9042ZM37.358 52.4183C37.195 53.6042 36.187 54.4491 35.1049 54.3009C34.0228 54.1527 33.2816 53.0705 33.4446 51.8847C33.6077 50.6988 34.6157 49.8539 35.6978 50.0021C36.7799 50.1504 37.5211 51.2324 37.358 52.4183ZM36.6613 46.8299C35.5792 46.6817 34.838 45.5996 35.0011 44.4137C35.1642 43.2278 36.1722 42.3829 37.2543 42.5311C38.3364 42.6793 39.0775 43.7614 38.9145 44.9473C38.7514 46.1332 37.7434 46.9781 36.6613 46.8299ZM42.4721 59.9042C42.309 61.09 41.3011 61.9349 40.2189 61.7867C39.1368 61.6385 38.3957 60.5564 38.5587 59.3705C38.7218 58.1847 39.7298 57.3397 40.8119 57.4879C41.894 57.6362 42.6352 58.7183 42.4721 59.9042ZM44.0286 52.4183C43.8655 53.6042 42.8575 54.4491 41.7754 54.3009C40.6933 54.1527 39.9521 53.0705 40.1152 51.8847C40.2782 50.6988 41.2862 49.8539 42.3683 50.0021C43.4505 50.1504 44.1916 51.2324 44.0286 52.4183ZM43.3319 46.8299C42.2498 46.6817 41.5086 45.5996 41.6716 44.4137C41.8347 43.2278 42.8427 42.3829 43.9248 42.5311C45.0069 42.6793 45.7481 43.7614 45.585 44.9473C45.422 46.1332 44.414 46.9781 43.3319 46.8299ZM49.1575 59.9042C48.9944 61.09 47.9864 61.9349 46.9043 61.7867C45.8222 61.6385 45.081 60.5564 45.2441 59.3705C45.4071 58.1847 46.4151 57.3397 47.4972 57.4879C48.5794 57.6362 49.3205 58.7183 49.1575 59.9042ZM50.7139 52.4183C50.5509 53.6042 49.5429 54.4491 48.4608 54.3009C47.3787 54.1527 46.6375 53.0705 46.8005 51.8847C46.9636 50.6988 47.9716 49.8539 49.0537 50.0021C50.1358 50.1504 50.877 51.2324 50.7139 52.4183ZM52.2852 44.9473C52.1222 46.1332 51.1142 46.9781 50.032 46.8299C48.9499 46.6817 48.2088 45.5996 48.3718 44.4137C48.5349 43.2278 49.5429 42.3829 50.625 42.5311C51.7071 42.6793 52.4483 43.7614 52.2852 44.9473ZM51.5885 39.3589C50.5064 39.2107 49.7652 38.1286 49.9283 36.9427C50.0913 35.7568 51.0993 34.9119 52.1814 35.0601C53.2636 35.2083 54.0047 36.2904 53.8417 37.4763C53.6786 38.6622 52.6706 39.5071 51.5885 39.3589Z" fill="#A9DDF7"/>
<path d="M57.648 19.4355C56.729 19.4355 55.9434 20.0285 55.4245 20.9624C54.9205 20.0285 54.1201 19.4355 53.201 19.4355C52.282 19.4355 51.4963 20.0285 50.9775 20.9624C50.4735 20.0285 49.673 19.4355 48.754 19.4355C47.8349 19.4355 47.0493 20.0285 46.5305 20.9624C46.0265 20.0285 45.226 19.4355 44.307 19.4355C43.3879 19.4355 42.6023 20.0285 42.0835 20.9624C41.5795 20.0285 40.779 19.4355 39.8599 19.4355C38.9409 19.4355 38.1552 20.0285 37.6364 20.9624C37.1324 20.0285 36.332 19.4355 35.4129 19.4355C34.4939 19.4355 33.7082 20.0285 33.1894 20.9624C32.6854 20.0285 31.8849 19.4355 30.9659 19.4355C30.0468 19.4355 29.2612 20.0285 28.7424 20.9624C28.2384 20.0285 27.4379 19.4355 26.5189 19.4355C25.5998 19.4355 24.8142 20.0285 24.2953 20.9624C23.7913 20.0285 22.9909 19.4355 22.0718 19.4355C21.1528 19.4355 20.3671 20.0285 19.8483 20.9624C19.3443 20.0285 18.5439 19.4355 17.6248 19.4355C16.7058 19.4355 15.9201 20.0285 15.4013 20.9624C14.8973 20.0285 14.0968 19.4355 13.1778 19.4355C11.6065 19.4355 10.3613 21.1847 10.3613 23.4082C10.3613 25.6317 11.5917 27.3809 13.1778 27.3809C13.5039 27.3809 13.7707 27.1141 13.7707 26.788C13.7707 26.4619 13.5039 26.195 13.1778 26.195C12.3032 26.195 11.5472 24.9202 11.5472 23.4082C11.5472 21.8962 12.2884 20.6214 13.1778 20.6214C14.0672 20.6214 14.8084 21.8962 14.8084 23.4082C14.8084 25.6317 16.0387 27.3809 17.6248 27.3809C17.9509 27.3809 18.2177 27.1141 18.2177 26.788C18.2177 26.4619 17.9509 26.195 17.6248 26.195C16.7502 26.195 15.9942 24.9202 15.9942 23.4082C15.9942 21.8962 16.7354 20.6214 17.6248 20.6214C18.5142 20.6214 19.2554 21.8962 19.2554 23.4082C19.2554 25.6317 20.4857 27.3809 22.0718 27.3809C22.3979 27.3809 22.6648 27.1141 22.6648 26.788C22.6648 26.4619 22.3979 26.195 22.0718 26.195C21.1972 26.195 20.4413 24.9202 20.4413 23.4082C20.4413 21.8962 21.1824 20.6214 22.0718 20.6214C22.9612 20.6214 23.7024 21.8962 23.7024 23.4082C23.7024 25.6317 24.9328 27.3809 26.5189 27.3809C26.845 27.3809 27.1118 27.1141 27.1118 26.788C27.1118 26.4619 26.845 26.195 26.5189 26.195C25.6443 26.195 24.8883 24.9202 24.8883 23.4082C24.8883 21.8962 25.6295 20.6214 26.5189 20.6214C27.4083 20.6214 28.1494 21.8962 28.1494 23.4082C28.1494 25.6317 29.3798 27.3809 30.9659 27.3809C31.292 27.3809 31.5588 27.1141 31.5588 26.788C31.5588 26.4619 31.292 26.195 30.9659 26.195C30.0913 26.195 29.3353 24.9202 29.3353 23.4082C29.3353 21.8962 30.0765 20.6214 30.9659 20.6214C31.8553 20.6214 32.5965 21.8962 32.5965 23.4082C32.5965 25.6317 33.8268 27.3809 35.4129 27.3809C35.739 27.3809 36.0058 27.1141 36.0058 26.788C36.0058 26.4619 35.739 26.195 35.4129 26.195C34.5383 26.195 33.7823 24.9202 33.7823 23.4082C33.7823 21.8962 34.5235 20.6214 35.4129 20.6214C36.3023 20.6214 37.0435 21.8962 37.0435 23.4082C37.0435 25.6317 38.2738 27.3809 39.8599 27.3809C40.1861 27.3809 40.4529 27.1141 40.4529 26.788C40.4529 26.4619 40.1861 26.195 39.8599 26.195C38.9854 26.195 38.2294 24.9202 38.2294 23.4082C38.2294 21.8962 38.9705 20.6214 39.8599 20.6214C40.7493 20.6214 41.4905 21.8962 41.4905 23.4082C41.4905 25.6317 42.7209 27.3809 44.307 27.3809C44.6331 27.3809 44.8999 27.1141 44.8999 26.788C44.8999 26.4619 44.6331 26.195 44.307 26.195C43.4324 26.195 42.6764 24.9202 42.6764 23.4082C42.6764 21.8962 43.4176 20.6214 44.307 20.6214C45.1964 20.6214 45.9375 21.8962 45.9375 23.4082C45.9375 25.6317 47.1679 27.3809 48.754 27.3809C49.0801 27.3809 49.3469 27.1141 49.3469 26.788C49.3469 26.4619 49.0801 26.195 48.754 26.195C47.8794 26.195 47.1234 24.9202 47.1234 23.4082C47.1234 21.8962 47.8646 20.6214 48.754 20.6214C49.6434 20.6214 50.3846 21.8962 50.3846 23.4082C50.3846 25.6317 51.6149 27.3809 53.201 27.3809C53.5271 27.3809 53.794 27.1141 53.794 26.788C53.794 26.4619 53.5271 26.195 53.201 26.195C52.3264 26.195 51.5704 24.9202 51.5704 23.4082C51.5704 21.8962 52.3116 20.6214 53.201 20.6214C54.0904 20.6214 54.8316 21.8962 54.8316 23.4082C54.8316 25.6317 56.0619 27.3809 57.648 27.3809C57.9742 27.3809 58.241 27.1141 58.241 26.788C58.241 26.4619 57.9742 26.195 57.648 26.195C56.7735 26.195 56.0175 24.9202 56.0175 23.4082C56.0175 21.8962 56.7586 20.6214 57.648 20.6214C58.5375 20.6214 59.2786 21.8962 59.2786 23.4082C59.2786 23.7344 59.5454 24.0012 59.8716 24.0012C60.1977 24.0012 60.4645 23.7344 60.4645 23.4082C60.4645 21.1847 59.2342 19.4355 57.648 19.4355Z" fill="#0053E2"/>
<path d="M41.2221 71.9108H48.2929C49.4787 71.9108 50.5164 71.0807 50.7536 69.9393L51.8505 64.8104L41.2221 71.9108Z" fill="#0053E2"/>
<path d="M23.8935 42.5308C22.8114 42.3826 21.8034 43.2275 21.6403 44.4134C21.4773 45.5992 22.2185 46.6814 23.3006 46.8296C24.3827 46.9778 25.3907 46.1329 25.5537 44.947C25.7168 43.7611 24.9756 42.679 23.8935 42.5308Z" fill="#0053E2"/>
<path d="M11.4859 39.3593C12.568 39.5075 13.576 38.6626 13.739 37.4767C13.9021 36.2908 13.1609 35.2088 12.0788 35.0605C10.9967 34.9123 9.98871 35.7572 9.82565 36.9431C9.66259 38.129 10.4038 39.2111 11.4859 39.3593Z" fill="white"/>
<path d="M18.1712 39.3593C19.2533 39.5075 20.2613 38.6626 20.4244 37.4767C20.5875 36.2908 19.8463 35.2088 18.7642 35.0605C17.6821 34.9123 16.6741 35.7572 16.511 36.9431C16.348 38.129 17.0891 39.2111 18.1712 39.3593Z" fill="white"/>
<path d="M27.1098 37.4767C27.2728 36.2908 26.5316 35.2088 25.4495 35.0605C24.3674 34.9123 23.3594 35.7572 23.1964 36.9431C23.0333 38.129 23.7745 39.2111 24.8566 39.3593C25.9387 39.5075 26.9467 38.6626 27.1098 37.4767Z" fill="white"/>
<path d="M31.542 39.3593C32.6241 39.5075 33.6321 38.6626 33.7951 37.4767C33.9582 36.2908 33.217 35.2088 32.1349 35.0605C31.0528 34.9123 30.0448 35.7572 29.8817 36.9431C29.7187 38.129 30.4599 39.2111 31.542 39.3593Z" fill="white"/>
<path d="M38.8203 35.0457C37.7382 34.8974 36.7302 35.7424 36.5671 36.9283C36.404 38.1141 37.1452 39.1963 38.2273 39.3445C39.3094 39.4927 40.3174 38.6478 40.4805 37.4619C40.6435 36.276 39.9024 35.1939 38.8203 35.0457Z" fill="white"/>
<path d="M9.92941 46.8303C11.0115 46.9786 12.0195 46.1336 12.1826 44.9477C12.3456 43.7619 11.6045 42.6798 10.5223 42.5315C9.44024 42.3833 8.43225 43.2282 8.26919 44.4141C8.10613 45.6 8.8473 46.6821 9.92941 46.8303Z" fill="white"/>
<path d="M17.2077 42.5315C16.1256 42.3833 15.1176 43.2282 14.9546 44.4141C14.7915 45.6 15.5327 46.6821 16.6148 46.8303C17.6969 46.9786 18.7049 46.1336 18.8679 44.9477C19.031 43.7619 18.2898 42.6798 17.2077 42.5315Z" fill="white"/>
<path d="M30.5784 42.5315C29.4963 42.3833 28.4883 43.2282 28.3253 44.4141C28.1622 45.6 28.9034 46.6821 29.9855 46.8303C31.0676 46.9786 32.0756 46.1336 32.2387 44.9477C32.4017 43.7619 31.6606 42.6798 30.5784 42.5315Z" fill="white"/>
<path d="M37.249 42.5315C36.1669 42.3833 35.1589 43.2282 34.9958 44.4141C34.8328 45.6 35.5739 46.6821 36.656 46.8303C37.7382 46.9786 38.7461 46.1336 38.9092 44.9477C39.0723 43.7619 38.3311 42.6798 37.249 42.5315Z" fill="white"/>
<path d="M8.96589 50.0025C7.88378 49.8543 6.87579 50.6992 6.71273 51.8851C6.54967 53.071 7.29084 54.1531 8.37295 54.3013C9.45506 54.4496 10.4631 53.6046 10.6261 52.4187C10.7892 51.2329 10.048 50.1508 8.96589 50.0025Z" fill="white"/>
<path d="M15.6513 50.0025C14.5691 49.8543 13.5612 50.6992 13.3981 51.8851C13.235 53.071 13.9762 54.1531 15.0583 54.3013C16.1404 54.4496 17.1484 53.6046 17.3115 52.4187C17.4745 51.2329 16.7334 50.1508 15.6513 50.0025Z" fill="white"/>
<path d="M22.3366 50.0025C21.2545 49.8543 20.2465 50.6992 20.0835 51.8851C19.9204 53.071 20.6616 54.1531 21.7437 54.3013C22.8258 54.4496 23.8338 53.6046 23.9968 52.4187C24.1599 51.2329 23.4187 50.1508 22.3366 50.0025Z" fill="white"/>
<path d="M29.0072 50.0025C27.925 49.8543 26.9171 50.6992 26.754 51.8851C26.5909 53.071 27.3321 54.1531 28.4142 54.3013C29.4963 54.4496 30.5043 53.6046 30.6674 52.4187C30.8304 51.2329 30.0893 50.1508 29.0072 50.0025Z" fill="white"/>
<path d="M35.6925 50.0025C34.6104 49.8543 33.6024 50.6992 33.4394 51.8851C33.2763 53.071 34.0175 54.1531 35.0996 54.3013C36.1817 54.4496 37.1897 53.6046 37.3527 52.4187C37.5158 51.2329 36.7746 50.1508 35.6925 50.0025Z" fill="white"/>
<path d="M7.40943 57.4736C6.32732 57.3253 5.31933 58.1702 5.15627 59.3561C4.99321 60.542 5.73438 61.6241 6.81649 61.7723C7.8986 61.9206 8.90659 61.0756 9.06965 59.8897C9.23271 58.7039 8.49154 57.6218 7.40943 57.4736Z" fill="white"/>
<path d="M14.08 57.4736C12.9979 57.3253 11.9899 58.1702 11.8268 59.3561C11.6638 60.542 12.4049 61.6241 13.487 61.7723C14.5691 61.9206 15.5771 61.0756 15.7402 59.8897C15.9033 58.7039 15.1621 57.6218 14.08 57.4736Z" fill="white"/>
<path d="M5.83815 64.9594C4.75604 64.8111 3.74804 65.656 3.58498 66.8419C3.42193 68.0278 4.1631 69.1099 5.24521 69.2581C6.32732 69.4064 7.33531 68.5615 7.49837 67.3756C7.66143 66.1897 6.92026 65.1076 5.83815 64.9594Z" fill="white"/>
<path d="M12.5235 64.9594C11.4414 64.8111 10.4334 65.656 10.2703 66.8419C10.1073 68.0278 10.8485 69.1099 11.9306 69.2581C13.0127 69.4064 14.0207 68.5615 14.1837 67.3756C14.3468 66.1897 13.6056 65.1076 12.5235 64.9594Z" fill="white"/>
<path d="M20.7653 57.4883C19.6832 57.3401 18.6752 58.1851 18.5122 59.3709C18.3491 60.5568 19.0903 61.6389 20.1724 61.7871C21.2545 61.9354 22.2625 61.0904 22.4256 59.9046C22.5886 58.7187 21.8474 57.6366 20.7653 57.4883Z" fill="white"/>
<path d="M27.4507 57.4883C26.3686 57.3401 25.3606 58.1851 25.1975 59.3709C25.0345 60.5568 25.7757 61.6389 26.8578 61.7871C27.9399 61.9354 28.9479 61.0904 29.1109 59.9046C29.274 58.7187 28.5328 57.6366 27.4507 57.4883Z" fill="white"/>
<path d="M34.1212 57.4883C33.0391 57.3401 32.0311 58.1851 31.8681 59.3709C31.705 60.5568 32.4462 61.6389 33.5283 61.7871C34.6104 61.9354 35.6184 61.0904 35.7815 59.9046C35.9445 58.7187 35.2033 57.6366 34.1212 57.4883Z" fill="white"/>
</g>
<defs>
<clipPath id="clip0_22949_27321">
<rect width="72" height="72" fill="white"/>
</clipPath>
</defs>
</svg>
