<svg width="72" height="72" viewBox="0 0 72 72" fill="none" xmlns="http://www.w3.org/2000/svg">
<path d="M53.7726 40.8131L46.2952 29.5835V42.0504C47.1424 42.0504 47.8283 43.0186 47.8283 44.2021C47.8283 44.7266 47.4517 50.2674 47.3307 50.8188C47.1828 51.4509 46.7659 51.8813 46.2952 51.8813V59.6546C46.7659 59.6546 47.1693 60.0849 47.3307 60.717C47.4652 61.2684 47.8283 66.8092 47.8283 67.3337C47.8283 68.5306 47.1424 69.4855 46.2952 69.4855V71.9735H61.2634V40.7996H53.786L53.7726 40.8131ZM54.7274 62.6401C54.3105 63.6757 53.3691 64.0253 52.6294 63.4336C52.3067 63.1781 49.079 59.9504 48.81 59.5201C48.5007 59.0225 48.4335 58.3097 48.6756 57.7314C48.9042 57.1665 49.3749 56.8707 49.8456 57.0052C50.249 57.1262 53.8533 59.4393 54.1626 59.7083C54.8888 60.3001 55.1443 61.618 54.7274 62.6536V62.6401ZM54.176 51.8678C53.8533 52.1233 50.2625 54.45 49.859 54.571C49.3883 54.7055 48.9311 54.4096 48.689 53.8448C48.4604 53.2799 48.5142 52.5537 48.8235 52.0561C49.0925 51.6257 52.3201 48.3981 52.6429 48.1426C53.3691 47.5508 54.3105 47.9005 54.7409 48.936C55.1578 49.9716 54.9157 51.2895 54.176 51.8813V51.8678Z" fill="#001E60"/>
<path d="M37.907 24.6031C44.6081 23.0215 48.7584 16.307 47.1768 9.60592C45.5952 2.90479 38.8806 -1.24542 32.1795 0.33619C25.4784 1.9178 21.3282 8.63231 22.9098 15.3334C24.4914 22.0346 31.2059 26.1847 37.907 24.6031Z" fill="#4DBDF5"/>
<path d="M3.93164 40.8127H41.3187L46.2947 29.5966H8.88071L3.93164 40.8127Z" fill="#4DBDF5"/>
<path d="M44.1429 44.1345H8.89417V72H46.2812V69.4985C45.0977 69.4985 44.1429 68.5303 44.1429 67.3468C44.1429 66.8223 44.6674 61.2815 44.8422 60.7301C45.0574 60.098 45.6222 59.6811 46.2678 59.6676V51.8943C45.6222 51.8943 45.0439 51.464 44.8422 50.8319C44.6539 50.2805 44.1429 44.7397 44.1429 44.2152C44.1429 44.1883 44.1429 44.1614 44.1429 44.1345H46.2812V42.0634C45.1246 42.0634 44.1832 42.9779 44.1294 44.1345H44.1429ZM42.7442 59.5062C42.3542 59.9366 37.8221 63.1643 37.3648 63.4198C36.3293 64.0115 35.0113 63.6619 34.4196 62.6263C33.8278 61.5908 34.1775 60.2728 35.213 59.6811C35.6703 59.4256 40.727 57.099 41.2918 56.9914C41.9508 56.8569 42.6098 57.1528 42.9325 57.7176C43.2553 58.2824 43.188 59.0087 42.7442 59.5062ZM42.9325 53.8444C42.6098 54.4092 41.9508 54.7051 41.2918 54.5706C40.7135 54.4496 35.6568 52.1364 35.213 51.8809C34.1775 51.2892 33.8278 49.9712 34.4196 48.9357C35.0113 47.9001 36.3293 47.5505 37.3648 48.1422C37.8221 48.3977 42.3542 51.6254 42.7442 52.0557C43.188 52.5533 43.2688 53.2661 42.9325 53.8444Z" fill="#4DBDF5"/>
<path d="M68.7437 40.8128L61.2528 29.5967H46.298L53.7754 40.8128H68.7437Z" fill="#0053E2"/>
<path d="M52.6457 48.1288C52.3229 48.3843 49.0953 51.612 48.8263 52.0424C48.517 52.54 48.4497 53.2527 48.6918 53.831C48.9204 54.3959 49.3911 54.6917 49.8618 54.5572C50.2653 54.4362 53.8695 52.123 54.1788 51.8541C54.905 51.2623 55.1606 49.9444 54.7437 48.9088C54.3268 47.8733 53.3854 47.5236 52.6457 48.1154V48.1288Z" fill="#0053E2"/>
<path d="M49.8484 57.0049C49.3777 56.8704 48.9204 57.1662 48.6784 57.7311C48.4497 58.2959 48.5035 59.0222 48.8128 59.5198C49.0818 59.9501 52.3095 63.1778 52.6322 63.4333C53.3585 64.0251 54.2999 63.6754 54.7302 62.6399C55.1471 61.6043 54.9051 60.2863 54.1654 59.6946C53.8426 59.4391 50.2518 57.1125 49.8484 56.9914V57.0049Z" fill="#0053E2"/>
<path d="M46.298 59.6677V69.4986C47.1452 69.4986 47.8311 68.5303 47.8311 67.3469C47.8311 66.8224 47.4545 61.2815 47.3335 60.7301C47.1856 60.0981 46.7687 59.6677 46.298 59.6677Z" fill="#0053E2"/>
<path d="M46.298 42.0635V29.5967L41.3354 40.8128H8.89746V44.1346H46.3114V51.8944C46.7821 51.8944 47.1856 51.4641 47.347 50.832C47.4814 50.2806 47.8446 44.7398 47.8446 44.2153C47.8446 43.0184 47.1587 42.0635 46.3114 42.0635H46.298Z" fill="#0053E2"/>
<path d="M46.2703 59.6686V69.4995C46.2703 69.4995 46.2838 69.4995 46.2973 69.4995V59.6686C46.2973 59.6686 46.2838 59.6686 46.2703 59.6686Z" fill="white"/>
<path d="M46.2703 44.1351V51.8949C46.2703 51.8949 46.2838 51.8949 46.2973 51.8949V44.1351H46.2703Z" fill="white"/>
<path d="M44.8432 60.7301C44.6549 61.2815 44.1439 66.8224 44.1439 67.3469C44.1439 68.5303 45.0987 69.4851 46.2822 69.4986V59.6677C45.6367 59.6677 45.0584 60.098 44.8566 60.7301H44.8432Z" fill="white"/>
<path d="M41.2793 57.0049C40.701 57.1259 35.6444 59.439 35.2006 59.708C34.165 60.2997 33.8154 61.6177 34.4071 62.6533C34.9988 63.6888 36.3168 64.0385 37.3523 63.4467C37.8096 63.1912 42.3418 59.9636 42.7318 59.5332C43.1756 59.0356 43.2563 58.3228 42.92 57.7445C42.5973 57.1797 41.9383 56.8838 41.2793 57.0183V57.0049Z" fill="white"/>
<path d="M37.3523 48.1288C36.3168 47.5371 34.9988 47.8867 34.4071 48.9223C33.8154 49.9578 34.165 51.2758 35.2006 51.8675C35.6578 52.123 40.7145 54.4497 41.2793 54.5707C41.9383 54.7052 42.5973 54.4093 42.92 53.8445C43.2428 53.2796 43.1756 52.5534 42.7318 52.0558C42.3418 51.6254 37.8096 48.3978 37.3523 48.1423V48.1288Z" fill="white"/>
<path d="M44.1439 44.1346C44.1439 44.1346 44.1439 44.1884 44.1439 44.2153C44.1439 44.7398 44.6684 50.2806 44.8432 50.832C45.0584 51.4641 45.6232 51.881 46.2687 51.8944V44.1346H44.1439Z" fill="white"/>
<path d="M35.2543 4.27295C33.0084 4.27295 30.9643 5.18748 29.4849 6.65338L28.1535 5.32194L26.311 11.2259L32.2553 9.43724L30.9239 8.1058C32.0402 7.00302 33.5598 6.31716 35.2543 6.31716C38.6568 6.31716 41.4138 9.0741 41.4138 12.4766C41.4138 15.8791 38.6568 18.6361 35.2543 18.6361C33.5464 18.6361 31.9998 17.9367 30.8835 16.8205L29.4446 18.2595C30.9239 19.7523 32.9816 20.6668 35.2409 20.6668C39.7596 20.6668 43.4311 16.9953 43.4311 12.4766C43.4311 7.95787 39.7596 4.28641 35.2409 4.28641L35.2543 4.27295Z" fill="white"/>
</svg>
