<svg width="72" height="72" viewBox="0 0 72 72" fill="none" xmlns="http://www.w3.org/2000/svg">
<path d="M26.729 23.5537C26.9357 23.5537 27.1384 23.6115 27.314 23.7205C27.4897 23.8297 27.632 23.9858 27.7236 24.1712L51.5104 71.9999H38.4829L26.729 45.9437L14.9762 71.9999H1.70605L25.7343 24.1712C25.8259 23.9857 25.9682 23.8297 26.1439 23.7205C26.3195 23.6114 26.5222 23.5537 26.729 23.5537Z" fill="#A9DDF7"/>
<path d="M38.4824 71.9994H14.9763L26.7294 45.9438L38.4824 71.9994Z" fill="#001E60"/>
<path d="M45.9845 23.5601C46.4014 23.568 46.8086 23.6911 47.1597 23.9161C47.5106 24.1411 47.7925 24.4594 47.9738 24.8348L70.0003 67.8695C70.2127 68.3028 70.3127 68.783 70.2904 69.265C70.268 69.7471 70.1238 70.2163 69.8721 70.6282C69.6204 71.0398 69.2687 71.3818 68.8501 71.6216C68.4315 71.8611 67.9592 71.9913 67.477 72H51.5552L27.7685 24.1713C27.6769 23.9859 27.5346 23.8298 27.3589 23.7206C27.2077 23.6268 27.0363 23.5738 26.8597 23.5601H45.9845Z" fill="#4DBDF5"/>
<path d="M26.688 23.5601C26.6613 23.5621 26.6347 23.5635 26.6083 23.5675V23.5601H26.688Z" fill="#4DBDF5"/>
<path d="M13.0132 55.5426L14.9763 71.9994L26.7293 45.9439L13.0132 55.5426Z" fill="#4DBDF5"/>
<path d="M40.4452 55.5426L38.4821 71.9994L26.7293 45.9439L40.4452 55.5426Z" fill="#4DBDF5"/>
<path fill-rule="evenodd" clip-rule="evenodd" d="M66.4185 62.7517H53.1714V46.3032H66.4185V62.7517ZM60.3221 60.7696C58.7503 60.7697 57.4021 61.5068 56.9049 62.5409L63.841 62.7505C63.4344 61.6075 61.9985 60.7696 60.3221 60.7696ZM60.2836 51.4855C60.2583 51.5186 57.6173 54.9736 57.6169 56.7434C57.6169 57.4674 57.8964 58.1539 58.4045 58.6746C58.9125 59.1952 59.5983 59.4994 60.3221 59.4995C61.0333 59.4741 61.7196 59.1829 62.2149 58.6622C62.7103 58.1542 62.9901 57.4547 62.9901 56.7434C62.9897 55.0158 60.2836 51.4855 60.2836 51.4855Z" fill="#A9DDF7"/>
<path fill-rule="evenodd" clip-rule="evenodd" d="M66.2658 62.7529C66.6342 62.7529 66.9901 62.9054 67.2569 63.1721C67.5236 63.4261 67.6761 63.7948 67.6761 64.1632V68.0368H68.9971V71.9998H50.5293V68.0368H51.8503V64.1632C51.8503 63.7948 52.0155 63.4388 52.2695 63.1721C52.5236 62.9054 52.8923 62.7529 53.2606 62.7529H66.2658ZM60.4237 64.7722C59.7632 64.7722 59.2168 65.3186 59.2168 65.979C59.217 66.6394 59.7633 67.1859 60.4237 67.1859C61.084 67.1858 61.6304 66.6393 61.6306 65.979C61.6306 65.3187 61.0841 64.7723 60.4237 64.7722Z" fill="#0053E2"/>
<path d="M61.4265 57.4683C61.4265 57.7731 61.3121 58.0779 61.0962 58.2938C60.8803 58.5225 60.5882 58.6495 60.2706 58.6622C59.9658 58.6622 59.6737 58.5225 59.4578 58.2938C59.2418 58.0652 59.1275 57.7731 59.1275 57.4683C59.3434 56.6427 59.7372 55.8806 60.2706 55.2201C60.8168 55.8806 61.2105 56.6427 61.4265 57.4683Z" fill="#0053E2"/>
<path fill-rule="evenodd" clip-rule="evenodd" d="M60.4361 36.4224C61.376 36.4351 62.265 36.8038 62.9255 37.4643C63.5096 38.0611 63.8651 38.8481 63.9414 39.6734H64.0431C64.259 39.6734 64.475 39.7123 64.6782 39.8011C64.8814 39.8773 65.0591 40.0047 65.2115 40.1571C65.3639 40.3095 65.4786 40.4873 65.5675 40.6905C65.6563 40.8936 65.694 41.1097 65.694 41.3255H65.7077V43.1538H53.1837V41.3255C53.1837 40.8812 53.3616 40.4619 53.6662 40.1571C53.971 39.8523 54.4028 39.6734 54.8346 39.6734H56.8924C56.9687 38.8481 57.3115 38.0735 57.9082 37.4767C58.5814 36.8035 59.4835 36.4224 60.4361 36.4224ZM60.4237 37.6925C59.8269 37.6925 59.2551 37.9335 58.836 38.3524L58.8236 38.366C58.4681 38.7215 58.2522 39.1782 58.1886 39.6734H62.6588C62.6334 39.4703 62.5948 39.2795 62.5187 39.0892C62.4044 38.81 62.2395 38.5681 62.0238 38.3524C61.8079 38.1366 61.5663 37.9717 61.287 37.8575C61.0204 37.7432 60.7157 37.6925 60.4237 37.6925Z" fill="#0053E2"/>
<path d="M70.2932 68.0355V71.9985H68.9722V68.0355H70.2932Z" fill="#001E60"/>
<path d="M67.5619 62.7516C67.9303 62.7516 68.2863 62.9041 68.553 63.1708C68.8197 63.4249 68.9722 63.7936 68.9722 64.1619V68.0355H67.6512V64.1619C67.6512 63.7935 67.4987 63.4249 67.232 63.1708C66.9653 62.9041 66.6093 62.7516 66.241 62.7516H67.5619Z" fill="#001E60"/>
<path d="M56.8167 62.7509C57.2231 61.6078 58.6456 60.7695 60.3222 60.7695C61.9988 60.7695 63.4341 61.6078 63.8405 62.7509" fill="#001E60"/>
<path d="M65.9904 39.6895C66.4348 39.6895 66.8541 39.8672 67.1588 40.172C67.4636 40.4767 67.6413 40.9086 67.6413 41.3404V43.1699H68.9623V45.57H67.0211V43.1588L65.6753 43.1699L65.6753 41.3305C65.6753 41.1147 65.624 40.8985 65.5352 40.6954C65.4463 40.4922 65.3316 40.3144 65.1792 40.162C65.0268 40.0096 64.8491 39.8823 64.6458 39.806C64.5015 39.7429 64.3507 39.7061 64.1981 39.6895H65.9904Z" fill="#001E60"/>
<path d="M60.4235 67.1844C61.084 67.1844 61.6301 66.6383 61.6301 65.9778C61.6301 65.3173 61.084 64.7712 60.4235 64.7712C59.763 64.7712 59.2169 65.3173 59.2169 65.9778C59.2169 66.6383 59.763 67.1844 60.4235 67.1844Z" fill="#4DBDF5"/>
<path fill-rule="evenodd" clip-rule="evenodd" d="M60.2836 51.4856C60.2836 51.4856 62.9896 55.016 62.9901 56.7435C62.9901 57.4548 62.7102 58.1543 62.2148 58.6624C61.7195 59.183 61.0332 59.4742 60.322 59.4996C59.5982 59.4996 58.9124 59.1954 58.4044 58.6748C57.8964 58.154 57.6168 57.4675 57.6168 56.7435C57.6172 54.9737 60.2583 51.5187 60.2836 51.4856ZM60.2712 55.2191C59.7379 55.8794 59.3435 56.6413 59.1276 57.4667C59.1276 57.7714 59.2417 58.0641 59.4575 58.2927C59.6734 58.5214 59.9664 58.6611 60.2712 58.6611C60.5885 58.6483 60.8802 58.5212 61.096 58.2927C61.312 58.0768 61.426 57.7715 61.426 57.4667C61.21 56.6414 60.8171 55.8793 60.2712 55.2191Z" fill="#4DBDF5"/>
<path d="M67.0158 45.5661V43.1528H51.8503V46.3028H66.3553V62.7637H67.6762V45.5661H67.0158Z" fill="#4DBDF5"/>
</svg>
