<svg width="72" height="72" viewBox="0 0 72 72" fill="none" xmlns="http://www.w3.org/2000/svg">
<g clip-path="url(#clip0_22949_27313)">
<path d="M1.51025 19.402H64.4965V17.9409H1.51025V19.402Z" fill="#001E60"/>
<path d="M12.5411 51.5451H32.996H35.9181H56.3729V48.623H9.61902V72H12.5411V51.5451Z" fill="#001E60"/>
<path d="M35.9181 51.5451H32.996V72H35.9181V51.5451Z" fill="#001E60"/>
<path d="M63.0333 13.5576V17.9408H64.4943V42.735H71.7412V13.5576H63.0333Z" fill="#001E60"/>
<path d="M1.5083 72H9.86556V50.0841H29.3269H32.2636H52.7768V51.5452V58.9381V72H64.4946V42.7788H1.5083V72Z" fill="#4DBDF5"/>
<path d="M12.541 67.6166L28.6127 51.5449H12.541V67.6166Z" fill="#A9DDF7"/>
<path d="M43.3089 71.9998H56.3707V58.938L43.3089 71.9998Z" fill="#A9DDF7"/>
<path d="M1.67004 13.5576H0.208984V17.9408H1.67004V13.5576Z" fill="#0053E2"/>
<path d="M38.856 33.501C38.856 33.9393 39.1336 34.2462 39.645 34.2462C40.2586 34.2462 40.6385 33.8224 40.6385 33.0919V32.1276C40.434 32.3029 40.1417 32.4198 39.8495 32.5221C39.2943 32.7267 38.8414 32.9458 38.8414 33.501H38.856Z" fill="#0053E2"/>
<path d="M18.1215 33.501C18.1215 33.9393 18.3991 34.2462 18.9105 34.2462C19.5242 34.2462 19.904 33.8224 19.904 33.0919V32.1276C19.6995 32.3029 19.4073 32.4198 19.1151 32.5221C18.5599 32.7267 18.107 32.9458 18.107 33.501H18.1215Z" fill="#0053E2"/>
<path d="M63.0367 13.5578H1.67223V17.9409H63.0367V13.5578Z" fill="#0053E2"/>
<path d="M64.4831 42.7351V19.402H1.51149V42.7789H71.7446V42.7351H64.4831Z" fill="#0053E2"/>
<path d="M71.7446 42.7789H64.4977V72.0001H71.7446V42.7789Z" fill="#0053E2"/>
<path d="M28.6141 51.5452L12.5425 67.6168V72H32.9973V51.5452H28.6141Z" fill="white"/>
<path d="M56.3742 51.5452H35.9194V72H43.3124L56.3742 58.9381V51.5452Z" fill="white"/>
<path d="M32.5883 31.6162C32.5883 30.6665 32.9098 30.1259 33.5818 30.1259C34.137 30.1259 34.3124 30.5058 34.3124 31.0902V35.4588H36.5624V31.6162C36.5624 30.6665 36.8838 30.1259 37.5559 30.1259C38.1111 30.1259 38.2865 30.5058 38.2865 31.0902V35.4588H40.5365V30.7688C40.5365 29.3077 39.8498 28.3288 38.5494 28.3288C37.4536 28.3288 36.7523 28.9863 36.3725 29.8629C36.1679 28.9278 35.5104 28.3288 34.59 28.3288C33.5526 28.3288 32.8659 28.9425 32.5299 29.7899V28.5187H30.309V35.4442H32.5591V31.6016L32.5883 31.6162Z" fill="white"/>
<path d="M29.5201 26.707H27.2701V35.4588H29.5201V26.707Z" fill="white"/>
<path d="M13.7114 35.4588L14.9972 29.6438L16.2975 35.4588H18.8836L20.7391 26.707H18.5622L17.4225 32.4344L16.1368 26.707H13.9014L12.6156 32.4344L11.476 26.707H9.19678L11.0523 35.4588H13.7114Z" fill="white"/>
<path d="M24.2165 30.6811C24.2165 31.0318 23.8366 31.1779 22.7992 31.397C21.2213 31.7184 20.3154 32.3029 20.3154 33.6617C20.3154 34.9182 21.1482 35.6633 22.3463 35.6633C23.3544 35.6633 23.9534 35.1958 24.2895 34.5675V35.4588H26.4665V31.1633C26.4665 29.1908 25.4437 28.3142 23.5298 28.3142C22.1125 28.3142 21.119 28.7964 20.7683 29.1324V31.0025C21.192 30.6227 22.0833 30.0821 23.2375 30.0821C23.9681 30.0821 24.2311 30.2866 24.2311 30.6957L24.2165 30.6811ZM24.2018 33.0918C24.2018 33.8224 23.822 34.2461 23.2083 34.2461C22.697 34.2461 22.4193 33.9247 22.4193 33.5009C22.4193 32.9457 22.8577 32.712 23.4275 32.522C23.7197 32.4052 24.0119 32.3029 24.2165 32.1275V33.0918H24.2018Z" fill="white"/>
<path d="M43.5317 31.397C41.9537 31.7184 41.0478 32.3029 41.0478 33.6617C41.0478 34.9182 41.8807 35.6633 43.0787 35.6633C44.0869 35.6633 44.6859 35.1958 45.0219 34.5675V35.4588H47.1989V31.1633C47.1989 29.1908 46.1762 28.3142 44.2622 28.3142C42.845 28.3142 41.8514 28.7964 41.5008 29.1324V31.0025C41.9245 30.6227 42.8157 30.0821 43.97 30.0821C44.7005 30.0821 44.9635 30.2866 44.9635 30.6957C44.9635 31.0464 44.5836 31.1925 43.5462 31.4116L43.5317 31.397ZM44.9343 33.0918C44.9343 33.8224 44.5544 34.2461 43.9407 34.2461C43.4294 34.2461 43.1518 33.9247 43.1518 33.5009C43.1518 32.9457 43.5901 32.712 44.1599 32.522C44.4521 32.4052 44.7443 32.3029 44.9489 32.1275V33.0918H44.9343Z" fill="white"/>
<path d="M43.1518 33.5009C43.1518 33.9393 43.4294 34.2461 43.9407 34.2461C44.5544 34.2461 44.9343 33.8224 44.9343 33.0918V32.1275C44.7297 32.3029 44.4375 32.4198 44.1453 32.522C43.5901 32.7266 43.1371 32.9457 43.1371 33.5009H43.1518Z" fill="#0053E2"/>
<path d="M50.2233 32.522C50.2233 31.1633 51.0707 30.8126 51.8743 30.8126C52.1373 30.8126 52.4003 30.8418 52.5172 30.8857V28.5041C51.246 28.4457 50.4717 29.2493 50.1795 30.5058V28.548H47.9733V35.4734H50.2233V32.522Z" fill="white"/>
<path d="M55.5708 35.6049C56.2721 35.6049 56.652 35.4588 56.8127 35.3565V33.6178C56.6812 33.7055 56.4766 33.7785 56.199 33.7785C55.7022 33.7785 55.3662 33.574 55.3662 32.8289V30.2866H56.798V28.5334H55.3662V27.1892H53.1162V33.1503C53.1162 34.8159 54.0659 35.6049 55.5708 35.6049Z" fill="white"/>
<path d="M22.4193 33.5009C22.4193 33.9393 22.697 34.2461 23.2083 34.2461C23.822 34.2461 24.2018 33.8224 24.2018 33.0918V32.1275C23.9973 32.3029 23.7051 32.4198 23.4128 32.522C22.8576 32.7266 22.4048 32.9457 22.4048 33.5009H22.4193Z" fill="#0053E2"/>
</g>
<defs>
<clipPath id="clip0_22949_27313">
<rect width="72" height="72" fill="white"/>
</clipPath>
</defs>
</svg>
