<svg width="72" height="72" viewBox="0 0 72 72" fill="none" xmlns="http://www.w3.org/2000/svg">
<path fill-rule="evenodd" clip-rule="evenodd" d="M60.6751 47.9434C58.3909 48.3405 56.247 49.3357 54.4533 50.8316L53.8066 44.3274L64.1093 38.2553C65.5879 37.4742 66.7016 36.1261 67.2056 34.5076C67.7095 32.889 67.5623 31.1326 66.7964 29.6247C66.0305 28.1169 64.7086 26.981 63.1215 26.4671C61.5344 25.9532 59.8121 26.1033 58.3335 26.8843L53.8735 28.9993C54.7477 27.7781 55.2165 26.3041 55.2115 24.7921C55.2106 23.4122 54.8214 22.0615 54.0901 20.9006C53.3589 19.7396 52.3162 18.817 51.086 18.2424C52.061 18.0973 52.982 17.6954 53.7581 17.0763C54.5342 16.4572 55.1385 15.6423 55.5113 14.7122C55.8841 13.7821 56.0126 12.7689 55.884 11.7726C55.7555 10.7764 55.3743 9.8316 54.7781 9.03155C54.182 8.2315 53.3915 7.60387 52.4848 7.21066C51.5781 6.81744 50.5864 6.67224 49.6078 6.7894C48.6292 6.90656 47.6975 7.28202 46.9048 7.8787C46.112 8.47538 45.4855 9.27264 45.0873 10.1917C42.3977 8.36355 39.1915 7.49216 35.9665 7.71287C32.749 7.52234 29.5594 8.41745 26.8904 10.26C26.4922 9.34087 25.8657 8.54361 25.0729 7.94692C24.2802 7.35024 23.3485 6.97478 22.3699 6.85763C21.3913 6.74047 20.3997 6.88567 19.4929 7.27888C18.5862 7.6721 17.7957 8.29972 17.1996 9.09978C16.6034 9.89983 16.2222 10.8446 16.0937 11.8409C15.9651 12.8371 16.0936 13.8503 16.4664 14.7804C16.8392 15.7106 17.4435 16.5254 18.2196 17.1445C18.9957 17.7636 19.9167 18.1655 20.8917 18.3106C19.6615 18.8852 18.6188 19.8078 17.8876 20.9688C17.1563 22.1298 16.7671 23.4804 16.7662 24.8603C16.7677 26.3748 17.2444 27.8491 18.1265 29.0676L13.6665 26.9526C12.1879 26.1715 10.4656 26.0214 8.87848 26.5353C7.29138 27.0492 5.96948 28.1851 5.20357 29.693C4.43766 31.2009 4.29049 32.9573 4.79443 34.5758C5.29837 36.1944 6.41214 37.5425 7.89073 38.3235L18.1265 44.3274L17.4352 50.8316C15.6415 49.3357 13.4976 48.3405 11.2134 47.9434C10.3757 47.8014 9.51704 47.8589 8.70466 48.1114C7.89228 48.3639 7.14815 48.8045 6.53042 49.3989C5.91889 50.0116 5.44323 50.7508 5.13549 51.5668C4.82775 52.3827 4.69508 53.2565 4.74642 54.1292C4.74642 60.0194 10.7674 65.25 18.3049 65.25H53.6282C61.1657 65.25 67.1867 60.0194 67.1867 54.1292C67.2421 53.2419 67.1072 52.3529 66.7914 51.5242C66.4756 50.6955 65.9865 49.9469 65.3581 49.3306C64.7343 48.7483 63.9874 48.3203 63.1753 48.0797C62.3632 47.8391 61.5077 47.7925 60.6751 47.9434Z" fill="#0053E2"/>
<path d="M45.2485 17.3774C45.6935 17.3774 46.1286 17.5094 46.4986 17.7566C46.8686 18.0039 47.157 18.3553 47.3273 18.7664C47.4976 19.1775 47.5421 19.6299 47.4553 20.0664C47.3685 20.5029 47.1542 20.9038 46.8395 21.2184C46.5249 21.5331 46.1239 21.7474 45.6875 21.8342C45.251 21.921 44.7986 21.8765 44.3875 21.7062C43.9764 21.5359 43.625 21.2475 43.3777 20.8775C43.1305 20.5075 42.9985 20.0724 42.9985 19.6274C42.9985 19.0307 43.2356 18.4584 43.6575 18.0365C44.0795 17.6145 44.6518 17.3774 45.2485 17.3774Z" fill="#4DBDF5"/>
<path d="M27.2485 17.3774C27.6935 17.3774 28.1286 17.5094 28.4986 17.7566C28.8686 18.0039 29.157 18.3553 29.3273 18.7664C29.4976 19.1775 29.5421 19.6299 29.4553 20.0664C29.3685 20.5029 29.1542 20.9038 28.8395 21.2184C28.5249 21.5331 28.1239 21.7474 27.6875 21.8342C27.251 21.921 26.7986 21.8765 26.3875 21.7062C25.9764 21.5359 25.625 21.2475 25.3777 20.8775C25.1305 20.5075 24.9985 20.0724 24.9985 19.6274C24.9985 19.0307 25.2356 18.4584 25.6575 18.0365C26.0795 17.6145 26.6518 17.3774 27.2485 17.3774Z" fill="#4DBDF5"/>
<path d="M46.0809 48.1574L45.4734 45.1874C45.0468 43.0551 43.8945 41.1365 42.2126 39.7581C40.5306 38.3797 38.423 37.6268 36.2484 37.6274C34.075 37.6311 31.9695 38.3855 30.2885 39.7632C28.6074 41.1409 27.454 43.0571 27.0234 45.1874L26.4384 48.1574C26.1491 49.6089 26.1851 51.1065 26.5439 52.5424C26.9028 53.9783 27.5755 55.3168 28.5137 56.4616C29.4518 57.6063 30.6321 58.5288 31.9696 59.1627C33.307 59.7966 34.7684 60.1261 36.2484 60.1274C37.7304 60.1294 39.1943 59.8024 40.5345 59.1699C41.8748 58.5375 43.0579 57.6154 43.9986 56.4703C44.9392 55.3251 45.6139 53.9854 45.9741 52.5479C46.3342 51.1104 46.3707 49.6108 46.0809 48.1574Z" fill="#4DBDF5"/>
<path d="M36.2505 17.3779C39.8499 17.3789 42.7738 23.4075 42.7742 26.8723C42.7328 28.5652 42.0235 30.1741 40.801 31.3459C39.5788 32.5173 37.9431 33.1579 36.2505 33.1279C35.4046 33.1428 34.563 32.991 33.7764 32.6797C32.9897 32.3683 32.2735 31.9028 31.667 31.313C31.0607 30.7234 30.5764 30.0204 30.2432 29.2432C29.9099 28.4656 29.7334 27.6282 29.7246 26.7822C29.725 23.3171 32.6507 17.3779 36.2505 17.3779ZM36.2483 19.6279C34.1784 19.628 32.491 20.8434 32.491 22.3284C32.578 23.3249 32.9949 24.2647 33.6753 24.998C34.3557 25.7312 35.2611 26.2166 36.2483 26.3779C37.2354 26.2167 38.1409 25.7311 38.8213 24.998C39.5017 24.2647 39.9186 23.3249 40.0056 22.3284C40.0056 20.8434 38.3183 19.6279 36.2483 19.6279Z" fill="white"/>
</svg>
