<svg width="72" height="72" viewBox="0 0 72 72" fill="none" xmlns="http://www.w3.org/2000/svg">
<g clip-path="url(#clip0_22949_27315)">
<path d="M44.8079 51.7993C44.4864 52.0436 44.1907 52.2879 43.895 52.5579C44.3579 53.5093 44.9107 54.4479 45.5407 55.3093C45.875 54.8979 46.235 54.5122 46.595 54.1393C45.875 53.4707 45.2707 52.6736 44.8079 51.7993Z" fill="#001E60"/>
<path d="M39.2408 49.4613C36.7594 49.4613 34.5094 48.5098 32.8123 46.9541C31.7323 47.9441 30.4208 48.6641 28.968 49.0755V55.697C28.5566 55.4141 28.1194 55.1441 27.6437 54.9255C26.9623 54.5913 26.2165 54.3341 25.4065 54.1541C24.9694 54.5655 24.4808 54.9384 23.9666 55.247C24.6737 55.7098 25.3808 56.1984 26.0494 56.7255C26.1523 56.8027 26.268 56.8927 26.3708 56.9698C27.618 57.9598 28.4537 59.1941 28.9551 60.5698V67.2427C28.9551 69.1327 28.2094 70.817 27.0266 71.9998H32.5808C33.108 71.2927 33.4294 70.4184 33.4294 69.4798V52.6241C33.4294 51.8398 34.2523 51.3384 34.9465 51.6855H34.9594C36.2451 52.3412 37.6851 52.7012 39.2151 52.7012C40.5523 52.7012 41.8251 52.4184 42.9823 51.9298V48.6898C41.8251 49.1913 40.5523 49.4741 39.2151 49.4741L39.2408 49.4613Z" fill="#001E60"/>
<path d="M66.8314 31.7057C67.68 30.33 68.1686 28.7229 68.1686 27C68.1686 24.2486 66.9343 21.8057 64.9929 20.16C64.8643 20.0443 64.7228 19.9414 64.5814 19.8257C64.5043 19.7614 64.4143 19.71 64.3371 19.6457C64.2086 19.5557 64.0928 19.4786 63.9643 19.3886C63.8485 19.3114 63.7328 19.2471 63.6171 19.1828C63.5143 19.1185 63.4114 19.0672 63.3086 19.0157C63.1543 18.9386 63 18.8614 62.8457 18.7971C62.7686 18.7586 62.6914 18.7329 62.6271 18.6943C62.4343 18.6172 62.2414 18.54 62.0357 18.4757C61.9843 18.4628 61.9457 18.45 61.8943 18.4243C61.6628 18.3471 61.4314 18.2828 61.2 18.2314C61.1743 18.2314 61.1486 18.2314 61.1357 18.2185C60.8786 18.1671 60.6214 18.1157 60.3643 18.0771C59.9786 18.0257 59.58 17.9871 59.1814 17.9871C54.45 17.9871 50.5929 21.6257 50.22 26.2671C49.9114 24.5057 50.31 22.6028 51.2357 21.0471C52.9843 17.8714 56.8929 16.1357 60.4543 16.6628C60.4543 16.6114 60.4543 16.5729 60.4543 16.5214C60.4543 16.3929 60.4543 16.2643 60.4285 16.1357C60.4285 16.02 60.4286 15.8914 60.4028 15.7757C60.2228 13.9886 59.5028 12.3557 58.4357 11.0443C57.0343 9.32142 55.0028 8.11287 52.6886 7.80429C52.11 3.39429 48.3429 0 43.7786 0C40.4871 0 37.6071 1.77429 36.0386 4.42286H36.0128C34.4443 1.77429 31.5643 0 28.2729 0C26.5757 0 24.9943 0.488557 23.6443 1.31141C21.7929 2.44284 20.3657 4.19143 19.71 6.31286C19.71 6.35143 19.6971 6.38999 19.6843 6.4157C21.1886 6.29999 22.7057 6.53144 24.0557 7.20001C26.0486 8.10001 27.6171 9.79715 28.1829 11.7386L28.0286 11.8414C27.54 11.1471 26.9614 10.5429 26.3186 10.0414C24.7371 8.65285 22.6671 7.80429 20.3914 7.80429C20.0571 7.80429 19.7357 7.82998 19.4271 7.85569C18.5014 7.95855 17.6271 8.20285 16.8043 8.54999C13.7314 9.97713 11.5843 13.0886 11.5843 16.7014C11.5843 17.1643 11.6357 17.6271 11.7 18.0771C7.29001 18.6557 3.86999 22.4228 3.86999 26.9871C3.86999 27.1671 3.88286 27.3343 3.89571 27.5014C3.92143 27.8614 3.98571 28.4014 4.11428 29.0314C4.24285 29.5586 4.39714 30.06 4.60286 30.5357C8.16429 28.7743 12.8314 29.16 16.0843 32.2843C20.52 27.9385 28.2343 28.7229 31.41 34.1229C32.4514 35.8714 32.8757 37.9157 32.5414 39.9086H32.3614C32.2586 31.5129 21.7286 27.8614 16.5214 34.47C16.4829 34.5471 16.4186 34.5986 16.3414 34.6371C14.7086 32.3486 12.0343 30.8443 9.01285 30.8443C7.59856 30.8443 6.27428 31.1785 5.07857 31.7571C5.05285 31.7571 5.02714 31.7829 5.00143 31.7957C4.88571 31.86 4.75714 31.9114 4.64143 31.9757C4.55143 32.0271 4.46142 32.0786 4.37142 32.1429C4.21713 32.2329 4.07571 32.3229 3.93428 32.4257C3.80571 32.5157 3.66429 32.6057 3.53571 32.7086C1.38857 34.3543 0 36.9386 0 39.8443C0 44.82 4.02429 48.8443 9 48.8443C9.46286 48.8443 9.9257 48.7928 10.3757 48.7286C10.9543 53.1386 14.7214 56.5586 19.2857 56.5586C23.85 56.5586 27.2829 53.4343 28.0929 49.2943C29.88 48.96 31.4871 48.1371 32.7857 46.9543C34.4829 48.51 36.7329 49.4614 39.2143 49.4614C40.86 49.4614 42.4157 49.0371 43.7657 48.3043C44.1514 52.92 47.9957 56.5586 52.7143 56.5586C57.4328 56.5586 61.0586 53.1514 61.6243 48.7286C62.0743 48.7928 62.5243 48.8443 63 48.8443C67.9757 48.8443 72 44.82 72 39.8443C72 36.2314 69.8657 33.1328 66.8057 31.6928L66.8314 31.7057ZM44.7043 40.1271C46.8514 36.2186 52.2771 34.4957 56.3143 36.4628C58.3071 37.3628 59.8757 39.06 60.4414 41.0014L60.2871 41.1043C59.7986 40.41 59.22 39.8057 58.5772 39.3043C56.9957 37.9157 54.9257 37.0671 52.65 37.0671C47.9186 37.0671 44.0614 40.7057 43.6886 45.3471C43.38 43.5857 43.7786 41.6828 44.7043 40.1271Z" fill="#4DBDF5"/>
<path d="M42.9861 60.7618C42.9861 60.7618 43.1404 59.1804 43.4876 58.4732C43.989 57.4061 44.7524 56.2959 45.5624 55.3059C44.9324 54.4444 44.3618 53.5023 43.899 52.5637C43.5904 52.8465 43.2819 53.1375 42.9861 53.4461V51.9161C41.829 52.4175 40.5561 52.6875 39.219 52.6875C37.689 52.6875 36.249 52.3275 34.9633 51.6846H34.9504C34.2561 51.3246 33.4333 51.8389 33.4333 52.6104V69.4661C33.4333 70.4175 33.1119 71.2918 32.5847 71.9861H44.9147C43.7319 70.8161 42.9861 69.119 42.9861 67.229V60.7489V60.7618Z" fill="#0053E2"/>
<path d="M59.1699 17.9996C59.5684 17.9996 59.967 18.0382 60.3527 18.0896C60.417 17.5882 60.4427 17.1253 60.4427 16.6753C56.8813 16.1482 52.9599 17.8839 51.2242 21.0596C50.2984 22.6153 49.8999 24.5182 50.2084 26.2796C50.5813 21.651 54.4513 17.9996 59.1699 17.9996Z" fill="white"/>
<path d="M19.4413 7.85533C19.7627 7.81676 20.0841 7.80393 20.4055 7.80393C22.6813 7.80393 24.7513 8.65249 26.3327 10.0411C26.9627 10.5425 27.5541 11.1468 28.0427 11.8411L28.197 11.7382C27.6184 9.79678 26.0627 8.09964 24.0698 7.19964C22.707 6.53107 21.1898 6.29962 19.6984 6.41534C19.5827 6.86534 19.4927 7.34105 19.4413 7.85533Z" fill="white"/>
<path d="M4.62985 30.5482C4.61699 30.5225 4.60411 30.4839 4.59126 30.4453C4.60411 30.4839 4.61699 30.5096 4.62985 30.5482Z" fill="white"/>
<path d="M4.59126 30.4453C4.3984 29.9953 4.24413 29.5196 4.12842 29.031C4.23128 29.4939 4.3984 29.9568 4.59126 30.4453Z" fill="white"/>
<path d="M16.1113 32.2968C12.8713 29.1853 8.20412 28.7868 4.6427 30.5482C4.79698 30.9339 4.97699 31.3325 5.16984 31.7567C5.19556 31.7567 5.22127 31.731 5.24698 31.7182C6.42984 31.1396 7.62555 30.8568 9.03984 30.8568C12.0741 30.8568 14.7484 32.361 16.3684 34.6496C16.4327 34.611 16.497 34.5596 16.5484 34.4825C21.7684 27.8739 32.2856 31.5253 32.3884 39.921H32.5684C32.8898 37.9282 32.4784 35.8839 31.437 34.1353C28.2613 28.7353 20.547 27.951 16.1113 32.2968Z" fill="white"/>
<path d="M19.6727 6.41534C19.6727 6.41534 19.6727 6.41534 19.6855 6.41534C19.6855 6.37677 19.6984 6.33821 19.7113 6.3125C19.7113 6.35107 19.6856 6.38963 19.6727 6.41534Z" fill="white"/>
<path d="M56.3156 36.4625C52.2913 34.4825 46.8527 36.2182 44.7056 40.1268C43.7798 41.6825 43.3813 43.5853 43.6898 45.3468C44.0627 40.7182 47.9327 37.0668 52.6513 37.0668C54.927 37.0668 56.997 37.9154 58.5784 39.3039C59.2084 39.8054 59.7998 40.4096 60.2884 41.1039L60.4427 41.001C59.8641 39.0596 58.3084 37.3625 56.3156 36.4625Z" fill="white"/>
</g>
<defs>
<clipPath id="clip0_22949_27315">
<rect width="72" height="72" fill="white"/>
</clipPath>
</defs>
</svg>
