<svg width="72" height="72" viewBox="0 0 72 72" fill="none" xmlns="http://www.w3.org/2000/svg">
<g clip-path="url(#clip0_22949_27318)">
<path d="M52.5 19.4985V71.9998H72.0005V19.4985H52.5ZM66.9903 26.6237H57.5551C56.4151 26.6237 55.4851 25.6937 55.4851 24.5687C55.4851 23.4136 56.4151 22.4986 57.5551 22.4986H66.9903C68.1304 22.4986 68.9854 23.4286 68.9854 24.5536C68.9854 25.6787 68.1304 26.6237 66.9903 26.6237Z" fill="#001E60"/>
<path d="M26.1281 22.3628H7.54266C5.03247 22.3628 2.99756 24.3977 2.99756 26.9079V46.7684C2.99756 49.2785 5.03247 51.3135 7.54266 51.3135H26.1281C28.6383 51.3135 30.6732 49.2785 30.6732 46.7684V26.9079C30.6732 24.3977 28.6383 22.3628 26.1281 22.3628Z" fill="white"/>
<path d="M66.9925 22.4985H57.5573C56.4173 22.4985 55.4872 23.4285 55.4872 24.5536C55.4872 25.7086 56.4173 26.6236 57.5573 26.6236H66.9925C68.1326 26.6236 68.9876 25.6936 68.9876 24.5536C68.9876 23.4135 68.1326 22.4985 66.9925 22.4985Z" fill="#0053E2"/>
<path d="M10.0061 35.9989H8.86614V47.3241H10.0061V35.9989Z" fill="#0053E2"/>
<path d="M21.3764 35.9989H20.2364V47.3241H21.3764V35.9989Z" fill="#0053E2"/>
<path d="M15.6913 35.9989H14.5512V47.3241H15.6913V35.9989Z" fill="#0053E2"/>
<path d="M13.4262 35.9989H11.1462V47.3241H13.4262V35.9989Z" fill="#0053E2"/>
<path d="M19.1114 35.9989H16.8313V47.3241H19.1114V35.9989Z" fill="#0053E2"/>
<path d="M27.0615 35.9989H25.9215V47.3241H27.0615V35.9989Z" fill="#0053E2"/>
<path d="M24.7965 35.9989H22.5164V47.3241H24.7965V35.9989Z" fill="#0053E2"/>
<path d="M7.74112 35.9989H6.60107V47.3241H7.74112V35.9989Z" fill="#0053E2"/>
<path d="M26.1314 22.3628H7.53095C5.02589 22.3628 2.98584 24.3878 2.98584 26.9079V46.7834C2.98584 49.2884 5.01089 51.3285 7.53095 51.3285H26.1314C28.6364 51.3285 30.6765 49.3034 30.6765 46.7834V26.9079C30.6765 24.4028 28.6514 22.3628 26.1314 22.3628ZM7.74097 47.3234H6.60093V35.9981H7.74097V47.3234ZM10.006 47.3234H8.866V35.9981H10.006V47.3234ZM13.4261 47.3234H11.146V35.9981H13.4261V47.3234ZM15.6911 47.3234H14.5511V35.9981H15.6911V47.3234ZM19.1112 47.3234H16.8312V35.9981H19.1112V47.3234ZM21.3763 47.3234H20.2362V35.9981H21.3763V47.3234ZM24.7964 47.3234H22.5163V35.9981H24.7964V47.3234ZM27.0614 47.3234H25.9214V35.9981H27.0614V47.3234Z" fill="white"/>
<path d="M-0.00244141 19.4985V71.9998H52.4988V19.4985H-0.00244141ZM30.6583 46.7842C30.6583 49.2892 28.6332 51.3293 26.1132 51.3293H7.51271C5.00765 51.3293 2.9676 49.3042 2.9676 46.7842V26.9087C2.9676 24.4037 4.99265 22.3636 7.51271 22.3636H26.1132C28.6182 22.3636 30.6583 24.3887 30.6583 26.9087V46.7842Z" fill="#4DBDF5"/>
</g>
<defs>
<clipPath id="clip0_22949_27318">
<rect width="72" height="72" fill="white"/>
</clipPath>
</defs>
</svg>
