<svg width="72" height="72" viewBox="0 0 72 72" fill="none" xmlns="http://www.w3.org/2000/svg">
<g clip-path="url(#clip0_22949_27317)">
<path d="M42.4577 18.3926C40.4384 16.9392 39.2423 15.3443 39.2423 12.8619V1.02898C39.2423 0.463054 38.7792 0 38.2133 0H37.9432V11.5758H32.8113V12.8619H37.9818C38.1619 15.0613 39.1008 17.0807 40.6185 18.3926C42.3034 19.846 43.1008 22.1869 43.1008 24.6692V72.0269H44.3742C45.0945 72.0269 45.6732 71.4482 45.6732 70.7279V24.6692C45.6732 22.1869 44.4771 19.846 42.4577 18.3926Z" fill="#001E60"/>
<path d="M33.8554 0H38.2284C38.7943 0 39.2574 0.463054 39.2574 1.02898V12.6047H32.8264V1.02898C32.8264 0.463054 33.2894 0 33.8554 0Z" fill="#4DBDF5"/>
<path d="M28.1039 72.0269H28.9528V24.6692C28.9528 22.1869 29.7502 19.846 31.4351 18.3926C32.94 17.0807 33.8918 15.0613 34.0718 12.8619H32.8113C32.8113 15.3443 31.6152 16.9392 29.5959 18.3926C27.5765 19.846 26.3804 22.1869 26.3804 24.6692V70.7279C26.3804 71.4482 26.9592 72.0269 27.6794 72.0269" fill="#4DBDF5"/>
<path d="M28.1039 72.0269H28.9528V24.6692C28.9528 22.1869 29.7502 19.846 31.4351 18.3926C32.94 17.0807 33.8918 15.0613 34.0718 12.8619H32.8113C32.8113 15.3443 31.6152 16.9392 29.5959 18.3926C27.5765 19.846 26.3804 22.1869 26.3804 24.6692V70.7279C26.3804 71.4482 26.9592 72.0269 27.6794 72.0269" fill="#4DBDF5"/>
<path d="M37.9581 3.92516e-05L33.8554 0C33.2894 0 32.8264 0.463054 32.8264 1.02898L32.8262 11.5758H37.9581V3.92516e-05Z" fill="#4DBDF5"/>
<path d="M36.0298 54.6632C32.1197 54.6632 28.9557 51.4991 28.9557 47.5891V34.7143C28.9557 30.8043 32.1197 27.6402 36.0298 27.6402C39.9398 27.6402 43.1039 30.8043 43.1039 34.7143V24.6691C43.1039 22.1868 42.3064 19.8459 40.6215 18.3925C39.1167 17.0806 38.1649 15.0612 37.9848 12.8618H34.0619C33.8818 15.0612 32.9301 17.0806 31.4252 18.3925C29.7403 19.8459 28.9429 22.1868 28.9429 24.6691V72.0268H43.091V47.602C43.091 51.512 39.927 54.676 36.0169 54.676L36.0298 54.6632Z" fill="#0053E2"/>
<path d="M43.1008 34.6883C43.1008 30.7814 39.9336 27.6143 36.0267 27.6143C32.1198 27.6143 28.9526 30.7814 28.9526 34.6883V47.5632C28.9526 51.4701 32.1198 54.6372 36.0267 54.6372C39.9336 54.6372 43.1008 51.4701 43.1008 47.5632V34.6883Z" fill="white"/>
</g>
<defs>
<clipPath id="clip0_22949_27317">
<rect width="72" height="72" fill="white"/>
</clipPath>
</defs>
</svg>
