<svg width="72" height="72" viewBox="0 0 72 72" fill="none" xmlns="http://www.w3.org/2000/svg">
<path d="M35.375 8.5011H36.7475C36.8563 7.69932 37.0966 6.89887 37.4228 6.17863C37.1918 5.70299 36.8913 5.23962 36.5787 4.83193C35.9536 5.93268 35.5245 7.1965 35.375 8.5011Z" fill="#001E60"/>
<path d="M52.8702 8.54187H54.2876C53.7576 3.79912 49.6984 0.0620117 44.8197 0.0620117C41.8028 0.0620117 39.1121 1.47531 37.3727 3.67681C37.6852 4.04373 37.957 4.42424 38.2016 4.83193C39.6829 2.76632 42.0882 1.42096 44.8197 1.42096C48.9509 1.42096 52.3403 4.54654 52.8702 8.54187Z" fill="#001E60"/>
<path d="M56.3708 8.54187V20.324H48.9102V71.937H61.1407V8.54187H56.3708Z" fill="#001E60"/>
<path d="M14.4335 15.2959C13.8899 16.5461 13.5774 17.9322 13.5774 19.3863V20.2968H20.6168V9.81929C20.6168 9.81929 20.6168 9.73775 20.6168 9.71057C17.8445 10.6075 15.5886 12.6595 14.4335 15.3095V15.2959Z" fill="#001E60"/>
<path d="M23.7695 9.19418C23.158 9.19418 22.5465 9.26855 21.9757 9.36367C21.9757 9.36367 21.9757 9.65622 21.9757 9.8057V20.2968H23.2124V17.9458C23.2124 16.4646 24.4218 15.2772 25.9031 15.2772H29.8169V11.2054C28.1182 9.9416 26.039 9.19418 23.7695 9.19418Z" fill="#001E60"/>
<path d="M48.9101 35.2456H10.8594V71.9373H48.9101V35.2456Z" fill="white"/>
<path d="M48.0947 15.2685H44.9827C46.4639 15.2685 47.6734 16.4779 47.6734 17.9592V20.2966H53.1092C53.1092 17.5107 50.867 15.2685 48.0947 15.2685Z" fill="#4DBDF5"/>
<path d="M29.8847 56.2409C20.44 56.2409 12.5717 62.9949 10.8594 71.9368H48.9101C47.1978 62.9949 39.3294 56.2409 29.8847 56.2409Z" fill="#4DBDF5"/>
<path d="M40.8787 52.3815C41.2184 52.3815 41.4902 52.1097 41.4902 51.77C41.4902 51.6205 41.3407 50.0712 41.2863 49.9082C41.232 49.7315 41.0689 49.6092 40.8787 49.6092C40.6884 49.6092 40.5253 49.7315 40.471 49.9082C40.4166 50.0577 40.2671 51.6205 40.2671 51.77C40.2671 52.1097 40.5389 52.3815 40.8787 52.3815Z" fill="#4DBDF5"/>
<path d="M40.8787 44.7306C41.0689 44.7306 41.232 44.6083 41.2863 44.4316C41.3407 44.2821 41.4902 42.7193 41.4902 42.5698C41.4902 42.2301 41.2184 41.9583 40.8787 41.9583C40.5389 41.9583 40.2671 42.2301 40.2671 42.5698C40.2671 42.7193 40.4166 44.2685 40.471 44.4316C40.5253 44.6083 40.6884 44.7306 40.8787 44.7306Z" fill="#4DBDF5"/>
<path d="M43.4199 46.1711C43.583 46.1303 44.9963 45.478 45.1186 45.3965C45.404 45.2334 45.4991 44.8529 45.336 44.5675C45.173 44.2821 44.7924 44.187 44.5071 44.3501C44.3848 44.418 43.1073 45.3421 42.9986 45.4644C42.8763 45.6003 42.8491 45.8042 42.9443 45.9672C43.0394 46.1303 43.2297 46.2118 43.4063 46.1711H43.4199Z" fill="#4DBDF5"/>
<path d="M43.4199 48.1823C43.2296 48.1415 43.053 48.2231 42.9578 48.3862C42.8627 48.5492 42.8899 48.7531 43.0122 48.889C43.1209 49.0113 44.3983 49.9218 44.5206 49.9897C44.806 50.1528 45.1865 50.0577 45.3496 49.7723C45.5127 49.4869 45.4175 49.1064 45.1322 48.9433C45.0099 48.8754 43.583 48.2231 43.4199 48.1823Z" fill="#4DBDF5"/>
<path d="M23.7694 9.19395C24.2179 9.19395 24.6527 9.23472 25.0876 9.30267C25.2914 9.32984 25.4953 9.35701 25.6855 9.39778H25.8078V5.98682H22.9269C22.3833 7.00603 22.0571 8.14755 21.9892 9.35701C22.03 9.35701 22.0843 9.35702 22.1251 9.34343C22.6551 9.24831 23.1987 9.19395 23.7558 9.19395H23.7694Z" fill="#4DBDF5"/>
<path d="M47.6733 17.9593C47.6733 16.478 46.4638 15.2686 44.9826 15.2686H25.9029C24.4216 15.2686 23.2122 16.478 23.2122 17.9593V20.2967H47.6733V17.9593Z" fill="#A9DDF7"/>
<path fill-rule="evenodd" clip-rule="evenodd" d="M21.5771 45.7776C22.5503 45.78 23.0634 46.216 23.0634 47.2189V49.3927H21.9632V48.9441C21.8002 49.2702 21.5013 49.5013 20.9852 49.5015C20.3736 49.5015 19.9514 49.1343 19.9514 48.4956C19.9516 47.8029 20.4145 47.5173 21.2161 47.3542C21.7454 47.2321 21.9352 47.1643 21.9354 46.988C21.9354 46.7707 21.8002 46.6749 21.4337 46.6748C20.8494 46.6748 20.3997 46.9463 20.1823 47.1366V46.1864C20.3585 46.0237 20.8598 45.7789 21.5771 45.7776ZM21.9221 47.694C21.827 47.7891 21.6774 47.844 21.528 47.8984C21.2563 48.007 21.025 48.1161 21.025 48.4013C21.0252 48.6186 21.1757 48.7809 21.4337 48.7809L21.4191 48.7676C21.7316 48.7676 21.922 48.5505 21.9221 48.1837V47.694Z" fill="#0053E2"/>
<path fill-rule="evenodd" clip-rule="evenodd" d="M32.0678 45.7776C33.0413 45.7799 33.5555 46.2159 33.5555 47.2189V49.3927H32.454V48.9441C32.2909 49.2702 31.9922 49.5015 31.4759 49.5015C30.8644 49.5015 30.4434 49.1343 30.4434 48.4956C30.4437 47.8029 30.9053 47.5173 31.7068 47.3542C32.2364 47.232 32.4272 47.1644 32.4274 46.988C32.4274 46.7706 32.2912 46.6748 31.9245 46.6748C31.3406 46.6748 30.892 46.9464 30.6743 47.1366V46.1864C30.8505 46.0238 31.3507 45.779 32.0678 45.7776ZM32.4129 47.694C32.3177 47.789 32.1681 47.844 32.0187 47.8984C31.7472 48.007 31.5171 48.1162 31.5171 48.4013C31.5172 48.6186 31.6664 48.7809 31.9245 48.7809L31.9112 48.7676C32.2234 48.7673 32.4128 48.5503 32.4129 48.1837V47.694Z" fill="#0053E2"/>
<path d="M37.7 45.8865H38.4339V46.7703H37.6868V48.0616C37.6869 48.4282 37.8493 48.5367 38.1074 48.5367C38.2433 48.5367 38.4206 48.4557 38.4206 48.4557V49.3383C38.3391 49.3926 38.1476 49.4604 37.7943 49.4604C37.0338 49.4601 36.5589 49.0668 36.5587 48.2248V45.207H37.7V45.8865Z" fill="#0053E2"/>
<path d="M29.1933 45.8188C29.8452 45.8191 30.1979 46.322 30.1979 47.0556V49.4205H29.0566V47.2056C29.0566 46.9068 28.9618 46.7161 28.6903 46.7159C28.3506 46.7159 28.1874 46.9876 28.1874 47.4631V49.4059H27.046V47.191C27.0459 46.8923 26.9501 46.7026 26.6784 46.7026C26.3388 46.7027 26.1755 46.9743 26.1755 47.4498V49.3927H25.0342V45.8865H26.1622V46.5261C26.3389 46.1049 26.6793 45.7922 27.2093 45.7922C27.6708 45.7925 28.0099 46.0908 28.1051 46.5659C28.2953 46.1176 28.6495 45.7922 29.2066 45.7922L29.1933 45.8188Z" fill="#0053E2"/>
<path d="M16.0656 47.8572L16.7172 44.9628H17.8452L18.4982 47.8572L19.0688 44.9628H20.169L19.2321 49.3927H17.9275L17.2746 46.4439L16.6084 49.3927H15.2773L14.3258 44.9628H15.4803L16.0656 47.8572Z" fill="#0053E2"/>
<path d="M24.6267 49.3927H23.4854V44.9628H24.6267V49.3927Z" fill="#0053E2"/>
<path d="M36.2588 47.0689C36.2042 47.0419 36.069 47.0278 35.9337 47.0278C35.526 47.0278 35.1042 47.2189 35.1042 47.8984V49.3927H33.9629V45.8865H35.0763V46.8791C35.2258 46.2406 35.6204 45.833 36.2588 45.8599V47.0689Z" fill="#0053E2"/>
<path d="M41.3695 46.688H42.7682V47.6528H41.3695V49.0529H40.4047V47.6528H39.0046V46.688H40.4047V45.2893H41.3695V46.688Z" fill="#0053E2"/>
<path fill-rule="evenodd" clip-rule="evenodd" d="M30.1289 0.307129C34.9259 0.307129 38.8939 3.94874 39.5328 8.56901H39.5474L56.3843 8.54213V20.3384H48.9101V41.3478C42.89 37.8825 36.6251 36.0341 29.9935 36.0341C23.3619 36.0341 16.9474 37.9234 10.8594 41.4566V20.2986H20.6162V9.82113C20.6162 4.57571 24.8835 0.307359 30.1289 0.307129ZM30.1289 1.66741C25.631 1.66764 21.9752 5.32313 21.9752 9.82113V20.2986L53.109 20.2973C53.1088 17.5116 50.866 15.2702 48.0939 15.2702H29.817V8.50199H38.1605C37.5353 4.62913 34.1785 1.66741 30.1289 1.66741Z" fill="#0053E2"/>
</svg>
