<svg width="72" height="72" viewBox="0 0 72 72" fill="none" xmlns="http://www.w3.org/2000/svg">
<path d="M55.1701 9.9675C54.5626 7.6725 53.0551 5.6925 50.9851 4.5L35.9776 30.4875L20.9701 4.5C18.9001 5.6925 17.3926 7.6725 16.7851 9.9675C16.1776 12.2625 16.4926 14.7375 17.6851 16.785L30.0376 38.115C30.0376 38.115 31.2526 35.6625 32.8951 34.5825C33.7051 34.0425 34.6276 33.8175 35.4601 33.75C35.4601 33.75 35.4826 33.75 35.5051 33.75C35.6626 33.75 35.7976 33.75 35.9326 33.75C36.9001 33.75 38.0701 33.93 39.0826 34.5825C40.7251 35.6625 41.9401 38.115 41.9401 38.115L54.2926 16.785C55.4851 14.715 55.8001 12.2625 55.1926 9.9675H55.1701Z" fill="#4DBDF5"/>
<path d="M65.9477 53.6629C65.7452 51.9754 65.2052 50.3329 64.3502 48.8704C63.1127 46.7104 61.2677 44.9779 59.0402 43.8979C56.8127 42.8179 54.3152 42.4129 51.8402 42.7729C49.9727 43.1104 48.0602 42.8854 46.3502 42.0979C44.6177 41.3329 43.1777 40.0504 42.1877 38.4304L41.1527 36.6304C40.4552 35.3704 39.3302 34.4254 37.9802 33.9754C37.0802 33.6829 36.1352 33.6379 35.2352 33.7954C34.8302 33.8404 34.4252 33.9079 34.0427 34.0429C32.6927 34.4929 31.5452 35.4379 30.8702 36.6979L29.8352 38.4979C28.8452 40.0954 27.4052 41.3554 25.6952 42.1204C23.9852 42.8854 22.0952 43.1104 20.2502 42.7954C17.7752 42.4354 15.2552 42.8404 13.0052 43.9429C10.7552 45.0454 8.91019 46.8004 7.67269 48.9829C6.81769 50.4454 6.27769 52.0879 6.07519 53.7754C5.87269 55.4629 6.03019 57.1729 6.52519 58.8154C7.02019 60.4354 7.85269 61.9429 8.93269 63.2479C10.0352 64.5529 11.3852 65.6104 12.9152 66.3529C15.8177 67.7029 19.1252 67.9279 22.1852 66.9379C25.2452 65.9479 27.8102 63.8554 29.3627 61.0429L36.0227 49.5004L42.6377 60.9754C44.1902 63.7654 46.7777 65.8804 49.8152 66.8704C52.8752 67.8604 56.1827 67.6579 59.0852 66.2854C60.6152 65.5429 61.9652 64.4854 63.0677 63.1804C64.1702 61.8754 65.0027 60.3679 65.4752 58.7479C65.9702 57.1279 66.1277 55.4179 65.9252 53.7079L65.9477 53.6629ZM22.3877 59.1529C21.3302 60.2104 19.9127 60.7954 18.4052 60.7954C16.8977 60.7954 15.4802 60.2104 14.4227 59.1529C13.3652 58.0954 12.7802 56.6554 12.7802 55.1704C12.7802 53.6854 13.3652 52.2454 14.4227 51.1879C15.4802 50.1304 16.8977 49.5454 18.4052 49.5454C19.9127 49.5454 21.3302 50.1304 22.3877 51.1879C23.4452 52.2454 24.0302 53.6854 24.0302 55.1704C24.0302 56.6554 23.4452 58.0954 22.3877 59.1529ZM57.5327 59.1304C56.4752 60.1879 55.0577 60.7729 53.5502 60.7729C52.0427 60.7729 50.6252 60.1879 49.5677 59.1304C48.5102 58.0729 47.9252 56.6329 47.9252 55.1479C47.9252 53.6629 48.5102 52.2229 49.5677 51.1654C50.6252 50.1079 52.0427 49.5229 53.5502 49.5229C55.0577 49.5229 56.4752 50.1079 57.5327 51.1654C58.5902 52.2229 59.1752 53.6629 59.1752 55.1479C59.1752 56.6329 58.5902 58.0729 57.5327 59.1304Z" fill="#0053E2"/>
<path d="M35.9775 41.918C37.215 41.918 38.2275 40.9055 38.2275 39.668C38.2275 38.4305 37.215 37.418 35.9775 37.418C34.74 37.418 33.7275 38.4305 33.7275 39.668C33.7275 40.9055 34.74 41.918 35.9775 41.918Z" fill="white"/>
</svg>
