<svg width="160" height="160" viewBox="0 0 160 160" fill="none" xmlns="http://www.w3.org/2000/svg">
<circle cx="76" cy="83.23" r="67.2" fill="#0053E2"/>
<path d="M67.5822 127.908L57.2278 91.2757C57.458 96.4927 58.6955 100.881 61.2628 106.033C61.4602 106.423 61.301 106.89 60.9188 107.089C60.8041 107.146 60.6831 107.172 60.5684 107.172C60.2881 107.172 60.0078 107.005 59.8677 106.737C56.6124 100.215 55.5817 93.8033 55.6008 88.3633C55.6008 88.3633 54.2872 88.9026 54.2872 88.9538C54.249 89.4722 54.2857 90.0495 54.2857 90.5743C54.2857 99.7903 58.5156 101.653 58.5156 109.038C58.5156 112.27 55.7524 116.516 55.7524 116.516C55.7524 116.516 40.1577 105.668 40.1577 88.7654C40.1577 88.055 40.1959 87.3702 40.2724 86.6982C40.1577 86.743 40.0367 86.7814 39.9156 86.8262C39.2276 98.423 36.9889 132.767 36.9889 137.503C36.9889 137.503 43.156 142.048 51.4737 145.662C59.0325 148.945 69.7829 150.073 69.7829 150.073C70.2288 142.981 69.5315 134.769 67.5822 127.914V127.908Z" fill="#001E50"/>
<path d="M108.694 142.066C108.694 140.025 108.016 131.338 107.488 121.559H107.475C106.774 108.554 105.882 93.0278 105.5 86.5574C105.309 86.487 105.404 86.5254 105.5 86.5574C105.5 86.5574 105.5 86.5254 105.5 86.5126C101.939 85.2262 98.0595 83.8246 94.6832 82.3654C97.2759 86.4166 97.5498 91.415 97.5498 91.415L89.0138 88.0695L78.3049 126.487C76.0626 134.404 75.2275 142.214 75.7435 150.393C75.7435 150.393 83.1996 150.846 92.4015 148.594C101.134 146.457 108.694 142.066 108.694 142.066Z" fill="#001E50"/>
<path d="M79.7583 66.758C77.2532 69.2674 74.1139 70.7051 72.4418 70.7051C70.7696 70.7051 67.6239 69.2674 65.1253 66.758C64.3629 65.9942 63.4082 65.1149 62.4472 64.0944V70.4997C62.4472 71.4689 62.3383 72.3738 62.1397 73.2274C62.0372 73.6318 60.9993 77.8036 60.9993 79.9665C60.9993 80.9805 61.2132 81.7027 61.5463 82.8451C68.2478 80.1174 75.7028 75.6021 83.9483 67.618V62.3294C82.5517 64.1329 80.9307 65.5963 79.7647 66.7644L79.7583 66.758Z" fill="#8C5138"/>
<path d="M90.1735 40.2471C89.5683 40.2471 88.7303 42.5744 88.2653 43.9096C87.6346 47.1833 86.8684 50.9433 86.7537 53.9025C88.754 53.8255 89.2498 52.1288 89.2498 50.2673C89.2498 46.6277 91.0144 45.652 91.0144 42.5773C91.0144 41.8904 91.0144 40.2471 90.1735 40.2471Z" fill="#8C5138"/>
<path d="M75.6113 53.9453C75.4193 53.9453 75.2273 53.9837 75.0738 54.0477C74.0563 54.4637 73.698 55.2893 72.4438 55.2893C71.2983 55.2893 70.588 54.0733 70.588 53.1197C70.588 51.9869 72.0086 50.9757 72.0086 46.6557C72.0086 40.4349 68.8603 38.2013 68.8603 32.7613C68.8603 27.3213 72.7509 23.4685 72.7701 23.4493C72.7317 23.4493 72.8085 23.4493 72.7701 23.4493H72.8021L72.4097 15.3268L72.0802 23.4493C66.9353 23.4493 62.4037 25.0301 60.5863 26.8477C57.5916 29.8493 60.516 32.6589 57.9627 35.2189C56.9453 36.2429 56.3502 37.5037 56.3502 39.5581C56.3502 41.1453 56.5358 43.0717 56.619 43.8717C56.1518 42.5405 55.2815 40.2749 54.68 40.2749C53.8354 40.2749 53.8354 41.9197 53.8354 42.5981C53.8354 45.6637 55.6079 46.6301 55.6079 50.2653C55.6079 52.1085 56.0302 53.7917 58.0203 53.8813C58.0331 54.1757 58.0459 54.4701 58.0459 54.7517C58.0459 60.5181 62.6028 64.3237 65.1048 66.826C67.6068 69.3284 70.7864 70.7197 72.4566 70.7197C72.4566 70.7197 69.9481 69.6637 69.9481 67.5261H69.9354C69.9354 64.6269 74.0883 64.8061 75.6625 63.2317C76.2448 62.6493 72.9365 64.2941 72.4438 64.2941C71.951 64.2941 71.3559 63.7949 71.3559 62.9757C71.3559 62.0605 72.4502 61.3949 72.4502 61.3949V59.8013C71.068 59.8013 70.7032 58.8989 70.6904 58.3997C70.6904 57.9773 70.8312 57.5549 71.2343 57.1389C72.1494 56.2237 73.0133 56.7293 74.5107 55.2317C75.2209 54.5213 75.9313 55.0269 76.6479 54.3229C77.3134 53.6509 77.2175 52.8189 77.2175 52.8189C77.2175 53.3245 76.392 53.9389 75.6241 53.9389L75.6113 53.9453Z" fill="#8C5138"/>
<path d="M128.757 155.84C123.591 155.385 120.246 144.774 120.246 138.406C120.246 130.284 123.571 121.696 125.075 114.406L123.603 106.796L108.983 120.409C111.34 131.884 117.602 155.865 128.757 155.865V155.84Z" fill="#8C5138"/>
<path d="M37.0045 119.699L24.3784 107.859L21.8303 105.491C21.7984 105.708 21.7424 106.148 21.7105 106.359L36.8526 124.544L37.9027 120.55L36.9917 119.692L37.0045 119.699Z" fill="#8C5138"/>
<path d="M118.724 92.9213C116.195 90.5533 111.627 88.9277 105.55 86.7581C105.645 86.7901 105.734 86.8285 105.55 86.7581C105.932 93.2285 106.824 108.755 107.524 121.766L126.527 104.07C126.527 104.07 120.482 94.5661 118.724 92.9149V92.9213Z" fill="#A9DDF7"/>
<path d="M105.556 86.7581C105.365 86.6877 105.46 86.7261 105.556 86.7581V86.7581Z" fill="#A9DDF7"/>
<path d="M20.3268 104.083L37.9855 120.646C38.6672 108.128 39.5017 93.6509 39.8775 87.2765L28.1305 92.9341C26.3723 94.5853 20.3268 104.089 20.3268 104.089V104.083Z" fill="#A9DDF7"/>
<path d="M55.6633 88.7229C55.676 85.4205 56.0583 82.4829 56.5169 80.1277C55.4785 83.1741 54.5803 86.1437 54.351 89.2669L55.6633 88.7229Z" fill="#A9DDF7"/>
<path d="M84.1134 72.8253C84.1134 72.8253 85.2601 77.3245 85.2601 79.5901C85.2601 87.6541 73.2328 100.525 73.15 100.614L73.0098 100.473C71.7103 99.0589 61.5241 87.7309 61.0399 80.1661C60.9443 78.6621 62.212 73.0429 62.212 73.0429C61.4157 73.8429 60.371 74.7709 59.2817 75.6925C58.6319 77.6125 57.2241 82.5789 57.2241 88.5565L60.1353 87.3469L59.3836 89.6061C62.1228 92.3645 73.4303 103.417 73.4303 103.417L60.3009 95.2829V95.2701L70.3215 131.033C71.2261 134.214 71.8895 139.189 72.3914 142.411C72.3914 142.411 73.2808 148.487 73.4155 150.338C74.8268 150.414 75.7375 150.394 75.7375 150.394C75.6292 148.679 75.5834 147.577 75.5962 145.862C75.6153 143.897 75.7618 141.427 75.7618 141.427C76.1122 136.461 76.9658 131.526 78.3291 126.701L88.3242 90.8029L77.1251 99.7949C80.2275 96.7549 84.4956 92.5693 86.6679 90.4061C86.6743 90.3997 86.6806 90.3933 86.687 90.3869C86.8081 90.2653 86.9291 90.1501 87.0374 90.0413C87.0692 90.0093 87.1074 89.9709 87.1393 89.9453C87.2603 89.8237 87.375 89.7085 87.4706 89.6125L86.7316 87.3533L97.5867 91.6285C97.5867 91.6285 97.2109 84.6653 93.0829 80.5117C93.0829 80.5117 86.9864 75.7437 84.0943 72.8317L84.1134 72.8253ZM60.1417 87.3405L60.1544 87.3277V87.3405H60.1417Z" fill="#A9DDF7"/>
<path d="M77.1123 99.8268L88.3433 90.8028L89.0377 88.3004L86.738 87.3468L87.4897 89.606C85.7697 91.3404 80.667 96.3452 77.106 99.8268H77.1123Z" fill="#4DBDF5"/>
<path d="M86.738 87.3404L86.7444 87.3468L86.738 87.334V87.3404Z" fill="#4DBDF5"/>
<path d="M73.443 103.404C73.443 103.404 62.1356 92.3516 59.3964 89.5932L60.1481 87.3276L58.3007 88.0892L56.5361 88.8252L67.5886 128.256C68.8054 132.563 69.7829 143.284 69.7829 150.07C69.7829 150.07 70.806 150.168 71.4626 150.217C72.2268 150.275 73.4215 150.335 73.4215 150.335C72.9195 144.809 71.2962 134.438 70.3279 131.02L60.3009 95.2572V95.27L73.4367 103.404H73.443Z" fill="#4DBDF5"/>
<path d="M101.18 85.1197C101.097 84.9021 93.0829 63.7245 93.0829 38.5597C93.0829 38.5597 93.0829 38.5597 93.0829 38.5533C93.1657 38.3805 93.2357 38.2077 93.2676 38.0285C93.4014 37.3565 93.0829 36.6013 93.1529 35.9165C93.223 35.2317 93.6753 34.5661 93.6753 33.8621C93.6753 33.1581 93.223 32.5053 93.1529 31.8077C93.0829 31.1101 93.395 30.3805 93.2676 29.6957C93.1338 29.0109 92.5669 28.4477 92.363 27.7885C92.1592 27.1229 92.3248 26.3421 92.0636 25.6957C91.7961 25.0493 91.1272 24.6141 90.8023 23.9997C90.4774 23.3853 90.4838 22.5789 90.1015 22.0029C89.7193 21.4269 88.974 21.1261 88.5344 20.5885C88.0949 20.0509 87.942 19.2573 87.4578 18.7709C86.9737 18.2845 86.1838 18.1245 85.6487 17.6893C85.1135 17.2541 84.8141 16.4989 84.2408 16.1149C83.6993 15.7501 82.9476 15.7309 82.3552 15.4557C83.2279 14.0861 83.763 12.3965 83.763 10.3549C83.763 8.31333 83.1133 4.40293 80.0045 4.40293C79.9854 4.40293 79.9663 4.40293 79.9408 4.40293C79.8707 4.40293 79.807 4.40933 79.7369 4.40933C79.6159 4.40933 79.4949 4.42213 79.3802 4.42853C79.2209 4.44133 79.0617 4.46693 78.9088 4.49893C78.9088 4.49893 78.9024 4.49893 78.896 4.49893C78.3546 4.60133 77.8641 4.76773 77.4118 4.97253C78.3546 4.29413 79.2974 3.73733 80.1446 3.49413C80.546 3.37253 80.7817 2.95013 80.6606 2.54693C80.5396 2.14373 80.1192 1.90693 79.7178 2.02853C77.4755 2.68773 74.7744 5.01093 72.9461 6.80293C72.8952 6.80293 72.8378 6.79653 72.7869 6.79013C72.7614 6.79013 72.7423 6.79013 72.7168 6.78373C71.137 6.45733 70.1686 3.94853 65.6457 3.94853C65.6393 3.94853 65.633 3.94853 65.6202 3.94853C65.6075 3.94853 65.6011 3.94853 65.5884 3.94853C60.8042 3.94853 59.167 7.99333 59.167 9.68293C59.167 10.5085 59.2307 12.9469 60.9699 15.2253C59.9888 14.7901 59.0269 14.1821 58.1478 13.3309C57.8484 13.0429 57.3642 13.0493 57.0712 13.3501C56.7845 13.6509 56.7909 14.1373 57.0903 14.4317C58.0522 15.3597 59.0778 16.0445 60.129 16.5373C59.0842 16.4797 58.0012 16.3709 56.8992 16.1725C56.4851 16.0957 56.0901 16.3773 56.0201 16.7933C55.9436 17.2093 56.2239 17.6061 56.638 17.6765C57.3769 17.8045 58.1032 17.8941 58.8167 17.9581C58.3389 18.2205 57.791 18.3997 57.4216 18.7709C56.9374 19.2573 56.7781 20.0509 56.345 20.5885C55.9118 21.1261 55.1664 21.4269 54.7778 22.0029C54.3956 22.5789 54.402 23.3917 54.0771 23.9997C53.7522 24.6077 53.0769 25.0621 52.8157 25.6957C52.5546 26.3293 52.7075 27.1293 52.5164 27.7885C52.3189 28.4477 51.7456 29.0301 51.6118 29.6957C51.478 30.3677 51.7965 31.1229 51.7264 31.8077C51.6564 32.4925 51.2041 33.1581 51.2041 33.8621C51.2041 34.5661 51.6564 35.2189 51.7264 35.9165C51.7965 36.6141 51.4844 37.3437 51.6118 38.0285C51.7456 38.7133 52.3125 39.2765 52.5164 39.9357C52.7202 40.6013 52.5546 41.3821 52.8157 42.0285C52.8922 42.2205 53.0132 42.3933 53.147 42.5597C51.1786 71.6989 40.1387 77.0621 40.1387 89.1517C40.1387 106.048 55.7334 116.902 55.7334 116.902C55.7334 116.902 58.5499 112.339 58.5499 109.107C58.5499 101.722 54.3447 100.032 54.3447 90.8228C54.3447 90.298 54.3064 89.6381 54.3447 89.1197C54.3447 89.1709 54.3574 88.9725 54.3447 89.1197C54.3701 88.7997 54.402 88.4797 54.4402 88.1597C54.4466 88.0957 54.4593 88.0253 54.4657 87.9613C54.5103 87.6413 54.5549 87.3277 54.6058 87.0141C54.6186 86.9373 54.6377 86.8605 54.6504 86.7837C54.7077 86.4829 54.7651 86.1821 54.8288 85.8813C54.8479 85.7789 54.8734 85.6765 54.8989 85.5805C54.9626 85.3117 55.0199 85.0365 55.09 84.7677C55.1282 84.6205 55.1664 84.4733 55.2046 84.3261C55.262 84.1021 55.3193 83.8845 55.383 83.6605C55.4467 83.4429 55.5104 83.2253 55.5741 83.0077C55.6187 82.8605 55.6633 82.7133 55.7079 82.5661C55.8035 82.2461 55.9054 81.9325 56.0073 81.6125C56.02 81.5805 56.0264 81.5421 56.0392 81.5101C56.1857 81.0557 56.3386 80.5949 56.4978 80.1341C56.4087 80.5757 56.3322 81.0429 56.2494 81.5229C56.1857 81.9005 56.1284 82.2845 56.071 82.6877C56.071 82.7133 56.0647 82.7325 56.0583 82.7581C55.95 83.5709 55.8544 84.4285 55.778 85.3245C55.7716 85.4141 55.7653 85.5037 55.7589 85.5933C55.7334 85.9261 55.7143 86.2653 55.6952 86.6109C55.6888 86.7645 55.6824 86.9245 55.6761 87.0781C55.6633 87.3725 55.6569 87.6669 55.6506 87.9613C55.6506 88.1405 55.6442 88.3133 55.6442 88.4925C55.5932 93.9773 56.4909 100.462 59.8979 106.997C60.0381 107.266 60.2533 107.382 60.5399 107.382C60.661 107.382 60.8403 107.338 60.955 107.28C61.3372 107.082 61.4516 106.575 61.2541 106.184C57.9925 99.6499 57.103 93.4397 57.2049 88.0829C57.2049 88.0125 57.2049 87.9421 57.2113 87.8717C57.2177 87.5005 57.2304 87.1421 57.2495 86.7837C57.2559 86.6429 57.2623 86.4957 57.275 86.3549C57.2941 86.0605 57.3132 85.7661 57.3324 85.4845C57.3451 85.3565 57.3515 85.2285 57.3642 85.1005C57.4343 84.2941 57.5234 83.5197 57.6317 82.7837C57.6445 82.6941 57.6573 82.6045 57.67 82.5149C57.7146 82.2205 57.7592 81.9325 57.8038 81.6573C57.8101 81.6125 57.8165 81.5613 57.8229 81.5165C58.2816 78.8477 58.8804 76.8189 59.2562 75.6989C60.3456 74.7773 61.3839 73.8557 62.1802 73.0557C62.3522 72.2685 62.4478 71.4301 62.4478 70.5405V64.1533L62.435 64.1341C60.25 61.8109 58.082 58.7814 58.0514 54.7696C58.0514 54.4944 58.0419 54.1694 58.0291 53.875C56.0479 53.7854 55.6187 52.1341 55.6187 50.2909C55.6187 46.6557 53.8541 45.6893 53.8541 42.6237C53.8541 41.9389 53.8541 40.3005 54.695 40.3005C55.2875 40.3005 56.2749 43.0769 56.7399 44.4081C56.6571 43.6081 56.3577 41.1709 56.3577 39.5837C56.3577 39.3405 56.3704 39.1101 56.3832 38.8861C56.3832 38.8093 56.4023 38.7389 56.4086 38.6621C56.4214 38.5213 56.4405 38.3869 56.4596 38.2525C56.4724 38.1629 56.4915 38.0797 56.5106 37.9965C56.5297 37.8877 56.5552 37.7789 56.5807 37.6765C56.5998 37.5869 56.6252 37.5037 56.6507 37.4205C56.6762 37.3309 56.7081 37.2413 56.7399 37.1517C56.7718 37.0685 56.8036 36.9853 56.8354 36.9021C56.8673 36.8253 56.9055 36.7485 56.9374 36.6717C56.9756 36.5885 57.0202 36.5053 57.0648 36.4285C57.103 36.3645 57.1413 36.3005 57.1795 36.2429C57.2304 36.1597 57.2814 36.0765 57.3324 35.9997C57.3642 35.9485 57.4024 35.9037 57.4406 35.8525C57.5999 35.6413 57.7719 35.4365 57.963 35.2445C60.5112 32.6845 57.5999 29.8749 60.5749 26.8733C62.3841 25.0557 66.9643 23.4749 72.0861 23.4749L72.411 15.3149L72.7359 23.4749H72.5894C72.6276 23.4749 72.6658 23.4749 72.7041 23.4749C78.189 23.4941 82.3679 25.0685 84.1644 26.8733C87.1457 29.8685 84.3109 32.6781 86.859 35.2445C87.8719 36.2621 88.4644 37.5229 88.4644 39.5837C88.4644 39.8077 88.4643 40.0381 88.4516 40.2685C88.3879 42.1821 88.0949 44.2557 88.0949 44.2557C87.4196 47.7885 86.7316 51.8333 86.7316 54.7709C86.7316 57.7085 85.4257 60.3197 83.8267 62.3805V68.0125V70.2525C83.8267 71.1741 83.9287 72.0381 84.107 72.8509H84.1007C86.9992 75.7693 93.0638 80.5053 93.0638 80.5053C93.739 81.2093 93.9875 81.5549 94.7073 82.5725L96.2426 83.2189L98.1372 83.9665C96.5592 80.2818 96.2268 77.0017 95.2394 70.0513C97.4754 79.9649 99.1284 84.2493 99.1729 84.3645L101.18 85.1197ZM89.2416 50.2717C89.2416 52.1213 88.7501 53.8253 86.7498 53.9021C86.8644 50.9517 87.6407 47.1736 88.2714 43.9096C88.7364 42.5848 89.56 40.2813 90.1652 40.2813C91.0061 40.2813 91.0061 41.9261 91.0061 42.6045C91.0061 45.6701 89.2416 46.6429 89.2416 50.2717Z" fill="#33190E"/>
<path d="M148.129 50.7517C147.511 50.5149 146.83 50.8029 146.581 51.3981L142.154 62.1053C141.988 62.4957 141.447 62.5341 141.217 62.1757C141.147 62.0669 141.122 61.9453 141.147 61.8173L144.008 45.5357C144.116 44.9277 143.689 44.3453 143.065 44.2493C142.491 44.1597 141.944 44.4989 141.803 45.0429L137.956 59.1485C137.93 59.2445 137.784 59.2125 137.796 59.1165L140.013 41.0941C140.096 40.4029 139.606 39.7757 138.899 39.6605C138.198 39.5453 137.542 39.9933 137.402 40.6781L133.758 58.6813C133.732 58.7965 133.56 58.7709 133.567 58.6557L134.522 43.2701C134.554 42.6749 134.121 42.1437 133.516 42.0477C132.879 41.9453 132.286 42.3549 132.165 42.9693C131.496 46.4573 129.477 57.0749 129.254 58.4637C128.929 60.5373 127.884 63.4557 127.285 65.0237C127.19 65.2733 126.808 65.2157 126.795 64.9405L126.585 60.7805C126.553 60.1277 126.394 59.5005 126.12 58.9053L125.935 58.5149C125.202 56.9149 123.692 55.7821 121.928 55.5005C121.609 55.4493 121.335 55.7245 121.399 56.0317C121.807 58.0797 123.043 64.4029 122.877 65.4909C121.718 72.8509 126.566 77.8237 127.375 81.5165H127.368C127.368 87.2253 125.82 103.801 125.82 108.448C125.82 116.685 120.272 127.942 120.272 138.413C120.272 144.921 123.756 155.865 129.12 155.865C133.955 155.865 139.555 146.438 139.555 133.017C139.555 119.597 137.968 105.657 137.968 96.8893C137.968 89.6125 138.44 86.4829 138.561 85.6189C139.032 82.6301 143.154 74.7901 144.039 69.1645C144.301 67.5517 144.594 65.6765 144.772 64.4861C144.925 63.5197 147.785 55.2189 148.817 52.2301C149.027 51.6285 148.709 50.9757 148.11 50.7453L148.129 50.7517Z" fill="#BA7048"/>
<path d="M84.1453 72.8445C83.9605 72.0381 83.865 71.1741 83.865 70.2525V67.6477C75.6663 75.6093 68.2034 80.1251 61.5464 82.8451C63.9607 90.8515 73.1755 100.64 73.1755 100.64C73.1755 100.64 85.2919 87.7117 85.2919 79.6093C85.2919 77.3437 84.1453 72.8445 84.1453 72.8445Z" fill="#BA7048"/>
<path d="M72.4556 70.7261C74.1183 70.7261 77.2461 69.2925 79.7306 66.7901C82.2214 64.2877 86.8017 60.4669 86.8017 54.7581C86.8017 51.8269 87.4961 47.7821 88.165 44.2429C88.165 44.2429 88.5344 41.6189 88.5344 39.5581C88.5344 37.4973 87.942 36.2365 86.9291 35.2189C84.3746 32.6525 87.2094 29.8429 84.2344 26.8477C82.438 25.0429 78.2072 23.4801 72.7223 23.4545C72.665 23.5057 68.7183 27.3637 68.7183 32.7717C68.7183 38.1797 72.0161 40.4413 72.0161 46.6557C72.0161 50.9757 70.6018 51.9869 70.6018 53.1197C70.6018 54.0733 71.3089 55.2893 72.4492 55.2893C73.6978 55.2893 74.061 54.4701 75.0675 54.0477C75.2204 53.9837 75.4115 53.9453 75.6026 53.9453C76.3606 53.9453 77.1888 53.3309 77.1888 52.8253C77.1888 52.8253 77.2907 53.6573 76.6219 54.3293C75.9147 55.0397 75.2012 54.5341 74.4941 55.2381C73.0035 56.7357 72.1435 56.2301 71.2325 57.1453C70.8312 57.5549 70.6846 57.9773 70.691 58.4061C70.7037 58.9053 71.0669 59.8077 72.4429 59.8077V61.4013C72.4429 61.4013 71.3535 62.0669 71.3535 62.9821C71.3535 63.8013 71.946 64.3005 72.4365 64.3005C72.927 64.3005 76.2205 62.6557 75.6408 63.2381C74.0737 64.8125 69.9393 64.6269 69.9393 67.5325H69.9521C69.9521 69.6701 72.4492 70.7261 72.4492 70.7261" fill="#BA7048"/>
<path d="M36.8453 124.569L34.4982 135.548C34.4982 135.548 30.8619 132.713 26.4758 127.93C23.1636 124.318 20.0279 119.311 20.0279 119.311C20.0279 119.311 19.8698 119.183 21.7155 106.359L36.8453 124.539V124.569Z" fill="#BA7048"/>
<g opacity="0.6">
<path d="M81.9347 42.3357C82.7947 42.5085 83.6484 42.7709 84.4765 43.1549C81.1512 40.2557 77.0232 41.4333 75.042 45.2221H75.0484C76.8894 43.3661 79.1955 41.6445 81.9284 42.3357H81.9347Z" fill="#603625"/>
<path d="M78.4947 53.0045C79.9726 54.2205 81.699 55.0077 82.3488 56.9213C82.7246 54.7965 80.3294 53.2541 78.4947 53.0045Z" fill="#603625"/>
<path d="M62.728 56.9277C63.3714 55.0141 65.1042 54.2205 66.5821 53.0109C64.7474 53.2669 62.3521 54.8029 62.728 56.9277Z" fill="#603625"/>
<path d="M60.4921 43.1548C64.4481 41.3372 66.9771 42.2013 69.9266 45.2221C67.939 41.4397 63.8174 40.2556 60.4921 43.1548Z" fill="#603625"/>
</g>
<path d="M74.182 57.8492C73.494 57.8492 73.0098 58.3932 72.3791 58.3932C71.7867 58.3932 71.328 57.926 70.7101 57.862C70.6464 58.0412 70.6209 58.2204 70.6209 58.406C70.6337 58.886 70.984 59.7436 72.2453 59.8076C72.2836 59.8076 72.8633 59.8076 72.9015 59.8076C74.6088 59.6988 76.2077 59.4044 77.794 58.886C77.2334 59.6476 75.6089 61.4204 72.3664 61.4204C72.3664 61.4204 71.2771 62.086 71.2771 63.0012C71.2771 63.75 71.7676 64.2236 72.2263 64.3068C72.2772 64.3068 72.3218 64.3196 72.3664 64.3196C76.6791 64.3196 78.5329 59.398 78.8323 58.502C79.2719 58.3036 79.514 58.1372 79.514 57.9772C78.3291 58.2396 74.7871 57.862 74.1692 57.862L74.182 57.8492Z" fill="#603625"/>
<path d="M72.3791 59.8076C71.0031 59.8076 70.64 58.8988 70.6273 58.3996C70.6273 58.214 70.6528 58.0348 70.7165 57.8556C70.6719 57.8556 70.6209 57.8492 70.57 57.8492C69.952 57.8492 66.4165 58.2268 65.2252 57.9644C65.2252 58.1244 65.4673 58.2908 65.9069 58.4892C66.2063 59.3788 68.0664 64.3068 72.3728 64.3068C71.8822 64.3068 71.2898 63.8076 71.2898 62.9884C71.2898 62.0732 72.3791 61.4076 72.3791 61.4076C75.6153 61.4076 77.2589 59.6284 77.8131 58.8668L77.2843 59.0396C76.5645 59.622 74.8254 60.7804 72.3791 60.7804C71.9459 60.7804 71.5446 60.7356 71.1624 60.6716C69.3596 60.3772 68.0791 59.5068 67.4803 59.0268C67.6077 59.0588 67.7288 59.0972 67.8626 59.1292C67.8944 59.142 67.9199 59.1484 67.9517 59.1548C68.0855 59.1932 68.2129 59.2252 68.3531 59.2572C68.3658 59.2636 68.3785 59.2636 68.3913 59.2636C68.5251 59.2956 68.6588 59.3212 68.7862 59.3532C68.8117 59.3532 68.8309 59.366 68.8563 59.366C69.0029 59.398 69.1494 59.4236 69.2959 59.4556H69.315C69.4742 59.4812 69.6208 59.5132 69.7737 59.5388H69.78C70.2514 59.6284 70.7229 59.6924 71.1624 59.7436C71.602 59.7948 72.016 59.8204 72.3791 59.8204" fill="#33190E"/>
<path d="M76.8639 59.1676C76.1058 59.5452 74.4686 60.166 72.3919 60.166C72.1753 60.166 71.9523 60.1596 71.7103 60.1404C71.4172 60.1148 71.1624 60.358 71.1624 60.6524V60.678C71.551 60.742 71.9523 60.7868 72.3791 60.7868C74.8254 60.7868 76.5581 59.6284 77.2843 59.046" fill="white"/>
<path d="M72.3855 59.8141C72.0224 59.8141 71.6083 59.7885 71.1688 59.7373C70.7292 59.6861 70.2578 59.6221 69.7864 59.5325C69.6335 59.5069 69.487 59.4749 69.3278 59.4493H69.3086C69.1621 59.4173 69.0156 59.3917 68.8691 59.3597C68.8436 59.3597 68.8245 59.3469 68.799 59.3469C68.6652 59.3149 68.5378 59.2893 68.4041 59.2573C68.3913 59.2573 68.3786 59.2573 68.3658 59.2509C68.2257 59.2189 68.0983 59.1869 67.9645 59.1485C67.9327 59.1421 67.9072 59.1357 67.8753 59.1229C67.7415 59.0909 67.6205 59.0525 67.4931 59.0205C68.0919 59.5005 69.3723 60.3709 71.1752 60.6653V60.6205C71.2261 60.3069 71.4236 60.1021 71.723 60.1277C71.9651 60.1469 72.2326 60.1533 72.4492 60.1533C74.526 60.1533 76.1186 59.5325 76.8766 59.1549C75.3987 59.5325 73.615 59.8077 72.3983 59.8077L72.3855 59.8141Z" fill="#A9DDF7"/>
<path d="M63.0083 43.9677C62.7408 44.1213 62.4924 44.2749 62.2057 44.3837C62.3841 44.5309 62.8236 44.8701 63.5116 45.1069C63.4033 44.8893 63.346 44.6141 63.3523 44.3517C63.3523 44.1149 63.4161 43.8973 63.5116 43.6989C63.3396 43.7821 63.1803 43.8781 63.0083 43.9677Z" fill="white"/>
<path d="M68.4996 45.2413C67.8562 44.7421 67.2064 44.2173 66.4802 43.8589C66.5439 44.0445 66.5821 44.23 66.5821 44.4348C66.5694 44.7676 66.4547 45.0813 66.2763 45.3373L68.6015 45.2669C68.6015 45.2669 68.6015 45.2669 68.5951 45.2669C68.5633 45.2669 68.5315 45.2669 68.4996 45.2477V45.2413Z" fill="white"/>
<path d="M82.8011 44.3901C82.5208 44.2813 82.2405 44.1277 81.9666 43.9805C81.7946 43.8845 81.6353 43.7949 81.4633 43.7117C81.5589 43.9165 81.6226 44.1277 81.6226 44.3645C81.6226 44.6269 81.5652 44.8765 81.4633 45.1005C82.1577 44.8701 82.6291 44.5373 82.8074 44.3965L82.8011 44.3901Z" fill="white"/>
<path d="M78.3928 44.4285C78.3864 44.2237 78.431 44.0381 78.4947 43.8525C77.7748 44.2173 77.1187 44.7357 76.4753 45.2349C76.4498 45.2541 76.418 45.2605 76.3861 45.2541C76.3861 45.2541 79.1636 45.3245 78.7049 45.3245C78.5138 45.0685 78.4055 44.7613 78.3992 44.4221L78.3928 44.4285Z" fill="white"/>
<path d="M68.8181 54.1757C68.8181 54.2909 68.8563 54.5277 69.3915 54.5277C69.9266 54.5277 70.2387 54.4509 70.9394 54.6749C70.9394 54.6749 70.1495 53.9005 69.3278 53.9005C68.9838 53.9005 68.8181 54.0669 68.8181 54.1757Z" fill="#33190E"/>
<path d="M75.6408 53.9005C74.8254 53.9005 74.0291 54.6749 74.0291 54.6749C74.7298 54.4509 75.042 54.5277 75.5771 54.5277C76.1122 54.5277 76.1504 54.2845 76.1504 54.1757C76.1504 54.0669 75.9848 53.9005 75.6408 53.9005Z" fill="#33190E"/>
<path d="M85.8589 41.1517C85.8079 41.0493 84.5465 38.6621 82.4762 38.6621C80.8836 38.6621 78.6348 39.0141 77.4372 39.2317C76.7046 39.3661 76.1186 39.9101 75.9402 40.6205L75.8382 41.0237C75.8191 41.1069 75.8382 41.1965 75.9083 41.2541C75.9529 41.2989 76.0102 41.3181 76.0739 41.3181C76.0994 41.3181 76.1249 41.3181 76.1441 41.3053C76.883 41.0813 80.6415 39.9997 82.5972 39.9997C83.5018 39.9997 85.6677 41.2861 85.6932 41.2989C85.7378 41.3245 85.7951 41.3181 85.8334 41.2861C85.8716 41.2541 85.8843 41.1965 85.8589 41.1517Z" fill="#33190E"/>
<path d="M82.9731 43.4109C82.2915 43.0845 81.5207 42.7133 80.3931 42.7453C78.8069 42.7837 77.45 43.9293 76.3224 45.0557C76.2778 45.1005 76.2778 45.1773 76.3224 45.2221C76.367 45.2733 76.4371 45.2797 76.4881 45.2413C77.1315 44.7421 77.7812 44.2237 78.5075 43.8589C78.4438 44.0445 78.3992 44.2301 78.4055 44.4349C78.4055 44.7741 78.5266 45.0877 78.7113 45.3373H80.1256C80.6352 45.3245 81.0875 45.2285 81.4697 45.1005C81.578 44.8701 81.6417 44.6205 81.6353 44.3517C81.6353 44.1149 81.5716 43.9037 81.4761 43.6989C81.6481 43.7885 81.8073 43.8781 81.9793 43.9677C82.5144 44.2557 83.0623 44.5629 83.6356 44.5501C84.1389 44.5373 84.5848 44.2045 84.8014 43.9997L85.0498 43.7757L84.3236 43.8205C83.8841 43.8333 83.4636 43.6285 82.9795 43.3981L82.9731 43.4109Z" fill="#33190E"/>
<path d="M68.8308 41.3053C68.8308 41.3053 68.8754 41.3181 68.9009 41.3181C68.9646 41.3181 69.022 41.2989 69.0665 41.2541C69.1366 41.1965 69.1558 41.1069 69.1367 41.0237L69.0347 40.6205C68.8563 39.9037 68.2766 39.3661 67.5377 39.2317C66.3401 39.0141 64.0849 38.6621 62.4987 38.6621C60.4283 38.6621 59.167 41.0493 59.116 41.1517C59.0906 41.1965 59.1033 41.2541 59.1415 41.2861C59.1798 41.3181 59.2371 41.3245 59.2817 41.2989C59.3072 41.2861 61.4731 39.9997 62.3777 39.9997C64.3334 39.9997 68.0983 41.0877 68.8308 41.3053Z" fill="#33190E"/>
<path d="M64.5882 42.7453C63.4543 42.7133 62.6835 43.0845 62.0082 43.4109C61.5241 43.6477 61.1036 43.8397 60.664 43.8333L59.9442 43.7885L60.1863 44.0125C60.4092 44.2109 60.8552 44.5501 61.3584 44.5629C61.9318 44.5757 62.486 44.2813 63.0083 43.9805C63.1803 43.8845 63.3396 43.7885 63.5116 43.7117C63.4161 43.9101 63.3587 44.1277 63.3524 44.3645C63.3524 44.6269 63.4033 44.8893 63.518 45.1133C63.9002 45.2413 64.3525 45.3373 64.8621 45.3501C65.3272 45.3629 65.8177 45.3629 66.2763 45.3501C66.4611 45.0941 66.5694 44.7805 66.5821 44.4477C66.5821 44.2429 66.5439 44.0573 66.4802 43.8717C67.2064 44.2301 67.8562 44.7549 68.4996 45.2541C68.5506 45.2925 68.6206 45.2861 68.6652 45.2349C68.7098 45.1837 68.7034 45.1133 68.6652 45.0685C67.5313 43.9293 66.1744 42.7965 64.5946 42.7581L64.5882 42.7453Z" fill="#33190E"/>
<path d="M97.6886 117.548H97.695C98.0135 117.484 100.848 116.179 101.103 116.032C101.683 115.699 101.874 114.95 101.543 114.368C101.211 113.785 100.466 113.593 99.8864 113.926C99.638 114.073 97.0898 115.891 96.8796 116.134C96.6248 116.416 96.5929 116.819 96.7713 117.139C96.956 117.459 97.3255 117.625 97.6886 117.548Z" fill="#FFC220"/>
<path d="M101.11 120.441C100.855 120.294 98.0263 118.988 97.7014 118.924C97.3383 118.848 96.9688 119.014 96.7841 119.334C96.5993 119.654 96.6439 120.064 96.8923 120.339C97.1153 120.588 99.6507 122.4 99.9056 122.547C100.485 122.88 101.218 122.688 101.562 122.105C101.899 121.523 101.702 120.787 101.122 120.441H101.11Z" fill="#FFC220"/>
<path d="M94.8857 120.422C94.5162 120.422 94.1913 120.665 94.0766 121.017C93.9747 121.324 93.6817 124.448 93.6817 124.748C93.6817 125.42 94.2232 125.964 94.8857 125.964C95.5482 125.964 96.0897 125.42 96.0897 124.748C96.0897 124.46 95.7966 121.337 95.6947 121.017C95.5737 120.659 95.2488 120.422 94.8857 120.422Z" fill="#FFC220"/>
<path d="M92.0891 118.918H92.0827C91.7642 118.982 88.9294 120.288 88.6746 120.435C88.0949 120.768 87.9038 121.516 88.235 122.099C88.5663 122.681 89.3116 122.873 89.8913 122.54C90.1398 122.393 92.6879 120.576 92.8981 120.332C93.153 120.051 93.1848 119.648 93.0064 119.328C92.8217 119.008 92.4522 118.841 92.0891 118.918Z" fill="#FFC220"/>
<path d="M88.6618 116.032C88.9103 116.179 91.7451 117.484 92.07 117.548C92.4331 117.625 92.8026 117.459 92.9873 117.139C93.172 116.819 93.1275 116.409 92.879 116.134C92.6561 115.884 90.1207 114.073 89.8658 113.926H89.8722C89.2925 113.593 88.5599 113.785 88.2223 114.368C87.891 114.95 88.0821 115.686 88.6618 116.032Z" fill="#FFC220"/>
<path d="M94.8857 110.508C94.2168 110.508 93.6817 111.052 93.6817 111.724C93.6817 112.012 93.9747 115.136 94.0766 115.449C94.1977 115.808 94.5226 116.044 94.8857 116.044C95.2488 116.044 95.58 115.801 95.6947 115.449C95.7966 115.142 96.0897 112.019 96.0897 111.724C96.0897 111.052 95.5482 110.508 94.8857 110.508Z" fill="#FFC220"/>
<path d="M95.0386 104.768C96.9242 104.768 98.4594 103.232 98.4594 101.331C98.4594 99.43 96.9306 97.894 95.0386 97.894C93.1466 97.894 91.6177 99.43 91.6177 101.331C91.6177 103.232 93.1466 104.768 95.0386 104.768ZM96.0897 100.268C96.1852 99.8716 96.37 99.5708 96.5037 99.6028C96.6375 99.6348 96.663 99.9868 96.5675 100.384C96.4719 100.78 96.2872 101.081 96.1534 101.049C96.0196 101.017 95.9941 100.665 96.0897 100.268ZM94.1276 99.782C94.2232 99.3852 94.4079 99.0844 94.5417 99.1164C94.6754 99.1484 94.7009 99.5004 94.6054 99.8972C94.5098 100.294 94.3251 100.595 94.1913 100.563C94.0575 100.531 94.032 100.179 94.1276 99.782ZM92.4203 101.824C92.3694 101.785 92.4458 101.587 92.5987 101.388C92.7452 101.19 92.9109 101.056 92.9682 101.094C93.0255 101.132 92.9427 101.331 92.7898 101.529C92.7771 101.548 92.7643 101.561 92.7516 101.574C93.7581 102.854 95.4718 103.276 96.956 102.611C96.956 102.592 96.9497 102.579 96.9433 102.56C96.9051 102.31 96.9242 102.099 96.9879 102.092C97.0516 102.08 97.1408 102.272 97.179 102.521C97.2172 102.771 97.1981 102.976 97.1344 102.988C97.0834 102.995 97.0134 102.867 96.9688 102.675C96.6885 102.944 96.3317 103.136 95.9431 103.232C94.6882 103.552 93.1465 102.873 92.7134 101.619C92.586 101.766 92.4649 101.856 92.4203 101.817V101.824Z" fill="#FFC220"/>
<path d="M45.579 117.644C44.8754 117.644 44.305 118.217 44.305 118.924V121.721H58.9122V118.924C58.9122 118.217 58.3418 117.644 57.6382 117.644H45.579ZM52.5164 119.238H50.6945C50.548 119.238 50.4333 119.123 50.4333 118.976C50.4333 118.828 50.5543 118.713 50.6945 118.713H52.5164C52.6629 118.713 52.7776 118.828 52.7776 118.976C52.7776 119.123 52.6565 119.238 52.5164 119.238Z" fill="#0053E2"/>
<path d="M58.9617 125.376H44.3011V125.772C44.3011 126.479 44.8716 127.052 45.5752 127.052H57.6877C58.3913 127.052 58.9617 126.479 58.9617 125.772V125.376Z" fill="#0053E2"/>
<path d="M52.7903 120.46C52.5801 120.505 52.459 120.582 52.459 120.761C52.459 120.934 52.5737 121.024 52.7266 121.024C52.8604 121.024 52.9432 120.96 52.9814 120.876V120.998H53.2681V120.422C53.2681 120.16 53.1279 120.044 52.8795 120.044C52.6948 120.044 52.561 120.108 52.51 120.153V120.403C52.5673 120.352 52.6884 120.275 52.8349 120.275C52.9305 120.275 52.9687 120.3 52.9687 120.358C52.9687 120.403 52.9177 120.422 52.7775 120.454L52.7903 120.46ZM52.9814 120.697C52.9814 120.8 52.9305 120.857 52.8476 120.857C52.7776 120.851 52.7393 120.806 52.7393 120.748C52.7393 120.672 52.7967 120.64 52.8731 120.614C52.9113 120.601 52.9495 120.582 52.9814 120.563V120.697Z" fill="white"/>
<path d="M50.8219 123.955C50.8219 124.064 50.8983 124.14 51.0448 124.14C51.2423 124.14 51.3315 123.98 51.3315 123.859V123.648C51.306 123.68 51.2423 123.705 51.0894 123.737C50.9111 123.776 50.8282 123.827 50.8282 123.955H50.8219Z" fill="white"/>
<path d="M53.1534 123.334C52.9687 123.334 52.8349 123.443 52.8094 123.667H53.4465C53.4465 123.443 53.3063 123.334 53.1598 123.334H53.1534Z" fill="white"/>
<path d="M44.2986 121.721V125.376H58.9058V121.721H44.2986ZM48.8662 124.204H48.1208V122.944H48.8534V123.027H48.21V123.507H48.8407V123.59H48.21V124.121H48.8662V124.204ZM49.3822 124.217C49.3822 124.217 49.3376 124.224 49.3057 124.224C49.1974 124.224 49.121 124.16 49.121 124.025V122.905L49.2102 122.899V124.012C49.2102 124.108 49.2547 124.14 49.3184 124.14C49.3439 124.14 49.3631 124.14 49.3822 124.14V124.224V124.217ZM49.637 124.204H49.5478V123.27H49.637V124.204ZM49.5924 123.084C49.5541 123.084 49.5223 123.052 49.5223 123.014C49.5223 122.976 49.5541 122.944 49.5924 122.944C49.6306 122.944 49.6625 122.976 49.6625 123.014C49.6625 123.052 49.6306 123.084 49.5924 123.084ZM50.5798 124.198H49.879V124.115L50.4651 123.347H49.9173V123.264H50.567V123.347L49.981 124.115H50.5798V124.198ZM51.427 124.211H51.3379V124.032C51.2805 124.147 51.1658 124.217 51.0321 124.217C50.8601 124.217 50.7454 124.108 50.7454 123.955C50.7454 123.801 50.8601 123.712 51.0321 123.68C51.2678 123.628 51.3315 123.609 51.3315 123.513C51.3315 123.379 51.2359 123.328 51.1021 123.328C50.9301 123.328 50.841 123.404 50.79 123.468V123.366C50.8346 123.315 50.9365 123.251 51.1085 123.251C51.3187 123.251 51.427 123.353 51.427 123.558V124.211ZM52.1469 124.23C51.9685 124.23 51.8475 124.128 51.7838 123.987V124.211H51.6946V122.892H51.7838V123.507C51.8475 123.36 51.9813 123.257 52.1469 123.257C52.4017 123.257 52.561 123.475 52.561 123.744C52.561 124.012 52.4081 124.23 52.1469 124.23ZM53.1916 124.14C53.3127 124.14 53.4273 124.102 53.4974 124.025V124.121C53.4528 124.166 53.3254 124.224 53.1853 124.224C52.9304 124.224 52.7202 124.057 52.7202 123.75C52.7202 123.443 52.9177 123.257 53.1534 123.257C53.3891 123.257 53.5548 123.43 53.5293 123.75H52.8094C52.8094 124.012 52.975 124.14 53.1916 124.14ZM53.8924 123.36V123.961C53.8924 124.102 53.9434 124.147 54.0453 124.147C54.1026 124.147 54.1472 124.128 54.1663 124.115V124.192C54.1663 124.192 54.109 124.224 54.0389 124.224C53.9051 124.224 53.8095 124.153 53.8095 123.968V123.353H53.6822V123.296C53.8032 123.283 53.8223 123.238 53.835 123.052H53.8987V123.276H54.1663V123.36H53.8924ZM55.1346 124.198H55.0454V123.603C55.0454 123.392 54.9435 123.328 54.8034 123.328C54.6186 123.328 54.4785 123.468 54.4785 123.744V124.198L54.3893 124.204V122.886H54.4785V123.494C54.5358 123.353 54.6504 123.251 54.8224 123.251C54.9944 123.251 55.1346 123.353 55.1346 123.596V124.198Z" fill="white"/>
<path d="M52.1405 123.334C51.9175 123.334 51.7838 123.513 51.7838 123.737C51.7838 123.961 51.9303 124.14 52.1405 124.14C52.3507 124.14 52.4782 123.961 52.4782 123.737C52.4782 123.513 52.3571 123.334 52.1405 123.334Z" fill="white"/>
<path d="M48.8216 121.011L48.9935 120.23L49.1656 121.011H49.5095L49.758 119.84H49.465L49.3184 120.608L49.1465 119.84H48.847L48.675 120.608L48.5221 119.84H48.2164L48.4648 121.011H48.8216Z" fill="white"/>
<path d="M50.2167 120.371C50.2167 120.416 50.1657 120.435 50.0256 120.467C49.8154 120.512 49.6943 120.588 49.6943 120.768C49.6943 120.94 49.809 121.03 49.9619 121.03C50.0956 121.03 50.1785 120.966 50.2167 120.883V121.004H50.5034V120.428C50.5034 120.166 50.3632 120.051 50.1147 120.051C49.93 120.051 49.7962 120.115 49.7453 120.16V120.409C49.8026 120.358 49.9236 120.281 50.0701 120.281C50.1657 120.281 50.2039 120.307 50.2039 120.364L50.2167 120.371ZM50.2231 120.697C50.2231 120.8 50.1721 120.857 50.0893 120.857C50.0192 120.851 49.981 120.806 49.981 120.748C49.981 120.672 50.0383 120.64 50.1147 120.614C50.153 120.601 50.1912 120.582 50.2231 120.563V120.697Z" fill="white"/>
<path d="M50.9302 119.84H50.6307V121.017H50.9302V119.84Z" fill="white"/>
<path d="M51.3315 120.499C51.3315 120.371 51.3761 120.3 51.4653 120.3C51.5417 120.3 51.5672 120.352 51.5672 120.428V121.017H51.8666V120.505C51.8666 120.377 51.9112 120.307 52.0004 120.307C52.0768 120.307 52.1023 120.358 52.1023 120.435V121.024H52.4017V120.396C52.4017 120.198 52.3061 120.07 52.1405 120.07V120.057C51.9876 120.057 51.8985 120.147 51.8475 120.262C51.822 120.134 51.7328 120.057 51.6118 120.057C51.4716 120.057 51.3825 120.14 51.3379 120.256V120.083H51.0448V121.011H51.3442V120.499H51.3315Z" fill="white"/>
<path d="M53.6822 120.62C53.6822 120.435 53.7968 120.39 53.9051 120.39C53.9433 120.39 53.9752 120.39 53.9943 120.396V120.076C53.8223 120.076 53.7268 120.179 53.6822 120.339V120.083H53.3891V121.011H53.6885V120.62H53.6822Z" fill="white"/>
<path d="M54.402 121.03C54.4976 121.03 54.5485 121.011 54.5676 120.998V120.761C54.5676 120.761 54.5231 120.78 54.4848 120.78C54.4148 120.78 54.3701 120.755 54.3701 120.652V120.313H54.5676V120.083H54.3765V119.904H54.0771V120.697C54.0771 120.915 54.2045 121.024 54.402 121.024V121.03Z" fill="white"/>
<path d="M52.2042 113.593H51.013C50.7709 113.593 50.5734 113.798 50.5734 114.035V116.588L51.6118 117.766L52.6502 116.588V114.035C52.6502 113.785 52.4463 113.593 52.2106 113.593H52.2042ZM51.6054 116.736C51.2996 116.736 51.0512 116.486 51.0512 116.179C51.0512 115.872 51.2996 115.622 51.6054 115.622C51.9112 115.622 52.1596 115.872 52.1596 116.179C52.1596 116.486 51.9112 116.736 51.6054 116.736Z" fill="#A9DDF7"/>
<path opacity="0.57" d="M51.6054 117.76L50.567 116.582V118.854C50.567 118.854 50.5925 118.918 50.6307 118.918H52.58C52.58 118.918 52.6438 118.892 52.6438 118.854V116.588L51.6054 117.766V117.76Z" fill="#CBEBFA"/>
<path d="M57.498 53.0045C57.498 53.0045 57.4725 53.0045 57.4534 53.0109C57.4725 53.0109 57.4853 53.0109 57.5044 53.0109L57.498 53.0045Z" fill="#F1D898"/>
<path d="M58.4753 57.7284C57.609 58.0996 56.6189 57.9965 55.8927 57.2349C54.4338 55.8269 55.4213 53.2349 57.4534 53.0109C53.9879 52.8125 53.5739 57.8621 56.931 58.5085C57.5426 58.6365 58.1028 58.5268 58.6315 58.2388C58.5742 58.0724 58.5263 57.9012 58.4753 57.7284Z" fill="#F1D898"/>
<path d="M87.1901 53.4332C87.1901 53.4332 87.222 53.4332 87.2411 53.4332C87.2283 53.4332 87.2156 53.4332 87.1965 53.4268L87.1901 53.4332Z" fill="#F1D898"/>
<path d="M87.2411 53.4332C89.2668 53.6636 90.2606 56.262 88.8018 57.6572C88.0756 58.4188 87.0308 58.5148 86.1645 58.1436C86.1135 58.3164 86.0402 58.4832 85.9829 58.6496C86.5116 58.9376 87.1519 59.0588 87.7634 58.9308C91.1206 58.2908 90.7066 53.2348 87.2411 53.4332Z" fill="#F1D898"/>
</svg>
