<svg width="160" height="160" viewBox="0 0 160 160" fill="none" xmlns="http://www.w3.org/2000/svg">
<circle cx="76.995" cy="83.2" r="67.2" fill="#0053E2"/>
<path d="M123.55 94.8264C121.009 92.4584 116.42 90.8328 110.315 88.6632C110.411 88.6952 110.5 88.7336 110.315 88.6632C110.699 95.1336 111.595 110.66 112.299 123.671L131.39 105.975C131.39 105.975 125.316 96.4712 123.55 94.82V94.8264Z" fill="#A9DDF7"/>
<path d="M110.321 88.6632C110.129 88.5928 110.225 88.6312 110.321 88.6632V88.6632Z" fill="#A9DDF7"/>
<path d="M24.6954 105.988L42.4363 122.551C43.1211 110.033 43.9594 95.556 44.337 89.1816L32.5354 94.8392C30.769 96.4904 24.6954 105.994 24.6954 105.994V105.988Z" fill="#A9DDF7"/>
<path d="M60.186 90.4616C60.1988 87.1592 60.593 84.388 61.0538 82.0328C60.0106 85.0792 59.0986 87.9383 58.8682 91.0615L59.3628 90.8142L60.186 90.4616Z" fill="#A9DDF7"/>
<path d="M88.7786 74.7504C88.7786 74.7504 89.9307 79.2496 89.9307 81.5152C89.9307 89.5792 77.8707 102.453 77.7875 102.543C76.4819 101.128 66.0843 89.656 65.5979 82.0912C65.5019 80.5872 66.7754 74.968 66.7754 74.968C65.9754 75.768 64.9259 76.696 63.8315 77.6176C63.1787 79.5376 61.7411 84.504 61.7411 90.4816L64.6891 89.272L63.9338 91.5312C66.6858 94.2896 78.0525 105.308 78.0525 105.308L64.8554 97.1726L74.9227 132.958C75.8315 136.139 76.4714 139.378 76.8618 142.629C75.8186 142.68 74.8523 142.91 74.4491 143.352C74.4491 143.352 74.5899 146.078 74.5643 147.883C74.5515 148.958 74.6029 149.31 74.5325 150.385C74.5325 150.385 76.203 150.452 77.3288 150.452C78.4598 150.452 80.21 150.333 80.21 150.333C80.1012 148.617 80.209 149.502 80.2218 147.787C80.241 145.822 80.3883 143.352 80.3883 143.352C80.7402 138.386 81.5979 133.451 82.9675 128.626L93.0475 92.7001L81.7579 101.72C84.8747 98.68 89.0376 94.6383 91.22 92.4751C91.2264 92.4687 91.2288 92.4662 91.22 92.4751C91.3416 92.3535 91.7098 91.9792 91.8186 91.8704C91.7866 91.896 91.8506 91.8384 91.8186 91.8704C91.9402 91.7488 92.0555 91.6336 92.1515 91.5376L91.4091 89.2784L102.315 93.5536C102.315 93.5536 101.937 86.5904 97.7899 82.4368C97.7899 82.4368 91.6651 77.6688 88.7595 74.7568L88.7786 74.7504ZM64.6954 89.2656L64.7082 89.2528V89.2656H64.6954Z" fill="#A9DDF7"/>
<path d="M81.7451 101.732L93.0476 92.6924L93.7518 90.1751L91.3951 89.2424L92.15 91.5213C90.422 93.2557 85.3162 98.2502 81.7386 101.732H81.7451Z" fill="#4DBDF5"/>
<path d="M91.4155 89.2454L91.4219 89.2518L91.4155 89.239V89.2454Z" fill="#4DBDF5"/>
<path d="M78.0587 105.309C78.0587 105.309 66.6987 94.2567 63.9467 91.4983L64.7019 89.2327L61.7241 90.2482L61.8197 93.3571L72.9276 132.925C74.15 137.233 74.9291 143.834 74.5326 150.362C74.5326 150.362 75.4176 150.41 76.1478 150.424C76.7852 150.436 77.806 150.424 77.806 150.424C77.3017 144.898 77.2147 141.976 74.9291 132.925L64.8555 97.1623V97.1751L78.0523 105.309H78.0587Z" fill="#4DBDF5"/>
<path d="M72.2205 130.013L61.8179 93.3815C62.0492 98.5984 63.2924 102.986 65.8716 108.138C66.07 108.529 65.91 108.996 65.526 109.194C65.4108 109.252 65.2893 109.277 65.1741 109.277C64.8925 109.277 64.6108 109.111 64.47 108.842C61.1996 102.321 60.1641 95.909 60.1833 90.469C60.1833 90.469 58.8636 91.0083 58.8636 91.0595C58.8252 91.5779 58.8621 92.1552 58.8621 92.68C58.8621 101.896 63.1117 103.758 63.1117 111.144C63.1117 114.376 60.3357 118.621 60.3357 118.621C60.3357 118.621 44.6684 107.773 44.6684 90.8711C44.6684 90.1607 44.7068 89.4759 44.7836 88.8039C44.6684 88.8487 44.5468 88.8871 44.4252 88.9319C43.734 100.529 41.4696 135.61 41.4696 140.346C41.4696 140.346 48.3051 144.8 56.2584 147.253C66.2728 150.341 74.535 150.365 74.535 150.365C74.983 143.274 74.1789 136.874 72.2205 130.02V130.013Z" fill="#001E50"/>
<path d="M113.175 139.728C113.175 137.687 112.843 133.444 112.311 123.665H112.299C111.595 110.66 110.699 95.1335 110.315 88.6631C110.123 88.5927 110.219 88.6311 110.315 88.6631C110.315 88.6631 110.315 88.6311 110.315 88.6183C106.737 87.3319 102.839 85.9303 99.4475 84.4711C102.052 88.5223 102.327 93.5207 102.327 93.5207L93.7517 90.1752L82.9931 128.593C80.7403 136.509 79.6941 142.136 80.2125 150.315C80.2125 150.315 88.166 150.171 97.2428 147.317C105.172 144.823 113.175 139.728 113.175 139.728Z" fill="#001E50"/>
<path d="M105.924 87.0248C105.841 86.8072 97.7898 65.6296 97.7898 40.4648C97.7898 40.4648 97.7898 40.4648 97.7898 40.4584C97.873 40.2856 97.9434 40.1128 97.9754 39.9336C98.1098 39.2616 97.7898 38.5064 97.8602 37.8216C97.9306 37.1368 98.385 36.4712 98.385 35.7672C98.385 35.0632 97.9306 34.4104 97.8602 33.7128C97.7898 33.0152 98.1034 32.2856 97.9754 31.6008C97.841 30.916 97.2714 30.3528 97.0666 29.6936C96.8618 29.028 97.0282 28.2472 96.7658 27.6008C96.497 26.9544 95.825 26.5192 95.4986 25.9048C95.1722 25.2904 95.1786 24.484 94.7946 23.908C94.4106 23.332 93.6618 23.0312 93.2202 22.4936C92.7786 21.956 92.625 21.1624 92.1386 20.676C91.6522 20.1896 90.8586 20.0296 90.321 19.5944C89.7834 19.1592 89.4826 18.404 88.9066 18.02C88.3626 17.6552 87.6074 17.636 87.0122 17.3608C87.889 15.9912 88.4266 14.3016 88.4266 12.26C88.4266 10.2184 87.7738 6.30796 84.6506 6.30796C84.6314 6.30796 84.6122 6.30796 84.5866 6.30796C84.5162 6.30796 84.4522 6.31436 84.3818 6.31436C84.2602 6.31436 84.1386 6.32716 84.0234 6.33356C83.8634 6.34636 83.7034 6.37196 83.5498 6.40396C83.5498 6.40396 83.5434 6.40396 83.537 6.40396C82.993 6.50636 82.5002 6.67276 82.0458 6.87756C82.993 6.19916 83.9402 5.64236 84.7914 5.39916C85.1946 5.27756 85.4314 4.85516 85.3098 4.45196C85.1882 4.04876 84.7658 3.81196 84.3626 3.93356C82.1098 4.59276 79.3962 6.91596 77.5594 8.70796C77.5082 8.70796 77.4506 8.70156 77.3994 8.69516C77.3738 8.69516 77.3546 8.69516 77.329 8.68876C75.7418 8.36236 74.769 5.85356 70.225 5.85356C70.2186 5.85356 70.2122 5.85356 70.1994 5.85356C70.1866 5.85356 70.1802 5.85356 70.1674 5.85356C65.361 5.85356 63.7162 9.89836 63.7162 11.588C63.7162 12.4136 63.7802 14.852 65.5274 17.1304C64.5418 16.6952 63.5754 16.0872 62.6922 15.236C62.3914 14.948 61.905 14.9544 61.6106 15.2552C61.3226 15.556 61.329 16.0424 61.6298 16.3368C62.5962 17.2648 63.6266 17.9496 64.6826 18.4424C63.633 18.3848 62.545 18.276 61.4378 18.0776C61.0218 18.0008 60.625 18.2824 60.5546 18.6984C60.4778 19.1144 60.7594 19.5112 61.1754 19.5816C61.9178 19.7096 62.6474 19.7992 63.3642 19.8632C62.8842 20.1256 62.3338 20.3048 61.9626 20.676C61.4762 21.1624 61.3162 21.956 60.881 22.4936C60.4458 23.0312 59.697 23.332 59.3066 23.908C58.9226 24.484 58.929 25.2968 58.6026 25.9048C58.2762 26.5128 57.5978 26.9672 57.3354 27.6008C57.073 28.2344 57.2266 29.0344 57.0346 29.6936C56.8362 30.3528 56.2602 30.9352 56.1258 31.6008C55.9914 32.2728 56.3114 33.028 56.241 33.7128C56.1706 34.3976 55.7162 35.0632 55.7162 35.7672C55.7162 36.4712 56.1706 37.124 56.241 37.8216C56.3114 38.5192 55.9978 39.2488 56.1258 39.9336C56.2602 40.6184 56.8298 41.1816 57.0346 41.8408C57.2394 42.5064 57.073 43.2872 57.3354 43.9336C57.4122 44.1256 57.5338 44.2984 57.6682 44.4648C55.6906 73.604 44.5994 78.9672 44.5994 91.0568C44.5994 107.953 60.2666 118.807 60.2666 118.807C60.2666 118.807 63.0962 114.244 63.0962 111.012C63.0962 103.627 58.8714 101.937 58.8714 92.7278C58.8714 92.203 58.833 91.5432 58.8714 91.0248C58.8714 91.076 58.8842 90.8776 58.8714 91.0248C58.897 90.7048 58.929 90.3848 58.9674 90.0648C58.9738 90.0008 58.9866 89.9304 58.993 89.8664C59.0378 89.5464 59.0826 89.2328 59.1338 88.9192C59.1466 88.8424 59.1658 88.7656 59.1786 88.6888C59.2362 88.388 59.2938 88.0872 59.3578 87.7864C59.377 87.684 59.4026 87.5816 59.4282 87.4856C59.4922 87.2168 59.5498 86.9416 59.6202 86.6728C59.6586 86.5256 59.697 86.3784 59.7354 86.2312C59.793 86.0072 59.8506 85.7896 59.9146 85.5656C59.9786 85.348 60.0426 85.1304 60.1066 84.9128C60.1514 84.7656 60.1962 84.6184 60.241 84.4712C60.337 84.1512 60.4394 83.8376 60.5418 83.5176C60.5546 83.4856 60.561 83.4472 60.5738 83.4152C60.721 82.9608 60.8746 82.5 61.0346 82.0392C60.945 82.4808 60.8682 82.948 60.785 83.428C60.721 83.8056 60.6634 84.1896 60.6058 84.5928C60.6058 84.6184 60.5994 84.6376 60.593 84.6632C60.4842 85.476 60.3882 86.3336 60.3114 87.2296C60.305 87.3192 60.2986 87.4088 60.2922 87.4984C60.2666 87.8312 60.2474 88.1704 60.2282 88.516C60.2218 88.6696 60.2154 88.8296 60.209 88.9832C60.1962 89.2776 60.1898 89.572 60.1834 89.8664C60.1834 90.0456 60.177 90.2184 60.177 90.3976C60.1258 95.8824 61.0277 102.367 64.4505 108.902C64.5913 109.171 64.8075 109.287 65.0955 109.287C65.2171 109.287 65.3973 109.243 65.5125 109.185C65.8965 108.987 66.0114 108.48 65.813 108.089C62.5362 101.555 61.6426 95.3448 61.745 89.988C61.745 89.9176 61.745 89.8472 61.7514 89.7768C61.7578 89.4056 61.7706 89.0472 61.7898 88.6888C61.7962 88.548 61.8026 88.4008 61.8154 88.26C61.8346 87.9656 61.8538 87.6712 61.873 87.3896C61.8858 87.2616 61.8922 87.1336 61.905 87.0056C61.9754 86.1992 62.065 85.4248 62.1738 84.6888C62.1866 84.5992 62.1994 84.5096 62.2122 84.42C62.257 84.1256 62.3018 83.8376 62.3466 83.5624C62.353 83.5176 62.3594 83.4664 62.3658 83.4216C62.8266 80.7528 63.4282 78.724 63.8058 77.604C64.9002 76.6824 65.9434 75.7608 66.7434 74.9608C66.9162 74.1736 67.0122 73.3352 67.0122 72.4456V66.0584L66.9994 66.0392C64.8042 63.716 62.6261 60.6865 62.5954 56.6747C62.5954 56.3995 62.5858 56.0745 62.573 55.7801C60.5826 55.6905 60.1514 54.0392 60.1514 52.196C60.1514 48.5608 58.3786 47.5944 58.3786 44.5288C58.3786 43.844 58.3786 42.2056 59.2234 42.2056C59.8186 42.2056 60.8106 44.9819 61.2778 46.3131C61.1946 45.5131 60.8938 43.076 60.8938 41.4888C60.8938 41.2456 60.9066 41.0152 60.9194 40.7912C60.9194 40.7144 60.9386 40.644 60.945 40.5672C60.9578 40.4264 60.977 40.292 60.9962 40.1576C61.009 40.068 61.0282 39.9848 61.0474 39.9016C61.0666 39.7928 61.0922 39.684 61.1178 39.5816C61.137 39.492 61.1626 39.4088 61.1882 39.3256C61.2138 39.236 61.2458 39.1464 61.2778 39.0568C61.3098 38.9736 61.3418 38.8904 61.3738 38.8072C61.4058 38.7304 61.4442 38.6536 61.4762 38.5768C61.5146 38.4936 61.5594 38.4104 61.6042 38.3336C61.6426 38.2696 61.681 38.2056 61.7194 38.148C61.7706 38.0648 61.8218 37.9816 61.873 37.9048C61.905 37.8536 61.9434 37.8088 61.9818 37.7576C62.1418 37.5464 62.3146 37.3416 62.5066 37.1496C65.0666 34.5896 62.1418 31.78 65.1306 28.7784C66.9482 26.9608 71.5498 25.38 76.6954 25.38L77.0218 17.22L77.3482 25.38H77.201C77.2394 25.38 77.2778 25.38 77.3162 25.38C82.8266 25.3992 87.025 26.9736 88.8298 28.7784C91.825 31.7736 88.977 34.5832 91.537 37.1496C92.5546 38.1672 93.1498 39.428 93.1498 41.4888C93.1498 41.7128 93.1498 41.9432 93.137 42.1736C93.073 44.0872 92.7786 46.1608 92.7786 46.1608C92.1002 49.6936 91.409 53.7384 91.409 56.676C91.409 59.6136 90.097 62.2248 88.4906 64.2856V69.9176V72.1576C88.4906 73.0792 88.593 73.9432 88.7722 74.756H88.7658C91.6778 77.6744 97.7706 82.4104 97.7706 82.4104C98.449 83.1144 98.6986 83.46 99.4218 84.4776L100.964 85.124L102.868 85.8715C101.282 82.1869 100.948 78.9067 99.9564 71.9563C102.203 81.8699 103.863 86.1544 103.908 86.2696L105.924 87.0248ZM93.9306 52.1768C93.9306 54.0264 93.4369 55.7304 91.4273 55.8072C91.5425 52.8568 92.3223 49.0786 92.9559 45.8146C93.4231 44.4898 94.2506 42.1864 94.8586 42.1864C95.7034 42.1864 95.7034 43.8312 95.7034 44.5096C95.7034 47.5752 93.9306 48.548 93.9306 52.1768Z" fill="#33190E"/>
<path d="M88.8107 74.7494C88.6251 73.943 88.5291 73.0791 88.5291 72.1575V69.5527C80.2923 77.5143 72.7946 82.03 66.1066 84.75C68.5322 92.7564 77.7898 102.545 77.7898 102.545C77.7898 102.545 89.9626 89.6167 89.9626 81.5143C89.9626 79.2487 88.8107 74.7494 88.8107 74.7494Z" fill="#BA7048"/>
<path d="M77.0666 72.6311C78.737 72.6311 81.8794 71.1975 84.3754 68.6951C86.8778 66.1926 91.4794 62.3718 91.4794 56.663C91.4794 53.7318 92.177 49.6871 92.849 46.1479C92.849 46.1479 93.2202 43.5238 93.2202 41.463C93.2202 39.4022 92.625 38.1414 91.6074 37.1238C89.041 34.5574 91.889 31.7478 88.9002 28.7526C87.0954 26.9478 82.897 25.3798 77.3866 25.3542C77.329 25.4054 73.322 29.2636 73.322 34.6716C73.322 40.0796 76.625 42.3462 76.625 48.5606C76.625 52.8806 75.2042 53.8918 75.2042 55.0247C75.2042 55.9783 75.9146 57.1943 77.0602 57.1943C78.3146 57.1943 78.6794 56.375 79.6906 55.9526C79.8442 55.8886 80.0362 55.8502 80.2282 55.8502C80.9898 55.8502 81.8218 55.2358 81.8218 54.7302C81.8218 54.7302 81.9242 55.5623 81.2522 56.2343C80.5418 56.9447 79.825 56.439 79.1146 57.143C77.617 58.6406 76.753 58.135 75.8378 59.0502C75.4346 59.4598 75.2874 59.8822 75.2938 60.311C75.3066 60.8102 75.6714 61.7127 77.0538 61.7127V63.3063C77.0538 63.3063 75.9594 63.9719 75.9594 64.8871C75.9594 65.7063 76.5546 66.2055 77.0474 66.2055C77.5402 66.2055 80.849 64.5606 80.2666 65.1431C78.6922 66.7174 74.5386 66.5319 74.5386 69.4375H74.5514C74.5514 71.5751 77.0602 72.6311 77.0602 72.6311" fill="#BA7048"/>
<path d="M89.12 41.9539C92.8512 42.2931 92.9408 40.4051 93.0048 39.6819C93.4016 40.7891 93.3952 41.9027 93.28 43.1699C91.9424 42.8243 91.1168 42.4467 88.4032 42.0371C88.8192 41.8643 88.7936 41.9219 89.12 41.9539Z" fill="#8C5138"/>
<path d="M84.4033 68.663C81.8866 71.1725 78.7327 72.6101 77.0528 72.6101C75.3728 72.6101 72.2125 71.1725 69.7022 68.663C68.9363 67.8992 67.9772 67.02 67.0117 65.9995V72.4048C67.0117 73.3739 66.9023 74.2789 66.7028 75.1325C66.5998 75.5368 65.5571 79.7086 65.5571 81.8715C65.5571 82.8856 65.772 83.6077 66.1067 84.7501C72.8393 82.0224 80.329 77.5072 88.6129 69.523V64.2345C87.2097 66.038 85.5812 67.5013 84.4098 68.6694L84.4033 68.663Z" fill="#8C5138"/>
<path d="M94.867 42.1522C94.259 42.1522 93.4171 44.4794 92.9499 45.8146C92.3163 49.0883 91.5465 52.8483 91.4313 55.8075C93.4409 55.7305 93.939 54.0339 93.939 52.1723C93.939 48.5327 95.7118 47.557 95.7118 44.4823C95.7118 43.7955 95.7118 42.1522 94.867 42.1522Z" fill="#8C5138"/>
<path d="M80.237 55.8503C80.0442 55.8503 79.8513 55.8887 79.697 55.9527C78.6748 56.3687 78.3148 57.1943 77.0548 57.1943C75.904 57.1943 75.1904 55.9783 75.1904 55.0247C75.1904 53.8919 76.6176 52.8807 76.6176 48.5607C76.6176 42.3399 73.4547 40.1063 73.4547 34.6663C73.4547 29.2263 77.3634 25.3735 77.3827 25.3543C77.3441 25.3543 77.4212 25.3543 77.3827 25.3543H77.4148L77.0205 17.2318L76.6895 25.3543C71.5207 25.3543 66.968 26.9351 65.1422 28.7527C62.1335 31.7543 65.0715 34.5639 62.5064 37.1239C61.4842 38.1479 60.8863 39.4087 60.8863 41.4631C60.8863 43.0503 61.0728 44.9767 61.1564 45.7767C60.6871 44.4455 59.8127 42.1799 59.2084 42.1799C58.3598 42.1799 58.3598 43.8247 58.3598 44.5031C58.3598 47.5687 60.1406 48.5351 60.1406 52.1703C60.1406 54.0135 60.5649 55.6967 62.5643 55.7863C62.5771 56.0807 62.59 56.3751 62.59 56.6567C62.59 62.4231 67.168 66.2287 69.6817 68.7311C72.1953 71.2335 75.3897 72.6247 77.0676 72.6247C77.0676 72.6247 74.5475 71.5687 74.5475 69.4311H74.5347C74.5347 66.5319 78.707 66.7111 80.2885 65.1367C80.8735 64.5543 77.5498 66.1991 77.0548 66.1991C76.5598 66.1991 75.9619 65.6999 75.9619 64.8807C75.9619 63.9655 77.0612 63.2999 77.0612 63.2999V61.7063C75.6726 61.7063 75.3062 60.8039 75.2933 60.3047C75.2933 59.8823 75.4347 59.4599 75.8397 59.0439C76.759 58.1287 77.6269 58.6343 79.1313 57.1367C79.8449 56.4263 80.5585 56.9319 81.2785 56.2279C81.9471 55.5559 81.8507 54.7239 81.8507 54.7239C81.8507 55.2295 81.0213 55.8439 80.2499 55.8439L80.237 55.8503Z" fill="#8C5138"/>
<path d="M127.119 139.724C127.119 131.602 116.35 133.071 114.417 121.604L109.385 125.062C111.753 136.537 122.722 141.605 127.119 139.724Z" fill="#8C5138"/>
<path d="M41.4507 121.604L35.442 116.108C38.002 118.476 38.1223 117.608 35.442 116.108L28.5121 134.122C28.5121 134.122 32.5276 134.096 36.0616 131.627C39.5957 129.157 42.3531 122.455 42.3531 122.455L41.4379 121.598L41.4507 121.604Z" fill="#8C5138"/>
<path d="M83.0272 61.5315C82.9632 61.9219 82.6496 62.3763 82.336 62.8051C83.0976 63.7779 83.7824 64.0595 88.32 64.6739C88.6144 64.3731 89.0752 63.7523 89.9136 62.3827C87.008 62.3059 84.7168 62.0179 83.0272 61.5251V61.5315Z" fill="#8C5138"/>
<g opacity="0.6">
<path d="M86.5898 44.2407C87.4538 44.4135 88.3114 44.6759 89.1434 45.0599C85.8026 42.1607 81.6554 43.3383 79.665 47.1271H79.6714C81.521 45.2711 83.8378 43.5495 86.5834 44.2407H86.5898Z" fill="#603625"/>
<path d="M83.1338 54.9095C84.6186 56.1255 86.353 56.9128 87.0058 58.8264C87.3834 56.7016 84.977 55.1591 83.1338 54.9095Z" fill="#603625"/>
<path d="M67.2938 58.8327C67.9402 56.9191 69.681 56.1255 71.1658 54.9159C69.3226 55.1719 66.9162 56.7079 67.2938 58.8327Z" fill="#603625"/>
<path d="M65.0474 45.0599C69.0218 43.2423 71.5626 44.1063 74.5258 47.1271C72.529 43.3447 68.3882 42.1607 65.0474 45.0599Z" fill="#603625"/>
</g>
<path d="M78.8011 59.7543C78.1099 59.7543 77.6235 60.2983 76.9899 60.2983C76.3947 60.2983 75.9339 59.8311 75.3131 59.7671C75.2491 59.9463 75.2234 60.1255 75.2234 60.3111C75.2362 60.7911 75.5882 61.6487 76.8554 61.7127C76.8938 61.7127 77.4763 61.7127 77.5147 61.7127C79.2299 61.6039 80.8363 61.3095 82.4299 60.7911C81.8667 61.5527 80.2346 63.3255 76.977 63.3255C76.977 63.3255 75.8827 63.9911 75.8827 64.9063C75.8827 65.6551 76.3755 66.1287 76.8363 66.2119C76.8875 66.2119 76.9322 66.2247 76.977 66.2247C81.3098 66.2247 83.1723 61.3031 83.4731 60.4071C83.9147 60.2087 84.1579 60.0423 84.1579 59.8823C82.9675 60.1447 79.4091 59.7671 78.7883 59.7671L78.8011 59.7543Z" fill="#603625"/>
<path d="M76.9899 61.7127C75.6075 61.7127 75.2427 60.8039 75.2299 60.3047C75.2299 60.1191 75.2555 59.9399 75.3195 59.7607C75.2747 59.7607 75.2235 59.7543 75.1723 59.7543C74.5515 59.7543 70.9995 60.1319 69.8027 59.8695C69.8027 60.0295 70.0459 60.1959 70.4875 60.3943C70.7883 61.2839 72.6571 66.2119 76.9835 66.2119C76.4907 66.2119 75.8954 65.7127 75.8954 64.8935C75.8954 63.9783 76.9899 63.3127 76.9899 63.3127C80.2411 63.3127 81.8923 61.5335 82.4491 60.7719L81.9179 60.9447C81.1947 61.5271 79.4475 62.6855 76.9899 62.6855C76.5547 62.6855 76.1515 62.6407 75.7675 62.5767C73.9563 62.2823 72.6699 61.4119 72.0683 60.9319C72.1963 60.9639 72.3179 61.0023 72.4523 61.0343C72.4843 61.0471 72.5099 61.0535 72.5419 61.0599C72.6763 61.0983 72.8043 61.1303 72.9451 61.1623C72.9579 61.1687 72.9707 61.1687 72.9835 61.1687C73.1179 61.2007 73.2523 61.2263 73.3803 61.2583C73.4059 61.2583 73.4251 61.2711 73.4507 61.2711C73.5979 61.3031 73.7451 61.3287 73.8923 61.3607H73.9115C74.0715 61.3863 74.2187 61.4183 74.3723 61.4439H74.3787C74.8523 61.5335 75.3259 61.5975 75.7675 61.6487C76.2091 61.6999 76.6251 61.7255 76.9899 61.7255" fill="#33190E"/>
<path d="M81.4954 61.0727C80.7338 61.4503 79.0891 62.071 77.0027 62.071C76.7851 62.071 76.561 62.0647 76.3178 62.0455C76.0234 62.0199 75.7675 62.2631 75.7675 62.5575V62.5831C76.1579 62.6471 76.561 62.6919 76.9898 62.6919C79.4474 62.6919 81.1882 61.5334 81.9178 60.951" fill="white"/>
<path d="M76.9962 61.719C76.6314 61.719 76.2154 61.6934 75.7738 61.6422C75.3322 61.591 74.8586 61.527 74.385 61.4374C74.2314 61.4118 74.0842 61.3798 73.9242 61.3542H73.905C73.7578 61.3222 73.6106 61.2966 73.4634 61.2646C73.4378 61.2646 73.4186 61.2518 73.393 61.2518C73.2586 61.2198 73.1306 61.1942 72.9962 61.1622C72.9834 61.1622 72.9706 61.1622 72.9578 61.1558C72.817 61.1238 72.689 61.0918 72.5546 61.0534C72.5226 61.047 72.497 61.0406 72.465 61.0278C72.3306 60.9958 72.209 60.9574 72.081 60.9254C72.6826 61.4054 73.969 62.2758 75.7802 62.5702V62.5254C75.8314 62.2118 76.0298 62.007 76.3306 62.0326C76.5738 62.0518 76.8426 62.0582 77.0602 62.0582C79.1466 62.0582 80.7466 61.4374 81.5082 61.0598C80.0234 61.4374 78.2314 61.7126 77.009 61.7126L76.9962 61.719Z" fill="#A9DDF7"/>
<path d="M67.5754 45.8727C67.3066 46.0263 67.057 46.1799 66.769 46.2887C66.9482 46.4359 67.3898 46.7751 68.081 47.0119C67.9722 46.7943 67.9146 46.5191 67.921 46.2567C67.921 46.0199 67.985 45.8023 68.081 45.6039C67.9082 45.6871 67.7482 45.7831 67.5754 45.8727Z" fill="white"/>
<path d="M73.0922 47.1463C72.4458 46.6471 71.793 46.1223 71.0634 45.7639C71.1274 45.9495 71.1658 46.1351 71.1658 46.3399C71.153 46.6727 71.0378 46.9863 70.8586 47.2423L73.1946 47.1719C73.1946 47.1719 73.1946 47.1719 73.1882 47.1719C73.1562 47.1719 73.1242 47.1719 73.0922 47.1527V47.1463Z" fill="white"/>
<path d="M87.4602 46.2951C87.1786 46.1863 86.897 46.0327 86.6218 45.8855C86.449 45.7895 86.289 45.6999 86.1162 45.6167C86.2122 45.8215 86.2762 46.0327 86.2762 46.2695C86.2762 46.5319 86.2186 46.7815 86.1162 47.0055C86.8138 46.7751 87.2874 46.4423 87.4666 46.3015L87.4602 46.2951Z" fill="white"/>
<path d="M83.0314 46.3335C83.025 46.1287 83.0698 45.9431 83.1338 45.7575C82.4106 46.1223 81.7514 46.6407 81.105 47.1399C81.0794 47.1591 81.0474 47.1655 81.0154 47.1591C81.0154 47.1591 83.8058 47.2295 83.345 47.2295C83.153 46.9735 83.0442 46.6663 83.0378 46.3271L83.0314 46.3335Z" fill="white"/>
<path d="M73.4123 56.0807C73.4123 56.1959 73.4507 56.4327 73.9883 56.4327C74.5259 56.4327 74.8395 56.3559 75.5435 56.5799C75.5435 56.5799 74.7499 55.8055 73.9243 55.8055C73.5787 55.8055 73.4123 55.9719 73.4123 56.0807Z" fill="#33190E"/>
<path d="M80.2667 55.8055C79.4475 55.8055 78.6475 56.5799 78.6475 56.5799C79.3515 56.3559 79.6651 56.4327 80.2027 56.4327C80.7403 56.4327 80.7786 56.1895 80.7786 56.0807C80.7786 55.9719 80.6123 55.8055 80.2667 55.8055Z" fill="#33190E"/>
<path d="M90.5323 43.0567C90.4811 42.9543 89.2138 40.5671 87.1338 40.5671C85.5338 40.5671 83.2746 40.9191 82.0714 41.1367C81.3354 41.2711 80.7467 41.8151 80.5675 42.5255L80.465 42.9287C80.4458 43.0119 80.465 43.1015 80.5354 43.1591C80.5802 43.2039 80.6378 43.2231 80.7018 43.2231C80.7274 43.2231 80.7531 43.2231 80.7723 43.2103C81.5147 42.9863 85.2906 41.9047 87.2554 41.9047C88.1642 41.9047 90.3403 43.1911 90.3659 43.2039C90.4107 43.2295 90.4682 43.2231 90.5066 43.1911C90.545 43.1591 90.5579 43.1015 90.5323 43.0567Z" fill="#33190E"/>
<path d="M87.6331 45.3159C86.9483 44.9895 86.1739 44.6183 85.0411 44.6503C83.4475 44.6887 82.0843 45.8343 80.9515 46.9607C80.9067 47.0055 80.9067 47.0823 80.9515 47.1271C80.9963 47.1783 81.0667 47.1847 81.1179 47.1463C81.7643 46.6471 82.4171 46.1287 83.1467 45.7639C83.0827 45.9495 83.0379 46.1351 83.0443 46.3399C83.0443 46.6791 83.1659 46.9927 83.3515 47.2423H84.7723C85.2843 47.2295 85.7387 47.1335 86.1227 47.0055C86.2315 46.7751 86.2955 46.5255 86.2891 46.2567C86.2891 46.0199 86.2251 45.8087 86.1291 45.6039C86.3019 45.6935 86.4619 45.7831 86.6347 45.8727C87.1723 46.1607 87.7227 46.4679 88.2987 46.4551C88.8043 46.4423 89.2523 46.1095 89.4699 45.9047L89.7195 45.6807L88.9899 45.7255C88.5483 45.7383 88.1259 45.5335 87.6395 45.3031L87.6331 45.3159Z" fill="#33190E"/>
<path d="M73.425 43.2103C73.425 43.2103 73.4698 43.2231 73.4954 43.2231C73.5594 43.2231 73.617 43.2039 73.6618 43.1591C73.7322 43.1015 73.7515 43.0119 73.7323 42.9287L73.6298 42.5255C73.4506 41.8087 72.8683 41.2711 72.1259 41.1367C70.9227 40.9191 68.657 40.5671 67.0634 40.5671C64.9834 40.5671 63.7162 42.9543 63.665 43.0567C63.6394 43.1015 63.6523 43.1591 63.6907 43.1911C63.7291 43.2231 63.7867 43.2295 63.8315 43.2039C63.8571 43.1911 66.033 41.9047 66.9418 41.9047C68.9066 41.9047 72.689 42.9927 73.425 43.2103Z" fill="#33190E"/>
<path d="M69.1627 44.6503C68.0235 44.6183 67.2491 44.9895 66.5707 45.3159C66.0843 45.5527 65.6618 45.7447 65.2202 45.7383L64.497 45.6935L64.7402 45.9175C64.9642 46.1159 65.4123 46.4551 65.9179 46.4679C66.4939 46.4807 67.0506 46.1863 67.5754 45.8855C67.7482 45.7895 67.9083 45.6935 68.0811 45.6167C67.9851 45.8151 67.9275 46.0327 67.9211 46.2695C67.9211 46.5319 67.9723 46.7943 68.0875 47.0183C68.4715 47.1463 68.9259 47.2423 69.4379 47.2551C69.9051 47.2679 70.3978 47.2679 70.8586 47.2551C71.0442 46.9991 71.1531 46.6855 71.1659 46.3527C71.1659 46.1479 71.1275 45.9623 71.0635 45.7767C71.7931 46.1351 72.4459 46.6599 73.0923 47.1591C73.1435 47.1975 73.2138 47.1911 73.2586 47.1399C73.3034 47.0887 73.297 47.0183 73.2586 46.9735C72.1194 45.8343 70.7563 44.7015 69.1691 44.6631L69.1627 44.6503Z" fill="#33190E"/>
<path d="M102.417 119.453H102.423C102.743 119.389 105.591 118.084 105.847 117.937C106.43 117.604 106.622 116.855 106.289 116.273C105.956 115.69 105.207 115.498 104.625 115.831C104.375 115.978 101.815 117.796 101.604 118.039C101.348 118.321 101.316 118.724 101.495 119.044C101.681 119.364 102.052 119.53 102.417 119.453Z" fill="#FFC220"/>
<path d="M105.854 122.346C105.598 122.199 102.756 120.893 102.43 120.829C102.065 120.753 101.694 120.919 101.508 121.239C101.323 121.559 101.367 121.969 101.617 122.244C101.841 122.493 104.388 124.305 104.644 124.452C105.227 124.785 105.963 124.593 106.308 124.01C106.647 123.428 106.449 122.692 105.867 122.346H105.854Z" fill="#FFC220"/>
<path d="M99.601 122.327C99.2298 122.327 98.9034 122.57 98.7882 122.922C98.6858 123.229 98.3914 126.353 98.3914 126.653C98.3914 127.325 98.9354 127.869 99.601 127.869C100.267 127.869 100.811 127.325 100.811 126.653C100.811 126.365 100.516 123.242 100.414 122.922C100.292 122.564 99.9658 122.327 99.601 122.327Z" fill="#FFC220"/>
<path d="M96.7914 120.823H96.785C96.465 120.887 93.617 122.193 93.361 122.34C92.7786 122.673 92.5866 123.421 92.9194 124.004C93.2522 124.586 94.001 124.778 94.5834 124.445C94.833 124.298 97.393 122.481 97.6042 122.237C97.8602 121.956 97.8922 121.553 97.713 121.233C97.5274 120.913 97.1562 120.746 96.7914 120.823Z" fill="#FFC220"/>
<path d="M93.3482 117.937C93.5978 118.084 96.4459 119.389 96.7723 119.453C97.1371 119.53 97.5082 119.364 97.6938 119.044C97.8794 118.724 97.8346 118.314 97.585 118.039C97.361 117.789 94.8138 115.978 94.5578 115.831H94.5642C93.9818 115.498 93.2458 115.69 92.9066 116.273C92.5738 116.855 92.7658 117.591 93.3482 117.937Z" fill="#FFC220"/>
<path d="M99.601 112.413C98.929 112.413 98.3914 112.957 98.3914 113.629C98.3914 113.917 98.6858 117.041 98.7882 117.354C98.9098 117.713 99.2362 117.949 99.601 117.949C99.9658 117.949 100.299 117.706 100.414 117.354C100.516 117.047 100.811 113.924 100.811 113.629C100.811 112.957 100.267 112.413 99.601 112.413Z" fill="#FFC220"/>
<path d="M99.7546 106.673C101.649 106.673 103.191 105.137 103.191 103.236C103.191 101.335 101.655 99.7991 99.7546 99.7991C97.8538 99.7991 96.3178 101.335 96.3178 103.236C96.3178 105.137 97.8538 106.673 99.7546 106.673ZM100.811 102.173C100.907 101.777 101.092 101.476 101.227 101.508C101.361 101.54 101.387 101.892 101.291 102.289C101.195 102.685 101.009 102.986 100.875 102.954C100.74 102.922 100.715 102.57 100.811 102.173ZM98.8394 101.687C98.9354 101.29 99.121 100.989 99.2554 101.021C99.3898 101.053 99.4154 101.405 99.3194 101.802C99.2234 102.199 99.0378 102.5 98.9034 102.468C98.769 102.436 98.7434 102.084 98.8394 101.687ZM97.1242 103.729C97.073 103.69 97.1498 103.492 97.3034 103.293C97.4506 103.095 97.617 102.961 97.6746 102.999C97.7322 103.037 97.649 103.236 97.4954 103.434C97.4826 103.453 97.4698 103.466 97.457 103.479C98.4682 104.759 100.19 105.181 101.681 104.516C101.681 104.497 101.675 104.484 101.668 104.465C101.63 104.215 101.649 104.004 101.713 103.997C101.777 103.985 101.867 104.177 101.905 104.426C101.943 104.676 101.924 104.881 101.86 104.893C101.809 104.9 101.739 104.772 101.694 104.58C101.412 104.849 101.054 105.041 100.663 105.137C99.4026 105.457 97.8538 104.778 97.4186 103.524C97.2906 103.671 97.169 103.761 97.1242 103.722V103.729Z" fill="#FFC220"/>
<path d="M50.065 119.549C49.358 119.549 48.785 120.123 48.785 120.829V123.626H63.4602V120.829C63.4602 120.123 62.8871 119.549 62.1802 119.549H50.065ZM57.0346 121.143H55.2042C55.057 121.143 54.9418 121.028 54.9418 120.881C54.9418 120.733 55.0634 120.618 55.2042 120.618H57.0346C57.1818 120.618 57.297 120.733 57.297 120.881C57.297 121.028 57.1754 121.143 57.0346 121.143Z" fill="#0053E2"/>
<path d="M63.5099 127.281H48.7811V127.677C48.7811 128.384 49.3542 128.957 50.0611 128.957H62.2299C62.9368 128.957 63.5099 128.384 63.5099 127.677V127.281Z" fill="#0053E2"/>
<path d="M57.3098 122.365C57.0986 122.41 56.977 122.487 56.977 122.666C56.977 122.839 57.0922 122.929 57.2458 122.929C57.3802 122.929 57.4634 122.865 57.5018 122.781V122.903H57.7898V122.327C57.7898 122.065 57.649 121.949 57.3994 121.949C57.2138 121.949 57.0794 122.013 57.0282 122.058V122.308C57.0858 122.257 57.2074 122.18 57.3546 122.18C57.4506 122.18 57.489 122.205 57.489 122.263C57.489 122.308 57.4378 122.327 57.297 122.359L57.3098 122.365ZM57.5018 122.602C57.5018 122.705 57.4506 122.762 57.3674 122.762C57.297 122.756 57.2586 122.711 57.2586 122.653C57.2586 122.577 57.3162 122.545 57.393 122.519C57.4314 122.506 57.4698 122.487 57.5018 122.468V122.602Z" fill="white"/>
<path d="M55.3322 125.86C55.3322 125.969 55.409 126.045 55.5562 126.045C55.7546 126.045 55.8442 125.885 55.8442 125.764V125.553C55.8186 125.585 55.7546 125.61 55.601 125.642C55.4218 125.681 55.3386 125.732 55.3386 125.86H55.3322Z" fill="white"/>
<path d="M57.6746 125.239C57.489 125.239 57.3546 125.348 57.329 125.572H57.969C57.969 125.348 57.8282 125.239 57.681 125.239H57.6746Z" fill="white"/>
<path d="M48.7786 123.626V127.281H63.4538V123.626H48.7786ZM53.3674 126.109H52.6186V124.849H53.3546V124.932H52.7082V125.412H53.3418V125.495H52.7082V126.026H53.3674V126.109ZM53.8858 126.122C53.8858 126.122 53.841 126.129 53.809 126.129C53.7002 126.129 53.6234 126.065 53.6234 125.93V124.81L53.713 124.804V125.917C53.713 126.013 53.7578 126.045 53.8218 126.045C53.8474 126.045 53.8666 126.045 53.8858 126.045V126.129V126.122ZM54.1418 126.109H54.0522V125.175H54.1418V126.109ZM54.097 124.989C54.0586 124.989 54.0266 124.957 54.0266 124.919C54.0266 124.881 54.0586 124.849 54.097 124.849C54.1354 124.849 54.1674 124.881 54.1674 124.919C54.1674 124.957 54.1354 124.989 54.097 124.989ZM55.089 126.103H54.385V126.02L54.9738 125.252H54.4234V125.169H55.0762V125.252L54.4874 126.02H55.089V126.103ZM55.9402 126.116H55.8506V125.937C55.793 126.052 55.6778 126.122 55.5434 126.122C55.3706 126.122 55.2554 126.013 55.2554 125.86C55.2554 125.706 55.3706 125.617 55.5434 125.585C55.7802 125.533 55.8442 125.514 55.8442 125.418C55.8442 125.284 55.7482 125.233 55.6138 125.233C55.441 125.233 55.3514 125.309 55.3002 125.373V125.271C55.345 125.22 55.4474 125.156 55.6202 125.156C55.8314 125.156 55.9402 125.258 55.9402 125.463V126.116ZM56.6634 126.135C56.4842 126.135 56.3626 126.033 56.2986 125.892V126.116H56.209V124.797H56.2986V125.412C56.3626 125.265 56.497 125.162 56.6634 125.162C56.9194 125.162 57.0794 125.38 57.0794 125.649C57.0794 125.917 56.9258 126.135 56.6634 126.135ZM57.713 126.045C57.8346 126.045 57.9498 126.007 58.0202 125.93V126.026C57.9754 126.071 57.8474 126.129 57.7066 126.129C57.4506 126.129 57.2394 125.962 57.2394 125.655C57.2394 125.348 57.4378 125.162 57.6746 125.162C57.9114 125.162 58.0778 125.335 58.0522 125.655H57.329C57.329 125.917 57.4954 126.045 57.713 126.045ZM58.417 125.265V125.866C58.417 126.007 58.4682 126.052 58.5706 126.052C58.6282 126.052 58.673 126.033 58.6922 126.02V126.097C58.6922 126.097 58.6346 126.129 58.5642 126.129C58.4298 126.129 58.3338 126.058 58.3338 125.873V125.258H58.2058V125.201C58.3274 125.188 58.3466 125.143 58.3594 124.957H58.4234V125.181H58.6922V125.265H58.417ZM59.665 126.103H59.5754V125.508C59.5754 125.297 59.473 125.233 59.3322 125.233C59.1466 125.233 59.0058 125.373 59.0058 125.649V126.103L58.9162 126.109V124.791H59.0058V125.399C59.0634 125.258 59.1786 125.156 59.3514 125.156C59.5242 125.156 59.665 125.258 59.665 125.501V126.103Z" fill="white"/>
<path d="M56.657 125.239C56.433 125.239 56.2986 125.418 56.2986 125.642C56.2986 125.866 56.4458 126.045 56.657 126.045C56.8682 126.045 56.9962 125.866 56.9962 125.642C56.9962 125.418 56.8746 125.239 56.657 125.239Z" fill="white"/>
<path d="M53.3226 122.916L53.4954 122.135L53.6682 122.916H54.0138L54.2634 121.745H53.969L53.8218 122.513L53.649 121.745H53.3482L53.1754 122.513L53.0218 121.745H52.7146L52.9642 122.916H53.3226Z" fill="white"/>
<path d="M54.7242 122.276C54.7242 122.321 54.673 122.34 54.5322 122.372C54.321 122.417 54.1994 122.493 54.1994 122.673C54.1994 122.845 54.3146 122.935 54.4682 122.935C54.6026 122.935 54.6858 122.871 54.7242 122.788V122.909H55.0122V122.333C55.0122 122.071 54.8714 121.956 54.6218 121.956C54.4362 121.956 54.3018 122.02 54.2506 122.065V122.314C54.3082 122.263 54.4298 122.186 54.577 122.186C54.673 122.186 54.7114 122.212 54.7114 122.269L54.7242 122.276ZM54.7306 122.602C54.7306 122.705 54.6794 122.762 54.5962 122.762C54.5258 122.756 54.4874 122.711 54.4874 122.653C54.4874 122.577 54.545 122.545 54.6218 122.519C54.6602 122.506 54.6986 122.487 54.7306 122.468V122.602Z" fill="white"/>
<path d="M55.441 121.745H55.1402V122.922H55.441V121.745Z" fill="white"/>
<path d="M55.8442 122.404C55.8442 122.276 55.889 122.205 55.9786 122.205C56.0554 122.205 56.081 122.257 56.081 122.333V122.922H56.3818V122.41C56.3818 122.282 56.4266 122.212 56.5162 122.212C56.593 122.212 56.6186 122.263 56.6186 122.34V122.929H56.9194V122.301C56.9194 122.103 56.8234 121.975 56.657 121.975V121.962C56.5034 121.962 56.4138 122.052 56.3626 122.167C56.337 122.039 56.2474 121.962 56.1258 121.962C55.985 121.962 55.8954 122.045 55.8506 122.161V121.988H55.5562V122.916H55.857V122.404H55.8442Z" fill="white"/>
<path d="M58.2058 122.525C58.2058 122.34 58.321 122.295 58.4298 122.295C58.4682 122.295 58.5002 122.295 58.5194 122.301V121.981C58.3466 121.981 58.2506 122.084 58.2058 122.244V121.988H57.9114V122.916H58.2122V122.525H58.2058Z" fill="white"/>
<path d="M58.929 122.935C59.025 122.935 59.0762 122.916 59.0954 122.903V122.666C59.0954 122.666 59.0506 122.685 59.0122 122.685C58.9418 122.685 58.897 122.66 58.897 122.557V122.218H59.0954V121.988H58.9034V121.809H58.6026V122.602C58.6026 122.82 58.7306 122.929 58.929 122.929V122.935Z" fill="white"/>
<path d="M56.721 115.498H55.5242C55.281 115.498 55.0826 115.703 55.0826 115.94V118.493L56.1258 119.671L57.169 118.493V115.94C57.169 115.69 56.9642 115.498 56.7274 115.498H56.721ZM56.1194 118.641C55.8122 118.641 55.5626 118.391 55.5626 118.084C55.5626 117.777 55.8122 117.527 56.1194 117.527C56.4266 117.527 56.6762 117.777 56.6762 118.084C56.6762 118.391 56.4266 118.641 56.1194 118.641Z" fill="#A9DDF7"/>
<path opacity="0.57" d="M56.1194 119.665L55.0762 118.487V120.759C55.0762 120.759 55.1018 120.823 55.1402 120.823H57.0986C57.0986 120.823 57.1626 120.797 57.1626 120.759V118.493L56.1194 119.671V119.665Z" fill="#CBEBFA"/>
<path d="M62.0395 54.9095C62.0395 54.9095 62.0139 54.9096 61.9947 54.916C62.0139 54.916 62.0267 54.916 62.0459 54.916L62.0395 54.9095Z" fill="#F1D898"/>
<path d="M63.0213 59.6335C62.1509 60.0047 61.1562 59.9015 60.4266 59.1399C58.961 57.7319 59.9531 55.14 61.9947 54.916C58.5131 54.7176 58.0971 59.7671 61.4699 60.4135C62.0843 60.5415 62.647 60.4318 63.1782 60.1438C63.1206 59.9774 63.0725 59.8063 63.0213 59.6335Z" fill="#F1D898"/>
<path d="M91.8697 55.3383C91.8697 55.3383 91.9017 55.3383 91.9209 55.3383C91.9081 55.3383 91.8953 55.3383 91.8761 55.3319L91.8697 55.3383Z" fill="#F1D898"/>
<path d="M91.9209 55.3383C93.9561 55.5687 94.9545 58.1671 93.4889 59.5623C92.7593 60.3239 91.7097 60.4199 90.8393 60.0487C90.7881 60.2215 90.7144 60.3882 90.6568 60.5546C91.188 60.8426 91.8313 60.9639 92.4457 60.8359C95.8185 60.1959 95.4025 55.1399 91.9209 55.3383Z" fill="#F1D898"/>
<path fill-rule="evenodd" clip-rule="evenodd" d="M98.9952 47.5923C96.2496 43.2275 91.4816 42.5491 87.712 41.9283C85.1968 41.5123 82.5536 42.1075 79.7824 43.7139L82.7584 53.4675C79.168 57.1283 78.7584 59.6371 81.5232 60.9811C84.288 62.3251 89.8176 62.7219 98.1248 62.1651C101.312 86.9139 104.038 104.341 106.317 114.459C108.595 124.578 111.275 130.068 113.854 132.939C116.459 136.241 123.157 141.771 127.739 139.506C130.939 137.496 131.411 132.303 129.754 122.811C128.55 117.051 125.395 109.877 122.17 101.627C118.944 93.3779 101.741 51.9507 98.9952 47.5923Z" fill="#BA7048"/>
<path fill-rule="evenodd" clip-rule="evenodd" d="M52.3136 48.2835C54.688 43.9763 59.168 42.8819 63.6864 42.2867C66.6944 41.8899 69.8176 42.5107 73.0432 44.1363L68.7104 53.6147C72.8 55.9443 73.9072 58.2291 72.0384 60.4499C69.2352 63.7907 54.0224 60.5587 52.6144 62.1715C51.2064 63.7907 46.624 99.1123 42.7072 114.165C40.096 124.2 37.2334 129.128 34.3214 131.08C30.8334 133.729 24.7028 136.331 22.3604 133.969C19.2308 131.857 20.736 125.851 20.8128 121.026C20.8896 116.2 23.7888 108.962 27.2832 100.821C30.7776 92.6803 49.9392 52.5843 52.3136 48.2771V48.2835Z" fill="#BA7048"/>
<path d="M77.376 45.25C76.0832 45.25 75.0336 46.3124 75.0336 47.618C75.0336 48.9236 76.0832 49.986 77.376 49.986C78.6688 49.986 79.7184 48.9236 79.7184 47.618C79.7184 46.3124 78.6688 45.25 77.376 45.25Z" fill="#3A3B3E"/>
<path d="M65.6576 45.3204C62.2464 45.3204 59.4688 48.1236 59.4688 51.5732C59.4688 55.0228 62.2464 57.826 65.6576 57.826C69.0688 57.826 71.8464 55.0228 71.8464 51.5732C71.8464 48.1236 69.0688 45.3204 65.6576 45.3204ZM65.6576 57.1732C62.6048 57.1732 60.1216 54.658 60.1216 51.5732C60.1216 48.4884 62.6048 45.9732 65.6576 45.9732C68.7104 45.9732 71.1936 48.4884 71.1936 51.5732C71.1936 54.658 68.7104 57.1732 65.6576 57.1732Z" fill="#3A3B3E"/>
<path d="M89.1008 45.3204C85.6896 45.3204 82.912 48.1236 82.912 51.5732C82.912 55.0228 85.6896 57.826 89.1008 57.826C92.512 57.826 95.2896 55.0228 95.2896 51.5732C95.2896 48.1236 92.512 45.3204 89.1008 45.3204ZM89.1008 57.1732C86.048 57.1732 83.5648 54.658 83.5648 51.5732C83.5648 48.4884 86.048 45.9732 89.1008 45.9732C92.1536 45.9732 94.6368 48.4884 94.6368 51.5732C94.6368 54.658 92.1536 57.1732 89.1008 57.1732Z" fill="#3A3B3E"/>
<path d="M89.1008 45.9668C86.048 45.9668 83.5648 48.482 83.5648 51.5668C83.5648 54.6516 86.048 57.1668 89.1008 57.1668C92.1536 57.1668 94.6368 54.6516 94.6368 51.5668C94.6368 48.482 92.1536 45.9668 89.1008 45.9668Z" fill="#171819"/>
<path d="M65.6576 45.9668C62.6048 45.9668 60.1216 48.482 60.1216 51.5668C60.1216 54.6516 62.6048 57.1668 65.6576 57.1668C68.7104 57.1668 71.1936 54.6516 71.1936 51.5668C71.1936 48.482 68.7104 45.9668 65.6576 45.9668Z" fill="#171819"/>
<path d="M89.6704 43.6692H65.7984C65.7536 43.6692 65.7024 43.6692 65.6576 43.6692C61.344 43.6692 57.8432 47.2084 57.8432 51.5732C57.8432 55.938 61.344 59.4772 65.6576 59.4772C68.3648 59.4772 70.752 58.082 72.1536 55.9636C74.5984 55.106 76.3584 52.7636 76.3584 49.9924H77.376C76.0832 49.9924 75.0336 48.93 75.0336 47.6244C75.0336 46.3188 76.0832 45.2564 77.376 45.2564C78.6688 45.2564 79.7184 46.3188 79.7184 47.6244C79.7184 48.93 78.6688 49.9924 77.376 49.9924H78.3936C78.3936 52.7572 80.1536 55.106 82.5984 55.9636C84 58.082 86.3872 59.4772 89.0944 59.4772C93.408 59.4772 96.9088 55.938 96.9088 51.5732C96.9088 47.2084 93.7088 43.9636 89.664 43.6692H89.6704ZM65.6576 57.826C62.2464 57.826 59.4688 55.0228 59.4688 51.5732C59.4688 48.1236 62.2464 45.3204 65.6576 45.3204C69.0688 45.3204 71.8464 48.1236 71.8464 51.5732C71.8464 55.0228 69.0688 57.826 65.6576 57.826ZM89.1008 57.826C85.6896 57.826 82.912 55.0228 82.912 51.5732C82.912 48.1236 85.6896 45.3204 89.1008 45.3204C92.512 45.3204 95.2896 48.1236 95.2896 51.5732C95.2896 55.0228 92.512 57.826 89.1008 57.826Z" fill="#171819"/>
<path d="M84.4096 51.5732C84.4096 54.1908 86.5088 56.3156 89.1008 56.3156C91.6928 56.3156 93.792 54.1908 93.792 51.5732H84.4096Z" fill="#A9DDF7"/>
<path d="M65.6576 56.3092C68.2496 56.3092 70.3488 54.1844 70.3488 51.5668H60.9728C60.9728 54.1844 63.072 56.3092 65.664 56.3092H65.6576Z" fill="#A9DDF7"/>
<path d="M65.6576 46.8308C63.0656 46.8308 60.9664 48.9556 60.9664 51.5732H70.3424C70.3424 48.9556 68.2432 46.8308 65.6512 46.8308H65.6576Z" fill="#E7F6FE"/>
<path d="M89.1008 46.8308C86.5088 46.8308 84.4096 48.9556 84.4096 51.5732H93.7856C93.7856 48.9556 91.6864 46.8308 89.0944 46.8308H89.1008Z" fill="#E7F6FE"/>
</svg>
