<svg width="72" height="72" viewBox="0 0 72 72" fill="none" xmlns="http://www.w3.org/2000/svg">
<path d="M13.8895 38.2245L17.6625 29.0294C18.1936 27.7606 19.0874 26.6765 20.232 25.9127C21.3766 25.1489 22.7212 24.7394 24.0975 24.7354H48.1275C49.5039 24.7394 50.8485 25.1489 51.9931 25.9127C53.1377 26.6765 54.0315 27.7606 54.5625 29.0294L58.3356 38.2245H63.9225C64.6557 38.2245 65.25 38.8184 65.25 39.5509V43.6427C65.25 44.3752 64.6557 44.9691 63.9225 44.9691H60.4351L60.7499 44.9691V61.6282C60.753 61.8033 60.7207 61.9771 60.6551 62.1394C60.5894 62.3017 60.4918 62.4492 60.3679 62.5729C60.244 62.6967 60.0965 62.7943 59.934 62.8599C59.7716 62.9255 59.5976 62.9577 59.4224 62.9547H55.3274C55.1522 62.9577 54.9783 62.9255 54.8158 62.8599C54.6534 62.7943 54.5058 62.6967 54.382 62.5729C54.2581 62.4492 54.1604 62.3017 54.0948 62.1394C54.0291 61.9771 53.9969 61.8033 53.9999 61.6282V58.4583H17.9999V61.6732C18.003 61.8482 17.9707 62.0221 17.9051 62.1844C17.8394 62.3467 17.7418 62.4941 17.6179 62.6179C17.494 62.7417 17.3465 62.8393 17.184 62.9048C17.0216 62.9704 16.8476 63.0027 16.6724 62.9996H12.5774C12.4022 63.0027 12.2283 62.9704 12.0658 62.9048C11.9034 62.8393 11.7558 62.7417 11.632 62.6179C11.5081 62.4941 11.4104 62.3467 11.3448 62.1844C11.2791 62.0221 11.2469 61.8482 11.2499 61.6732V44.9691H8.07749C7.34433 44.9691 6.75 44.3752 6.75 43.6427V39.5509C6.75 38.8184 7.34433 38.2245 8.07749 38.2245H13.8895Z" fill="#0053E2"/>
<path d="M52.9129 38.2247H19.0869L21.7574 31.7499C22.0644 31.006 22.5852 30.3698 23.254 29.9216C23.9228 29.4734 24.7096 29.2334 25.5149 29.2319H46.4849C47.2902 29.2334 48.077 29.4734 48.7458 29.9216C49.4146 30.3698 49.9354 31.006 50.2424 31.7499L52.9129 38.2247Z" fill="white"/>
<path d="M19.1252 49.4657C20.9891 49.4657 22.5002 47.9559 22.5002 46.0934C22.5002 44.2309 20.9891 42.7211 19.1252 42.7211C17.2612 42.7211 15.7502 44.2309 15.7502 46.0934C15.7502 47.9559 17.2612 49.4657 19.1252 49.4657Z" fill="#4DBDF5"/>
<path d="M52.8752 49.4657C54.7391 49.4657 56.2502 47.9559 56.2502 46.0934C56.2502 44.2309 54.7391 42.7211 52.8752 42.7211C51.0112 42.7211 49.5002 44.2309 49.5002 46.0934C49.5002 47.9559 51.0112 49.4657 52.8752 49.4657Z" fill="#4DBDF5"/>
<path d="M16.8751 6.75C15.389 6.75253 13.9341 7.17639 12.6795 7.97233C11.4249 8.76826 10.4221 9.90359 9.7876 11.2464H16.1776C16.661 11.2464 17.1245 11.4382 17.4663 11.7798C17.8081 12.1213 18.0001 12.5844 18.0001 13.0674V16.1699C18.0001 16.6529 17.8081 17.1161 17.4663 17.4576C17.1245 17.7991 16.661 17.991 16.1776 17.991H9.7876C10.4221 19.3338 11.4249 20.4691 12.6795 21.265C13.9341 22.061 15.389 22.4848 16.8751 22.4874C18.9637 22.4874 20.9667 21.6583 22.4436 20.1827C23.087 19.5398 23.6076 18.7971 23.9902 17.991H48.01C48.3927 18.7971 48.9133 19.5398 49.5567 20.1827C51.0335 21.6583 53.0366 22.4874 55.1252 22.4874C56.6113 22.4848 58.0662 22.061 59.3208 21.265C60.5754 20.4691 61.5782 19.3338 62.2127 17.991H55.8226C55.5833 17.991 55.3463 17.9439 55.1252 17.8523C54.9041 17.7608 54.7032 17.6267 54.534 17.4576C54.3647 17.2885 54.2305 17.0878 54.1389 16.8668C54.0473 16.6459 54.0002 16.4091 54.0002 16.1699V13.0674C54.0002 12.8283 54.0473 12.5915 54.1389 12.3705C54.2305 12.1496 54.3647 11.9489 54.534 11.7798C54.7032 11.6107 54.9041 11.4765 55.1252 11.385C55.3463 11.2935 55.5833 11.2464 55.8226 11.2464H62.2127C61.5782 9.90359 60.5754 8.76826 59.3208 7.97233C58.0662 7.17639 56.6113 6.75253 55.1252 6.75C53.0366 6.75 51.0335 7.57901 49.5567 9.05468C48.9133 9.69759 48.3927 10.4403 48.01 11.2464H23.9902C23.6076 10.4403 23.087 9.69759 22.4436 9.05468C20.9667 7.57901 18.9637 6.75 16.8751 6.75Z" fill="#4DBDF5"/>
</svg>
