<svg width="72" height="72" viewBox="0 0 72 72" fill="none" xmlns="http://www.w3.org/2000/svg">
<path d="M67.5 28.681L55.6875 26.4257L45.4725 14.7658C44.8183 14.011 44.0092 13.4066 43.1005 12.9941C42.1919 12.5815 41.205 12.3704 40.2075 12.3752H13.005C11.6863 12.3643 10.3933 12.7408 9.28564 13.4582C8.17803 14.1757 7.30434 15.2026 6.77249 16.4122L2.85751 25.0951C2.45687 25.9966 2.24988 26.9724 2.25 27.9593V50.625H69.75V31.455C69.7527 30.8032 69.53 30.1705 69.1198 29.6648C68.7096 29.159 68.1372 28.8114 67.5 28.681Z" fill="#0053E2"/>
<path d="M15.75 55.125C18.2353 55.125 20.25 53.1103 20.25 50.625C20.25 48.1397 18.2353 46.125 15.75 46.125C13.2647 46.125 11.25 48.1397 11.25 50.625C11.25 53.1103 13.2647 55.125 15.75 55.125Z" fill="#0053E2"/>
<path d="M56.25 55.125C58.7353 55.125 60.75 53.1103 60.75 50.625C60.75 48.1397 58.7353 46.125 56.25 46.125C53.7647 46.125 51.75 48.1397 51.75 50.625C51.75 53.1103 53.7647 55.125 56.25 55.125Z" fill="#0053E2"/>
<path fill-rule="evenodd" clip-rule="evenodd" d="M43.605 19.4852L42.3675 18.0677C42.0513 17.6899 41.6552 17.3869 41.2077 17.1807C40.7603 16.9745 40.2726 16.8702 39.78 16.8752H33.75V27.2252H50.31L43.605 19.4852ZM10.7325 18.8777L7.58249 25.8752C7.51412 26.0193 7.48335 26.1784 7.49305 26.3376C7.50275 26.4969 7.55261 26.651 7.63797 26.7858C7.72332 26.9206 7.84138 27.0315 7.98119 27.1084C8.12099 27.1852 8.27797 27.2254 8.4375 27.2252H29.25V16.8752H13.8375C13.1819 16.8738 12.5399 17.0621 11.989 17.4175C11.4381 17.7728 11.0017 18.2799 10.7325 18.8777Z" fill="#4DBDF5"/>
<path fill-rule="evenodd" clip-rule="evenodd" d="M62.7301 27.7877L67.5001 28.7327C68.1372 28.8627 68.7096 29.2096 69.1199 29.7141C69.5301 30.2187 69.7528 30.8499 69.7501 31.5002V34.8752H66.9376C66.3831 34.8752 65.8341 34.7656 65.3222 34.5528C64.8102 34.3399 64.3454 34.028 63.9544 33.6349C63.5634 33.2418 63.254 32.7753 63.0439 32.2622C62.8337 31.7492 62.7271 31.1996 62.7301 30.6452V27.7877Z" fill="#4DBDF5"/>
<path d="M15.75 41.6252C20.7206 41.6252 24.75 45.6546 24.75 50.6252C24.75 55.5957 20.7206 59.6252 15.75 59.6252C10.7794 59.6252 6.75 55.5957 6.75 50.6252C6.75 45.6546 10.7794 41.6252 15.75 41.6252ZM15.75 46.1252C13.2647 46.1252 11.25 48.1399 11.25 50.6252C11.25 53.1105 13.2647 55.1252 15.75 55.1252C18.2353 55.1252 20.25 53.1105 20.25 50.6252C20.25 48.1399 18.2353 46.1252 15.75 46.1252Z" fill="#4DBDF5"/>
<path d="M56.25 41.6252C61.2206 41.6252 65.25 45.6546 65.25 50.6252C65.25 55.5957 61.2206 59.6252 56.25 59.6252C51.2794 59.6252 47.25 55.5957 47.25 50.6252C47.25 45.6546 51.2794 41.6252 56.25 41.6252ZM56.25 46.1252C53.7647 46.1252 51.75 48.1399 51.75 50.6252C51.75 53.1105 53.7647 55.1252 56.25 55.1252C58.7353 55.1252 60.75 53.1105 60.75 50.6252C60.75 48.1399 58.7353 46.1252 56.25 46.1252Z" fill="#4DBDF5"/>
<path fill-rule="evenodd" clip-rule="evenodd" d="M50.3099 27.2249H35.7524L43.6049 19.4849L50.3099 27.2249Z" fill="white"/>
</svg>
