<svg width="72" height="72" viewBox="0 0 72 72" fill="none" xmlns="http://www.w3.org/2000/svg">
<path fill-rule="evenodd" clip-rule="evenodd" d="M40.5 9C55.4117 9 67.5 21.0883 67.5 36C67.5 50.9117 55.4117 63 40.5 63C35.5805 63 30.9722 61.6776 27 59.3789V49.5C27 47.0147 24.9853 45 22.5 45H15.0425C14.0471 42.1844 13.5 39.1564 13.5 36C13.5 21.0883 25.5883 9 40.5 9ZM40.5 20.25C31.8015 20.25 24.75 27.3015 24.75 36C24.75 44.6985 31.8015 51.75 40.5 51.75C49.1985 51.75 56.25 44.6985 56.25 36C56.25 27.3015 49.1985 20.25 40.5 20.25Z" fill="#0053E2"/>
<path d="M13.5 52.875C13.5 54.1176 14.5074 55.125 15.75 55.125C16.9926 55.125 18 54.1176 18 52.875H27V60.75C27 61.9926 25.9926 63 24.75 63H6.75C5.50736 63 4.5 61.9926 4.5 60.75V52.875H13.5Z" fill="#4DBDF5"/>
<path d="M40.5 33.3743C41.9497 33.3743 43.1257 34.5503 43.1257 36C43.1256 37.4497 41.9497 38.6257 40.5 38.6257C39.0505 38.6255 37.8766 37.4495 37.8765 36C37.8765 34.5504 39.0504 33.3745 40.5 33.3743Z" fill="#4DBDF5"/>
<path fill-rule="evenodd" clip-rule="evenodd" d="M40.5 20.25C49.1985 20.25 56.25 27.3015 56.25 36C56.25 44.6985 49.1985 51.75 40.5 51.75C31.8015 51.75 24.75 44.6985 24.75 36C24.75 27.3015 31.8015 20.25 40.5 20.25ZM40.5 22.8757C39.8454 22.8757 39.2019 22.9238 38.573 23.0164L38.8499 24.8708C39.5297 29.4557 34.6838 32.8495 30.6079 30.6431L28.9556 29.7488C28.2785 30.9966 27.8008 32.3675 27.5581 33.8181L29.406 34.1301C33.9766 34.9005 35.7068 40.5597 32.3481 43.7542L30.9924 45.0417C32.0348 46.1375 33.2631 47.0533 34.6289 47.7378L35.4683 46.0635C37.5412 41.9176 43.4588 41.9176 45.5317 46.0635L46.3689 47.7378C47.735 47.0535 48.9628 46.1375 50.0054 45.0417L48.6519 43.7542C45.2932 40.5596 47.0232 34.9004 51.594 34.1301L53.4397 33.8181C53.1969 32.3673 52.7195 30.9968 52.0422 29.7488L50.3921 30.6431C46.3161 32.8498 41.4702 29.4558 42.1501 24.8708L42.4248 23.0164C41.7966 22.924 41.1539 22.8758 40.5 22.8757Z" fill="#4DBDF5"/>
<path d="M22.5 45C24.9853 45 27 47.0147 27 49.5V50.625H4.5V49.5C4.5 47.0147 6.51472 45 9 45H22.5Z" fill="#4DBDF5"/>
<path d="M27 52.8752H18C18 54.1179 16.9926 55.1252 15.75 55.1252C14.5074 55.1252 13.5 54.1179 13.5 52.8752H4.5V50.6252H27V52.8752Z" fill="white"/>
<path fill-rule="evenodd" clip-rule="evenodd" d="M40.5 22.876C41.1539 22.876 41.7966 22.9243 42.4248 23.0166L42.1501 24.8711C41.4702 29.4561 46.3161 32.85 50.3921 30.6433L52.0422 29.749C52.7195 30.997 53.1969 32.3676 53.4397 33.8184L51.594 34.1304C47.0232 34.9006 45.2932 40.5599 48.6519 43.7544L50.0054 45.042C48.9628 46.1377 47.735 47.0537 46.3689 47.738L45.5317 46.0637C43.4588 41.9178 37.5412 41.9178 35.4683 46.0637L34.6289 47.738C33.2625 47.0534 32.0331 46.1381 30.9902 45.042L32.3481 43.7544C35.7068 40.5599 33.9766 34.9008 29.406 34.1304L27.5559 33.8184C27.7988 32.3672 28.2757 30.9951 28.9534 29.7468L30.6079 30.6433C34.6838 32.8498 39.5297 29.456 38.8499 24.8711L38.573 23.0166C39.2019 22.9241 39.8454 22.876 40.5 22.876ZM40.5 33.3745C39.0504 33.3747 37.8765 34.5506 37.8765 36.0002C37.8766 37.4498 39.0505 38.6258 40.5 38.626C41.9497 38.626 43.1256 37.4499 43.1257 36.0002C43.1257 34.5505 41.9497 33.3745 40.5 33.3745Z" fill="white"/>
</svg>
