<svg width="72" height="72" viewBox="0 0 72 72" fill="none" xmlns="http://www.w3.org/2000/svg">
<path fill-rule="evenodd" clip-rule="evenodd" d="M33.2776 9.7875C33.2728 9.51952 33.1686 9.26289 32.9851 9.0675C32.3048 8.31506 31.928 7.33689 31.9276 6.32249C31.9276 5.2424 32.3567 4.20655 33.1204 3.44281C33.8842 2.67906 34.92 2.25 36.0001 2.25C37.0802 2.25 38.1161 2.67906 38.8798 3.44281C39.6436 4.20655 40.0726 5.2424 40.0726 6.32249C40.0723 7.33689 39.6954 8.31506 39.0151 9.0675C38.8317 9.26289 38.7274 9.51952 38.7226 9.7875C38.724 10.0178 38.8057 10.2404 38.9535 10.417C39.1014 10.5936 39.3061 10.7131 39.5326 10.755C44.3217 11.7171 47.8715 14.5685 48.2131 18.0159C48.2131 18.0159 30.5382 18.017 23.7882 18.017C24.1292 14.5732 27.6782 11.7599 32.4676 10.755C32.6941 10.7131 32.8989 10.5936 33.0467 10.417C33.1946 10.2404 33.2762 10.0178 33.2776 9.7875Z" fill="#0053E2"/>
<path d="M51.75 26.9248V62.055C51.75 63.4991 51.1763 64.8841 50.1552 65.9052C49.1341 66.9263 47.7491 67.5 46.305 67.5H25.695C24.2509 67.5 22.8659 66.9263 21.8448 65.9052C20.8237 64.8841 20.25 63.4991 20.25 62.055V26.9248H51.75Z" fill="#0053E2"/>
<path fill-rule="evenodd" clip-rule="evenodd" d="M51.2775 20.7225C51.2775 20.0004 50.9907 19.308 50.4801 18.7974C49.9695 18.2868 49.2771 18 48.555 18H23.445C22.7229 18 22.0305 18.2868 21.5199 18.7974C21.0093 19.308 20.7225 20.0004 20.7225 20.7225C20.0004 20.7225 19.308 21.0093 18.7974 21.5199C18.2868 22.0305 18 22.7229 18 23.445V24.2775C18 24.9996 18.2868 25.692 18.7974 26.2026C19.308 26.7132 20.0004 27 20.7225 27H51.2775C51.9996 27 52.692 26.7132 53.2026 26.2026C53.7132 25.692 54 24.9996 54 24.2775V23.445C54 22.7229 53.7132 22.0305 53.2026 21.5199C52.692 21.0093 51.9996 20.7225 51.2775 20.7225Z" fill="#4DBDF5"/>
<path fill-rule="evenodd" clip-rule="evenodd" d="M29.25 36V38.25H20.25V36H29.25ZM29.25 42.75V45H20.25V42.75H29.25ZM29.25 51.75V49.5H20.25V51.75H29.25Z" fill="white"/>
</svg>
