<svg width="72" height="72" viewBox="0 0 72 72" fill="none" xmlns="http://www.w3.org/2000/svg">
<path d="M60.75 58.5C60.75 63.4725 56.7225 67.5 51.75 67.5H20.25C15.2775 67.5 11.25 63.4725 11.25 58.5V25.875C11.25 30.8456 15.2794 34.875 20.25 34.875H51.75C56.7206 34.875 60.75 30.8456 60.75 25.875V58.5Z" fill="#0053E2"/>
<path d="M20.25 4.5C21.4875 4.5 22.5 5.5125 22.5 6.75V11.25H15.75C14.9296 11.25 14.1623 11.4729 13.5 11.8564V6.75C13.5 5.5125 14.5125 4.5 15.75 4.5H20.25Z" fill="#0053E2"/>
<path d="M49.5 6.75C49.5 5.5125 50.5125 4.5 51.75 4.5H56.25C57.4875 4.5 58.5 5.5125 58.5 6.75V11.8564C57.8377 11.4729 57.0704 11.25 56.25 11.25H49.5V6.75Z" fill="#0053E2"/>
<path d="M56.25 11.25H15.75C13.2647 11.25 11.25 13.2647 11.25 15.75V25.875C11.25 30.8456 15.2794 34.875 20.25 34.875H51.75C56.7206 34.875 60.75 30.8456 60.75 25.875V15.75C60.75 13.2647 58.7353 11.25 56.25 11.25Z" fill="#4DBDF5"/>
<path d="M22.5 40.5H49.5V54C49.5 57.7279 46.4779 60.75 42.75 60.75H29.25C25.5221 60.75 22.5 57.7279 22.5 54V40.5Z" fill="#4DBDF5"/>
<path d="M13.5 58.5V40.5H4.5V49.5C4.5 54.4706 8.52944 58.5 13.5 58.5Z" fill="#4DBDF5"/>
<path d="M67.5 40.5H58.5V58.5C63.4706 58.5 67.5 54.4706 67.5 49.5V40.5Z" fill="#4DBDF5"/>
<path d="M29.25 29.25C29.25 28.0074 30.2574 27 31.5 27H40.5C41.7426 27 42.75 28.0074 42.75 29.25C42.75 30.4926 41.7426 31.5 40.5 31.5H31.5C30.2574 31.5 29.25 30.4926 29.25 29.25Z" fill="white"/>
</svg>
