<svg width="72" height="72" viewBox="0 0 72 72" fill="none" xmlns="http://www.w3.org/2000/svg">
<path fill-rule="evenodd" clip-rule="evenodd" d="M28.125 15.7192C39.9301 15.7192 49.5 25.2892 49.5 37.0942C49.5 48.8993 39.9301 58.4692 28.125 58.4692C16.3199 58.4692 6.75 48.8993 6.75 37.0942C6.75 25.2892 16.3199 15.7192 28.125 15.7192ZM28.125 20.2192C18.8052 20.2192 11.25 27.7744 11.25 37.0942C11.25 46.414 18.8052 53.9692 28.125 53.9692C37.4448 53.9692 45 46.414 45 37.0942C45 27.7744 37.4448 20.2192 28.125 20.2192Z" fill="#0053E2"/>
<path d="M4.5 56.25H51.75C51.75 58.0402 51.0388 59.7571 49.773 61.023C48.5071 62.2888 46.7902 63 45 63H11.25C9.45979 63 7.7429 62.2888 6.47703 61.023C5.21116 59.7571 4.5 58.0402 4.5 56.25Z" fill="#0053E2"/>
<path d="M56.8125 10.5073L61.9875 12.2173C62.7729 12.4773 63.4564 12.9781 63.941 13.6485C64.4257 14.319 64.6869 15.125 64.6875 15.9523V23.625H56.8125V10.5073Z" fill="#0053E2"/>
<path d="M67.5 36.7423H54V62.9998H67.5V36.7423Z" fill="#0053E2"/>
<path d="M28.125 53.9692C37.4448 53.9692 45 46.414 45 37.0942C45 27.7744 37.4448 20.2192 28.125 20.2192C18.8052 20.2192 11.25 27.7744 11.25 37.0942C11.25 46.414 18.8052 53.9692 28.125 53.9692Z" fill="#4DBDF5"/>
<path d="M33.3676 56.2502C33.3635 56.7762 33.2323 57.2933 32.9851 57.7577C32.6915 58.2571 32.3014 58.6931 31.8376 59.0402C31.3188 59.4177 30.7409 59.7066 30.1276 59.8952C29.4769 60.0853 28.803 60.1837 28.1251 60.1877C27.4472 60.1837 26.7733 60.0853 26.1226 59.8952C25.5093 59.7066 24.9314 59.4177 24.4126 59.0402C23.9488 58.6931 23.5587 58.2571 23.2651 57.7577C23.0179 57.2933 22.8867 56.7762 22.8826 56.2502H33.3676Z" fill="#4DBDF5"/>
<path d="M66.735 33.5703C66.5775 33.4128 66.375 33.3003 66.1725 33.1878V23.6253H55.305V33.2103C55.125 33.3228 54.9225 33.4128 54.765 33.5703C54.5175 33.8178 54.3375 34.1103 54.2025 34.4253C54.0675 34.7403 54 35.0778 54 35.4378V36.7428H67.5V35.4378C67.5 34.7403 67.23 34.0653 66.735 33.5703Z" fill="#4DBDF5"/>
<path d="M40.0502 25.2007C41.6206 26.764 42.8664 28.6223 43.716 30.6689C44.5655 32.7155 45.0019 34.9098 45.0002 37.1257C45.0019 39.3416 44.5655 41.5359 43.716 43.5825C42.8664 45.629 41.6206 47.4874 40.0502 49.0507C38.4869 50.6211 36.6285 51.8669 34.582 52.7165C32.5354 53.566 30.3411 54.0024 28.1252 54.0007C25.9093 54.0024 23.715 53.566 21.6684 52.7165C19.6218 51.8669 17.7635 50.6211 16.2002 49.0507L28.1252 37.1257L40.0502 25.2007Z" fill="white"/>
</svg>
