<svg width="72" height="72" viewBox="0 0 72 72" fill="none" xmlns="http://www.w3.org/2000/svg">
<path d="M44.9995 63.0253H53.9995L54 69.7501L49.5 66.8026L45 69.7501L44.9995 63.0253Z" fill="#4DBDF5"/>
<path d="M20.25 9H18V63H20.25V9Z" fill="#4DBDF5"/>
<path d="M20.25 9.00009H56.0903C56.4074 8.99709 56.7219 9.06838 57.0154 9.20979C57.309 9.3512 57.5756 9.5599 57.7999 9.82376C58.0242 10.0876 58.2016 10.4013 58.3218 10.7466C58.442 11.092 58.5026 11.462 58.5 11.8351V60.1651C58.5026 60.5382 58.442 60.9082 58.3218 61.2535C58.2016 61.5989 58.0242 61.9126 57.7999 62.1764C57.5756 62.4403 57.309 62.649 57.0154 62.7904C56.7219 62.9318 56.4074 63.0031 56.0903 63.0001H20.25V9.00009Z" fill="#0053E2"/>
<path d="M18 9H13.5V63H18V9Z" fill="#0053E2"/>
<path d="M47.25 27H31.5V29.25H47.25V27Z" fill="white"/>
<path d="M47.25 31.5H31.5V33.75H47.25V31.5Z" fill="white"/>
</svg>
