<svg width="72" height="72" viewBox="0 0 72 72" fill="none" xmlns="http://www.w3.org/2000/svg">
<path d="M35.966 48.915C39.2714 48.915 41.951 44.8856 41.951 39.915C41.951 34.9445 39.2714 30.915 35.966 30.915C32.6605 30.915 29.981 34.9445 29.981 39.915C29.981 44.8856 32.6605 48.915 35.966 48.915Z" fill="white"/>
<path d="M39.2081 11.2725H32.7056V20.8125H39.2081V11.2725Z" fill="#4DBDF5"/>
<path d="M37.5206 6.75H34.3931C33.4706 6.75 32.7056 7.515 32.7056 8.4375V9.76503H39.2081V8.4375C39.2081 7.515 38.4431 6.75 37.5206 6.75Z" fill="#4DBDF5"/>
<path d="M42.7163 26.955L39.8813 23.9624C39.4538 23.5124 39.2288 22.9049 39.2288 22.2749V20.8124H32.7263V22.2749C32.7263 22.9049 32.5013 23.4899 32.0738 23.9624L29.2838 26.9774C28.5188 27.8099 28.0913 28.8899 28.0913 30.0374V61.8749C28.0913 63.7424 29.5988 65.2499 31.4663 65.2499H40.5338C42.4013 65.2499 43.9088 63.7424 43.9088 61.8749V30.015C43.9088 28.89 43.4813 27.7875 42.7163 26.955ZM35.9663 48.9149C32.6588 48.9149 29.9813 44.8874 29.9813 39.9149C29.9813 34.9424 32.6588 30.9149 35.9663 30.9149C39.2738 30.9149 41.9513 34.9424 41.9513 39.9149C41.9513 44.8874 39.2738 48.9149 35.9663 48.9149Z" fill="#0053E2"/>
<path d="M32.7129 9.76758H39.2081V11.2727H32.7129V9.76758Z" fill="#0053E2"/>
</svg>
