<svg width="72" height="72" viewBox="0 0 72 72" fill="none" xmlns="http://www.w3.org/2000/svg">
<path fill-rule="evenodd" clip-rule="evenodd" d="M57.5903 64.3535C57.4696 66.1243 55.9968 67.5 54.2219 67.5H36.4087C38.668 67.5 40.5 65.668 40.5 63.4087C40.4998 63.1831 40.3169 63.0002 40.0913 63H10.125C9.50368 63 9 62.4963 9 61.875C9 61.2537 9.50368 60.75 10.125 60.75H38.25C39.4926 60.75 40.5 59.7426 40.5 58.5V56.25C40.5 55.077 39.6024 54.113 38.4565 54.0088C37.2876 56.0191 35.118 57.375 32.625 57.375C31.1535 57.375 29.7966 56.8977 28.6875 56.0984C27.5784 56.8977 26.2215 57.375 24.75 57.375C23.2785 57.375 21.9216 56.8977 20.8125 56.0984C19.7034 56.8977 18.3465 57.375 16.875 57.375C14.3732 57.375 12.194 56.0111 11.0281 53.989C11.1011 53.9962 11.1751 54 11.25 54H38.25C38.3227 54 38.3944 53.9958 38.4653 53.989C39.6059 53.8796 40.5 52.9192 40.5 51.75C40.5 46.0594 36.2747 41.3564 30.7903 40.6055L29.5576 22.5H60.4424L57.5903 64.3535ZM41.625 28.125C39.761 28.125 38.25 29.636 38.25 31.5V36C38.25 37.864 39.761 39.375 41.625 39.375H48.375C50.239 39.375 51.75 37.864 51.75 36V31.5C51.75 29.636 50.239 28.125 48.375 28.125H41.625Z" fill="#0053E2"/>
<path d="M46.125 4.5C46.7463 4.5 47.25 5.00368 47.25 5.625V18H42.75V5.625C42.75 5.00368 43.2537 4.5 43.875 4.5H46.125Z" fill="#0053E2"/>
<path d="M40.0913 63C40.3169 63.0002 40.4998 63.1831 40.5 63.4087C40.5 65.668 38.668 67.5 36.4087 67.5H13.0913C10.832 67.5 9 65.668 9 63.4087C9.00022 63.1831 9.18307 63.0002 9.40869 63H40.0913Z" fill="#4DBDF5"/>
<path d="M38.4565 54.0088C39.6024 54.113 40.5 55.077 40.5 56.25V58.5C40.5 59.7426 39.4926 60.75 38.25 60.75H11.25C10.0074 60.75 9 59.7426 9 58.5V56.25C9 55.0777 9.89645 54.1141 11.0413 54.0088C12.2101 56.0196 14.3816 57.375 16.875 57.375C18.3465 57.375 19.7034 56.8977 20.8125 56.0984C21.9216 56.8977 23.2785 57.375 24.75 57.375C26.2215 57.375 27.5784 56.8977 28.6875 56.0984C29.7966 56.8977 31.1535 57.375 32.625 57.375C35.118 57.375 37.2876 56.019 38.4565 54.0088Z" fill="#4DBDF5"/>
<path d="M29.25 40.5C35.4632 40.5 40.5 45.5368 40.5 51.75C40.5 52.9926 39.4926 54 38.25 54H11.25C10.0074 54 9 52.9926 9 51.75C9 45.5368 14.0368 40.5 20.25 40.5H29.25Z" fill="#4DBDF5"/>
<path d="M48.375 28.125C50.239 28.125 51.75 29.636 51.75 31.5L41.625 39.375C39.761 39.375 38.25 37.864 38.25 36V31.5C38.25 29.636 39.761 28.125 41.625 28.125H48.375Z" fill="#4DBDF5"/>
<path d="M60.75 18C61.9926 18 63 19.0074 63 20.25C63 21.4926 61.9926 22.5 60.75 22.5H29.25C28.0074 22.5 27 21.4926 27 20.25C27 19.0074 28.0074 18 29.25 18H60.75Z" fill="#4DBDF5"/>
<path d="M51.75 31.5V36C51.75 37.864 50.239 39.375 48.375 39.375H41.625L51.75 31.5Z" fill="white"/>
</svg>
