<svg width="72" height="72" viewBox="0 0 72 72" fill="none" xmlns="http://www.w3.org/2000/svg">
<path d="M23.7376 65.2498H48.2626C48.2626 64.114 47.8129 63.0243 47.0118 62.219C46.2108 61.4137 45.1234 60.9583 43.9876 60.9523H43.4701C42.0856 60.9523 40.7579 60.4024 39.779 59.4234C38.8 58.4445 38.2501 57.1168 38.2501 55.7323V53.9999H33.7501V55.7323C33.7501 57.1168 33.2001 58.4445 32.2211 59.4234C31.2422 60.4024 29.9145 60.9523 28.53 60.9523H28.0126C26.8767 60.9583 25.7894 61.4137 24.9883 62.219C24.1872 63.0243 23.7376 64.114 23.7376 65.2498Z" fill="#0053E2"/>
<path d="M45.7642 14.3413C46.2363 15.1729 46.9202 15.8653 47.7461 16.3474C48.5717 16.8294 49.5103 17.0833 50.4663 17.0857H50.8486C51.5586 17.0887 52.2642 16.9517 52.9207 16.6814C53.3045 16.5233 53.6636 16.3156 53.9995 16.075V28.1028H17.9995V16.075C18.3357 16.3158 18.6963 16.5232 19.0806 16.6814C19.7368 16.9515 20.4407 17.0887 21.1504 17.0857H21.5327C22.4887 17.0833 23.4273 16.8294 24.2529 16.3474C25.0788 15.8653 25.7627 15.1729 26.2349 14.3413C26.6997 15.1741 27.3788 15.867 28.2014 16.3496C29.0242 16.8322 29.9612 17.0864 30.915 17.0857H31.2974C32.2545 17.088 33.1954 16.8365 34.022 16.354C34.8486 15.8715 35.5309 15.176 35.9995 14.3413C36.4681 15.1759 37.1504 15.8715 37.9771 16.354C38.8036 16.8365 39.7446 17.088 40.7017 17.0857H41.084C42.0378 17.0864 42.9748 16.8322 43.7976 16.3496C44.6203 15.867 45.2993 15.1741 45.7642 14.3413Z" fill="#0053E2"/>
<path d="M55.3486 33.4356C55.816 34.2727 56.4978 34.9707 57.324 35.4571C58.1502 35.9434 59.0921 36.1997 60.0508 36.202H60.2991C61.2569 36.202 62.1846 35.9418 62.9995 35.4703V49.4998H8.99951V35.4725C9.81407 35.9434 10.7428 36.202 11.7 36.202H11.946C12.9049 36.1998 13.8465 35.9434 14.6729 35.4571C15.4991 34.9708 16.1807 34.2727 16.6482 33.4356C17.1229 34.2716 17.8116 34.9668 18.6411 35.4527C19.4706 35.9384 20.4133 36.1968 21.3745 36.202H21.6206C22.5793 36.1998 23.5211 35.9433 24.3474 35.4571C25.1739 34.9707 25.8575 34.2729 26.325 33.4356C26.7961 34.2744 27.4812 34.9731 28.3113 35.4593C29.1416 35.9457 30.0868 36.2014 31.0491 36.202H31.2974C32.2561 36.1997 33.1979 35.9434 34.0242 35.4571C34.8503 34.9707 35.5321 34.2727 35.9995 33.4356C36.467 34.2728 37.1485 34.9708 37.9749 35.4571C38.8013 35.9435 39.7427 36.1998 40.7017 36.202H40.95C41.9117 36.2013 42.8556 35.9452 43.6855 35.4593C44.5158 34.973 45.2029 34.2746 45.6741 33.4356C46.1415 34.2727 46.8232 34.9708 47.6494 35.4571C48.4758 35.9434 49.4174 36.1997 50.3762 36.202H50.6245C51.5857 36.1967 52.5285 35.9385 53.3579 35.4527C54.1873 34.9669 54.8739 34.2714 55.3486 33.4356Z" fill="#0053E2"/>
<path fill-rule="evenodd" clip-rule="evenodd" d="M18.45 9C17.734 9 17.0472 9.28446 16.5409 9.79081C16.0345 10.2972 15.75 10.9839 15.75 11.7C15.7471 12.41 15.8847 13.1135 16.155 13.77C16.4254 14.4265 16.823 15.023 17.325 15.525C17.8271 16.0271 18.4235 16.4247 19.08 16.695C19.7365 16.9653 20.4401 17.103 21.15 17.1H21.5326C22.4888 17.0977 23.4275 16.8426 24.2533 16.3605C25.0792 15.8785 25.7629 15.1866 26.2351 14.355C26.7 15.1879 27.3789 15.8815 28.2017 16.3641C29.0245 16.8467 29.9612 17.1007 30.9151 17.1H31.2976C32.2548 17.1024 33.1953 16.8492 34.0219 16.3667C34.8486 15.8841 35.5315 15.1897 36 14.355C36.4686 15.1897 37.1515 15.8841 37.9782 16.3667C38.8048 16.8492 39.7453 17.1024 40.7025 17.1H41.085C42.0389 17.1007 42.9756 16.8467 43.7984 16.3641C44.6212 15.8815 45.3001 15.1879 45.765 14.355C46.2372 15.1866 46.9209 15.8785 47.7468 16.3605C48.5726 16.8426 49.5113 17.0977 50.4675 17.1H50.8501C51.56 17.103 52.2636 16.9653 52.9201 16.695C53.5766 16.4247 54.173 16.0271 54.6751 15.525C55.1771 15.023 55.5747 14.4265 55.8451 13.77C56.1154 13.1135 56.253 12.41 56.25 11.7C56.25 10.9839 55.9656 10.2972 55.4592 9.79081C54.9529 9.28446 54.2661 9 53.5501 9H18.45Z" fill="#4DBDF5"/>
<path fill-rule="evenodd" clip-rule="evenodd" d="M8.99955 28.103C8.28347 28.103 7.59672 28.3875 7.09037 28.8938C6.58402 29.4002 6.29956 30.087 6.29956 30.803C6.29956 32.2352 6.86848 33.6087 7.88118 34.6214C8.89388 35.6341 10.2674 36.203 11.6995 36.203H11.947C12.906 36.2008 13.8471 35.9433 14.6736 35.4569C15.5 34.9705 16.182 34.2728 16.6495 33.4355C17.1243 34.2715 17.8111 34.9675 18.6406 35.4534C19.4702 35.9393 20.4132 36.1979 21.3746 36.203H21.6221C22.581 36.2008 23.5221 35.9433 24.3486 35.4569C25.175 34.9705 25.8571 34.2728 26.3245 33.4355C26.7957 34.2746 27.4817 34.9732 28.312 35.4595C29.1424 35.9459 30.0873 36.2025 31.0496 36.203H31.2971C32.256 36.2008 33.1971 35.9433 34.0236 35.4569C34.85 34.9705 35.5321 34.2728 35.9996 33.4355C36.467 34.2728 37.1491 34.9705 37.9755 35.4569C38.802 35.9433 39.7431 36.2008 40.702 36.203H40.9495C41.9119 36.2025 42.8567 35.9459 43.6871 35.4595C44.5174 34.9732 45.2034 34.2746 45.6746 33.4355C46.1421 34.2728 46.8241 34.9705 47.6506 35.4569C48.477 35.9433 49.4181 36.2008 50.3771 36.203H50.6246C51.5859 36.1979 52.5289 35.9393 53.3585 35.4534C54.188 34.9675 54.8748 34.2715 55.3496 33.4355C55.8171 34.2728 56.4991 34.9705 57.3255 35.4569C58.152 35.9433 59.0931 36.2008 60.0521 36.203H60.2996C61.7317 36.203 63.1052 35.6341 64.1179 34.6214C65.1306 33.6087 65.6995 32.2352 65.6995 30.803C65.6995 30.087 65.4151 29.4002 64.9087 28.8938C64.4024 28.3875 63.7156 28.103 62.9996 28.103H8.99955Z" fill="#4DBDF5"/>
<path d="M2.25 49.5H69.75C69.4325 50.7868 68.6923 51.9297 67.6479 52.7457C66.6035 53.5616 65.3154 54.0033 63.99 54H8.00999C6.68465 54.0033 5.39654 53.5616 4.35213 52.7457C3.30772 51.9297 2.56748 50.7868 2.25 49.5Z" fill="#4DBDF5"/>
</svg>
