<svg width="72" height="72" viewBox="0 0 72 72" fill="none" xmlns="http://www.w3.org/2000/svg">
<path d="M31.5124 10.8204L26.1145 6.76757L9.18896 29.3103H17.6298L31.5124 10.8204Z" fill="#4DBDF5"/>
<path d="M54.325 29.2421L62.8416 29.2421L45.9145 6.75L40.5167 10.8028L54.325 29.2421Z" fill="#4DBDF5"/>
<path fill-rule="evenodd" clip-rule="evenodd" d="M2.25 29.2456V38.2456H6.48L8.3025 60.1381C8.43645 61.5327 9.08401 62.8278 10.1194 63.7716C11.1547 64.7155 12.504 65.2409 13.905 65.2456H58.095C59.496 65.2409 60.8453 64.7155 61.8806 63.7716C62.916 62.8278 63.5635 61.5327 63.6975 60.1381L65.52 38.2456H69.75V29.2456H2.25Z" fill="#0053E2"/>
<path d="M15.75 58.2256H20.25V38.2456H15.75V58.2256Z" fill="white"/>
<path d="M27.7425 58.2256H32.2425V38.2456H27.7425V58.2256Z" fill="white"/>
<path d="M39.7575 58.2256H44.2575V38.2456H39.7575V58.2256Z" fill="white"/>
<path d="M51.75 58.2256H56.25V38.2456H51.75V58.2256Z" fill="white"/>
</svg>
