<svg width="72" height="72" viewBox="0 0 72 72" fill="none" xmlns="http://www.w3.org/2000/svg">
<path fill-rule="evenodd" clip-rule="evenodd" d="M2.25 23.2425L12.7575 36.7425L15.75 34.1775V65.25H56.25V34.1775L59.2425 36.7425L69.75 21.7575L57.555 10.125C55.2691 7.96147 52.2424 6.754 49.095 6.75H23.2425C21.5843 6.75029 19.9435 7.08749 18.4196 7.74114C16.8957 8.39479 15.5205 9.35126 14.3775 10.5525L2.25 23.2425Z" fill="#0053E2"/>
<path fill-rule="evenodd" clip-rule="evenodd" d="M25.7852 6.77245C25.9001 7.68442 26.1425 8.57585 26.5052 9.42082C27.0293 10.6646 27.7939 11.7933 28.7552 12.7425C29.6988 13.7109 30.8324 14.4749 32.0852 14.9869C33.328 15.4926 34.6578 15.7518 36.0002 15.75C37.3515 15.7476 38.6893 15.4808 39.9377 14.9645C41.1874 14.4469 42.3199 13.6836 43.2677 12.7201C44.2384 11.7788 45.0044 10.648 45.5177 9.39838C45.8803 8.55341 46.1227 7.66197 46.2377 6.75H25.7852V6.77245Z" fill="#4DBDF5"/>
</svg>
