<svg width="72" height="72" viewBox="0 0 72 72" fill="none" xmlns="http://www.w3.org/2000/svg">
<path fill-rule="evenodd" clip-rule="evenodd" d="M36.011 8.96289C32.8298 8.96289 30.251 11.5417 30.251 14.7229C30.251 17.9041 32.8298 20.4829 36.011 20.4829C39.1921 20.4829 41.771 17.9041 41.771 14.7229C41.771 11.5417 39.1921 8.96289 36.011 8.96289ZM28.001 14.7229C28.001 10.2991 31.5872 6.71289 36.011 6.71289C40.4348 6.71289 44.021 10.2991 44.021 14.7229C44.021 19.1467 40.4348 22.7329 36.011 22.7329C31.5872 22.7329 28.001 19.1467 28.001 14.7229Z" fill="#0053E2"/>
<path d="M65.25 29.2512H6.75V67.5012H65.25V29.2512Z" fill="#0053E2"/>
<path d="M36.011 2.34668C42.8455 2.34668 48.386 7.88716 48.386 14.7217C48.386 21.5562 42.8455 27.0967 36.011 27.0967C29.1765 27.0967 23.636 21.5562 23.636 14.7217C23.636 7.88716 29.1765 2.34668 36.011 2.34668ZM36.0088 6.71265C31.5858 6.71317 28.0003 10.2986 27.9998 14.7217C27.9998 19.1452 31.5854 22.7324 36.0088 22.7329C40.4326 22.7329 44.02 19.1455 44.02 14.7217C44.0195 10.2983 40.4323 6.71265 36.0088 6.71265Z" fill="#4DBDF5"/>
<path d="M36.0119 8.96265C32.8308 8.96265 30.252 11.5415 30.252 14.7226C30.252 17.9038 32.8308 20.4826 36.0119 20.4826C39.1931 20.4826 41.7719 17.9038 41.7719 14.7226C41.7719 11.5415 39.1931 8.96265 36.0119 8.96265Z" fill="#4DBDF5"/>
<path d="M36.0001 39.736L35.3926 39.241C33.9538 38.0112 32.1326 37.3193 30.2401 37.2835C29.2231 37.2745 28.2144 37.4679 27.2728 37.8522C26.3312 38.2366 25.4753 38.8044 24.7551 39.5225C24.0349 40.2407 23.4647 41.0948 23.0775 42.0353C22.6904 42.9759 22.4941 43.984 22.5001 45.001C22.5001 51.886 32.5576 57.7585 34.8976 59.1085C35.2273 59.3228 35.6075 59.4469 36.0001 59.4685" fill="#4DBDF5"/>
<path d="M36.0001 39.736L36.6075 39.241C38.0463 38.0112 39.8676 37.3193 41.76 37.2835C42.777 37.2745 43.7857 37.4679 44.7273 37.8522C45.669 38.2366 46.5248 38.8044 47.245 39.5225C47.9652 40.2407 48.5355 41.0948 48.9226 42.0353C49.3097 42.9759 49.506 43.984 49.5 45.001C49.5 51.886 39.4425 57.7585 37.1025 59.1085C36.7728 59.3228 36.3928 59.4469 36.0001 59.4685" fill="#4DBDF5"/>
</svg>
