<svg width="72" height="72" viewBox="0 0 72 72" fill="none" xmlns="http://www.w3.org/2000/svg">
<path d="M46.8186 42.9302C47.8376 42.9302 48.6636 42.1042 48.6636 41.0853C48.6636 40.0663 47.8376 39.2402 46.8186 39.2402C45.7997 39.2402 44.9736 40.0663 44.9736 41.0853C44.9736 42.1042 45.7997 42.9302 46.8186 42.9302Z" fill="#0053E2"/>
<path d="M24.2121 46.4625H22.9746V49.5H24.2121V46.4625Z" fill="#4DBDF5"/>
<path d="M24.2121 22.5H22.9746V25.02H24.2121V22.5Z" fill="#4DBDF5"/>
<path d="M24.2121 37.44H22.9746V43.0875H24.2121V37.44Z" fill="#4DBDF5"/>
<path d="M24.2121 28.395H22.9746V34.0425H24.2121V28.395Z" fill="#4DBDF5"/>
<path d="M46.8232 45.0228C44.6632 45.0228 42.9082 43.2678 42.9082 41.1078C42.9082 38.9478 44.6632 37.1928 46.8232 37.1928C48.9832 37.1928 50.7382 38.9478 50.7382 41.1078C50.7382 43.2678 48.9832 45.0228 46.8232 45.0228ZM46.8232 39.2403C45.8107 39.2403 44.9782 40.0728 44.9782 41.0853C44.9782 42.0978 45.8107 42.9303 46.8232 42.9303C47.8357 42.9303 48.6682 42.0978 48.6682 41.0853C48.6682 40.0728 47.8357 39.2403 46.8232 39.2403Z" fill="#4DBDF5"/>
<path d="M36.6543 34.8297C34.4943 34.8297 32.7393 33.0747 32.7393 30.9147C32.7393 28.7547 34.4943 26.9997 36.6543 26.9997C38.8143 26.9997 40.5693 28.7547 40.5693 30.9147C40.5693 33.0747 38.8143 34.8297 36.6543 34.8297ZM36.6543 29.0697C35.6418 29.0697 34.8093 29.9022 34.8093 30.9147C34.8093 31.9272 35.6418 32.7597 36.6543 32.7597C37.6668 32.7597 38.4993 31.9272 38.4993 30.9147C38.4993 29.9022 37.6668 29.0697 36.6543 29.0697Z" fill="#4DBDF5"/>
<path d="M48.6559 27.6476L33.3824 42.9211L34.8302 44.3689L50.1037 29.0954L48.6559 27.6476Z" fill="#4DBDF5"/>
<path d="M36.6497 32.7595C37.6622 32.7595 38.4947 31.927 38.4947 30.9145C38.4947 29.902 37.6622 29.0695 36.6497 29.0695C35.6372 29.0695 34.8047 29.902 34.8047 30.9145C34.8047 31.927 35.6372 32.7595 36.6497 32.7595Z" fill="#0053E2"/>
<path d="M60.75 31.5V22.5H24.21V25.02H22.9725V22.5H11.25V31.5C13.725 31.5 15.75 33.525 15.75 36C15.75 38.475 13.725 40.5 11.25 40.5V49.5H22.9725V46.4625H24.21V49.5H60.75V40.5C58.275 40.5 56.25 38.475 56.25 36C56.25 33.525 58.275 31.5 60.75 31.5ZM24.21 43.0875H22.9725V37.44H24.21V43.0875ZM24.21 34.0425H22.9725V28.395H24.21V34.0425ZM36.6525 27C38.8125 27 40.5675 28.755 40.5675 30.915C40.5675 33.075 38.8125 34.83 36.6525 34.83C34.4925 34.83 32.7375 33.075 32.7375 30.915C32.7375 28.755 34.4925 27 36.6525 27ZM33.39 42.93L48.6675 27.6525L50.1075 29.0925L34.83 44.37L33.39 42.93ZM46.8225 45.0225C44.6625 45.0225 42.9075 43.2675 42.9075 41.1075C42.9075 38.9475 44.6625 37.1925 46.8225 37.1925C48.9825 37.1925 50.7375 38.9475 50.7375 41.1075C50.7375 43.2675 48.9825 45.0225 46.8225 45.0225Z" fill="#0053E2"/>
</svg>
