<svg width="72" height="72" viewBox="0 0 72 72" fill="none" xmlns="http://www.w3.org/2000/svg">
<path d="M49.5 4.5H11.25V67.5H49.5V4.5Z" fill="#4DBDF5"/>
<path d="M19.125 38.9702C20.989 38.9702 22.5 37.4592 22.5 35.5952C22.5 33.7313 20.989 32.2202 19.125 32.2202C17.261 32.2202 15.75 33.7313 15.75 35.5952C15.75 37.4592 17.261 38.9702 19.125 38.9702Z" fill="#0053E2"/>
<path d="M60.7501 42.7502H34.1551V67.5002H60.7501V42.7502Z" fill="#0053E2"/>
<path fill-rule="evenodd" clip-rule="evenodd" d="M46.249 48.524C46.249 47.8335 46.8156 47.2847 47.4883 47.2847C48.1611 47.2847 48.7276 47.8512 48.7276 48.524C48.7276 48.8249 48.4266 52.0294 48.3204 52.3481C48.1965 52.7199 47.8601 52.95 47.4706 52.95C47.0811 52.95 46.7447 52.7022 46.6208 52.3481C46.5146 52.0294 46.2136 48.8249 46.2136 48.524H46.249ZM53.8973 52.95C53.6494 53.0917 50.7105 54.4372 50.3918 54.508C50.02 54.5788 49.6305 54.4195 49.4358 54.1008C49.241 53.7644 49.2942 53.3572 49.542 53.0563C49.7545 52.8084 52.3747 50.9495 52.658 50.7901C53.2599 50.4537 54.0035 50.6485 54.3576 51.2327C54.694 51.8347 54.4992 52.5782 53.915 52.9323L53.8973 52.95ZM50.3918 55.9067C50.7282 55.9775 53.6494 57.3053 53.8973 57.4646C54.4992 57.801 54.694 58.58 54.3399 59.1642C54.0035 59.7662 53.2245 59.9609 52.6403 59.6068C52.3924 59.4652 49.7722 57.5886 49.5243 57.3407C49.2764 57.0397 49.2233 56.6325 49.4181 56.2961C49.6128 55.9598 49.9846 55.8004 50.3741 55.8889L50.3918 55.9067ZM47.4883 57.4469C47.1165 57.4469 46.7624 57.6948 46.6385 58.0489C46.5323 58.3675 46.2313 61.572 46.2313 61.873C46.2313 62.5635 46.7978 63.1123 47.4706 63.1123C48.1434 63.1123 48.7099 62.5458 48.7099 61.873C48.7099 61.572 48.4089 58.3675 48.3027 58.0489C48.1788 57.6771 47.8424 57.4469 47.4529 57.4469H47.4883ZM41.0971 57.4646C41.3449 57.323 44.2838 55.9775 44.6025 55.9067C44.9743 55.8358 45.3638 55.9952 45.5586 56.3139C45.7533 56.6502 45.7002 57.0574 45.4523 57.3584C45.2399 57.6063 42.6196 59.4652 42.3364 59.6246C41.7344 59.9609 40.9908 59.7662 40.6368 59.1819C40.3004 58.58 40.4951 57.8364 41.0794 57.4823L41.0971 57.4646ZM42.3364 50.7901C41.7344 50.4537 40.9908 50.6485 40.6368 51.2327C40.3004 51.8347 40.4951 52.5782 41.0794 52.9323C41.3272 53.074 44.2661 54.4195 44.5848 54.4903C44.9566 54.5611 45.3461 54.4018 45.5408 54.0831C45.7356 53.7467 45.6825 53.3395 45.4346 53.0386C45.2222 52.7907 42.6019 50.9318 42.3187 50.7724L42.3364 50.7901Z" fill="white"/>
</svg>
