<svg width="72" height="72" viewBox="0 0 72 72" fill="none" xmlns="http://www.w3.org/2000/svg">
<path d="M23.625 15.9563C22.8952 15.8222 22.1435 15.7498 21.375 15.7498C20.6065 15.7498 19.8548 15.8222 19.125 15.9563V8.94043H23.625V15.9563Z" fill="#0053E2"/>
<path d="M36 8.94043C38.475 8.94043 40.5 10.9654 40.5 13.4404V29.1904H65.272C66.5095 29.1904 67.522 30.2029 67.522 31.4404V33.6904C67.522 34.8602 66.6229 35.8051 65.4983 35.9404H65.272V62.9404C65.272 65.4154 63.247 67.4404 60.772 67.4404H49.2517C48.1272 67.44 47.161 66.5853 47.0259 65.4607L45.2922 51.6904H26.7297L24.9983 65.4607C24.8632 66.5855 23.8951 67.4403 22.7703 67.4404H11.25C8.775 67.4404 6.75 65.4154 6.75 62.9404V35.9404H6.52588C5.37838 35.8054 4.5 34.8604 4.5 33.6904V31.4404C4.5 30.2029 5.5125 29.1904 6.75 29.1904H9V29.2498H31.5V13.4404C31.5 10.9654 33.525 8.94043 36 8.94043Z" fill="#0053E2"/>
<path d="M62.9429 13.5C64.3085 13.5 65.3755 14.6524 65.2368 15.9785L63.8525 29.1907H46.3953L45.011 15.9785C44.8723 14.6524 45.9393 13.5 47.3049 13.5H62.9429Z" fill="#4DBDF5"/>
<path d="M9 28.125C9 21.2905 14.5405 15.75 21.375 15.75C25.6051 15.75 29.2707 17.9121 31.5026 21.1501L31.5282 29.25H9V28.125Z" fill="#4DBDF5"/>
<path d="M27 6.75V9H18.0264L17.5737 9.01758C16.5577 9.07867 15.7994 9.26632 15.0688 9.63281C14.2048 10.0665 13.2985 10.7914 12.0454 12.0454L10.4546 10.4546C11.7582 9.15011 12.8672 8.22011 14.0581 7.62231C15.2779 7.01015 16.5037 6.78527 17.9736 6.75H27Z" fill="#4DBDF5"/>
<path d="M49.5 22.5C49.5 21.2574 50.5074 20.25 51.75 20.25H58.5C59.7426 20.25 60.75 21.2574 60.75 22.5C60.75 23.7426 59.7426 24.75 58.5 24.75H51.75C50.5074 24.75 49.5 23.7426 49.5 22.5Z" fill="white"/>
</svg>
