<svg width="72" height="72" viewBox="0 0 72 72" fill="none" xmlns="http://www.w3.org/2000/svg">
<path fill-rule="evenodd" clip-rule="evenodd" d="M67.5 57.1157C67.4998 59.1228 65.8728 60.7498 63.8657 60.75H8.13428C6.1272 60.7498 4.50018 59.1228 4.5 57.1157V22.5H67.5V57.1157ZM33.75 51.75C33.75 52.9926 34.7574 54 36 54C37.2426 54 38.25 52.9926 38.25 51.75H33.75ZM34.875 31.5C34.2537 31.5 33.75 32.0037 33.75 32.625V34.0774C30.4973 35.0456 28.125 38.0577 28.125 41.625V47.25C28.125 47.2839 28.1279 47.3175 28.1294 47.3511C27.4728 47.5821 27 48.2019 27 48.9375C27 49.8695 27.7555 50.625 28.6875 50.625H43.3125C44.2445 50.625 45 49.8695 45 48.9375C45 48.2011 44.5261 47.5815 43.8684 47.3511C43.8699 47.3175 43.875 47.2839 43.875 47.25V41.625C43.875 38.0577 41.5027 35.0456 38.25 34.0774V32.625C38.25 32.0037 37.7463 31.5 37.125 31.5H34.875ZM23.0713 29.1907C18.461 32.6107 16.0667 38.5583 17.4639 44.5012C17.6725 45.3879 17.9607 46.2369 18.312 47.0435L20.3884 46.1799C20.083 45.4848 19.8347 44.7527 19.6545 43.9871C18.496 39.0604 20.4083 34.1286 24.1458 31.199L23.0713 29.1907ZM47.7444 31.2913C51.4044 34.2315 53.2633 39.1122 52.1169 43.9871C51.9368 44.7527 51.6863 45.4848 51.3809 46.1799L53.4573 47.0413C53.8085 46.2349 54.0969 45.3878 54.3054 44.5012C55.688 38.6217 53.3614 32.7396 48.8474 29.3027L47.7444 31.2913ZM25.6091 33.9368C22.6759 36.5647 21.2319 40.6746 22.1968 44.7781L22.3418 45.3296C22.345 45.3406 22.3496 45.3516 22.3528 45.3625L24.4468 44.4924C24.4267 44.4161 24.4056 44.339 24.3875 44.2617C23.6632 41.1808 24.6414 38.0954 26.71 35.9956L25.6091 33.9368ZM45.1077 36.0417C47.1454 38.1405 48.1032 41.2032 47.384 44.2617C47.3659 44.339 47.3448 44.4161 47.3247 44.4924L49.4165 45.3625C49.4198 45.3514 49.4243 45.3407 49.4275 45.3296L49.5725 44.7759C50.5289 40.7075 49.1179 36.6352 46.2349 34.0049L45.1077 36.0417Z" fill="#0053E2"/>
<path d="M20.25 14.625C21.4926 14.625 22.5 15.6324 22.5 16.875C22.5 18.1176 21.4926 19.125 20.25 19.125C19.0074 19.125 18 18.1176 18 16.875C18 15.6324 19.0074 14.625 20.25 14.625Z" fill="#0053E2"/>
<path d="M51.75 14.625C52.9926 14.625 54 15.6324 54 16.875C54 18.1176 52.9926 19.125 51.75 19.125C50.5074 19.125 49.5 18.1176 49.5 16.875C49.5 15.6324 50.5074 14.625 51.75 14.625Z" fill="#0053E2"/>
<path d="M38.25 51.75C38.25 52.9926 37.2426 54 36 54C34.7574 54 33.75 52.9926 33.75 51.75H38.25Z" fill="#4DBDF5"/>
<path d="M37.125 31.5C37.7463 31.5 38.25 32.0037 38.25 32.625V34.0774C41.5027 35.0456 43.875 38.0577 43.875 41.625V47.25C43.875 47.2839 43.8699 47.3175 43.8684 47.3511C44.5261 47.5815 45 48.2011 45 48.9375C45 49.8695 44.2445 50.625 43.3125 50.625H28.6875C27.7555 50.625 27 49.8695 27 48.9375C27 48.2019 27.4728 47.5821 28.1294 47.3511C28.1279 47.3175 28.125 47.2839 28.125 47.25V41.625C28.125 38.0577 30.4973 35.0456 33.75 34.0774V32.625C33.75 32.0037 34.2537 31.5 34.875 31.5H37.125Z" fill="#4DBDF5"/>
<path fill-rule="evenodd" clip-rule="evenodd" d="M63.8657 11.25C65.8728 11.2502 67.4998 12.8772 67.5 14.8843V22.5H4.5V14.8843C4.50018 12.8772 6.1272 11.2502 8.13428 11.25H63.8657ZM20.25 14.625C19.0074 14.625 18 15.6324 18 16.875C18 18.1176 19.0074 19.125 20.25 19.125C21.4926 19.125 22.5 18.1176 22.5 16.875C22.5 15.6324 21.4926 14.625 20.25 14.625ZM51.75 14.625C50.5074 14.625 49.5 15.6324 49.5 16.875C49.5 18.1176 50.5074 19.125 51.75 19.125C52.9926 19.125 54 18.1176 54 16.875C54 15.6324 52.9926 14.625 51.75 14.625Z" fill="#4DBDF5"/>
<path d="M24.1449 31.1987C20.4076 34.1283 18.4953 39.0602 19.6537 43.9868C19.8339 44.7526 20.0843 45.4845 20.3898 46.1797L18.3134 47.0432C17.9621 46.2367 17.6738 45.3877 17.4652 44.501C16.068 38.558 18.4601 32.6105 23.0705 29.1904L24.1449 31.1987Z" fill="white"/>
<path d="M48.8488 29.3025C53.3622 32.7394 55.6892 38.6218 54.3068 44.501C54.0983 45.3874 53.8098 46.2347 53.4586 47.041L51.3822 46.1797C51.6877 45.4846 51.9359 44.7524 52.1161 43.9868C53.2625 39.1117 51.404 34.2312 47.7436 31.291L48.8488 29.3025Z" fill="white"/>
<path d="M26.7091 35.9954C24.6406 38.0951 23.6625 41.1806 24.3866 44.2615C24.4048 44.3387 24.4281 44.4159 24.4481 44.4922L22.352 45.3623C22.3488 45.3514 22.3463 45.3402 22.3432 45.3293L22.1981 44.7778C21.2333 40.6745 22.6752 36.5645 25.6083 33.9365L26.7091 35.9954Z" fill="white"/>
<path d="M46.2362 34.0046C49.1192 36.6349 50.5302 40.7073 49.5739 44.7756L49.4289 45.3293C49.4256 45.3405 49.4211 45.3512 49.4179 45.3623L47.3239 44.4922C47.3439 44.416 47.365 44.3386 47.3832 44.2615C48.1023 41.2028 47.1447 38.1403 45.1068 36.0415L46.2362 34.0046Z" fill="white"/>
</svg>
