<svg width="72" height="72" viewBox="0 0 72 72" fill="none" xmlns="http://www.w3.org/2000/svg">
<path d="M60.6179 40.624C58.5254 40.624 56.8154 38.914 56.8154 36.8215V34.3015L50.4704 33.019L41.2454 22.534C40.0529 21.184 38.3204 20.3965 36.5204 20.3965H11.9729C9.54289 20.3965 7.33789 21.814 6.34789 24.0415L2.83789 31.849C2.47789 32.659 2.27539 33.5365 2.27539 34.4365V54.889H63.1379V40.624H60.6179ZM26.6429 33.784H7.87787C7.24787 33.784 6.84289 33.1315 7.09039 32.569L9.92538 26.269H9.94786C10.4429 25.1665 11.5454 24.4465 12.7604 24.4465H26.6429V33.784ZM30.6929 33.8065V24.469H36.1379C37.0379 24.469 37.8929 24.8515 38.4779 25.5265L39.5804 26.809L45.6329 33.8065H30.6929Z" fill="#4DBDF5"/>
<path d="M69.7028 10.9693C69.7028 9.86677 68.8027 8.98926 67.7227 8.98926H52.2203C51.1178 8.98926 50.2403 9.88927 50.2403 10.9693V32.7718L50.4428 33.0193L56.7878 34.3018V36.8218C56.7878 38.9143 58.4978 40.6243 60.5903 40.6243H63.1103V54.8893H59.0828C59.0828 50.4118 55.4378 46.7668 50.9603 46.7668C46.4828 46.7668 42.8378 50.4118 42.8378 54.8893C42.8378 59.1193 46.1003 62.5618 50.2403 62.9443V62.9893H50.7578C50.7578 62.9893 50.9153 63.0118 50.9828 63.0118C51.0503 63.0118 51.1403 63.0118 51.2078 62.9893H69.7253V10.9693H69.7028ZM46.9328 54.8893C46.9328 52.6618 48.7553 50.8393 50.9828 50.8393C53.2103 50.8393 55.0328 52.6618 55.0328 54.8893L53.6846 58.0022L50.2628 58.8718C48.3728 58.5343 46.9328 56.8918 46.9328 54.8893ZM67.2728 18.1018L57.7328 29.3743C57.3053 29.8693 56.4953 29.3968 56.7428 28.7893L59.5103 21.6118H53.2553C52.7603 21.6118 52.4228 21.0493 52.6928 20.5993L57.9128 11.7568C58.1153 11.4418 58.4528 11.2393 58.8128 11.2393H64.0553H64.0328C64.5278 11.2618 64.8203 11.7793 64.5728 12.1843L61.6478 17.1343H66.8453C67.3403 17.1343 67.6103 17.7193 67.2728 18.1018Z" fill="#0053E2"/>
<path d="M9.9447 26.2693H9.92221L7.08723 32.5693C6.83973 33.1318 7.24471 33.7843 7.87471 33.7843H26.6397V24.4468H12.7572C11.5422 24.4468 10.4397 25.1668 9.9447 26.2693Z" fill="#0053E2"/>
<path d="M39.5772 26.8318L38.4747 25.5268C37.8897 24.8518 37.0347 24.4693 36.1347 24.4693H30.6897V33.8068H45.6297L39.5772 26.8318Z" fill="#0053E2"/>
<path d="M14.4672 46.7668C9.98973 46.7668 6.34473 50.4118 6.34473 54.8893C6.34473 59.3668 9.98973 63.0118 14.4672 63.0118C18.9447 63.0118 22.5897 59.3668 22.5897 54.8893C22.5897 50.4118 18.9447 46.7668 14.4672 46.7668ZM14.4672 58.9393C12.2397 58.9393 10.4172 57.1168 10.4172 54.8893C10.4172 52.6618 12.2397 50.8393 14.4672 50.8393C16.6947 50.8393 18.5172 52.6618 18.5172 54.8893C18.5172 57.1168 16.6947 58.9393 14.4672 58.9393Z" fill="#0053E2"/>
<path fill-rule="evenodd" clip-rule="evenodd" d="M66.9429 17.1343H61.7454L64.6704 12.1843C64.9179 11.7793 64.6254 11.2618 64.1304 11.2618H64.1529L58.9104 11.2393C58.5504 11.2393 58.2129 11.4418 58.0104 11.7568L52.7904 20.5993C52.5204 21.0493 52.8579 21.6118 53.3529 21.6118H59.6079L56.8403 28.7893C56.5928 29.3968 57.4029 29.8693 57.8304 29.3743L67.3704 18.1018C67.7079 17.7193 67.4379 17.1343 66.9429 17.1343Z" fill="white"/>
<path fill-rule="evenodd" clip-rule="evenodd" d="M61.1154 35.1343L56.8179 34.2793V36.8218C56.8179 38.9143 58.5279 40.6243 60.6204 40.6243H63.1628V37.6318C63.1628 36.4168 62.3079 35.3818 61.1154 35.1343Z" fill="white"/>
<path d="M14.4729 58.9393C16.7096 58.9393 18.5229 57.126 18.5229 54.8893C18.5229 52.6525 16.7096 50.8393 14.4729 50.8393C12.2361 50.8393 10.4229 52.6525 10.4229 54.8893C10.4229 57.126 12.2361 58.9393 14.4729 58.9393Z" fill="white"/>
<path d="M50.9904 58.9393C53.2271 58.9393 55.0404 57.126 55.0404 54.8893C55.0404 52.6525 53.2271 50.8393 50.9904 50.8393C48.7536 50.8393 46.9403 52.6525 46.9403 54.8893C46.9403 57.126 48.7536 58.9393 50.9904 58.9393Z" fill="white"/>
<path fill-rule="evenodd" clip-rule="evenodd" d="M33.0578 33.7843H45.6354L39.8304 27.1018L33.0578 33.7843Z" fill="white"/>
</svg>
