<svg width="72" height="72" viewBox="0 0 72 72" fill="none" xmlns="http://www.w3.org/2000/svg">
<path d="M47.25 67.4739L36 60.7239L24.75 67.4739V51.2646C28.1264 52.9915 31.9473 53.9739 36 53.9739C40.0527 53.9739 43.8736 52.9915 47.25 51.2646V67.4739Z" fill="#4DBDF5"/>
<path d="M36 54C49.669 54 60.75 42.919 60.75 29.25C60.75 15.581 49.669 4.5 36 4.5C22.331 4.5 11.25 15.581 11.25 29.25C11.25 42.919 22.331 54 36 54Z" fill="#0053E2"/>
<path d="M36.0003 13.5L39.6228 24.6825H51.3678L41.8728 31.5675L45.4953 42.75L36.0003 35.8425L26.5053 42.75L30.1278 31.5675L20.6328 24.6825H32.3778L36.0003 13.5Z" fill="white"/>
</svg>
