<svg width="72" height="72" viewBox="0 0 72 72" fill="none" xmlns="http://www.w3.org/2000/svg">
<path d="M49.5 40.5H40.5V38.25H49.5V40.5Z" fill="#0053E2"/>
<path d="M51.75 36H40.5V33.75H51.75V36Z" fill="#0053E2"/>
<path d="M51.75 31.5H40.5V29.25H51.75V31.5Z" fill="#0053E2"/>
<path fill-rule="evenodd" clip-rule="evenodd" d="M37.125 4.5C44.8745 4.5 51.213 11.4548 51.7148 20.25H58.5V63C58.5 65.4853 56.4853 67.5 54 67.5H18C15.5147 67.5 13.5 65.4853 13.5 63V20.25H22.5352C23.037 11.4548 29.3755 4.5 37.125 4.5ZM38.25 45H54V27H38.25V45ZM37.125 7.875C31.6264 7.875 26.4059 12.9273 25.9167 20.25H48.3333C47.8441 12.9273 42.6236 7.875 37.125 7.875Z" fill="#0053E2"/>
<path d="M21.6809 4.49231C23.7911 3.91416 26.2082 5.19824 28.4726 7.77282C25.0985 10.6365 22.8278 15.1299 22.5356 20.2489H25.9172C26.1947 16.0971 27.993 12.6758 30.5007 10.4908C31.8909 12.6573 33.1557 15.3007 34.1635 18.2626L35.4072 11.2159C35.623 9.99264 36.7898 9.17494 38.0131 9.39001L43.6118 10.3766C46.19 12.5554 48.0512 16.0227 48.3337 20.2489H51.7153C51.5245 16.9067 50.4881 13.8316 48.8544 11.3016L53.5258 12.1256C54.7484 12.3421 55.5647 13.5087 55.3496 14.7316L54.3762 20.2511L17.5214 20.2489C16.3267 12.1494 17.9175 5.52405 21.6809 4.49231Z" fill="#4DBDF5"/>
<path fill-rule="evenodd" clip-rule="evenodd" d="M54 27V45H38.25V27H54ZM40.5 38.25V40.5H49.5V38.25H40.5ZM40.5 33.75V36H51.75V33.75H40.5ZM40.5 29.25V31.5H51.75V29.25H40.5Z" fill="white"/>
</svg>
