<svg width="72" height="72" viewBox="0 0 72 72" fill="none" xmlns="http://www.w3.org/2000/svg">
<path fill-rule="evenodd" clip-rule="evenodd" d="M54 60.75H58.5V67.5H13.5V60.75H18V13.5H13.5V9C13.5 6.51472 15.5147 4.5 18 4.5H54C56.4853 4.5 58.5 6.51472 58.5 9V13.5H54V60.75ZM45 22.5V13.5H27V22.5H45ZM27 51.75H31.5V47.25H27V51.75ZM33.75 51.75H38.25V47.25H33.75V51.75ZM40.5 51.75H45V47.25H40.5V51.75ZM29.25 29.25C28.0074 29.25 27 30.2574 27 31.5V40.5C27 41.7426 28.0074 42.75 29.25 42.75H42.75C43.9926 42.75 45 41.7426 45 40.5V31.5C45 30.2574 43.9926 29.25 42.75 29.25H29.25Z" fill="#0053E2"/>
<path d="M54 29.25C56.4853 29.25 58.5 31.2647 58.5 33.75V50.625C58.5 53.3462 56.5674 55.6144 54 56.1357V53.8022C55.3099 53.3384 56.25 52.0938 56.25 50.625V40.5H54V29.25Z" fill="#4DBDF5"/>
<path d="M31.5 51.75H27V47.25H31.5V51.75Z" fill="#4DBDF5"/>
<path d="M38.25 51.75H33.75V47.25H38.25V51.75Z" fill="#4DBDF5"/>
<path d="M45 51.75H40.5V47.25H45V51.75Z" fill="#4DBDF5"/>
<path d="M42.75 29.25C43.9926 29.25 45 30.2574 45 31.5V40.5C45 41.7426 43.9926 42.75 42.75 42.75H29.25C28.0074 42.75 27 41.7426 27 40.5V31.5C27 30.2574 28.0074 29.25 29.25 29.25H42.75Z" fill="#4DBDF5"/>
<rect x="27" y="13.5" width="18" height="9" fill="white"/>
</svg>
