<svg width="72" height="72" viewBox="0 0 72 72" fill="none" xmlns="http://www.w3.org/2000/svg">
<path d="M50.3037 9.59668H30.6387C29.7067 9.59668 28.9512 10.3522 28.9512 11.2842V21.7692C28.9512 22.7012 29.7067 23.4567 30.6387 23.4567H50.3037C51.2356 23.4567 51.9912 22.7012 51.9912 21.7692V11.2842C51.9912 10.3522 51.2356 9.59668 50.3037 9.59668Z" fill="white"/>
<path d="M55.08 62.4937V9.61866C55.08 7.90866 53.7075 6.53613 51.9975 6.53613H28.9575C27.2475 6.53613 25.875 7.90866 25.875 9.61866V27.1912L24.345 28.8787C22.725 30.4762 21.8025 32.7936 21.8025 35.2686V49.0836C21.8025 50.2086 20.88 51.1311 19.755 51.1311C18.63 51.1311 17.7075 50.2086 17.7075 49.0836V29.4412H14.625V49.0836C14.625 51.9186 16.92 54.2136 19.755 54.2136C22.59 54.2136 24.885 51.9186 24.885 49.0836V35.2686C24.885 34.0086 25.245 32.8162 25.875 31.8712V62.4937C24.5475 62.8312 23.535 64.0236 23.535 65.4636H57.375C57.375 64.0461 56.4075 62.8537 55.08 62.4937ZM43.38 41.5462C41.7825 43.1437 39.195 43.1437 37.62 41.5462C36.36 40.2862 36.0675 38.3737 36.8775 36.7987L40.5 29.6887L44.1225 36.7987C44.9325 38.3737 44.6175 40.2862 43.38 41.5462ZM51.9975 21.7686C51.9975 22.6911 51.2325 23.4561 50.31 23.4561H30.645C29.7225 23.4561 28.9575 22.6911 28.9575 21.7686V11.2836C28.9575 10.3611 29.7225 9.59613 30.645 9.59613H50.31C51.2325 9.59613 51.9975 10.3611 51.9975 11.2836V21.7686Z" fill="#0053E2"/>
<path d="M43.3776 41.5465C41.7801 43.144 39.1926 43.144 37.6176 41.5465C36.3576 40.2865 36.0651 38.374 36.8751 36.799L40.4976 29.689L44.1201 36.799C44.9301 38.374 44.6151 40.2865 43.3776 41.5465Z" fill="#4DBDF5"/>
<path d="M24.8175 13.5334L22.6575 11.7109L15.7275 19.9459C15.03 20.7784 14.625 21.8584 14.625 22.9384V29.4409H19.755C20.655 29.4409 21.375 28.6985 21.375 27.7985V17.7859L24.8175 13.5334Z" fill="#4DBDF5"/>
</svg>
