<svg width="72" height="72" viewBox="0 0 72 72" fill="none" xmlns="http://www.w3.org/2000/svg">
<path d="M61.875 13.5H10.125C7.0184 13.5 4.5 16.0184 4.5 19.125V52.875C4.5 55.9816 7.0184 58.5 10.125 58.5H61.875C64.9816 58.5 67.5 55.9816 67.5 52.875V19.125C67.5 16.0184 64.9816 13.5 61.875 13.5Z" fill="#0053E2"/>
<path d="M67.5 37.125H37.125V13.5H34.875V37.125H4.5V39.375H34.875V58.5H37.125V39.375H67.5V37.125Z" fill="#4DBDF5"/>
<path fill-rule="evenodd" clip-rule="evenodd" d="M26.235 25.335H26.5725C27.9335 25.3371 29.2536 25.8012 30.3164 26.6514C31.3792 27.5017 32.1218 28.6876 32.4225 30.015L34.02 37.0575L25.9425 36.6525C24.492 36.5831 23.1239 35.9576 22.1225 34.9059C21.1211 33.8542 20.5633 32.4572 20.565 31.005C20.565 29.5012 21.1624 28.0591 22.2257 26.9957C23.289 25.9324 24.7312 25.335 26.235 25.335ZM46.17 39.24L38.4975 39.6225L39.3525 40.905C40.7105 42.9423 42.7386 44.4401 45.0852 45.1388C47.4318 45.8374 49.9489 45.6928 52.2 44.73L53.2125 47.0925C50.4106 48.2895 47.2786 48.4702 44.3577 47.6033C41.4368 46.7365 38.9104 44.8766 37.215 42.345L36 40.5L34.785 42.3225C33.0896 44.8541 30.5632 46.714 27.6423 47.5808C24.7214 48.4477 21.5894 48.267 18.7875 47.07L19.8 44.7075C22.0512 45.6703 24.5682 45.8149 26.9148 45.1163C29.2614 44.4176 31.2895 42.9198 32.6475 40.8825L33.5025 39.6L25.83 39.2175C23.7227 39.1083 21.7371 38.1964 20.281 36.6692C18.8249 35.1419 18.0087 33.1152 18 31.005C18 28.821 18.8676 26.7263 20.412 25.182C21.9563 23.6376 24.051 22.77 26.235 22.77H26.5725C28.5284 22.7715 30.4249 23.4418 31.9474 24.6696C33.4699 25.8974 34.5267 27.6089 34.9425 29.52L36 34.2L37.0575 29.52C37.4733 27.6089 38.5301 25.8974 40.0526 24.6696C41.5751 23.4418 43.4716 22.7715 45.4275 22.77H45.765C47.9491 22.77 50.0437 23.6376 51.588 25.182C53.1324 26.7263 54 28.821 54 31.005C53.9971 33.1191 53.1834 35.1515 51.7267 36.6835C50.27 38.2156 48.2812 39.1306 46.17 39.24ZM45.765 25.335H45.4275C44.0665 25.3371 42.7464 25.8012 41.6836 26.6514C40.6208 27.5017 39.8782 28.6876 39.5775 30.015L37.98 37.0575L46.0575 36.6525C47.508 36.5831 48.8761 35.9576 49.8775 34.9059C50.8789 33.8542 51.4367 32.4572 51.435 31.005C51.435 29.5012 50.8376 28.0591 49.7743 26.9957C48.711 25.9324 47.2688 25.335 45.765 25.335Z" fill="white"/>
</svg>
