<svg width="72" height="72" viewBox="0 0 72 72" fill="none" xmlns="http://www.w3.org/2000/svg">
<path d="M63.1099 36H61.9849C61.9849 36 61.8499 36.045 61.7599 36.045C59.7124 32.0175 55.5499 29.25 50.7349 29.25C45.9199 29.25 41.8249 31.9725 39.7549 35.9325C38.6074 35.55 37.3924 35.325 36.1099 35.325C34.8274 35.325 33.6124 35.55 32.4649 35.9325C30.3949 31.9725 26.2549 29.25 21.4849 29.25C16.7149 29.25 12.5299 31.995 10.4824 36H4.60986V40.5H9.17736C9.15486 40.86 9.10986 41.2425 9.10986 41.625C9.10986 48.465 14.6449 54 21.4849 54C28.3249 54 33.8599 48.465 33.8599 41.625C33.8599 40.95 33.7924 40.2975 33.6799 39.645C34.4449 39.3975 35.2549 39.2625 36.1099 39.2625C36.4474 39.2625 36.7624 39.285 37.0999 39.33C37.5949 39.3975 38.0674 39.5325 38.5399 39.69C38.4499 40.32 38.3824 40.9725 38.3824 41.625C38.3824 48.465 43.9174 54 50.7574 54C57.5974 54 63.1324 48.465 63.1324 41.625C63.1324 41.2425 63.1099 40.86 63.0649 40.5H67.6099V36H63.1324H63.1099Z" fill="#0053E2"/>
<path d="M21.375 49.5C25.7175 49.5 29.25 45.9675 29.25 41.625C29.25 37.2825 25.7175 33.75 21.375 33.75C17.0325 33.75 13.5 37.2825 13.5 41.625C13.5 45.9675 17.0325 49.5 21.375 49.5Z" fill="white"/>
<path d="M50.625 49.5C54.9675 49.5 58.5 45.9675 58.5 41.625C58.5 37.2825 54.9675 33.75 50.625 33.75C46.2825 33.75 42.75 37.2825 42.75 41.625C42.75 45.9675 46.2825 49.5 50.625 49.5Z" fill="white"/>
<path d="M25.897 15.7451H31.5V20.267H26.5957L16.5894 30.2712C13.9556 31.4165 11.7861 33.4513 10.4832 35.9995H4.60986V36.1049L4.5 35.9951L24.0974 16.3977C24.5923 15.9028 25.2671 15.6777 25.897 15.7451Z" fill="#4DBDF5"/>
<path d="M46.103 15.767C46.7327 15.6997 47.4077 15.9233 47.9026 16.3955L67.5 35.9929L67.4934 35.9995H61.9849C61.9849 35.9995 61.8507 36.0453 61.7607 36.0456C60.3912 33.3517 58.0725 31.2261 55.248 30.1108L45.4043 20.267H40.5V15.767H46.103Z" fill="#4DBDF5"/>
<path d="M53.8938 34.4423C55.4078 35.1242 56.6648 36.2714 57.4885 37.7008L53.3115 49.0409C52.4838 49.3364 51.5931 49.5001 50.6638 49.5001C49.9001 49.5001 49.1626 49.3887 48.4643 49.1859L53.8938 34.4423Z" fill="#4DBDF5"/>
<path d="M24.7361 34.4423C26.2501 35.1242 27.5071 36.2714 28.3308 37.7008L24.1538 49.0409C23.3261 49.3364 22.4354 49.5001 21.5061 49.5001C20.7424 49.5001 20.0049 49.3887 19.3066 49.1859L24.7361 34.4423Z" fill="#4DBDF5"/>
</svg>
