<svg width="72" height="72" viewBox="0 0 72 72" fill="none" xmlns="http://www.w3.org/2000/svg">
<path d="M56.2499 51.7729C56.2499 54.8795 47.1837 57.3979 35.9999 57.3979C24.8162 57.3979 15.7499 54.8795 15.7499 51.7729C15.7499 48.6663 24.8162 46.1479 35.9999 46.1479C47.1837 46.1479 56.2499 48.6663 56.2499 51.7729Z" fill="#0053E2"/>
<path d="M34.7502 12.7289C35.5185 12.2584 36.4824 12.2583 37.2507 12.7289L66.3403 30.5465C67.8857 31.4931 67.8857 33.7571 66.3403 34.7037L56.2505 40.8824V36.6351H56.1604C55.3493 33.733 46.6419 31.4606 36.0005 31.4605C25.3591 31.4605 16.6521 33.7331 15.8405 36.6351H15.7944V36.8834C15.7911 36.8934 15.7506 37.0206 15.7505 37.0855C15.7505 37.1528 15.772 37.2205 15.7944 37.2877V40.911L5.65841 34.7037C4.1133 33.757 4.11312 31.493 5.65841 30.5465L34.7502 12.7289Z" fill="#0053E2"/>
<path d="M36 31.4609C46.642 31.4609 55.3492 33.7332 56.1599 36.6355H56.25V51.4187H56.2126C55.5935 48.4668 46.7821 46.1255 36 46.1255C25.2452 46.1255 16.4529 48.4554 15.7939 51.3967V37.2881C15.7715 37.2208 15.75 37.1532 15.75 37.0859C15.75 37.0211 15.7906 36.8938 15.7939 36.8838V36.6355H15.8401C16.6508 33.7332 25.358 31.4609 36 31.4609Z" fill="#4DBDF5"/>
<path d="M58.3617 36.3301L61.7367 31.8301L65.1117 36.3301V58.8301H58.3617V36.3301Z" fill="#4DBDF5"/>
</svg>
