<svg width="72" height="72" viewBox="0 0 72 72" fill="none" xmlns="http://www.w3.org/2000/svg">
<path d="M49.4779 11.025V5.22C49.4779 5.04 49.4104 4.8375 49.2754 4.7025C49.1404 4.5675 48.9604 4.5 48.7579 4.5H45.6979C45.5179 4.5 45.3154 4.5675 45.1804 4.7025C45.0454 4.8375 44.9779 5.0175 44.9779 5.22V11.07L31.5004 24.5475V64.6425C31.5004 65.4075 31.7929 66.1275 32.3329 66.6675C32.8729 67.2075 33.5929 67.5 34.3579 67.5H60.1429C60.9079 67.5 61.6279 67.2075 62.1679 66.6675C62.7079 66.1275 63.0004 65.4075 63.0004 64.6425V24.5475L49.4779 11.025Z" fill="#4DBDF5"/>
<path d="M28.7311 35.6638L27.1336 34.0888C25.6936 35.5513 24.5461 37.2838 23.7811 39.1738C23.0161 41.0638 22.6111 43.1113 22.6336 45.1588V46.2163H24.8836L24.8161 45.1588C24.8161 41.6038 26.2336 38.1838 28.7311 35.6638Z" fill="#4DBDF5"/>
<path d="M23.7586 35.5963C23.7586 34.9438 23.6236 34.2913 23.3761 33.6838C23.1286 33.0763 22.7686 32.5363 22.2961 32.0638C21.8236 31.5913 21.2836 31.2313 20.6761 30.9838C20.0686 30.7363 19.4161 30.6013 18.7636 30.6013H16.5361V32.7163C16.5361 34.0438 17.0536 35.3038 17.9986 36.2263C18.9211 37.1488 20.2036 37.6888 21.5086 37.6888H23.7586V35.5738V35.5963Z" fill="#4DBDF5"/>
<path d="M53.3692 12.6676L52.2604 13.8339L57.9759 19.5357L59.1067 18.4051C59.2414 18.2732 59.3484 18.1156 59.4215 17.9418C59.4945 17.7679 59.5322 17.5812 59.5322 17.3926C59.5322 17.2041 59.4945 17.0174 59.4215 16.8435C59.3484 16.6696 59.2414 16.5121 59.1067 16.3801L55.3942 12.6676C55.2622 12.5329 55.1047 12.4259 54.9308 12.3529C54.757 12.2798 54.5703 12.2422 54.3817 12.2422C54.1931 12.2422 54.0064 12.2798 53.8326 12.3529C53.6587 12.4259 53.5012 12.5329 53.3692 12.6676Z" fill="#0053E2"/>
<path fill-rule="evenodd" clip-rule="evenodd" d="M24.734 43.3915C24.4229 43.6608 24.0273 43.8088 23.6183 43.8088C23.2093 43.8088 22.8137 43.6608 22.5026 43.3915C21.3739 42.2299 19.9743 41.3762 18.4335 40.9094C16.8926 40.4426 15.2606 40.378 13.6885 40.7214C8.22156 42.1696 5.38767 49.2974 7.39594 56.5609C9.40421 63.8245 15.429 68.6895 20.896 67.2413C21.5444 67.0697 22.1673 66.8109 22.7481 66.472C23.0199 66.3273 23.3224 66.2517 23.6295 66.2517C23.9365 66.2517 24.239 66.3273 24.5109 66.472C25.0917 66.8109 25.7145 67.0697 26.3629 67.2413C31.8299 68.6895 37.877 63.915 39.863 56.5609C41.8489 49.2068 39.0374 42.1017 33.5704 40.7214C31.995 40.3739 30.3585 40.4366 28.8134 40.9034C27.2683 41.3703 25.8649 42.2263 24.734 43.3915Z" fill="#0053E2"/>
<path d="M58.6125 24.5476H35.8875L47.25 13.5001L58.6125 24.5476Z" fill="#0053E2"/>
</svg>
