<svg width="72" height="72" viewBox="0 0 72 72" fill="none" xmlns="http://www.w3.org/2000/svg">
<path d="M49.9057 8.84145L49.2866 9.45941L52.354 12.5131L52.9657 11.9014C53.2582 11.6089 53.2582 11.1139 52.9657 10.8214L50.9857 8.84145C50.6932 8.54895 50.1982 8.54895 49.9057 8.84145Z" fill="#0053E2"/>
<path d="M40.5907 15.1639L46.6432 9.29145L52.6957 15.1639H40.5907Z" fill="#0053E2"/>
<path d="M27.0007 31.4989C27.0007 26.9539 23.2432 23.2864 18.6307 23.2864C14.0182 23.2864 10.2607 26.9764 10.2607 31.4989" fill="#0053E2"/>
<path d="M56.2507 62.9989H15.7507C13.2757 62.9989 11.2507 60.9739 11.2507 58.4989L7.18066 35.9889H64.7431L60.7507 58.4989C60.7507 60.9739 58.7257 62.9989 56.2507 62.9989Z" fill="#0053E2"/>
<path d="M33.9982 25.9189H58.5007C60.9757 25.9189 63.0007 27.9439 63.0007 30.4189V31.4989H29.4982V30.4189C29.4982 27.9439 31.5232 25.9189 33.9982 25.9189Z" fill="#0053E2"/>
<path fill-rule="evenodd" clip-rule="evenodd" d="M47.4299 4.5C47.6546 4.5002 47.8122 4.65756 47.8123 4.88232V7.96509L55.0127 15.1655H55.0347V25.9189H38.2717V15.1655L45.426 8.00903V4.88232C45.4261 4.65742 45.5856 4.5 45.8105 4.5H47.4299ZM40.5876 15.1655H52.6924L46.6411 9.29224L40.5876 15.1655Z" fill="#4DBDF5"/>
<path d="M22.14 21.195C23.2875 20.1375 23.76 18.6525 23.6025 17.235C22.1625 17.01 20.6325 17.415 19.485 18.4725C18.3375 19.53 17.865 21.015 18.0225 22.4325C19.4625 22.6575 20.9925 22.2525 22.14 21.195Z" fill="#4DBDF5"/>
<path d="M65.25 31.5H6.75C5.50736 31.5 4.5 32.5074 4.5 33.75C4.5 34.9926 5.50736 36 6.75 36H65.25C66.4926 36 67.5 34.9926 67.5 33.75C67.5 32.5074 66.4926 31.5 65.25 31.5Z" fill="#4DBDF5"/>
</svg>
