<svg width="72" height="72" viewBox="0 0 72 72" fill="none" xmlns="http://www.w3.org/2000/svg">
<path d="M51.7051 40.905C50.4901 39.015 48.6001 37.6875 46.4176 37.1925L42.7501 36.36V33.75H29.2501V36.405L25.5826 37.26C23.4226 37.755 21.5326 39.0825 20.3401 40.95C19.1476 42.8175 18.7201 45.09 19.1476 47.25L22.2976 63C22.5676 64.2825 23.2651 65.4075 24.2776 66.24C25.2901 67.05 26.5501 67.5 27.8551 67.5H44.1451C45.4501 67.5 46.7101 67.05 47.7226 66.24C48.7351 65.43 49.4326 64.2825 49.7026 63L52.8526 47.25C53.3251 45.0675 52.8976 42.795 51.7051 40.905Z" fill="#0053E2"/>
<path d="M22.5 4.5H49.5L58.5 33.75H13.5L22.5 4.5Z" fill="#4DBDF5"/>
</svg>
