<svg width="72" height="72" viewBox="0 0 72 72" fill="none" xmlns="http://www.w3.org/2000/svg">
<path d="M40.4989 10.9795H38.2329V19.9795H40.4989V10.9795Z" fill="#0053E2"/>
<path d="M36.675 7.60474H35.325C34.4552 7.60474 33.75 8.30989 33.75 9.17974V21.7797C33.75 22.6496 34.4552 23.3547 35.325 23.3547H36.675C37.5448 23.3547 38.25 22.6496 38.25 21.7797V9.17974C38.25 8.30989 37.5448 7.60474 36.675 7.60474Z" fill="#0053E2"/>
<path d="M65.25 13.2747C64.53 11.5872 63.315 10.1472 61.785 9.15724C60.255 8.14474 58.455 7.60474 56.61 7.60474H40.5V23.1522H43.47L42.0075 67.1172H52.4925L51.03 23.1522H53.46L54.27 19.0347C54.495 17.9997 55.0575 17.0547 55.8675 16.3797C56.6775 15.7047 57.7125 15.3222 58.77 15.3222C59.5575 15.3447 60.3 15.5697 60.975 15.9522C61.65 16.3347 62.2125 16.8972 62.6175 17.5722L64.3725 20.1147L67.5 18.5397L65.25 13.2747Z" fill="#0053E2"/>
<path fill-rule="evenodd" clip-rule="evenodd" d="M29.2505 16.4923C29.2505 13.9948 28.508 11.5648 27.0905 9.51732C25.6955 7.46982 23.693 5.87232 21.3755 4.97232V15.3673C21.3755 15.9748 21.128 16.5373 20.723 16.9648C20.318 17.3923 19.733 17.6173 19.1255 17.6173H14.5355C13.928 17.6173 13.3655 17.3698 12.938 16.9648C12.5105 16.5373 12.2855 15.9748 12.2855 15.3673V4.88232C9.96801 5.80482 7.98801 7.40232 6.59301 9.47232C5.19801 11.5648 4.47801 13.9948 4.50051 16.4923C4.50051 19.7773 5.80551 22.9273 8.12301 25.2448C9.38301 26.5048 10.913 27.4498 12.5555 28.0573L11.2505 61.2673C11.2055 62.1673 11.408 63.0898 11.7905 63.8998C12.173 64.7323 12.758 65.4298 13.5005 65.9923C14.468 66.7123 15.6605 67.1173 16.8755 67.1173C18.0905 67.1173 19.283 66.7348 20.2505 65.9923C20.9705 65.4523 21.5555 64.7323 21.9605 63.8998C22.343 63.0673 22.5455 62.1673 22.5005 61.2673L21.308 28.0123C22.9055 27.4048 24.3905 26.4823 25.628 25.2448C27.9455 22.9273 29.2505 19.7773 29.2505 16.4923ZM18.4955 63.1123C18.068 63.5398 17.5055 63.7648 16.898 63.7648C16.2905 63.7648 15.728 63.5173 15.3005 63.1123C14.873 62.6848 14.648 62.1223 14.648 61.5148C14.648 60.9073 14.8955 60.3448 15.3005 59.9173C15.728 59.4898 16.2905 59.2648 16.898 59.2648C17.5055 59.2648 18.068 59.5123 18.4955 59.9173C18.923 60.3448 19.148 60.9073 19.148 61.5148C19.148 62.1223 18.9005 62.6848 18.4955 63.1123Z" fill="#0053E2"/>
</svg>
