<svg width="72" height="72" viewBox="0 0 72 72" fill="none" xmlns="http://www.w3.org/2000/svg">
<path d="M54 4.00586V8.50586L49.5 9.40586V4.00586H54Z" fill="#4DBDF5"/>
<path d="M51.75 44.5059H20.25V58.0059H51.75V44.5059Z" fill="#4DBDF5"/>
<path fill-rule="evenodd" clip-rule="evenodd" d="M48.8025 35.3259L43.4475 27.8109C41.535 25.1334 40.5 21.9159 40.5 18.6309V15.2559H45V19.7559H49.5V4.00586H36C34.515 4.00586 33.0525 4.29836 31.7025 4.86086C30.33 5.42336 29.0925 6.25586 28.0575 7.29086C27.0225 8.32586 26.19 9.58586 25.6275 10.9359C25.065 12.3084 24.7725 13.7709 24.7725 15.2334H31.5225V18.6084C31.5225 21.8934 30.4875 25.1109 28.575 27.7884L23.22 35.3034C21.285 38.0034 20.25 41.2209 20.25 44.5059H51.75C51.75 41.2209 50.715 38.0034 48.8025 35.3259Z" fill="#0053E2"/>
<path d="M51.75 58.0059H20.25V67.9959H51.75V58.0059Z" fill="#0053E2"/>
<path d="M45 49.0059H27V53.5059H45V49.0059Z" fill="white"/>
</svg>
