<svg width="72" height="72" viewBox="0 0 72 72" fill="none" xmlns="http://www.w3.org/2000/svg">
<path fill-rule="evenodd" clip-rule="evenodd" d="M51.75 41.8579C50.8092 41.0082 49.6432 40.5 48.375 40.5C45.2684 40.5 42.75 43.5221 42.75 47.25H38.25V65.5708C38.25 66.6359 39.1141 67.5 40.1792 67.5H18C15.5147 67.5 13.5 65.4853 13.5 63V29.25H51.75V41.8579ZM19.125 33.75C18.5037 33.75 18 34.2537 18 34.875V43.875C18 44.4963 18.5037 45 19.125 45C19.7463 45 20.25 44.4963 20.25 43.875V34.875C20.25 34.2537 19.7463 33.75 19.125 33.75Z" fill="#0053E2"/>
<path d="M48.375 42.75C49.8723 42.75 51.75 44.3632 51.75 47.25H45C45 44.3632 46.8777 42.75 48.375 42.75Z" fill="#0053E2"/>
<path fill-rule="evenodd" clip-rule="evenodd" d="M47.25 4.5C49.7353 4.5 51.75 6.51472 51.75 9V27H13.5V9C13.5 6.51472 15.5147 4.5 18 4.5H47.25ZM19.125 15.75C18.5037 15.75 18 16.2537 18 16.875V21.375C18 21.9963 18.5037 22.5 19.125 22.5C19.7463 22.5 20.25 21.9963 20.25 21.375V16.875C20.25 16.2537 19.7463 15.75 19.125 15.75Z" fill="#0053E2"/>
<path fill-rule="evenodd" clip-rule="evenodd" d="M48.375 40.5C51.4816 40.5 54 43.5221 54 47.25H58.5V65.5708C58.5 66.6359 57.6359 67.5 56.5708 67.5H40.1792C39.1141 67.5 38.25 66.6359 38.25 65.5708V47.25H42.75C42.75 43.5221 45.2684 40.5 48.375 40.5ZM49.5 57.2146H56.25V49.5H49.5V57.2146ZM48.375 42.75C46.8777 42.75 45 44.3632 45 47.25H51.75C51.75 44.3632 49.8723 42.75 48.375 42.75Z" fill="#4DBDF5"/>
<path d="M51.75 29.25H13.5V27H51.75V29.25Z" fill="#4DBDF5"/>
<path d="M56.25 57.2146H49.5V49.5H56.25V57.2146Z" fill="white"/>
<path d="M19.125 33.75C19.7463 33.75 20.25 34.2537 20.25 34.875V43.875C20.25 44.4963 19.7463 45 19.125 45C18.5037 45 18 44.4963 18 43.875V34.875C18 34.2537 18.5037 33.75 19.125 33.75Z" fill="white"/>
<path d="M19.125 15.75C19.7463 15.75 20.25 16.2537 20.25 16.875V21.375C20.25 21.9963 19.7463 22.5 19.125 22.5C18.5037 22.5 18 21.9963 18 21.375V16.875C18 16.2537 18.5037 15.75 19.125 15.75Z" fill="white"/>
</svg>
