<svg width="72" height="72" viewBox="0 0 72 72" fill="none" xmlns="http://www.w3.org/2000/svg">
<path d="M22.5 15.75H63V67.5H22.5V15.75Z" fill="#0053E2"/>
<path d="M46.6348 15.75H22.5V63.7339L17.8945 64.9688L4.5 14.9832L43.6201 4.5L46.6348 15.75Z" fill="#4DBDF5"/>
<path fill-rule="evenodd" clip-rule="evenodd" d="M38.9372 24.75C40.6493 24.767 42.2288 25.4862 43.2814 26.7286C44.261 27.8871 44.6893 29.4021 44.452 30.8818C43.9988 33.7512 41.166 35.0256 38.4008 36.04L36.8901 36.5882C33.1296 37.9871 32.6439 38.6387 33.0439 39.8768C33.4825 41.2398 35.0705 41.211 39.2403 40.3805L41.0135 40.0276C44.5483 39.3526 48.3145 38.9319 50.9987 41.2908C52.6208 42.7231 53.3108 44.5593 52.9956 46.6146C52.8885 47.3155 52.6573 48.0177 52.3422 48.7003C53.6795 49.8892 54.9742 51.4638 56.0792 53.5495C56.5549 54.4403 56.2167 55.5452 55.3247 56.0149C54.4461 56.4907 53.329 56.1573 52.8593 55.2604C52.0866 53.8099 51.2068 52.6819 50.3039 51.8021C48.1476 54.3453 45.3075 56.3532 43.947 56.9592C42.5501 57.5834 41.2724 57.8451 40.1443 57.8451C37.8092 57.8451 36.0861 56.7219 35.0992 55.3553C33.4358 53.0433 33.5124 49.8588 35.272 47.9459C37.1971 45.837 41.0107 44.7431 44.7124 45.2067C45.9013 45.3612 47.5234 45.7299 49.2586 46.6037C49.3183 46.4248 49.3596 46.241 49.3888 46.0622C49.5142 45.242 49.2708 44.636 48.5869 44.03C47.0886 42.7286 44.2506 43.1231 41.3647 43.684L39.1059 44.1329C35.2575 44.869 30.9503 45.2975 29.5673 40.9939C28.0564 36.3026 32.2547 34.405 35.5357 33.1971L37.3163 32.5491C39.0059 31.918 40.7124 31.172 40.8513 30.3111C40.9158 29.8718 40.7917 29.4374 40.4948 29.0869C40.167 28.6964 39.6845 28.4598 39.1181 28.4086L38.9019 28.3982C37.8919 28.3921 37.0839 27.5658 37.0961 26.5558C37.1018 25.611 37.8276 24.845 38.7459 24.7582L38.9372 24.75ZM42.9541 48.7478C40.6785 48.7478 38.7827 49.5205 37.9576 50.4173C37.3869 51.0416 37.4344 52.3485 38.0586 53.2222C38.9019 54.3746 40.4522 54.5121 42.4551 53.6262C43.3763 53.2161 45.6044 51.6062 47.297 49.7164C46.1276 49.17 45.058 48.9327 44.2549 48.8317C43.8095 48.7721 43.3763 48.7478 42.9541 48.7478Z" fill="white"/>
</svg>
