<svg width="72" height="72" viewBox="0 0 72 72" fill="none" xmlns="http://www.w3.org/2000/svg">
<path d="M38.1435 37.2759L41.011 36.7463L41.3054 38.3306L36.4956 39.2205L35.1267 31.8245L37.0669 31.4663L38.1435 37.2759Z" fill="#0053E2"/>
<path d="M45.3835 31.5652L43.4543 31.9233L43.6125 32.7869L44.5288 37.7329L42.5886 38.0933L41.5141 32.2815L39.574 32.6419L39.2795 31.0554L45.0913 29.981L45.3835 31.5652Z" fill="#0053E2"/>
<path fill-rule="evenodd" clip-rule="evenodd" d="M49.0156 29.0933C51.1378 28.7005 52.9617 29.8995 53.4035 32.2859C53.6494 33.615 53.3494 34.744 52.6806 35.5554C52.1501 36.1999 51.3948 36.6516 50.457 36.8254C48.344 37.2166 46.5221 36.0276 46.0801 33.6416C45.8794 32.5577 46.0505 31.6015 46.4756 30.8445C46.9955 29.9383 47.8769 29.3035 49.0244 29.0911L49.0156 29.0933ZM51.4172 32.6528C51.1508 31.2137 50.3569 30.5419 49.3276 30.7324C48.7814 30.8337 48.3884 31.1514 48.1763 31.6333C48.1296 31.7359 48.0946 31.8546 48.062 31.9827C47.9787 32.3464 47.9733 32.781 48.0642 33.2725C48.3305 34.7111 49.1319 35.3745 50.1516 35.1863C50.37 35.1459 50.5521 35.0554 50.7207 34.949C50.8141 34.894 50.9081 34.8386 50.98 34.7688C51.4185 34.339 51.596 33.6183 51.4172 32.6528Z" fill="#0053E2"/>
<path fill-rule="evenodd" clip-rule="evenodd" d="M59.4043 11.6624C60.6914 11.4354 61.919 12.2937 62.1465 13.5806L67.967 46.5879C68.194 47.8753 67.334 49.1031 66.0466 49.3301L13.0969 58.6663C11.8098 58.8928 10.5817 58.033 10.3547 56.7459L4.53636 23.7407C4.30949 22.4538 5.16789 21.2261 6.45457 20.9985L59.4043 11.6624ZM55.748 22.6377C55.5275 21.3871 54.3333 20.5517 53.0827 20.7722L31.0222 24.6614C29.7718 24.882 28.9363 26.0762 29.1567 27.3267L32.2658 44.9553C32.4863 46.2057 33.6786 47.0408 34.9289 46.8208L56.9895 42.9316C58.2401 42.7111 59.0755 41.517 58.855 40.2664L55.748 22.6377ZM25.1731 37.1177C24.6336 34.0583 21.7154 32.0145 18.656 32.554C15.5968 33.0936 13.5551 36.0118 14.0945 39.0711C14.6339 42.1301 17.5503 44.1737 20.6094 43.6348C23.6687 43.0953 25.7124 40.177 25.1731 37.1177Z" fill="#0053E2"/>
<path d="M10.3557 56.7466C10.5829 58.0338 11.8106 58.894 13.0979 58.667L63.2505 49.823V58.6714C63.2505 59.9785 62.191 61.0375 60.884 61.0378H7.11694C5.80993 61.0375 4.75049 59.9785 4.75049 58.6714V25.1565C4.75049 25.1058 4.75394 25.0548 4.75708 25.0049L10.3557 56.7466Z" fill="#4DBDF5"/>
<path d="M19.0459 34.7695C20.8814 34.4459 22.6332 35.6719 22.957 37.5073C23.2807 39.3427 22.0545 41.0945 20.2192 41.4185C18.3838 41.7421 16.632 40.516 16.3081 38.6807C15.9844 36.8451 17.2104 35.0933 19.0459 34.7695Z" fill="#4DBDF5"/>
<path d="M49.3285 30.7306C50.3574 30.5405 51.1496 31.2145 51.4159 32.6532C51.5944 33.6182 51.4171 34.3373 50.9787 34.7669C50.9071 34.8364 50.8146 34.8924 50.7216 34.9471C50.5531 35.0535 50.3708 35.144 50.1525 35.1844C49.1327 35.3728 48.3315 34.7115 48.0651 33.2728C47.9741 32.7813 47.9775 32.3468 48.0607 31.983C48.0934 31.8546 48.1281 31.7343 48.175 31.6314C48.3871 31.1496 48.7824 30.8319 49.3285 30.7306Z" fill="white"/>
<path fill-rule="evenodd" clip-rule="evenodd" d="M53.0837 20.7725C54.3341 20.5523 55.5262 21.3876 55.7468 22.638L58.8559 40.2667C59.0761 41.5171 58.2408 42.7092 56.9904 42.9298L34.9299 46.8189C33.6797 47.039 32.4854 46.2057 32.2646 44.9556L29.1576 27.3248C28.9376 26.0747 29.7731 24.8825 31.0231 24.6617L53.0837 20.7725ZM35.1276 31.8248L36.4965 39.2208L41.3063 38.3309L41.0119 36.7445L38.1423 37.2762L37.0678 31.4644L35.1276 31.8248ZM39.2804 31.0557L39.5727 32.64L41.5129 32.2818L42.5895 38.0914L44.5297 37.7332L43.6135 32.7872L43.53 32.3324L43.4531 31.9215L45.3845 31.5633L45.09 29.9791L39.2804 31.0557ZM53.4023 32.284C52.9602 29.898 51.1365 28.7007 49.0143 29.0936L49.0231 29.0914C47.8764 29.3042 46.9961 29.9389 46.4765 30.8448C46.0516 31.6016 45.8784 32.5563 46.0788 33.6397C46.5206 36.0259 48.3428 37.2144 50.4557 36.8236C51.3936 36.6499 52.1487 36.2 52.6794 35.5557C53.3487 34.7441 53.6485 33.6139 53.4023 32.284Z" fill="white"/>
<path fill-rule="evenodd" clip-rule="evenodd" d="M18.6569 32.5543C21.7162 32.015 24.6346 34.0587 25.174 37.118C25.7127 40.1769 23.6692 43.0934 20.6103 43.6329C17.5512 44.1721 14.633 42.1303 14.0932 39.0714C13.5538 36.0121 15.5977 33.0939 18.6569 32.5543ZM22.957 37.5091C22.6333 35.6735 20.8815 34.4476 19.0458 34.7713C17.211 35.0957 15.9866 36.8451 16.3102 38.6803C16.6342 40.5154 18.3839 41.7415 20.2192 41.4181C22.0542 41.0944 23.2797 39.3442 22.957 37.5091Z" fill="white"/>
</svg>
