<svg width="72" height="72" viewBox="0 0 72 72" fill="none" xmlns="http://www.w3.org/2000/svg">
<path d="M67.5 29.25H9V58.5H67.5V29.25Z" fill="#0053E2"/>
<path d="M20.25 27.9448H11.25V30.5773H20.25V27.9448Z" fill="#0053E2"/>
<path d="M56.25 27.9448H47.25V30.5773H56.25V27.9448Z" fill="#0053E2"/>
<path d="M63 45H4.5V13.5H63V45ZM11.25 30.5771H20.25V27.9448H11.25V30.5771ZM47.25 30.5771H56.25V27.9448H47.25V30.5771Z" fill="#4DBDF5"/>
<path d="M33.75 40.5C38.4099 40.5 42.1875 35.4632 42.1875 29.25C42.1875 23.0368 38.4099 18 33.75 18C29.0901 18 25.3125 23.0368 25.3125 29.25C25.3125 35.4632 29.0901 40.5 33.75 40.5Z" fill="white"/>
</svg>
