<svg width="72" height="72" viewBox="0 0 72 72" fill="none" xmlns="http://www.w3.org/2000/svg">
<path d="M6.75016 34.9864H65.2502V57.6664C65.2502 58.3667 65.1122 59.0601 64.8442 59.7071C64.5763 60.3541 64.1835 60.9419 63.6883 61.4371C63.1931 61.9323 62.6053 62.325 61.9583 62.593C61.3113 62.861 60.6179 62.9989 59.9177 62.9989H12.0826C10.6684 62.9989 9.31204 62.4371 8.312 61.4371C7.31196 60.437 6.75016 59.0807 6.75016 57.6664V34.9864Z" fill="#0053E2"/>
<path d="M65.25 26.9989H6.75016V34.9864H65.2502L65.25 26.9989Z" fill="#0053E2"/>
<path d="M6.22173 24.5384C5.57583 21.4997 7.51559 18.5127 10.5543 17.8668L56.7718 8.04302C59.8105 7.39712 62.7975 9.33688 63.4434 12.3756L63.9626 14.8185L6.74099 26.9814L6.22173 24.5384Z" fill="#0053E2"/>
<path d="M6.75018 26.9999H21.2625L14.5125 34.9874H6.75018V26.9999Z" fill="#4DBDF5"/>
<path d="M33.2553 26.9999H46.5978L39.8478 34.9874H26.5053L33.2553 26.9999Z" fill="#4DBDF5"/>
<path d="M57.2627 26.9999H65.2502V34.9874L50.5802 34.9874L57.2627 26.9999Z" fill="#4DBDF5"/>
<path d="M12.9557 17.3574L10.5543 17.8678C7.51559 18.5137 5.57583 21.5007 6.22173 24.5394L6.74099 26.9823L21.3111 23.8854L12.9557 17.3574Z" fill="#4DBDF5"/>
<path d="M46.1318 18.6096L33.1034 21.3788L24.748 14.8509L37.7764 12.0816L46.1318 18.6096Z" fill="#4DBDF5"/>
<path d="M48.3271 9.83898L56.7718 8.044C59.8105 7.3981 62.7975 9.33786 63.4434 12.3766L63.9626 14.8195L56.6825 16.3669L48.3271 9.83898Z" fill="#4DBDF5"/>
</svg>
