<svg width="72" height="72" viewBox="0 0 72 72" fill="none" xmlns="http://www.w3.org/2000/svg">
<path fill-rule="evenodd" clip-rule="evenodd" d="M47.25 4.5V40.2044C47.1162 41.8691 46.4306 43.4449 45.298 44.6907C44.1653 45.9365 42.6481 46.7837 40.9785 47.1026C36.6525 48.2037 32.3724 46.3162 31.411 42.8783C30.4497 39.4405 33.1735 35.733 37.4765 34.6319C38.9279 34.286 40.4426 34.286 41.8941 34.6319V17.1505L20.5389 24.4756V46.9454C20.3756 48.5833 19.6764 50.1252 18.5458 51.3404C17.4153 52.5555 15.9143 53.3786 14.2674 53.6863C9.96435 54.7873 5.68418 52.8998 4.69997 49.4395C3.71576 45.9792 6.46241 42.3166 10.7884 41.1931C12.2411 40.8581 13.7531 40.8581 15.2059 41.1931V15.4877L16.9912 14.8586L43.6794 5.69089L47.25 4.5Z" fill="#0053E2"/>
<path fill-rule="evenodd" clip-rule="evenodd" d="M67.4998 27.5848V24.0073L64.1023 25.0648L53.5948 28.3498L51.7498 28.9348V54.6973C50.323 54.3509 48.834 54.3509 47.4073 54.6973C43.1548 55.7998 40.4997 59.4898 41.4447 62.9548C42.3897 66.4198 46.5973 68.2873 50.8498 67.1848C52.4902 66.868 53.9807 66.0199 55.0909 64.7714C56.2011 63.5229 56.8693 61.9435 56.9923 60.2773V37.9348L65.6547 35.2348L67.4998 34.6498V27.4723V27.5848Z" fill="#4DBDF5"/>
</svg>
