<svg width="160" height="160" viewBox="0 0 160 160" fill="none" xmlns="http://www.w3.org/2000/svg">
<circle cx="80" cy="83.2" r="67.2" fill="#0053E2"/>
<path d="M53.3254 146.102C53.3254 146.102 61.3931 149.844 74.6353 150.829C95.1659 152.356 110.064 144.333 110.064 144.333L106.352 137.932L51.4805 138.94L42.6642 137.932C42.6642 137.932 48.1149 144.591 53.3254 146.102Z" fill="#E8BE8F"/>
<path d="M117.626 140.291C120.274 138.541 123.236 136.556 127.27 132.907L122.278 115.382C121.192 111.447 116.821 106.071 116.821 95.9024C116.821 90.6669 116.948 86.0581 116.948 86.0581C116.948 86.0581 107.534 84.5701 107.377 97.1388C107.216 109.707 107.041 123.483 106.993 127.461C106.875 136.853 96.5778 149.015 98.1527 148.637C108.454 146.162 117.626 140.291 117.626 140.291Z" fill="#E8BE8F"/>
<path d="M52.5272 142.954C53.0987 141.965 54.1805 141.355 55.3452 141.372L82.98 141.752C88.1623 141.824 92.3596 149.914 92.3596 149.914C92.3596 149.914 96.6425 149.169 100.551 147.974C105.789 146.373 109.227 144.727 109.227 144.727L105.424 134.785L49.2733 134.028L47.4697 140.17L45.6159 141.089C45.6159 141.089 46.9153 142.666 51.1869 145.247L52.5316 142.954H52.5272Z" fill="#C78242"/>
<path d="M103.058 10.0278H50.2841C47.2437 10.0278 44.7789 12.4368 44.7789 15.4083V133.579C44.7789 136.55 47.2437 138.959 50.2841 138.959H103.058C106.099 138.959 108.564 136.55 108.564 133.579V15.4083C108.564 12.4368 106.099 10.0278 103.058 10.0278Z" fill="#001E60"/>
<path d="M70.8051 16.9901L82.8099 17.0157C83.473 17.0157 84.0095 17.5444 84.0095 18.1924C84.0095 18.8405 83.4686 19.3649 82.8056 19.3649L70.8007 19.3393C70.1376 19.3393 69.6011 18.8106 69.6011 18.1626C69.6011 17.5145 70.142 16.9901 70.8051 16.9901Z" fill="#A9DDF7"/>
<path d="M54.4431 123.511L99.3126 123.603C102.258 123.609 104.651 121.321 104.657 118.494L104.847 29.9262C104.853 27.0985 102.47 24.8013 99.5243 24.7952L54.6548 24.7034C51.7093 24.6974 49.3166 26.9848 49.3105 29.8125L49.1207 118.38C49.1146 121.208 51.4975 123.505 54.4431 123.511Z" fill="#A9DDF7"/>
<path d="M78.0215 70.8969C79.1988 70.8971 80.1536 71.8314 80.1547 72.9817C80.1547 74.133 79.1995 75.0664 78.0215 75.0666C76.8434 75.0666 75.8884 74.1332 75.8884 72.9817C75.8895 71.8312 76.8441 70.8969 78.0215 70.8969Z" fill="#0053E2"/>
<path d="M87.6512 68.8772L85.6403 70.8426L83.8571 69.0998C80.5209 65.8966 75.1583 65.913 71.8443 69.1514L69.8334 67.186C72.2371 64.837 75.4487 63.7627 78.5937 63.9556L73.6831 59.1562C70.8698 59.8622 68.2059 61.2874 66.0032 63.4398L63.9923 61.4745C66.1544 59.3617 68.6966 57.8481 71.4027 56.9275L67.4142 53.0293C64.8439 54.1935 62.4346 55.8088 60.3149 57.8803L58.304 55.9149C60.4094 53.8573 62.7729 52.2068 65.2894 50.9526L61.4981 47.2471L63.509 45.2817L87.6512 68.8772Z" fill="#0053E2"/>
<path d="M78.3604 55.866C83.2238 55.9821 88.0529 57.8472 91.7647 61.4745L89.7538 63.4398C87.4311 61.1701 84.5955 59.7069 81.6129 59.0449L78.3604 55.866Z" fill="#0053E2"/>
<path d="M71.1333 48.8026C80.2572 46.5717 90.3183 48.9425 97.453 55.9149L95.4421 57.8803C89.4823 52.0561 81.2471 49.8151 73.5331 51.148L71.1333 48.8026Z" fill="#0053E2"/>
<path d="M64.6405 24.8732L49.0543 40.1065V64.3144L89.4093 24.8732H64.6405Z" fill="url(#paint0_linear_77965_1383)" style="mix-blend-mode:soft-light"/>
<path d="M104.52 30.5949L49.0543 84.8091V105.862L104.52 51.6479V30.5949Z" fill="url(#paint1_linear_77965_1383)" style="mix-blend-mode:soft-light"/>
<path d="M104.519 55.1266L49.0493 109.341V119.995C49.0493 122.067 50.768 123.743 52.8837 123.743H54.838L104.519 75.1862V55.1266Z" fill="url(#paint2_linear_77965_1383)" style="mix-blend-mode:soft-light"/>
<path d="M37.2405 103.103H44.8339V109.257L37.2405 103.103Z" fill="#C78242"/>
<path d="M39.7096 125.832H44.7827V131.191L39.7096 125.832Z" fill="#C78242"/>
<path d="M35.6183 97.514L44.7784 106.712L44.8878 93.4441L35.6183 97.514Z" fill="#C78242"/>
<path d="M36.8757 61.944C34.4764 64.2335 34.3063 67.9512 36.4962 70.4368L44.7827 79.8065V61.1805C42.3323 59.6151 39.0364 59.8816 36.8757 61.9398V61.944Z" fill="#E8BE8F"/>
<path d="M48.0996 132.261L43.0176 127.128C41.0939 125.184 37.8353 125.448 36.2605 127.674L35.2877 129.051C32.6966 132.722 34.267 137.795 38.5071 139.445L42.1888 140.878C44.5269 141.786 47.1966 141.01 48.6405 138.998C50.1368 136.917 49.9099 134.086 48.0996 132.257V132.261Z" fill="#E8BE8F"/>
<path d="M45.4288 109.789L42.746 105.806C40.6739 102.733 36.2855 102.191 33.4937 104.664C30.7019 107.141 30.8327 111.473 33.7729 113.783L37.4939 116.708C39.6924 118.503 42.9467 118.298 44.8878 116.239C46.5629 114.466 46.7854 111.805 45.4244 109.789H45.4288Z" fill="#E8BE8F"/>
<path d="M34.8409 96.8492L34.844 96.8522C37.4785 99.4917 41.8035 99.5441 44.5041 96.9692L44.5072 96.9663C47.2078 94.3914 47.2614 90.1644 44.6269 87.5249L44.6239 87.5218C41.9894 84.8824 37.6644 84.83 34.9638 87.4048L34.9606 87.4078C32.26 89.9827 32.2064 94.2097 34.8409 96.8492Z" fill="#E8BE8F"/>
<defs>
<linearGradient id="paint0_linear_77965_1383" x1="50.2425" y1="92.8667" x2="90.3862" y2="69.5838" gradientUnits="userSpaceOnUse">
<stop stop-color="#A9DDF7" stop-opacity="0"/>
<stop offset="1" stop-color="#CBEBFA"/>
</linearGradient>
<linearGradient id="paint1_linear_77965_1383" x1="56.3349" y1="101.448" x2="94.4654" y2="70.7423" gradientUnits="userSpaceOnUse">
<stop stop-color="#A9DDF7" stop-opacity="0"/>
<stop offset="1" stop-color="#CBEBFA"/>
</linearGradient>
<linearGradient id="paint2_linear_77965_1383" x1="98.7657" y1="69.3964" x2="62.2299" y2="109.187" gradientUnits="userSpaceOnUse">
<stop stop-color="#A9DDF7" stop-opacity="0"/>
<stop offset="1" stop-color="#CBEBFA"/>
</linearGradient>
</defs>
</svg>
