<svg width="72" height="72" viewBox="0 0 72 72" fill="none" xmlns="http://www.w3.org/2000/svg">
<path d="M37.1934 9C38.678 9.00028 40.0728 9.72075 40.9727 10.958L47.25 18V9H58.5225V62.6396C58.5225 65.3392 56.3857 67.5217 53.7764 67.5225H18.248C15.6157 67.5223 13.5 65.3396 13.5 62.6396V20.3838C13.5003 19.3268 13.8381 18.3146 14.4453 17.46L19.1934 10.958C20.0708 9.7206 21.4877 9.00003 22.9727 9H37.1934ZM20.25 60.75H51.75V27H20.25V60.75ZM33.5479 13.5664C33.1204 13.4539 32.6472 13.4539 32.2197 13.5664L31.0273 13.9043C30.5999 14.0167 30.1276 14.0167 29.7002 13.9043L28.5078 13.5664C28.0803 13.4539 27.6072 13.4539 27.1797 13.5664L25.9873 13.9043C25.5599 14.0167 25.0876 14.0167 24.6602 13.9043C23.5802 13.6118 22.41 14.0619 21.915 14.9844L20.25 17.999H40.4775L38.8125 14.9844C38.295 14.0619 37.1474 13.6118 36.0674 13.9043C35.64 14.0167 35.1676 14.0167 34.7402 13.9043L33.5479 13.5664Z" fill="#0053E2"/>
<path d="M47.2499 9V6.75C47.2499 5.5125 47.9699 4.5 48.8474 4.5H56.8799C57.7574 4.5 58.4774 5.5125 58.4774 6.75V9H47.2274H47.2499Z" fill="#4DBDF5"/>
<path fill-rule="evenodd" clip-rule="evenodd" d="M51.75 27V60.75H20.25V27H51.75ZM36 36C36 36 30.375 42.5932 30.375 45.8328C30.3751 49.0727 32.8951 51.75 36 51.75C39.1049 51.75 41.6249 49.0952 41.625 45.8328C41.625 42.5703 36 36 36 36Z" fill="#4DBDF5"/>
<path d="M41.625 45.8325C41.625 42.57 36 36 36 36C36 36 30.375 42.5925 30.375 45.8325C30.375 49.0725 32.895 51.75 36 51.75C39.105 51.75 41.625 49.095 41.625 45.8325Z" fill="white"/>
</svg>
