<svg width="72" height="72" viewBox="0 0 72 72" fill="none" xmlns="http://www.w3.org/2000/svg">
<path fill-rule="evenodd" clip-rule="evenodd" d="M24.773 13.365C23.8055 13.725 22.973 14.355 22.3655 15.165C21.758 15.9975 21.398 16.965 21.353 18C21.398 19.0125 21.758 20.0025 22.3655 20.835C22.973 21.6675 23.8055 22.275 24.773 22.635C24.3455 23.5575 24.2105 24.615 24.3455 25.6275C24.503 26.64 24.9305 27.585 25.628 28.35C26.393 29.025 27.338 29.475 28.3505 29.6325C29.363 29.79 30.398 29.6325 31.343 29.205C31.703 30.1725 32.333 31.005 33.1655 31.635C33.998 32.2425 34.988 32.6025 36.023 32.625C37.0355 32.58 38.0255 32.22 38.858 31.6125C39.6905 31.005 40.3205 30.1725 40.658 29.205C41.5805 29.6325 42.638 29.7675 43.6505 29.6325C44.663 29.475 45.608 29.0475 46.373 28.35C47.048 27.585 47.498 26.64 47.6555 25.6275C47.813 24.615 47.6555 23.58 47.228 22.635C48.1955 22.275 49.028 21.645 49.6355 20.835C50.243 20.0025 50.603 19.035 50.648 18C50.603 16.9875 50.243 15.9975 49.658 15.1875C49.0505 14.355 48.2405 13.725 47.273 13.365C47.7005 12.4425 47.8355 11.385 47.7005 10.3725C47.5655 9.36 47.1155 8.415 46.418 7.65C45.653 6.975 44.708 6.525 43.6955 6.3675C42.683 6.21 41.648 6.3675 40.703 6.795C40.343 5.8275 39.713 4.995 38.8805 4.365C38.048 3.7575 37.058 3.3975 36.023 3.375C35.0105 3.42 34.0205 3.78 33.188 4.3875C32.3555 4.995 31.7255 5.8275 31.388 6.795C30.4655 6.3675 29.408 6.2325 28.3955 6.3675C27.383 6.525 26.438 6.9525 25.673 7.65C24.9755 8.415 24.5255 9.36 24.368 10.3725C24.2105 11.385 24.368 12.42 24.773 13.365Z" fill="#0053E2"/>
<path d="M59.625 39.375H12.375L13.4775 50.625H16.83L18.3825 63.8325C18.54 65.16 19.1925 66.375 20.1825 67.2525C21.1725 68.13 22.455 68.625 23.7825 68.625H48.2625C49.59 68.625 50.8725 68.13 51.8625 67.2525C52.8525 66.375 53.505 65.16 53.6625 63.8325L55.26 50.625H58.4775L59.625 39.375Z" fill="#0053E2"/>
<path d="M37.709 36.3362C38.2038 35.594 38.8108 34.9188 39.5305 34.3564C40.948 33.2314 42.7266 32.625 44.5491 32.625H51.7715L50.6025 37.3271C50.4162 38.0538 50.1268 38.7383 49.7588 39.375H22.2842C21.9162 38.7383 21.6268 38.0538 21.4404 37.3271L20.2715 32.625H27.4939C29.3164 32.625 31.0725 33.2314 32.5125 34.3564C33.2321 34.9188 33.8391 35.594 34.334 36.3362V32.2756C34.8692 32.4873 35.4373 32.6122 36.0215 32.625C36.6 32.5993 37.1703 32.4659 37.709 32.2471V36.3362Z" fill="#4DBDF5"/>
<path d="M36.0225 24.75C39.7575 24.75 42.7725 21.735 42.7725 18C42.7725 14.265 39.7575 11.25 36.0225 11.25C32.2875 11.25 29.2725 14.265 29.2725 18C29.2725 21.735 32.2875 24.75 36.0225 24.75Z" fill="white"/>
</svg>
