<svg width="72" height="72" viewBox="0 0 72 72" fill="none" xmlns="http://www.w3.org/2000/svg">
<path d="M13.3425 66.9375L9 65.7675L19.215 27.72C19.298 27.3817 19.4687 27.0712 19.71 26.82L25.605 20.07L29.475 5.625L33.8175 6.795L29.8125 21.735C29.7223 22.0771 29.5527 22.3932 29.3175 22.6575L23.4225 29.4075L13.3425 66.9375Z" fill="#0053E2"/>
<path d="M37.2151 56.25H59.7151V64.6425C59.7151 65.4004 59.414 66.1272 58.8781 66.6631C58.3423 67.199 57.6154 67.5 56.8576 67.5H40.0726C39.3147 67.5 38.5879 67.199 38.052 66.6631C37.5161 66.1272 37.2151 65.4004 37.2151 64.6425V56.25Z" fill="#0053E2"/>
<path d="M23.6719 5.54298C23.7162 5.36394 23.7961 5.19567 23.9069 5.04821C24.0177 4.90074 24.157 4.77711 24.3166 4.6847C24.4762 4.5923 24.6528 4.53301 24.8359 4.51037C25.0189 4.48774 25.2046 4.50223 25.3819 4.55298L29.4769 5.63298L25.8319 19.133L21.7594 18.053C21.5791 18.0059 21.4098 17.9237 21.2613 17.811C21.1128 17.6984 20.9879 17.5576 20.8939 17.3967C20.7998 17.2358 20.7384 17.0579 20.7132 16.8732C20.688 16.6886 20.6995 16.5007 20.7469 16.3205L23.6719 5.54298Z" fill="#4DBDF5"/>
<path d="M37.1584 56.25H59.6584L62.4934 7.60502C62.5243 7.21209 62.4741 6.81701 62.3461 6.44425C62.218 6.07148 62.0149 5.72897 61.7491 5.4379C61.4833 5.14683 61.1607 4.91341 60.8011 4.75209C60.4414 4.59076 60.0525 4.50497 59.6584 4.50002H36.6184C36.2214 4.49853 35.8284 4.57979 35.4646 4.73861C35.1007 4.89744 34.7739 5.13034 34.5051 5.42248C34.2362 5.71461 34.0312 6.05958 33.9031 6.43536C33.775 6.81114 33.7265 7.20949 33.7609 7.60502L37.1584 56.25Z" fill="#4DBDF5"/>
<path d="M53.1453 56.25C53.1391 56.8673 53.0169 57.4778 52.7852 58.05C52.5388 58.6202 52.1878 59.1391 51.7502 59.58C51.3218 60.0164 50.8088 60.361 50.2427 60.5925C49.6739 60.8349 49.0611 60.9575 48.4427 60.9525C47.8244 60.9575 47.2116 60.8349 46.6427 60.5925C46.0686 60.3637 45.5478 60.019 45.1128 59.58C44.6752 59.1391 44.3242 58.6202 44.0778 58.05C43.8532 57.4765 43.7387 56.8659 43.7402 56.25H53.1453Z" fill="white"/>
</svg>
