<svg width="72" height="72" viewBox="0 0 72 72" fill="none" xmlns="http://www.w3.org/2000/svg">
<path fill-rule="evenodd" clip-rule="evenodd" d="M48.7639 4.5C51.6593 4.50058 54.0066 6.84768 54.0066 9.74268V62.2573C54.0066 65.1523 51.6593 67.4994 48.7639 67.5H23.2427C20.3472 67.4996 18 65.1524 18 62.2573V9.74268C18 6.84757 20.3472 4.5004 23.2427 4.5H48.7639ZM37.9446 53.6836C37.3251 53.6839 36.706 53.9326 36.2351 54.3538L36.0352 54.5273L35.8374 54.3538C35.3662 53.9322 34.7706 53.6836 34.1257 53.6836C32.7121 53.6838 31.5725 54.8255 31.5725 56.239V56.2874C31.5725 58.5684 34.9178 60.5774 35.688 61.0247C35.787 61.0989 35.9114 61.1234 36.0352 61.1235C36.159 61.1235 36.2832 61.0742 36.3823 61.0247C37.1512 60.603 40.5 58.5938 40.5 56.2874V56.239C40.5 54.8254 39.3583 53.6836 37.9446 53.6836ZM36 33.75C29.2739 33.75 27.5744 38.7777 27.145 43.196C26.9748 44.9545 28.9447 46.0354 30.4431 45.0989L33.616 43.1147C35.0746 42.2037 36.9254 42.2037 38.384 43.1147L41.5569 45.0989C43.0553 46.0354 45.0252 44.9545 44.855 43.196C44.4256 38.7777 42.7261 33.75 36 33.75ZM27.1406 31.5571C25.8668 30.2833 24.0596 30.0239 23.1042 30.9792C22.1489 31.9346 22.4083 33.7418 23.6821 35.0156C24.956 36.2895 26.7631 36.5489 27.7185 35.5935C28.6739 34.6381 28.4145 32.831 27.1406 31.5571ZM49.0935 30.9792C48.1381 30.0239 46.331 30.2833 45.0571 31.5571C43.7833 32.831 43.5239 34.6381 44.4792 35.5935C45.4346 36.5489 47.2418 36.2895 48.5156 35.0156C49.7894 33.7418 50.0489 31.9346 49.0935 30.9792ZM34.6838 26.8462C34.0405 24.4462 32.0609 22.8925 30.2607 23.3745C28.4605 23.8569 27.5217 26.1927 28.1646 28.593C28.8078 30.9936 30.7894 32.5493 32.5898 32.0669C34.39 31.5842 35.327 29.2466 34.6838 26.8462ZM41.5898 23.3745C39.7896 22.8921 37.808 24.446 37.1646 26.8462C36.5213 29.2468 37.4603 31.5845 39.2607 32.0669C41.0609 32.5486 43.0407 30.9932 43.6838 28.593C44.3266 26.1931 43.3895 23.8574 41.5898 23.3745ZM29.8125 12.375H41.625V8.4375H29.8125V12.375Z" fill="#0053E2"/>
<path d="M35.9994 33.7504C42.7254 33.7504 44.425 38.7781 44.8544 43.1965C45.0245 44.9546 43.0567 46.0349 41.5585 45.0993L38.3856 43.1152C36.9266 42.2033 35.0745 42.2036 33.6154 43.1152L30.4425 45.0993C28.9442 46.0356 26.9743 44.9548 27.1444 43.1965C27.5738 38.7782 29.2739 33.7507 35.9994 33.7504Z" fill="#4DBDF5"/>
<path d="M23.1058 30.9797C24.0614 30.0251 25.8687 30.284 27.1422 31.5575C28.4154 32.8314 28.6731 34.6387 27.7179 35.5939C26.7624 36.5489 24.9552 36.2897 23.6815 35.016C22.4079 33.7422 22.1505 31.935 23.1058 30.9797Z" fill="#4DBDF5"/>
<path d="M45.0565 31.5575C46.3302 30.2838 48.1374 30.0246 49.0929 30.9797C50.0481 31.9349 49.7904 33.7422 48.5172 35.016C47.2437 36.2895 45.4364 36.5484 44.4808 35.5939C43.5255 34.6386 43.783 32.8314 45.0565 31.5575Z" fill="#4DBDF5"/>
<path d="M30.2601 23.3749C32.0605 22.8925 34.0421 24.4461 34.6854 26.8466C35.3287 29.2472 34.3897 31.5849 32.5892 32.0673C30.7888 32.5496 28.8072 30.9939 28.1639 28.5934C27.5211 26.1932 28.46 23.8574 30.2601 23.3749Z" fill="#4DBDF5"/>
<path d="M37.1639 26.8466C37.8073 24.4462 39.7889 22.8925 41.5892 23.3749C43.3892 23.8575 44.3281 26.1933 43.6854 28.5934C43.0422 30.9939 41.0605 32.5495 39.2601 32.0673C37.4597 31.5849 36.5207 29.2472 37.1639 26.8466Z" fill="#4DBDF5"/>
<path d="M37.9446 53.6836C39.3583 53.6836 40.5 54.8254 40.5 56.239V56.2874C40.5 58.5938 37.1512 60.603 36.3823 61.0247C36.2832 61.0742 36.159 61.1235 36.0352 61.1235C35.9114 61.1234 35.787 61.0989 35.688 61.0247C34.9178 60.5774 31.5725 58.5684 31.5725 56.2874V56.239C31.5725 54.8255 32.7121 53.6838 34.1257 53.6836C34.7706 53.6836 35.3662 53.9322 35.8374 54.3538L36.0352 54.5273L36.2351 54.3538C36.706 53.9326 37.3251 53.6839 37.9446 53.6836Z" fill="white"/>
<path d="M41.625 12.375H29.8125V8.4375H41.625V12.375Z" fill="white"/>
</svg>
