<svg width="72" height="72" viewBox="0 0 72 72" fill="none" xmlns="http://www.w3.org/2000/svg">
<path d="M18 22.5H54V63C54 65.475 51.975 67.5 49.5 67.5H22.5C20.025 67.5 18 65.475 18 63V22.5Z" fill="#0053E2"/>
<path d="M54 15.75V6.75C54 5.5125 52.9875 4.5 51.75 4.5H20.25C19.0125 4.5 18 5.5125 18 6.75V15.75H13.5V22.5H58.5V15.75H54Z" fill="#4DBDF5"/>
<path d="M51.7499 31.5H20.2499V58.5H51.7499V31.5Z" fill="#4DBDF5"/>
<path d="M34.11 36.8554C34.515 37.2604 34.785 37.6429 35.01 38.1604C36.4275 41.7379 32.895 45.1354 30.1725 41.4679C29.8125 40.6354 29.5425 39.7804 29.6325 38.8804C29.835 36.5629 32.1525 34.9429 34.1325 36.8554H34.11Z" fill="white"/>
<path d="M42.2999 38.2281C42.7274 39.7806 42.0524 42.2331 40.2749 42.8406C37.4849 43.8306 36.2699 40.7031 36.8999 38.5881C37.7774 35.5731 41.3999 34.9206 42.2999 38.2281Z" fill="white"/>
<path d="M42.4798 45.7881C42.2773 45.1806 42.3448 44.5056 42.4798 43.8531C42.6148 43.2006 42.8848 42.6381 43.3798 42.1656C45.7648 39.9156 48.0373 42.9306 46.9573 45.5406C46.5748 46.4406 45.7423 47.2956 44.6848 47.4081C43.9198 47.4756 43.2448 47.0256 42.8173 46.4406C42.6598 46.2381 42.5698 46.0131 42.4798 45.7881Z" fill="white"/>
<path d="M28.7998 46.9804C27.4048 48.1054 25.6498 46.9579 25.0648 45.6079C24.4348 44.1904 24.6823 41.6479 26.6623 41.4229C29.3398 41.1304 30.6898 45.4279 28.7998 46.9579V46.9804Z" fill="white"/>
<path d="M31.2074 53.798C30.1274 54.383 28.7999 53.663 28.6199 52.2905C28.5749 51.953 28.5974 51.593 28.7099 51.233C29.7674 47.7455 32.6249 45.2255 35.9999 45.2255C39.3749 45.2255 42.2549 47.723 43.2899 51.233C43.4024 51.593 43.4249 51.953 43.3799 52.2905C43.1999 53.6405 41.8724 54.383 40.7924 53.798C37.7549 52.1555 34.2449 52.1555 31.2074 53.798Z" fill="white"/>
</svg>
