<svg width="72" height="72" viewBox="0 0 72 72" fill="none" xmlns="http://www.w3.org/2000/svg">
<path d="M8.865 32.3325C9.10037 30.8479 9.857 29.4957 10.9992 28.5184C12.1413 27.5412 13.5943 27.0029 15.0975 27H56.9025C58.4057 27.0029 59.8587 27.5412 61.0008 28.5184C62.143 29.4957 62.8996 30.8479 63.135 32.3325L67.5 60.75H4.5L8.865 32.3325Z" fill="#0053E2"/>
<path fill-rule="evenodd" clip-rule="evenodd" d="M23.0624 43.5598C22.0425 43.1559 21.2052 42.3933 20.708 41.4155C20.2108 40.4376 20.0879 39.3119 20.3624 38.2498C20.5558 37.4413 20.9692 36.7022 21.557 36.1144C22.1448 35.5266 22.884 35.1131 23.6924 34.9198C24.361 34.758 25.0577 34.7517 25.729 34.9012C26.4004 35.0508 27.0286 35.3522 27.5653 35.7824C28.1019 36.2126 28.5328 36.7602 28.8249 37.3829C29.1169 38.0056 29.2623 38.6871 29.2499 39.3748C29.2509 39.7539 29.2055 40.1317 29.1149 40.4998H42.8849C42.713 39.7596 42.713 38.9899 42.8849 38.2498C43.0746 37.4372 43.4864 36.6933 44.0745 36.1013C44.6625 35.5092 45.4036 35.0924 46.2149 34.8973C46.8838 34.739 47.5801 34.7361 48.2503 34.8887C48.9204 35.0413 49.5468 35.3455 50.0812 35.7778C50.6156 36.2101 51.0438 36.759 51.3331 37.3826C51.6224 38.0061 51.765 38.6876 51.7499 39.3748C51.7499 40.267 51.4847 41.1391 50.9879 41.8803C50.4911 42.6215 49.7852 43.1982 48.9599 43.5373C48.8879 43.5563 48.8243 43.5987 48.7789 43.6577C48.7335 43.7167 48.7088 43.7891 48.7088 43.8635C48.7088 43.938 48.7335 44.0103 48.7789 44.0694C48.8243 44.1284 48.8879 44.1707 48.9599 44.1898C49.9965 44.577 50.854 45.3326 51.3687 46.3121C51.8833 47.2917 52.0191 48.4265 51.7499 49.4998C51.5566 50.3082 51.1431 51.0474 50.5553 51.6351C49.9675 52.2229 49.2284 52.6364 48.4199 52.8298C47.7439 53.012 47.0347 53.034 46.3487 52.894C45.6628 52.754 45.0189 52.4559 44.4684 52.0233C43.9179 51.5908 43.4759 51.0357 43.1775 50.4023C42.8792 49.7689 42.7328 49.0747 42.7499 48.3748C42.749 47.9957 42.7943 47.6179 42.8849 47.2498H29.1149C29.2868 47.9899 29.2868 48.7596 29.1149 49.4998C28.9253 50.3124 28.5134 51.0562 27.9254 51.6483C27.3373 52.2403 26.5962 52.6571 25.7849 52.8523C25.116 53.0105 24.4198 53.0134 23.7496 52.8608C23.0794 52.7082 22.4531 52.4041 21.9187 51.9718C21.3843 51.5395 20.956 50.9905 20.6668 50.367C20.3775 49.7435 20.2349 49.062 20.2499 48.3748C20.2499 47.4825 20.5152 46.6104 21.0119 45.8692C21.5087 45.1281 22.2146 44.5513 23.0399 44.2123C23.1127 44.1958 23.1779 44.1557 23.2255 44.0983C23.2731 44.0408 23.3003 43.9692 23.3029 43.8947C23.3054 43.8201 23.2832 43.7468 23.2397 43.6862C23.1962 43.6257 23.1339 43.5812 23.0624 43.5598Z" fill="white"/>
<path d="M36.0527 13.5C39.5398 13.5001 42.5548 15.4571 44.1299 18.3142C45.2998 17.7743 46.5829 17.4595 47.9553 17.4595C53.085 17.4597 57.2254 21.6 57.2256 26.7297C57.2256 26.8245 57.2196 26.9191 57.2168 27.0132C57.1123 27.0078 57.0077 27.0002 56.9026 27H15.0974C15.0262 27.0001 14.9552 27.0063 14.8843 27.0088C14.8816 26.9162 14.8799 26.823 14.8799 26.7297C14.88 21.5999 19.0202 17.4595 24.1501 17.4595C25.5225 17.4595 26.8057 17.7742 27.9756 18.3142C29.5507 15.4572 32.5656 13.5 36.0527 13.5Z" fill="#4DBDF5"/>
</svg>
