<svg width="72" height="72" viewBox="0 0 72 72" fill="none" xmlns="http://www.w3.org/2000/svg">
<path d="M54 62.82V22.5H18V62.82C18 64.0613 18.4931 65.2516 19.3707 66.1293C20.2484 67.007 21.4388 67.5 22.68 67.5H49.32C50.5612 67.5 51.7516 67.007 52.6293 66.1293C53.5069 65.2516 54 64.0613 54 62.82Z" fill="#0053E2"/>
<path d="M18 31.5H38.565V58.5H18V31.5Z" fill="#4DBDF5"/>
<path fill-rule="evenodd" clip-rule="evenodd" d="M21.42 4.5C20.9709 4.5 20.5262 4.58846 20.1112 4.76033C19.6963 4.9322 19.3193 5.18412 19.0017 5.5017C18.6841 5.81927 18.4322 6.19629 18.2603 6.61122C18.0885 7.02615 18 7.47088 18 7.92V15.75H13.5V22.5H58.5V15.75H54V7.92C54 7.47088 53.9115 7.02615 53.7397 6.61122C53.5678 6.19629 53.3159 5.81927 52.9983 5.5017C52.6807 5.18412 52.3037 4.9322 51.8888 4.76033C51.4738 4.58846 51.0291 4.5 50.58 4.5H21.42Z" fill="#4DBDF5"/>
<path d="M33.75 38.25H18V42.75H33.75V38.25Z" fill="white"/>
<path d="M27 47.25H18V51.75H27V47.25Z" fill="white"/>
</svg>
