<svg width="72" height="72" viewBox="0 0 72 72" fill="none" xmlns="http://www.w3.org/2000/svg">
<path d="M54 64.125C54 65.989 52.489 67.5 50.625 67.5H21.375C19.511 67.5 18 65.989 18 64.125V58.5H38.25V31.5H18V22.5H54V64.125Z" fill="#0053E2"/>
<path d="M38.25 58.5H18V51.75H27V47.25H18V42.75H33.75V38.25H18V31.5H38.25V58.5Z" fill="#4DBDF5"/>
<path d="M50.625 4.5C52.489 4.5 54 6.01104 54 7.875V15.75H58.5V22.5H13.5V15.75H18V7.875C18 6.01104 19.511 4.5 21.375 4.5H50.625Z" fill="#4DBDF5"/>
<path d="M27 51.75H18V47.25H27V51.75Z" fill="white"/>
<path d="M33.75 42.75H18V38.25H33.75V42.75Z" fill="white"/>
</svg>
