<svg width="72" height="72" viewBox="0 0 72 72" fill="none" xmlns="http://www.w3.org/2000/svg">
<path d="M53.7979 19.4634H62.0332C62.7527 19.4635 63.465 19.6049 64.1294 19.8809C64.7943 20.157 65.399 20.5617 65.907 21.0718C66.415 21.5818 66.8179 22.1879 67.0914 22.8538C67.3645 23.5194 67.503 24.2326 67.5 24.9521V55.2832C67.5 56.0009 67.3594 56.7119 67.0848 57.375C66.81 58.0383 66.4059 58.6405 65.8982 59.1482C65.3905 59.6559 64.7884 60.06 64.125 60.3347C63.462 60.6093 62.7509 60.7499 62.0332 60.75H9.96684C8.51706 60.7498 7.12702 60.1734 6.10185 59.1482C5.07669 58.123 4.50023 56.733 4.50004 55.2832V24.9521C4.49713 24.2324 4.63755 23.5196 4.91093 22.8538C5.18434 22.1879 5.58516 21.5818 6.09306 21.0718C6.60106 20.5617 7.20583 20.157 7.87065 19.8809C8.53509 19.6049 9.24738 19.4635 9.96684 19.4634H18.2022L20.9246 11.25H51.0755L53.7979 19.4634ZM36 22.5C27.3016 22.5 20.25 29.5515 20.25 38.25C20.25 46.9485 27.3016 54 36 54C44.6985 54 51.75 46.9485 51.75 38.25C51.75 29.5515 44.6985 22.5 36 22.5Z" fill="#0053E2"/>
<path d="M36 54C44.6985 54 51.75 46.9485 51.75 38.25C51.75 29.5515 44.6985 22.5 36 22.5C27.3015 22.5 20.25 29.5515 20.25 38.25C20.25 46.9485 27.3015 54 36 54Z" fill="#4DBDF5"/>
<path d="M48.33 15.3677L51.3675 24.7502L60.75 27.6752L51.4575 30.7352L48.42 40.0052L45.36 30.7352L36 27.6752L45.27 24.7502L48.33 15.3677Z" fill="white"/>
</svg>
