<svg width="72" height="72" viewBox="0 0 72 72" fill="none" xmlns="http://www.w3.org/2000/svg">
<path d="M19.3275 4.72334C23.8974 3.14144 30.4621 10.0559 34.1832 20.2492H15.7415C14.3409 12.4056 15.63 5.99772 19.3275 4.72334Z" fill="#4DBDF5"/>
<path d="M40.1641 13.5651C41.1984 13.4754 42.2327 13.6562 43.1546 14.1057C44.0994 14.5556 44.8878 15.2307 45.4727 16.0854C45.7425 16.4002 46.1025 16.6044 46.5296 16.6721C46.9571 16.7396 47.3852 16.6251 47.7227 16.3776C48.5102 15.7252 49.4789 15.2981 50.4913 15.1406C51.5036 14.9832 52.5386 15.0971 53.5059 15.457C55.2919 16.2379 56.4428 18.0257 56.8458 20.2492H34.7017C35.3076 16.6883 37.3799 13.9336 40.1641 13.5651Z" fill="#4DBDF5"/>
<path d="M49.86 20.2382C49.2975 11.4632 43.3125 4.51074 36 4.51074C28.6875 4.51074 22.7025 11.4407 22.14 20.2382H13.5V67.4882H58.5V20.2382H49.86ZM36 7.12074C41.8725 7.12074 46.665 12.8807 47.205 20.2382H24.795C25.3125 12.9032 30.105 7.12074 36 7.12074Z" fill="#0053E2"/>
<path fill-rule="evenodd" clip-rule="evenodd" d="M33.7492 31.5332C33.7492 30.9365 33.9862 30.3642 34.4082 29.9422C34.8301 29.5203 35.4024 29.2832 35.9992 29.2832C36.5959 29.2832 37.1682 29.5203 37.5902 29.9422C38.0121 30.3642 38.2492 30.9365 38.2492 31.5332C38.2492 32.0957 37.7092 37.9907 37.5067 38.5982C37.3983 38.9247 37.1901 39.2089 36.9116 39.4107C36.633 39.6126 36.2982 39.7219 35.9542 39.7232C35.6132 39.7206 35.2817 39.6104 35.007 39.4084C34.7323 39.2064 34.5284 38.9229 34.4242 38.5982C34.2667 38.0357 33.7492 32.1407 33.7492 31.5332ZM47.8792 39.7007C47.3842 39.9707 42.0067 42.4457 41.3992 42.5582C41.0633 42.6374 40.7107 42.6056 40.3944 42.4677C40.078 42.3298 39.8148 42.0932 39.6442 41.7932C39.4726 41.4936 39.3999 41.1475 39.4362 40.8042C39.4726 40.4609 39.6162 40.1378 39.8467 39.8807C40.2517 39.4307 45.0892 35.9882 45.5842 35.7182C45.8428 35.5623 46.1302 35.46 46.4292 35.4175C46.7282 35.375 47.0327 35.3932 47.3246 35.4709C47.6164 35.5486 47.8896 35.6842 48.1279 35.8697C48.3662 36.0552 48.5648 36.2868 48.7117 36.5507C48.877 36.8147 48.9857 37.1101 49.0309 37.4182C49.0762 37.7264 49.0569 38.0405 48.9744 38.3409C48.892 38.6412 48.748 38.9211 48.5517 39.163C48.3555 39.4048 48.1111 39.6032 47.8342 39.7457L47.8792 39.7007ZM41.3992 45.1682C42.0067 45.2807 47.3842 47.7557 47.8792 48.0482C48.143 48.1951 48.3746 48.3936 48.5602 48.6319C48.7457 48.8702 48.8813 49.1435 48.959 49.4353C49.0367 49.7272 49.0548 50.0317 49.0123 50.3307C48.9698 50.6297 48.8676 50.9171 48.7117 51.1757C48.5648 51.4396 48.3662 51.6712 48.1279 51.8567C47.8896 52.0422 47.6164 52.1779 47.3246 52.2555C47.0327 52.3332 46.7282 52.3514 46.4292 52.3089C46.1302 52.2664 45.8428 52.1641 45.5842 52.0082C45.0892 51.7382 40.2517 48.2957 39.8467 47.8457C39.6162 47.5887 39.4726 47.2655 39.4362 46.9222C39.3999 46.5789 39.4726 46.2328 39.6442 45.9332C39.8188 45.6501 40.0774 45.4286 40.3839 45.2995C40.6905 45.1704 41.0296 45.1403 41.3542 45.2132L41.3992 45.1682ZM35.9992 48.0482C35.6582 48.0508 35.3267 48.161 35.052 48.363C34.7773 48.565 34.5733 48.8485 34.4692 49.1732C34.2667 49.7807 33.7042 55.6757 33.7042 56.2382C33.7042 56.8349 33.9412 57.4072 34.3632 57.8292C34.7851 58.2512 35.3574 58.4882 35.9542 58.4882C36.5509 58.4882 37.1232 58.2512 37.5451 57.8292C37.9671 57.4072 38.2042 56.8349 38.2042 56.2382C38.2042 55.6757 37.6642 49.7807 37.4617 49.1732C37.3586 48.8608 37.1641 48.5865 36.9033 48.3859C36.6426 48.1854 36.3276 48.0677 35.9992 48.0482ZM24.1867 48.0482C24.6592 47.7557 30.0592 45.2807 30.6667 45.1682C31.0025 45.0927 31.3537 45.1262 31.6693 45.2637C31.9848 45.4013 32.2484 45.6358 32.4217 45.9332C32.5899 46.2338 32.6607 46.5791 32.6245 46.9216C32.5882 47.2642 32.4466 47.587 32.2192 47.8457C31.7917 48.2957 26.9542 51.7382 26.4817 52.0082C26.2221 52.1678 25.9329 52.273 25.6315 52.3174C25.3301 52.3619 25.0228 52.3447 24.7283 52.2668C24.4338 52.189 24.1581 52.0521 23.918 51.8646C23.678 51.677 23.4785 51.4427 23.3317 51.1757C23.1838 50.9176 23.0886 50.6327 23.0516 50.3375C23.0146 50.0423 23.0364 49.7427 23.1159 49.456C23.1955 49.1694 23.331 48.9013 23.5148 48.6674C23.6986 48.4335 23.927 48.2383 24.1867 48.0932V48.0482ZM26.4367 35.7182C26.1771 35.5586 25.8879 35.4534 25.5865 35.409C25.2851 35.3645 24.9779 35.3817 24.6833 35.4596C24.3888 35.5374 24.1131 35.6743 23.873 35.8618C23.6329 36.0494 23.4335 36.2838 23.2867 36.5507C23.128 36.8116 23.0241 37.1021 22.9812 37.4044C22.9384 37.7068 22.9576 38.0147 23.0375 38.3094C23.1175 38.6041 23.2567 38.8794 23.4465 39.1186C23.6363 39.3578 23.8729 39.5558 24.1417 39.7007C24.6142 39.9707 30.0142 42.4457 30.6217 42.5582C30.9575 42.6337 31.3087 42.6002 31.6243 42.4627C31.9398 42.3251 32.2034 42.0906 32.3767 41.7932C32.5449 41.4926 32.6157 41.1473 32.5795 40.8048C32.5432 40.4622 32.4016 40.1394 32.1742 39.8807C31.7917 39.4757 26.9992 36.0332 26.4817 35.7632L26.4367 35.7182Z" fill="white"/>
</svg>
