<svg width="72" height="72" viewBox="0 0 72 72" fill="none" xmlns="http://www.w3.org/2000/svg">
<path d="M56.2188 20.1708C50.8863 20.0808 45.9588 22.1283 42.3138 25.4358C43.5738 18.8208 41.3238 11.5083 35.8788 6.73828C30.5238 11.8233 28.6113 19.2033 30.1863 25.8858C26.4963 22.2858 21.3663 20.0808 15.7863 20.1708C15.1788 31.7133 22.1763 38.4858 30.5463 40.5108H41.4588C49.8063 38.4858 56.8263 31.7133 56.2188 20.1708Z" fill="#0053E2"/>
<path d="M22.4013 49.5108H49.7838L50.2788 47.2608H21.9288L22.4013 49.5108Z" fill="#0053E2"/>
<path d="M22.4218 49.5107C23.6818 55.4282 25.0093 61.5932 25.0093 61.5932C25.2568 63.6857 27.0343 65.2607 29.1268 65.2607H43.0093C45.1018 65.2607 46.8793 63.7082 47.1268 61.6157L49.8043 49.5107H22.4218Z" fill="#4DBDF5"/>
<path d="M50.2768 47.2607L51.7618 40.5107H20.4868C20.4868 40.5107 21.2968 44.3132 21.9268 47.2607H50.2768Z" fill="#4DBDF5"/>
</svg>
