<svg width="72" height="72" viewBox="0 0 72 72" fill="none" xmlns="http://www.w3.org/2000/svg">
<path d="M52.5482 19.248H51.4682V21.8355H49.9607V19.248H46.9232V21.8355H45.4157V19.248H42.3782V21.8355H40.8707V19.248H37.8332V21.8355H36.3257V19.248H33.2882V21.8355H31.7807V19.248H28.7432V21.8355H27.2357V19.248H24.1757V21.8355H22.6682V19.248H19.6307V21.8355H18.1232V19.248H17.7857C16.9532 19.248 16.2332 19.833 16.0532 20.643L15.1082 24.963L8.78571 54.123C8.56071 55.2255 9.37073 56.2381 10.4957 56.2381H45.3257C46.1582 56.2381 46.8557 55.6531 47.0357 54.8656L53.5157 24.963L54.2807 21.3855C54.5282 20.283 53.6732 19.248 52.5482 19.248ZM43.5932 27.5506C44.4032 27.6631 44.9657 28.4955 44.8307 29.3955C44.6957 30.2955 43.9532 30.948 43.1207 30.8355C42.2882 30.723 41.7482 29.8906 41.8832 28.9906C42.0182 28.0906 42.7607 27.4381 43.5932 27.5506ZM38.5532 27.5506C39.3632 27.6631 39.9257 28.4955 39.7907 29.3955C39.6557 30.2955 38.9132 30.948 38.0807 30.8355C37.2707 30.723 36.7082 29.8906 36.8432 28.9906C36.9782 28.0906 37.7207 27.4381 38.5532 27.5506ZM33.5357 27.528C34.3457 27.6405 34.9082 28.473 34.7732 29.373C34.6382 30.273 33.8957 30.9255 33.0632 30.813C32.2307 30.7005 31.6907 29.868 31.8257 28.968C31.9607 28.068 32.7032 27.4155 33.5357 27.528ZM23.4782 27.528C24.2882 27.6405 24.8507 28.473 24.7157 29.373C24.5807 30.273 23.8382 30.9255 23.0057 30.813C22.1957 30.7005 21.6332 29.868 21.7682 28.968C21.9032 28.068 22.6457 27.4155 23.4782 27.528ZM18.4382 27.5506C19.2482 27.6631 19.8107 28.4955 19.6757 29.3955C19.5407 30.2955 18.7982 30.948 17.9657 30.8355C17.1557 30.723 16.5932 29.8906 16.7282 28.9906C16.8632 28.0906 17.6057 27.4381 18.4382 27.5506ZM17.2682 33.2206C18.0782 33.3331 18.6407 34.1655 18.5057 35.0655C18.3707 35.9655 17.6282 36.618 16.7957 36.5055C15.9632 36.393 15.4232 35.5606 15.5582 34.6606C15.6932 33.7606 16.4357 33.1081 17.2682 33.2206ZM13.2857 53.6731C12.4757 53.5606 11.9132 52.728 12.0482 51.828C12.1832 50.928 12.9257 50.2755 13.7582 50.388C14.5682 50.5005 15.1307 51.3331 14.9957 52.2331C14.8607 53.1331 14.1182 53.7856 13.2857 53.6731ZM14.4557 47.9355C13.6457 47.823 13.0832 46.9905 13.2182 46.0905C13.3532 45.1905 14.0957 44.538 14.9282 44.6505C15.7382 44.763 16.3007 45.5955 16.1657 46.4955C16.0307 47.3955 15.2882 48.048 14.4557 47.9355ZM15.6257 42.243C14.8157 42.1305 14.2532 41.298 14.3882 40.398C14.5232 39.498 15.2657 38.8455 16.0982 38.958C16.9082 39.0705 17.4707 39.9031 17.3357 40.8031C17.2007 41.7031 16.4582 42.3555 15.6257 42.243ZM18.3257 53.6505C17.5157 53.538 16.9532 52.7055 17.0882 51.8055C17.2232 50.9055 17.9657 50.2531 18.7982 50.3656C19.6082 50.4781 20.1707 51.3105 20.0357 52.2105C19.9007 53.1105 19.1582 53.763 18.3257 53.6505ZM19.4732 47.9806C18.6632 47.8681 18.1007 47.0355 18.2357 46.1355C18.3707 45.2355 19.1132 44.583 19.9457 44.6955C20.7782 44.808 21.3182 45.6406 21.1832 46.5406C21.0482 47.4406 20.3057 48.0931 19.4732 47.9806ZM20.6657 42.243C19.8557 42.1305 19.2932 41.298 19.4282 40.398C19.5632 39.498 20.3057 38.8455 21.1382 38.958C21.9482 39.0705 22.5107 39.9031 22.3757 40.8031C22.2407 41.7031 21.4982 42.3555 20.6657 42.243ZM21.8582 36.5506C21.0482 36.4381 20.4857 35.6055 20.6207 34.7055C20.7557 33.8055 21.4982 33.153 22.3307 33.2655C23.1632 33.378 23.7032 34.2106 23.5682 35.1106C23.4332 36.0106 22.6907 36.6631 21.8582 36.5506ZM24.5132 47.9806C23.7032 47.8681 23.1407 47.0355 23.2757 46.1355C23.4107 45.2355 24.1532 44.583 24.9857 44.6955C25.8182 44.808 26.3582 45.6406 26.2232 46.5406C26.0882 47.4406 25.3457 48.0931 24.5132 47.9806ZM25.6832 42.243C24.8732 42.1305 24.3107 41.298 24.4457 40.398C24.5807 39.498 25.3232 38.8455 26.1557 38.958C26.9657 39.0705 27.5282 39.9031 27.3932 40.8031C27.2582 41.7031 26.5157 42.3555 25.6832 42.243ZM26.8082 29.013C26.9432 28.113 27.6857 27.4605 28.5182 27.573C29.3507 27.6855 29.8907 28.5181 29.7557 29.4181C29.6207 30.3181 28.8782 30.9706 28.0457 30.8581C27.2357 30.7456 26.6732 29.913 26.8082 29.013ZM29.5532 47.958C28.7432 47.8455 28.1807 47.0131 28.3157 46.1131C28.4507 45.2131 29.1932 44.5606 30.0257 44.6731C30.8357 44.7856 31.3982 45.618 31.2632 46.518C31.1282 47.418 30.3857 48.0705 29.5532 47.958ZM30.7007 42.243C29.8907 42.1305 29.3282 41.298 29.4632 40.398C29.5982 39.498 30.3407 38.8455 31.1732 38.958C31.9832 39.0705 32.5457 39.9031 32.4107 40.8031C32.2757 41.7031 31.5332 42.3555 30.7007 42.243ZM31.9157 36.528C31.1057 36.4155 30.5432 35.583 30.6782 34.683C30.8132 33.783 31.5557 33.1305 32.3882 33.243C33.1982 33.3555 33.7607 34.188 33.6257 35.088C33.4907 35.988 32.7482 36.6405 31.9157 36.528ZM34.5707 47.958C33.7607 47.8455 33.1982 47.0131 33.3332 46.1131C33.4682 45.2131 34.2107 44.5606 35.0432 44.6731C35.8532 44.7856 36.4157 45.618 36.2807 46.518C36.1457 47.418 35.4032 48.0705 34.5707 47.958ZM35.7407 42.2655C34.9307 42.153 34.3682 41.3206 34.5032 40.4206C34.6382 39.5206 35.3807 38.8681 36.2132 38.9806C37.0232 39.0931 37.5857 39.9255 37.4507 40.8255C37.3157 41.7255 36.5732 42.378 35.7407 42.2655ZM36.9332 36.5506C36.1232 36.4381 35.5607 35.6055 35.6957 34.7055C35.8307 33.8055 36.5732 33.153 37.4057 33.2655C38.2157 33.378 38.7782 34.2106 38.6432 35.1106C38.5082 36.0106 37.7657 36.6631 36.9332 36.5506ZM39.6107 47.958C38.8007 47.8455 38.2382 47.0131 38.3732 46.1131C38.5082 45.2131 39.2507 44.5606 40.0832 44.6731C40.8932 44.7856 41.4557 45.618 41.3207 46.518C41.1857 47.418 40.4432 48.0705 39.6107 47.958ZM40.7807 42.243C39.9707 42.1305 39.4082 41.298 39.5432 40.398C39.6782 39.498 40.4207 38.8455 41.2532 38.958C42.0632 39.0705 42.6257 39.9031 42.4907 40.8031C42.3557 41.7031 41.6132 42.3555 40.7807 42.243ZM41.9507 36.528C41.1407 36.4155 40.5782 35.583 40.7132 34.683C40.8482 33.783 41.5907 33.1305 42.4232 33.243C43.2332 33.3555 43.7957 34.188 43.6607 35.088C43.5257 35.988 42.7832 36.6405 41.9507 36.528ZM44.6507 47.958C43.8407 47.8455 43.2782 47.0131 43.4132 46.1131C43.5482 45.2131 44.2907 44.5606 45.1232 44.6731C45.9557 44.7856 46.4957 45.618 46.3607 46.518C46.2257 47.418 45.4832 48.0705 44.6507 47.958ZM45.7982 42.2655C44.9882 42.153 44.4257 41.3206 44.5607 40.4206C44.6957 39.5206 45.4382 38.8681 46.2707 38.9806C47.0807 39.0931 47.6432 39.9255 47.5082 40.8255C47.3732 41.7255 46.6307 42.378 45.7982 42.2655ZM46.9907 36.5506C46.1807 36.4381 45.6182 35.6055 45.7532 34.7055C45.8882 33.8055 46.6307 33.153 47.4632 33.2655C48.2732 33.378 48.8357 34.2106 48.7007 35.1106C48.5657 36.0106 47.8232 36.6631 46.9907 36.5506ZM48.1607 30.8355C47.3507 30.723 46.7882 29.8906 46.9232 28.9906C47.0582 28.0906 47.8007 27.4381 48.6332 27.5506C49.4432 27.6631 50.0057 28.4955 49.8707 29.3955C49.7357 30.2955 48.9932 30.948 48.1607 30.8355Z" fill="#4DBDF5"/>
<path d="M46.923 15.7598H45.4155V21.8348H46.923V15.7598Z" fill="#0053E2"/>
<path d="M51.468 15.7598H49.9605V21.8348H51.468V15.7598Z" fill="#0053E2"/>
<path d="M42.378 15.7598H40.8705V21.8348H42.378V15.7598Z" fill="#0053E2"/>
<path d="M37.833 15.7598H36.3255V21.8348H37.833V15.7598Z" fill="#0053E2"/>
<path d="M33.288 15.7598H31.7805V21.8348H33.288V15.7598Z" fill="#0053E2"/>
<path d="M28.743 15.7598H27.2355V21.8348H28.743V15.7598Z" fill="#0053E2"/>
<path d="M24.1756 15.7598H22.668V21.8348H24.1756V15.7598Z" fill="#0053E2"/>
<path d="M19.6305 15.7598H18.123V21.8348H19.6305V15.7598Z" fill="#0053E2"/>
<path d="M63.2127 54.0548L55.0677 20.6423C54.8652 19.8098 54.1227 19.2249 53.2677 19.2249H52.5252C53.6952 19.2474 54.5052 20.2598 54.2577 21.3623L53.4927 24.9398L47.0127 54.8423C46.8327 55.6298 46.1577 56.2373 45.3252 56.2373H61.5027C62.6502 56.2373 63.4827 55.1573 63.2127 54.0773V54.0548Z" fill="#0053E2"/>
<path d="M17.9923 30.8572C18.8023 30.9697 19.5673 30.3172 19.7023 29.4172C19.8373 28.5172 19.2748 27.6847 18.4648 27.5722C17.6548 27.4597 16.8898 28.1122 16.7548 29.0122C16.6198 29.9122 17.1823 30.7447 17.9923 30.8572Z" fill="#0053E2"/>
<path d="M23.0098 30.8347C23.8198 30.9472 24.5848 30.2947 24.7198 29.3947C24.8548 28.4947 24.2923 27.6622 23.4823 27.5497C22.6723 27.4372 21.9073 28.0897 21.7723 28.9897C21.6373 29.8897 22.1998 30.7222 23.0098 30.8347Z" fill="#0053E2"/>
<path d="M29.7373 29.4172C29.8723 28.5172 29.3098 27.6847 28.4998 27.5722C27.6898 27.4597 26.9248 28.1122 26.7898 29.0122C26.6548 29.9122 27.2173 30.7447 28.0273 30.8572C28.8373 30.9697 29.6023 30.3172 29.7373 29.4172Z" fill="#0053E2"/>
<path d="M33.0673 30.8347C33.8773 30.9472 34.6423 30.2947 34.7773 29.3947C34.9123 28.4947 34.3498 27.6622 33.5398 27.5497C32.7298 27.4372 31.9648 28.0897 31.8298 28.9897C31.6948 29.8897 32.2573 30.7222 33.0673 30.8347Z" fill="#0053E2"/>
<path d="M38.1073 30.8347C38.9173 30.9472 39.6823 30.2947 39.8173 29.3947C39.9523 28.4947 39.3898 27.6622 38.5798 27.5497C37.7698 27.4372 37.0048 28.0897 36.8698 28.9897C36.7348 29.8897 37.2973 30.7222 38.1073 30.8347Z" fill="#0053E2"/>
<path d="M43.1473 30.8347C43.9573 30.9472 44.7223 30.2947 44.8573 29.3947C44.9923 28.4947 44.4298 27.6622 43.6198 27.5497C42.8098 27.4372 42.0448 28.0897 41.9098 28.9897C41.7748 29.8897 42.3373 30.7222 43.1473 30.8347Z" fill="#0053E2"/>
<path d="M48.6373 27.5497C47.8273 27.4372 47.0622 28.0897 46.9272 28.9897C46.7922 29.8897 47.3548 30.7222 48.1648 30.8347C48.9748 30.9472 49.7398 30.2947 49.8748 29.3947C50.0098 28.4947 49.4473 27.6622 48.6373 27.5497Z" fill="#0053E2"/>
<path d="M16.8223 36.5272C17.6323 36.6397 18.3973 35.9872 18.5323 35.0872C18.6673 34.1872 18.1048 33.3547 17.2948 33.2422C16.4848 33.1297 15.7198 33.7822 15.5848 34.6822C15.4498 35.5822 16.0123 36.4147 16.8223 36.5272Z" fill="#0053E2"/>
<path d="M22.3123 33.2422C21.5023 33.1297 20.7373 33.7822 20.6023 34.6822C20.4673 35.5822 21.0298 36.4147 21.8398 36.5272C22.6498 36.6397 23.4148 35.9872 23.5498 35.0872C23.6848 34.1872 23.1223 33.3547 22.3123 33.2422Z" fill="#0053E2"/>
<path d="M32.3698 33.2422C31.5598 33.1297 30.7948 33.7822 30.6598 34.6822C30.5248 35.5822 31.0873 36.4147 31.8973 36.5272C32.7073 36.6397 33.4723 35.9872 33.6073 35.0872C33.7423 34.1872 33.1798 33.3547 32.3698 33.2422Z" fill="#0053E2"/>
<path d="M37.4098 33.2647C36.5998 33.1522 35.8348 33.8047 35.6998 34.7047C35.5648 35.6047 36.1273 36.4372 36.9373 36.5497C37.7473 36.6622 38.5123 36.0097 38.6473 35.1097C38.7823 34.2097 38.2198 33.3772 37.4098 33.2647Z" fill="#0053E2"/>
<path d="M42.4048 33.2422C41.5948 33.1297 40.8298 33.7822 40.6948 34.6822C40.5598 35.5822 41.1223 36.4147 41.9323 36.5272C42.7423 36.6397 43.5073 35.9872 43.6423 35.0872C43.7773 34.1872 43.2148 33.3547 42.4048 33.2422Z" fill="#0053E2"/>
<path d="M47.4448 33.2422C46.6348 33.1297 45.8698 33.7822 45.7348 34.6822C45.5998 35.5822 46.1623 36.4147 46.9723 36.5272C47.7823 36.6397 48.5473 35.9872 48.6823 35.0872C48.8173 34.1872 48.2548 33.3547 47.4448 33.2422Z" fill="#0053E2"/>
<path d="M16.1023 38.9572C15.2923 38.8447 14.5273 39.4972 14.3923 40.3972C14.2573 41.2972 14.8198 42.1297 15.6298 42.2422C16.4398 42.3547 17.2048 41.7022 17.3398 40.8022C17.4748 39.9022 16.9123 39.0697 16.1023 38.9572Z" fill="#0053E2"/>
<path d="M21.1198 38.9572C20.3098 38.8447 19.5448 39.4972 19.4098 40.3972C19.2748 41.2972 19.8373 42.1297 20.6473 42.2422C21.4573 42.3547 22.2223 41.7022 22.3573 40.8022C22.4923 39.9022 21.9298 39.0697 21.1198 38.9572Z" fill="#0053E2"/>
<path d="M26.1373 38.9572C25.3273 38.8447 24.5623 39.4972 24.4273 40.3972C24.2923 41.2972 24.8548 42.1297 25.6648 42.2422C26.4748 42.3547 27.2398 41.7022 27.3748 40.8022C27.5098 39.9022 26.9473 39.0697 26.1373 38.9572Z" fill="#0053E2"/>
<path d="M31.1773 38.9572C30.3673 38.8447 29.6023 39.4972 29.4673 40.3972C29.3323 41.2972 29.8948 42.1297 30.7048 42.2422C31.5148 42.3547 32.2798 41.7022 32.4148 40.8022C32.5498 39.9022 31.9873 39.0697 31.1773 38.9572Z" fill="#0053E2"/>
<path d="M36.1948 38.9572C35.3848 38.8447 34.6198 39.4972 34.4848 40.3972C34.3498 41.2972 34.9123 42.1297 35.7223 42.2422C36.5323 42.3547 37.2973 41.7022 37.4323 40.8022C37.5673 39.9022 37.0048 39.0697 36.1948 38.9572Z" fill="#0053E2"/>
<path d="M41.2348 38.9347C40.4248 38.8222 39.6598 39.4747 39.5248 40.3747C39.3898 41.2747 39.9523 42.1072 40.7623 42.2197C41.5723 42.3322 42.3373 41.6797 42.4723 40.7797C42.6073 39.8797 42.0448 39.0472 41.2348 38.9347Z" fill="#0053E2"/>
<path d="M46.2523 38.9572C45.4423 38.8447 44.6773 39.4972 44.5423 40.3972C44.4073 41.2972 44.9698 42.1297 45.7798 42.2422C46.5898 42.3547 47.3547 41.7022 47.4897 40.8022C47.6247 39.9022 47.0623 39.0697 46.2523 38.9572Z" fill="#0053E2"/>
<path d="M14.9098 44.6497C14.0998 44.5372 13.3348 45.1897 13.1998 46.0897C13.0648 46.9897 13.6273 47.8222 14.4373 47.9347C15.2473 48.0472 16.0123 47.3947 16.1473 46.4947C16.2823 45.5947 15.7198 44.7622 14.9098 44.6497Z" fill="#0053E2"/>
<path d="M19.9498 44.6722C19.1398 44.5597 18.3748 45.2122 18.2398 46.1122C18.1048 47.0122 18.6673 47.8447 19.4773 47.9572C20.2873 48.0697 21.0523 47.4172 21.1873 46.5172C21.3223 45.6172 20.7598 44.7847 19.9498 44.6722Z" fill="#0053E2"/>
<path d="M24.9673 44.6722C24.1573 44.5597 23.3923 45.2122 23.2573 46.1122C23.1223 47.0122 23.6848 47.8447 24.4948 47.9572C25.3048 48.0697 26.0698 47.4172 26.2048 46.5172C26.3398 45.6172 25.7773 44.7847 24.9673 44.6722Z" fill="#0053E2"/>
<path d="M30.0073 44.6497C29.1973 44.5372 28.4323 45.1897 28.2973 46.0897C28.1623 46.9897 28.7248 47.8222 29.5348 47.9347C30.3448 48.0472 31.1098 47.3947 31.2448 46.4947C31.3798 45.5947 30.8173 44.7622 30.0073 44.6497Z" fill="#0053E2"/>
<path d="M35.0473 44.6497C34.2373 44.5372 33.4723 45.1897 33.3373 46.0897C33.2023 46.9897 33.7648 47.8222 34.5748 47.9347C35.3848 48.0472 36.1498 47.3947 36.2848 46.4947C36.4198 45.5947 35.8573 44.7622 35.0473 44.6497Z" fill="#0053E2"/>
<path d="M40.0648 44.6497C39.2548 44.5372 38.4898 45.1897 38.3548 46.0897C38.2198 46.9897 38.7823 47.8222 39.5923 47.9347C40.4023 48.0472 41.1673 47.3947 41.3023 46.4947C41.4373 45.5947 40.8748 44.7622 40.0648 44.6497Z" fill="#0053E2"/>
<path d="M45.1048 44.6497C44.2948 44.5372 43.5298 45.1897 43.3948 46.0897C43.2598 46.9897 43.8223 47.8222 44.6323 47.9347C45.4423 48.0472 46.2073 47.3947 46.3423 46.4947C46.4773 45.5947 45.9148 44.7622 45.1048 44.6497Z" fill="#0053E2"/>
<path d="M13.7623 50.3647C12.9523 50.2522 12.1873 50.9047 12.0523 51.8047C11.9173 52.7047 12.4798 53.5372 13.2898 53.6497C14.0998 53.7622 14.8648 53.1097 14.9998 52.2097C15.1348 51.3097 14.5723 50.4772 13.7623 50.3647Z" fill="#0053E2"/>
<path d="M18.7798 50.3422C17.9698 50.2297 17.2048 50.8822 17.0698 51.7822C16.9348 52.6822 17.4973 53.5147 18.3073 53.6272C19.1173 53.7397 19.8823 53.0872 20.0173 52.1872C20.1523 51.2872 19.5898 50.4547 18.7798 50.3422Z" fill="#0053E2"/>
<path d="M28.5821 35.108C28.708 34.1971 28.1515 33.3676 27.3391 33.2553C26.5267 33.143 25.766 33.7904 25.6401 34.7013C25.5142 35.6122 26.0707 36.4416 26.8831 36.5539C27.6955 36.6662 28.4562 36.0189 28.5821 35.108Z" fill="white"/>
</svg>
