<svg width="72" height="72" viewBox="0 0 72 72" fill="none" xmlns="http://www.w3.org/2000/svg">
<path d="M4.50001 14.716C4.50001 13.2003 5.10319 11.7467 6.17688 10.675C7.25056 9.60321 8.7068 9.00111 10.2252 9.00111H61.6621C62.4233 8.98615 63.18 9.12291 63.8877 9.40341C64.5953 9.6839 65.2398 10.1025 65.7835 10.6347C66.3271 11.1668 66.7589 11.8019 67.0537 12.5027C67.3484 13.2035 67.5001 13.956 67.5 14.716V43.9654C67.5026 45.4555 67.115 46.9204 66.3757 48.2149C65.6363 49.5094 64.5709 50.5885 63.285 51.3453L36 67.5L8.71503 51.4353C7.42912 50.6785 6.36369 49.5994 5.62434 48.3049C4.885 47.0104 4.49742 45.5455 4.50001 44.0554V14.716Z" fill="#0053E2"/>
<path d="M36 9.00098V67.4999L8.71503 51.4352C7.42912 50.6784 6.36369 49.5992 5.62434 48.3048C4.885 47.0103 4.49742 45.5454 4.50001 44.0553V14.7159C4.50001 13.2002 5.10319 11.7466 6.17688 10.6748C7.25056 9.60308 8.7068 9.00098 10.2252 9.00098H36Z" fill="#4DBDF5"/>
<path d="M33.0298 45.0238L22.8823 34.8763L26.0548 31.7038L33.0298 38.6788L47.1373 24.5713L50.3098 27.7438L33.0298 45.0238Z" fill="white"/>
</svg>
