<svg width="72" height="72" viewBox="0 0 72 72" fill="none" xmlns="http://www.w3.org/2000/svg">
<path d="M65.25 20.2505H6.75V63.0005H65.25V20.2505Z" fill="#4DBDF5"/>
<path d="M65.25 38.25H38.25V20.25H33.75V38.25H6.75V42.75H33.75V63H38.25V42.75H65.25V38.25Z" fill="#0053E2"/>
<path fill-rule="evenodd" clip-rule="evenodd" d="M25.1999 10.8005H25.7399C26.2273 10.8017 26.7083 10.9113 27.148 11.1215C27.5878 11.3316 27.9753 11.637 28.2824 12.0155L31.6124 16.2005H25.1999C24.4838 16.2005 23.7971 15.916 23.2907 15.4097C22.7844 14.9033 22.4999 14.2165 22.4999 13.5005C22.4999 12.7844 22.7844 12.0976 23.2907 11.5913C23.7971 11.0849 24.4838 10.8005 25.1999 10.8005ZM25.1999 20.2505C23.4097 20.2505 21.6928 19.5393 20.4269 18.2734C19.161 17.0076 18.4499 15.2907 18.4499 13.5005C18.4499 11.7102 19.161 9.99336 20.4269 8.72749C21.6928 7.46162 23.4097 6.75046 25.1999 6.75046H25.7399C26.8458 6.738 27.9399 6.97891 28.9384 7.45472C29.9368 7.93053 30.813 8.62861 31.4999 9.49546L35.9999 15.188L40.4999 9.49546C41.1868 8.62861 42.063 7.93053 43.0614 7.45472C44.0598 6.97891 45.154 6.738 46.2599 6.75046H46.7999C48.5901 6.75046 50.307 7.46162 51.5729 8.72749C52.8388 9.99336 53.5499 11.7102 53.5499 13.5005C53.5499 15.2907 52.8388 17.0076 51.5729 18.2734C50.307 19.5393 48.5901 20.2505 46.7999 20.2505H25.1999ZM46.7999 10.8005H46.2599C45.7725 10.8017 45.2915 10.9113 44.8518 11.1215C44.412 11.3316 44.0245 11.637 43.7174 12.0155L40.4999 16.2005H46.9124C47.6088 16.1714 48.267 15.8742 48.7493 15.371C49.2315 14.8677 49.5005 14.1975 49.4999 13.5005C49.4999 12.7844 49.2154 12.0976 48.7091 11.5913C48.2027 11.0849 47.516 10.8005 46.7999 10.8005Z" fill="#0053E2"/>
</svg>
