<svg width="72" height="72" viewBox="0 0 72 72" fill="none" xmlns="http://www.w3.org/2000/svg">
<path fill-rule="evenodd" clip-rule="evenodd" d="M34.2469 20.2845C32.8294 16.3695 30.9844 12.927 28.9819 10.272C26.6194 12.657 25.0219 16.2345 24.7519 20.2845H34.2469Z" fill="#4DBDF5"/>
<path fill-rule="evenodd" clip-rule="evenodd" d="M45.5194 16.0996C44.1019 14.3221 42.1894 13.3321 40.2094 13.6021C37.4419 13.9846 35.3719 16.7296 34.7644 20.2846H47.2519C47.1619 19.0246 46.9369 17.8321 46.6219 16.6846C46.2169 16.6396 45.8119 16.4596 45.5419 16.0996H45.5194Z" fill="#4DBDF5"/>
<path fill-rule="evenodd" clip-rule="evenodd" d="M49.8394 20.2845H56.7919C56.3869 18.057 55.2394 16.2795 53.4619 15.492C52.0669 14.862 50.4919 14.9971 49.0069 15.6496C49.4569 17.1121 49.7269 18.6645 49.8394 20.2845Z" fill="#4DBDF5"/>
<path fill-rule="evenodd" clip-rule="evenodd" d="M22.1419 20.2845C22.4344 15.4245 24.4144 11.1496 27.3394 8.26955C24.5944 5.32205 21.7369 3.90455 19.3969 4.71455C15.7069 5.99705 14.4244 12.432 15.8419 20.2845H22.1644H22.1419Z" fill="#4DBDF5"/>
<path d="M36.2705 33.8057C33.503 33.8057 30.983 34.9081 29.1605 36.7306L27.473 35.0431L25.6055 41.9957L32.5355 40.1282L30.893 38.4856C32.2655 37.1356 34.1555 36.2806 36.2705 36.2806C40.478 36.2806 43.898 39.7006 43.898 43.9081C43.898 48.1156 40.478 51.5356 36.2705 51.5356C34.1555 51.5356 32.243 50.6806 30.8705 49.2856L29.093 51.0632C30.938 52.9082 33.458 54.0557 36.2705 54.0557C41.873 54.0557 46.3955 49.5107 46.3955 43.9307C46.3955 38.3507 41.8505 33.8057 36.2705 33.8057Z" fill="white"/>
<path d="M49.8629 20.2842C49.3229 11.4867 43.3154 4.53418 36.0029 4.53418C28.6904 4.53418 22.7054 11.4867 22.1429 20.2842H13.5029V67.5117H58.5029V20.2842H49.8629ZM36.2729 54.0567C33.4604 54.0567 30.9404 52.9092 29.0954 51.0642L30.8729 49.2867C32.2454 50.6817 34.1579 51.5367 36.2729 51.5367C40.4804 51.5367 43.9004 48.1167 43.9004 43.9092C43.9004 39.7017 40.4804 36.2817 36.2729 36.2817C34.1804 36.2817 32.2679 37.1367 30.8954 38.4867L32.5379 40.1292L25.6079 41.9967L27.4754 35.0442L29.1629 36.7317C30.9854 34.9092 33.5054 33.8067 36.2729 33.8067C41.8529 33.8067 46.3979 38.3517 46.3979 43.9317C46.3979 49.5117 41.8754 54.0567 36.2729 54.0567ZM24.7754 20.2842C25.2929 12.9267 30.1304 7.14419 36.0254 7.14419C41.9204 7.14419 46.7579 12.9267 47.2754 20.2842H24.7979H24.7754Z" fill="#0053E2"/>
</svg>
