<svg width="72" height="72" viewBox="0 0 72 72" fill="none" xmlns="http://www.w3.org/2000/svg">
<path d="M49.8413 20.261H58.3914C58.2339 18.8435 57.1539 17.6735 55.7364 17.516C55.7364 17.4035 55.7814 17.291 55.7814 17.1785C55.7814 15.6485 54.5438 14.411 53.0138 14.411C52.4963 14.411 52.0013 14.5685 51.5963 14.816C51.5963 14.681 51.6414 14.546 51.6414 14.411C51.6414 12.881 50.4038 11.6435 48.8738 11.6435C48.8738 10.1135 47.6364 8.87598 46.1064 8.87598C45.8589 8.87598 45.6338 8.96597 45.4088 9.01097C47.9288 11.846 49.5939 15.8285 49.8639 20.261H49.8413Z" fill="#4DBDF5"/>
<path d="M47.2314 20.261C46.9614 16.5035 45.5664 13.1735 43.4964 10.7885C43.4064 11.0585 43.3163 11.3285 43.3163 11.6435C43.3163 12.2285 43.4963 12.746 43.7888 13.196C43.0013 13.466 42.3713 14.096 42.1013 14.8835C41.6513 14.591 41.1339 14.411 40.5489 14.411C39.3339 14.411 38.3214 15.1985 37.9389 16.2785C37.4889 15.986 36.9714 15.806 36.3864 15.806C35.3739 15.806 34.5188 16.391 34.0238 17.201C33.9113 17.201 33.7988 17.1335 33.6863 17.1335C33.3488 17.1335 33.0339 17.201 32.7414 17.3135C31.9314 14.9735 30.1989 13.1735 27.8814 12.656C27.6564 12.611 27.4089 12.5885 27.1839 12.5435C25.8339 14.7035 24.9563 17.3585 24.7538 20.261H47.2314Z" fill="#4DBDF5"/>
<path d="M22.1438 20.261C22.3238 17.381 23.0889 14.7035 24.3039 12.4085V9.84349H22.5038V12.926C21.3563 12.4985 20.1413 12.386 18.9038 12.656C15.6863 13.376 13.5714 16.571 13.5264 20.261H22.1438Z" fill="#4DBDF5"/>
<path d="M36.2939 33.7842C33.5264 33.7842 31.0064 34.8867 29.1839 36.7092L27.4964 35.0217L25.6289 41.9742L32.5589 40.1067L30.9164 38.4641C32.2889 37.1141 34.1789 36.2592 36.2939 36.2592C40.5014 36.2592 43.9214 39.6792 43.9214 43.8867C43.9214 48.0942 40.5014 51.5142 36.2939 51.5142C34.1789 51.5142 32.2664 50.6592 30.8939 49.2642L29.1164 51.0417C30.9614 52.8867 33.4814 54.0342 36.2939 54.0342C41.8964 54.0342 46.4189 49.4892 46.4189 43.9092C46.4189 38.3292 41.8739 33.7842 36.2939 33.7842Z" fill="white"/>
<path d="M49.86 20.2617C49.32 11.4642 43.3125 4.51172 36 4.51172C28.6875 4.51172 22.7025 11.4642 22.14 20.2617H13.5V67.4892H58.5V20.2617H49.86ZM36.2925 54.0342C33.48 54.0342 30.96 52.8867 29.115 51.0417L30.8925 49.2642C32.265 50.6592 34.1775 51.5142 36.2925 51.5142C40.5 51.5142 43.92 48.0942 43.92 43.8867C43.92 39.6792 40.5 36.2592 36.2925 36.2592C34.2 36.2592 32.2875 37.1142 30.915 38.4642L32.5575 40.1067L25.6275 41.9742L27.495 35.0217L29.1825 36.7092C31.005 34.8867 33.525 33.7842 36.2925 33.7842C41.8725 33.7842 46.4175 38.3292 46.4175 43.9092C46.4175 49.4892 41.895 54.0342 36.2925 54.0342ZM24.7725 20.2617C25.29 12.9042 30.1275 7.12173 36.0225 7.12173C41.9175 7.12173 46.755 12.9042 47.2725 20.2617H24.795H24.7725Z" fill="#0053E2"/>
</svg>
