<svg width="72" height="72" viewBox="0 0 72 72" fill="none" xmlns="http://www.w3.org/2000/svg">
<path d="M63.4719 16.335C63.0894 15.975 62.5044 15.9975 62.1669 16.38L57.2619 21.5775L58.4993 16.5375C58.6793 16.1775 58.4093 15.75 58.0043 15.75H14.6469C14.2644 15.75 13.9944 16.1325 14.1069 16.4925L15.0519 21.9375L9.83187 16.4025C9.47187 16.02 8.88687 16.02 8.52687 16.3575C8.16687 16.695 8.14436 17.3025 8.48186 17.6625L15.6369 25.245H56.3394L63.4943 17.6625C63.8543 17.28 63.8319 16.695 63.4494 16.3575L63.4719 16.335Z" fill="#0053E2"/>
<path d="M36.202 32.2207C33.862 32.2207 31.7695 33.1657 30.2395 34.6957L28.867 33.3232L27.3145 39.1282L33.1195 37.5757L31.747 36.2032C32.8945 35.0782 34.4695 34.3582 36.202 34.3582C39.7345 34.3582 42.5695 37.2157 42.5695 40.7257C42.5695 44.2357 39.712 47.0932 36.202 47.0932C34.4245 47.0932 32.827 46.3732 31.6795 45.2032L30.1945 46.6882C31.7245 48.2182 33.862 49.1857 36.202 49.1857C40.882 49.1857 44.6845 45.3832 44.6845 40.7032C44.6845 36.0232 40.882 32.2207 36.202 32.2207Z" fill="#0053E2"/>
<path d="M15.6338 25.2227V56.2502H56.3363V25.2227H15.6338ZM36.1988 49.1851C33.8588 49.1851 31.7213 48.2177 30.1913 46.6877L31.6763 45.2027C32.8238 46.3727 34.4213 47.0927 36.1988 47.0927C39.7088 47.0927 42.5663 44.2352 42.5663 40.7252C42.5663 37.2152 39.7313 34.3577 36.1988 34.3577C34.4663 34.3577 32.8913 35.0777 31.7438 36.2027L33.1163 37.5752L27.3113 39.1277L28.8638 33.3227L30.2363 34.6952C31.7663 33.1652 33.8813 32.2202 36.1988 32.2202C40.8788 32.2202 44.6813 36.0227 44.6813 40.7027C44.6813 45.3827 40.8788 49.1851 36.1988 49.1851Z" fill="#4DBDF5"/>
</svg>
