<svg width="72" height="72" viewBox="0 0 72 72" fill="none" xmlns="http://www.w3.org/2000/svg">
<path d="M39.6501 44.8878C39.3126 45.2703 35.3526 48.0828 34.9476 48.3078C34.0476 48.8253 32.9001 48.5103 32.3826 47.6103C31.8651 46.7103 32.1801 45.5628 33.0801 45.0453C33.4851 44.8203 37.8951 42.7953 38.3901 42.6828C38.9526 42.5703 39.5376 42.8178 39.8301 43.3128C40.1226 43.8078 40.0551 44.4378 39.6726 44.8653H39.6501V44.8878ZM39.8076 39.9378C39.5151 40.4328 38.9526 40.6803 38.3676 40.5678C37.8726 40.4553 33.4401 38.4303 33.0576 38.2053C32.1576 37.6878 31.8426 36.5403 32.3601 35.6403C32.8776 34.7403 34.0251 34.4253 34.9251 34.9428C35.3301 35.1678 39.2901 37.9803 39.6276 38.3628C40.0101 38.7903 40.0776 39.4203 39.7851 39.9153H39.8076V39.9378ZM42.7551 53.6178C41.7201 53.6178 40.8651 52.7853 40.8651 51.7278C40.8651 51.2778 41.3151 46.4403 41.4726 45.9453C41.6526 45.3828 42.1701 45.0228 42.7326 45.0228C43.2951 45.0228 43.8126 45.3828 43.9926 45.9453C44.1501 46.4178 44.6001 51.2778 44.6001 51.7278C44.6001 52.7628 43.7676 53.6178 42.7101 53.6178H42.7551ZM44.0151 37.3053C43.8351 37.8678 43.3176 38.2278 42.7551 38.2278C42.1926 38.2278 41.6751 37.8678 41.4951 37.3053C41.3376 36.8328 40.8876 31.9728 40.8876 31.5228C40.8876 30.4878 41.7201 29.6328 42.7776 29.6328C43.8351 29.6328 44.6676 30.4653 44.6676 31.5228C44.6676 31.9728 44.2176 36.8103 44.0601 37.3053H44.0151ZM53.1276 47.6103C52.6101 48.5103 51.4626 48.8253 50.5626 48.3078C50.1576 48.0828 46.1976 45.2703 45.8601 44.8878C45.4776 44.4603 45.4101 43.8303 45.7026 43.3353C45.9951 42.8403 46.5576 42.5928 47.1426 42.7053C47.6376 42.8178 52.0701 44.8428 52.4526 45.0678C53.3526 45.5853 53.6676 46.7328 53.1501 47.6328H53.1276V47.6103ZM52.4301 38.2053C52.0251 38.4303 47.6151 40.4553 47.1201 40.5678C46.5576 40.6803 45.9726 40.4328 45.6801 39.9378C45.3876 39.4428 45.4551 38.8128 45.8376 38.3853C46.1751 38.0028 50.1351 35.1903 50.5401 34.9653C51.4401 34.4478 52.5876 34.7628 53.1051 35.6628C53.6226 36.5628 53.3076 37.7103 52.4076 38.2278H52.4301V38.2053Z" fill="white"/>
<path d="M47.2593 14.6485L42.7593 25.876H60.7593L65.2593 14.6485H47.2593Z" fill="#0053E2"/>
<path d="M6.75934 14.626L11.2593 25.876V57.376H42.7593V53.6185H42.7143C41.6793 53.6185 40.8468 52.786 40.8468 51.7285C40.8468 51.2785 41.2968 46.441 41.4543 45.946C41.6343 45.3835 42.1518 45.0235 42.7143 45.0235C42.7143 45.0235 42.7143 45.0235 42.7368 45.0235V38.2285C42.1743 38.2285 41.6568 37.8685 41.4768 37.306C41.3193 36.8335 40.8693 31.9735 40.8693 31.5235C40.8693 30.4885 41.7018 29.656 42.7368 29.6335V25.876L38.2368 14.626H6.73682H6.75934ZM39.6768 44.866H39.6543C39.3168 45.271 35.3568 48.0835 34.9518 48.3085C34.0518 48.826 32.9043 48.511 32.3868 47.611C31.8693 46.711 32.1843 45.5635 33.0843 45.046C33.4893 44.821 37.8993 42.796 38.3943 42.6835C38.9568 42.571 39.5418 42.8185 39.8343 43.3135C40.1268 43.8085 40.0593 44.4385 39.6768 44.866ZM39.7893 39.916H39.8118C39.5193 40.4335 38.9568 40.681 38.3718 40.5685C37.8768 40.456 33.4443 38.431 33.0618 38.206C32.1618 37.6885 31.8468 36.541 32.3643 35.641C32.8818 34.741 34.0293 34.426 34.9293 34.9435C35.3343 35.1685 39.2943 37.981 39.6318 38.3635C40.0143 38.791 40.0818 39.421 39.7893 39.916Z" fill="#0053E2"/>
<path d="M42.7808 25.876V29.6335C42.7808 29.6335 42.7807 29.6335 42.8032 29.6335C43.8607 29.6335 44.6932 30.466 44.6932 31.5235C44.6932 31.9735 44.2432 36.811 44.0857 37.306H44.0408C43.8608 37.8685 43.3433 38.2285 42.7808 38.2285V45.0235C43.3433 45.0235 43.8382 45.3835 44.0182 45.946C44.1757 46.4185 44.6257 51.2785 44.6257 51.7285C44.6257 52.741 43.8158 53.5735 42.7808 53.6185V57.376H60.7808V25.876H42.7808ZM45.8633 38.386C46.2008 38.0035 50.1607 35.191 50.5657 34.966C51.4657 34.4485 52.6132 34.7635 53.1307 35.6635C53.6482 36.5635 53.3332 37.711 52.4332 38.2285H52.4557C52.0507 38.431 47.6407 40.456 47.1457 40.5685C46.5832 40.681 45.9982 40.4335 45.7057 39.9385C45.4132 39.4435 45.4808 38.8135 45.8633 38.386ZM53.1758 47.6335H53.1532C52.6357 48.511 51.4882 48.826 50.5882 48.3085C50.1832 48.0835 46.2232 45.271 45.8857 44.8885C45.5032 44.461 45.4358 43.831 45.7283 43.336C46.0208 42.841 46.5832 42.5935 47.1682 42.706C47.6632 42.8185 52.0958 44.8435 52.4783 45.0685C53.3783 45.586 53.6933 46.7335 53.1758 47.6335Z" fill="#4DBDF5"/>
</svg>
