<svg width="72" height="72" viewBox="0 0 72 72" fill="none" xmlns="http://www.w3.org/2000/svg">
<path d="M54 40.5H45V38.25H54V40.5Z" fill="#0053E2"/>
<path d="M56.25 36H45V33.75H56.25V36Z" fill="#0053E2"/>
<path d="M56.25 31.5H45V29.25H56.25V31.5Z" fill="#0053E2"/>
<path fill-rule="evenodd" clip-rule="evenodd" d="M41.625 4.5C49.3745 4.5 55.713 11.4548 56.2148 20.25H63V63C63 65.4853 60.9853 67.5 58.5 67.5H26.5781C28.2326 67.5 29.5747 66.1592 29.5752 64.5051V34.4949C29.5747 32.8408 28.2326 31.5 26.5781 31.5H18V20.25H27.0352C27.537 11.4548 33.8755 4.5 41.625 4.5ZM42.75 45H58.5V27H42.75V45ZM41.625 7.875C36.1264 7.875 30.9059 12.9273 30.4167 20.25H52.8333C52.3441 12.9273 47.1236 7.875 41.625 7.875Z" fill="#0053E2"/>
<path d="M22.5 33.75V36H15.75V33.75H22.5Z" fill="#0053E2"/>
<path fill-rule="evenodd" clip-rule="evenodd" d="M26.5781 31.5C28.2326 31.5 29.5747 32.8408 29.5752 34.4949V64.5051C29.5747 66.1592 28.2326 67.5 26.5781 67.5H11.9971C10.3426 67.5 9.00045 66.1592 9 64.5051V34.4949C9.00046 32.8408 10.3426 31.5 11.9971 31.5H26.5781ZM18 52.4092L14.2954 48.7046L12.7046 50.2954L18 55.5908L26.6704 46.9204L25.0796 45.3296L18 52.4092ZM15.75 36H22.5V33.75H15.75V36Z" fill="#4DBDF5"/>
<path d="M26.6704 46.9204L18 55.5908L12.7046 50.2954L14.2954 48.7046L18 52.4092L25.0796 45.3296L26.6704 46.9204Z" fill="white"/>
<path fill-rule="evenodd" clip-rule="evenodd" d="M58.5 45H42.75V27H58.5V45ZM45 40.5H54V38.25H45V40.5ZM45 36H56.25V33.75H45V36ZM45 31.5H56.25V29.25H45V31.5Z" fill="white"/>
</svg>
