<svg width="72" height="72" viewBox="0 0 72 72" fill="none" xmlns="http://www.w3.org/2000/svg">
<path fill-rule="evenodd" clip-rule="evenodd" d="M37.114 4.6123V18.9451L51.783 31.5222H51.739V40.5002H65.1248V67.5002H6.87305V40.5002H20.239V31.5222H20.1929L34.864 18.967V4.6123H37.114ZM36 31.5002C33.5147 31.5002 31.5 33.515 31.5 36.0002C31.5 38.4855 33.5147 40.5002 36 40.5002C38.4853 40.5002 40.5 38.4855 40.5 36.0002C40.5 33.515 38.4853 31.5002 36 31.5002Z" fill="#4DBDF5"/>
<path d="M29.25 51.75H42.75V67.5H29.25V51.75Z" fill="#0053E2"/>
<path d="M54 15.1806V5.05556C54 5.05556 49.5 6.30558 45 5.05556C41.8751 4.18751 38.7486 4.52507 37.1306 4.81241L37.1321 14.9374C38.7501 14.6501 41.8751 14.3125 45 15.1806C49.5 16.4306 54 15.1806 54 15.1806Z" fill="#0053E2"/>
<path d="M67.5 40.5L65.6761 33.2043C65.4257 32.2027 64.5257 31.5 63.4933 31.5H51.7124V40.5H67.5Z" fill="#0053E2"/>
<path d="M6.32393 33.2043L4.5 40.5H20.25L20.2505 31.5H8.50675C7.47429 31.5 6.57433 32.2027 6.32393 33.2043Z" fill="#0053E2"/>
<path d="M40.5 36C40.5 38.4853 38.4853 40.5 36 40.5C33.5147 40.5 31.5 38.4853 31.5 36C31.5 33.5147 33.5147 31.5 36 31.5C38.4853 31.5 40.5 33.5147 40.5 36Z" fill="white"/>
</svg>
