<svg width="72" height="72" viewBox="0 0 72 72" fill="none" xmlns="http://www.w3.org/2000/svg">
<path d="M60.75 58.5C60.75 63.4725 56.7225 67.5 51.75 67.5H20.25C15.2775 67.5 11.25 63.4725 11.25 58.5V25.875C11.25 30.8456 15.2794 34.875 20.25 34.875H51.75C56.7206 34.875 60.75 30.8456 60.75 25.875V58.5Z" fill="#0053E2"/>
<path d="M20.25 4.5C21.4875 4.5 22.5 5.5125 22.5 6.75V11.25H15.75C14.9296 11.25 14.1623 11.4729 13.5 11.8564V6.75C13.5 5.5125 14.5125 4.5 15.75 4.5H20.25Z" fill="#0053E2"/>
<path d="M68.77 16.875C68.77 23.7095 63.2295 29.25 56.395 29.25C49.5605 29.25 44.02 23.7095 44.02 16.875C44.02 10.0405 49.5605 4.5 56.395 4.5C63.2295 4.5 68.77 10.0405 68.77 16.875Z" fill="#0053E2"/>
<path d="M49.5 54C49.5 57.7279 46.4779 60.75 42.75 60.75H29.25C25.5221 60.75 22.5 57.7279 22.5 54V40.5H49.5V54Z" fill="#4DBDF5"/>
<path d="M13.5 58.5C8.52944 58.5 4.5 54.4706 4.5 49.5V40.5H13.5V58.5Z" fill="#4DBDF5"/>
<path d="M67.5 49.5C67.5 54.4706 63.4706 58.5 58.5 58.5V40.5H67.5V49.5Z" fill="#4DBDF5"/>
<path d="M45.3735 11.25C44.5103 12.9381 44.02 14.8488 44.02 16.875C44.02 23.7095 49.5605 29.25 56.395 29.25C57.7696 29.25 59.0906 29.0221 60.3259 28.6084C59.1687 32.2423 55.7674 34.875 51.75 34.875H20.25C15.2794 34.875 11.25 30.8456 11.25 25.875V15.75C11.25 13.2647 13.2647 11.25 15.75 11.25H45.3735Z" fill="#4DBDF5"/>
<path d="M40.5 26.9951C41.7426 26.9951 42.75 28.0025 42.75 29.2451C42.75 30.4878 41.7426 31.4951 40.5 31.4951H31.5C30.2574 31.4951 29.25 30.4878 29.25 29.2451C29.25 28.0025 30.2574 26.9951 31.5 26.9951H40.5Z" fill="white"/>
<path d="M63.6445 13.877L54.5205 22.9893L49.1455 17.6006L50.9492 15.7969L54.5205 19.3672L61.8281 12.0596L63.6445 13.877Z" fill="white"/>
</svg>
