<svg width="72" height="72" viewBox="0 0 72 72" fill="none" xmlns="http://www.w3.org/2000/svg">
<path d="M60.75 6.75H15.75V65.25H60.75V6.75Z" fill="#0053E2"/>
<path d="M47.5875 20.25H31.1625C28.8636 20.25 27 22.1136 27 24.4125V31.8375C27 34.1364 28.8636 36 31.1625 36H47.5875C49.8864 36 51.75 34.1364 51.75 31.8375V24.4125C51.75 22.1136 49.8864 20.25 47.5875 20.25Z" fill="white"/>
<path d="M47.25 24.75H31.5V27H47.25V24.75Z" fill="#4DBDF5"/>
<path d="M47.25 29.25H31.5V31.5H47.25V29.25Z" fill="#4DBDF5"/>
<path d="M20.25 18H11.25V20.25H20.25V18Z" fill="#4DBDF5"/>
<path d="M20.25 11.25H11.25V13.5H20.25V11.25Z" fill="#4DBDF5"/>
<path d="M20.25 24.75H11.25V27H20.25V24.75Z" fill="#4DBDF5"/>
<path d="M20.25 31.5H11.25V33.75H20.25V31.5Z" fill="#4DBDF5"/>
<path d="M20.25 38.25H11.25V40.5H20.25V38.25Z" fill="#4DBDF5"/>
<path d="M20.25 45H11.25V47.25H20.25V45Z" fill="#4DBDF5"/>
<path d="M20.25 51.75H11.25V54H20.25V51.75Z" fill="#4DBDF5"/>
<path d="M20.25 58.5H11.25V60.75H20.25V58.5Z" fill="#4DBDF5"/>
</svg>
