<svg width="72" height="72" viewBox="0 0 72 72" fill="none" xmlns="http://www.w3.org/2000/svg">
<path d="M42.5249 49.5336L49.4774 42.5811L52.5374 45.6411L45.5399 52.5936L42.5249 49.5336Z" fill="#4DBDF5"/>
<path d="M65.0475 58.1516L52.5375 45.6416L45.5625 52.5716L58.095 65.1041C59.0175 66.0266 60.2775 66.5441 61.5825 66.5441C62.8875 66.5441 64.125 66.0266 65.0475 65.1041C65.97 64.1816 66.4875 62.9216 66.4875 61.6391C66.4875 60.3566 65.97 59.0966 65.0475 58.1741V58.1516Z" fill="#0053E2"/>
<path d="M46.3952 42.1086C49.3427 38.2611 51.1202 33.4686 51.1202 28.2711C51.1202 15.6711 40.9052 5.45605 28.3052 5.45605C15.7052 5.45605 5.5127 15.6711 5.5127 28.2711C5.5127 40.8711 15.7277 51.0861 28.3052 51.0861C33.5252 51.0861 38.3177 49.3086 42.1652 46.3836L43.9877 48.2286L48.2402 43.9761L46.4177 42.1536L46.3952 42.1086ZM40.8602 40.8036C33.9977 47.6661 22.8827 47.6661 16.0202 40.8036C15.8852 40.6686 15.7502 40.5336 15.6152 40.3986C9.1577 33.5136 9.2927 22.6911 16.0202 15.9636C22.7477 9.23606 33.5702 9.10105 40.4552 15.5586C40.5902 15.6936 40.7252 15.8286 40.8602 15.9636C47.7227 22.8261 47.7227 33.9411 40.8602 40.8036Z" fill="#0053E2"/>
<path fill-rule="evenodd" clip-rule="evenodd" d="M40.7474 15.8513C47.6099 22.7138 47.6099 33.8288 40.7474 40.6913C33.8849 47.5538 22.7699 47.5538 15.9074 40.6913C15.7724 40.5563 15.6374 40.4213 15.5024 40.2863L40.3424 15.4463C40.4774 15.5813 40.6124 15.7163 40.7474 15.8513Z" fill="white"/>
<path d="M40.1175 15.4011C33.2325 9.12358 22.545 9.32608 15.885 15.9636C9.22499 22.6236 9.04499 33.2886 15.3 40.1961L40.1175 15.4011Z" fill="#4DBDF5"/>
</svg>
