<svg width="72" height="72" viewBox="0 0 72 72" fill="none" xmlns="http://www.w3.org/2000/svg">
<path d="M4.5 53.2575C4.5 54.6479 5.05232 55.9813 6.03548 56.9645C7.01864 57.9477 8.35211 58.5 9.7425 58.5H62.2575C63.6479 58.5 64.9814 57.9477 65.9645 56.9645C66.9477 55.9813 67.5 54.6479 67.5 53.2575V24.75H4.5V53.2575Z" fill="#4DBDF5"/>
<path fill-rule="evenodd" clip-rule="evenodd" d="M13.5 20.25C14.0967 20.25 14.669 20.0129 15.091 19.591C15.5129 19.169 15.75 18.5967 15.75 18C15.75 17.4033 15.5129 16.831 15.091 16.409C14.669 15.9871 14.0967 15.75 13.5 15.75C12.9033 15.75 12.331 15.9871 11.909 16.409C11.4871 16.831 11.25 17.4033 11.25 18C11.25 18.5967 11.4871 19.169 11.909 19.591C12.331 20.0129 12.9033 20.25 13.5 20.25ZM58.5 20.25C59.0967 20.25 59.669 20.0129 60.091 19.591C60.5129 19.169 60.75 18.5967 60.75 18C60.75 17.4033 60.5129 16.831 60.091 16.409C59.669 15.9871 59.0967 15.75 58.5 15.75C57.9033 15.75 57.331 15.9871 56.909 16.409C56.4871 16.831 56.25 17.4033 56.25 18C56.25 18.5967 56.4871 19.169 56.909 19.591C57.331 20.0129 57.9033 20.25 58.5 20.25Z" fill="#4DBDF5"/>
<path fill-rule="evenodd" clip-rule="evenodd" d="M12.15 36.2025C11.2651 36.5367 10.4963 37.1208 9.9371 37.8837C9.37789 38.6466 9.05233 39.5555 9 40.5C9.05233 41.4445 9.37789 42.3534 9.9371 43.1163C10.4963 43.8792 11.2651 44.4633 12.15 44.7975C11.7568 45.6546 11.6239 46.6084 11.7679 47.5404C11.9119 48.4723 12.3264 49.3415 12.96 50.04C13.6585 50.6736 14.5277 51.0881 15.4597 51.2321C16.3916 51.376 17.3453 51.2432 18.2025 50.85C18.5367 51.7349 19.1208 52.5037 19.8837 53.0629C20.6466 53.6221 21.5555 53.9477 22.5 54C23.4445 53.9477 24.3534 53.6221 25.1163 53.0629C25.8792 52.5037 26.4633 51.7349 26.7975 50.85C27.6547 51.2432 28.6084 51.376 29.5403 51.2321C30.4723 51.0881 31.3415 50.6736 32.04 50.04C32.6736 49.3415 33.0881 48.4723 33.2321 47.5404C33.3761 46.6084 33.2432 45.6546 32.85 44.7975C33.7349 44.4633 34.5037 43.8792 35.0629 43.1163C35.6221 42.3534 35.9477 41.4445 36 40.5C35.9477 39.5555 35.6221 38.6466 35.0629 37.8837C34.5037 37.1208 33.7349 36.5367 32.85 36.2025C33.2432 35.3454 33.3761 34.3916 33.2321 33.4596C33.0881 32.5277 32.6736 31.6585 32.04 30.96C31.3415 30.3264 30.4723 29.9119 29.5403 29.768C28.6084 29.624 27.6547 29.7568 26.7975 30.15C26.4633 29.2651 25.8792 28.4963 25.1163 27.9371C24.3534 27.3779 23.4445 27.0523 22.5 27C21.5555 27.0523 20.6466 27.3779 19.8837 27.9371C19.1208 28.4963 18.5367 29.2651 18.2025 30.15C17.3453 29.7568 16.3916 29.624 15.4597 29.768C14.5277 29.9119 13.6585 30.3264 12.96 30.96C12.3264 31.6585 11.9119 32.5277 11.7679 33.4596C11.6239 34.3916 11.7568 35.3454 12.15 36.2025Z" fill="#0053E2"/>
<path fill-rule="evenodd" clip-rule="evenodd" d="M62.2573 11.25C63.6477 11.25 64.981 11.8027 65.9641 12.7859C66.9473 13.769 67.5 15.1023 67.5 16.4927V24.75H4.5V16.4927C4.5 15.1023 5.05273 13.769 6.03589 12.7859C7.01905 11.8027 8.35228 11.25 9.74268 11.25H62.2573ZM13.5 15.75C12.9033 15.75 12.3311 15.9872 11.9092 16.4092C11.4872 16.8311 11.25 17.4033 11.25 18C11.25 18.5967 11.4872 19.1689 11.9092 19.5908C12.3311 20.0128 12.9033 20.25 13.5 20.25C14.0967 20.25 14.6689 20.0128 15.0908 19.5908C15.5128 19.1689 15.75 18.5967 15.75 18C15.75 17.4033 15.5128 16.8311 15.0908 16.4092C14.6689 15.9872 14.0967 15.75 13.5 15.75ZM58.5 15.75C57.9033 15.75 57.3311 15.9872 56.9092 16.4092C56.4872 16.8311 56.25 17.4033 56.25 18C56.25 18.5967 56.4872 19.1689 56.9092 19.5908C57.3311 20.0128 57.9033 20.25 58.5 20.25C59.0967 20.25 59.6689 20.0128 60.0908 19.5908C60.5128 19.1689 60.75 18.5967 60.75 18C60.75 17.4033 60.5128 16.8311 60.0908 16.4092C59.6689 15.9872 59.0967 15.75 58.5 15.75Z" fill="#0053E2"/>
<path d="M22.5 46.125C25.6066 46.125 28.125 43.6066 28.125 40.5C28.125 37.3934 25.6066 34.875 22.5 34.875C19.3934 34.875 16.875 37.3934 16.875 40.5C16.875 43.6066 19.3934 46.125 22.5 46.125Z" fill="white"/>
<path d="M62.2573 39.1948H57.2398L61.3123 35.9323L59.8948 34.1773L53.6398 39.1948H51.5698V37.1023L56.5648 30.8473L54.8098 29.4523L51.5698 33.5023V28.5073H49.3198V33.5248L46.0573 29.4523L44.3023 30.8473L49.3198 37.1248V39.1948H47.2273L40.9723 34.1773L39.5773 35.9323L43.6498 39.1948H38.6323V41.4448H43.6273L39.5773 44.6848L40.9723 46.4398L47.2273 41.4448H49.3198V43.5148L44.3023 49.7698L46.0573 51.1873L49.3198 47.1148V52.1323H51.5698V47.1373L54.8098 51.1873L56.5648 49.7698L51.5698 43.5373V41.4448H53.6398L59.8948 46.4398L61.3123 44.6848L57.2623 41.4448H62.2573V39.1948Z" fill="white"/>
</svg>
