<svg width="72" height="72" viewBox="0 0 72 72" fill="none" xmlns="http://www.w3.org/2000/svg">
<path d="M42.75 54C42.75 61.4558 36.7058 67.5 29.25 67.5C21.7942 67.5 15.75 61.4558 15.75 54C15.75 46.5442 21.7942 40.5 29.25 40.5C36.7058 40.5 42.75 46.5442 42.75 54Z" fill="#0053E2"/>
<path d="M51.9099 15.75L67.8198 31.6599L51.9099 47.5698L36 31.6599L51.9099 15.75Z" fill="#0053E2"/>
<path d="M19.259 5.08855C19.6734 4.30382 20.8266 4.30382 21.241 5.08855L25.3574 12.8832C25.5191 13.1895 25.8209 13.4028 26.1704 13.4578L35.0627 14.8576C35.958 14.9985 36.3143 16.0654 35.6752 16.6913L29.3269 22.9085C29.0775 23.1528 28.9622 23.4979 29.0164 23.8383L30.3957 32.498C30.5346 33.3698 29.6017 34.0292 28.7923 33.6313L20.7525 29.6791C20.4365 29.5238 20.0635 29.5238 19.7475 29.6791L11.7077 33.6313C10.8983 34.0292 9.96538 33.3698 10.1043 32.498L11.4836 23.8383C11.5378 23.4979 11.4226 23.1528 11.1731 22.9085L4.82482 16.6913C4.1857 16.0654 4.54204 14.9985 5.43729 14.8576L14.3296 13.4578C14.6791 13.4028 14.9809 13.1895 15.1426 12.8832L19.259 5.08855Z" fill="#4DBDF5"/>
</svg>
