<svg width="72" height="72" viewBox="0 0 72 72" fill="none" xmlns="http://www.w3.org/2000/svg">
<path d="M69.7501 33.7501V54.0001H2.25006V17.7526C2.24708 17.1933 2.35503 16.639 2.56769 16.1217C2.78034 15.6044 3.09346 15.1344 3.48894 14.7389C3.88442 14.3435 4.35439 14.0303 4.87167 13.8177C5.38896 13.605 5.94328 13.4971 6.50256 13.5001H45.7876C46.6965 13.5004 47.5921 13.7193 48.3988 14.1383C49.2054 14.5573 49.8995 15.1641 50.4226 15.9076L58.6351 27.7651L64.1026 29.7901L67.9051 31.2076C68.4306 31.3997 68.8869 31.7443 69.2156 32.1972C69.5443 32.6501 69.7304 33.1908 69.7501 33.7501Z" fill="#0053E2"/>
<path d="M15.75 58.5C18.2353 58.5 20.25 56.4853 20.25 54C20.25 51.5147 18.2353 49.5 15.75 49.5C13.2647 49.5 11.25 51.5147 11.25 54C11.25 56.4853 13.2647 58.5 15.75 58.5Z" fill="#0053E2"/>
<path d="M56.25 58.5001C58.7353 58.5001 60.75 56.4853 60.75 54.0001C60.75 51.5148 58.7353 49.5001 56.25 49.5001C53.7647 49.5001 51.75 51.5148 51.75 54.0001C51.75 56.4853 53.7647 58.5001 56.25 58.5001Z" fill="#0053E2"/>
<path fill-rule="evenodd" clip-rule="evenodd" d="M69.75 33.75V36H66.9149C66.167 35.9941 65.4516 35.6928 64.9248 35.1617C64.398 34.6307 64.1024 33.913 64.1024 33.165V29.79L67.905 31.2075C68.4305 31.3997 68.8868 31.7442 69.2155 32.1972C69.5442 32.6501 69.7303 33.1908 69.75 33.75Z" fill="#4DBDF5"/>
<path d="M53.4825 29.0475H36V18H44.28C44.7704 18.0015 45.2532 18.1208 45.6879 18.3479C46.1225 18.575 46.4962 18.9033 46.7775 19.305L47.3175 20.0925L53.4825 29.0475Z" fill="#4DBDF5"/>
<path d="M15.75 44.9999C20.7206 44.9999 24.75 49.0294 24.75 53.9999C24.75 58.9705 20.7206 62.9999 15.75 62.9999C10.7794 62.9999 6.75 58.9705 6.75 53.9999C6.75 49.0294 10.7794 44.9999 15.75 44.9999ZM15.75 49.4999C13.2647 49.4999 11.25 51.5146 11.25 53.9999C11.25 56.4852 13.2647 58.4999 15.75 58.4999C18.2353 58.4999 20.25 56.4852 20.25 53.9999C20.25 51.5146 18.2353 49.4999 15.75 49.4999Z" fill="#4DBDF5"/>
<path d="M56.25 44.9999C61.2206 44.9999 65.25 49.0294 65.25 53.9999C65.25 58.9705 61.2206 62.9999 56.25 62.9999C51.2794 62.9999 47.25 58.9705 47.25 53.9999C47.25 49.0294 51.2794 44.9999 56.25 44.9999ZM56.25 49.4999C53.7647 49.4999 51.75 51.5146 51.75 53.9999C51.75 56.4852 53.7647 58.4999 56.25 58.4999C58.7353 58.4999 60.75 56.4852 60.75 53.9999C60.75 51.5146 58.7353 49.4999 56.25 49.4999Z" fill="#4DBDF5"/>
<path fill-rule="evenodd" clip-rule="evenodd" d="M53.4824 29.0478H38.2949L47.3174 20.0928L53.4824 29.0478Z" fill="white"/>
</svg>
