<svg width="72" height="72" viewBox="0 0 72 72" fill="none" xmlns="http://www.w3.org/2000/svg">
<path fill-rule="evenodd" clip-rule="evenodd" d="M13.5 65.25H45L58.5 51.75V29.2288L53.9053 24.6341L55.9935 22.5459L58.5 25.0525V6.75H13.5V65.25Z" fill="#4DBDF5"/>
<path d="M60.8658 31.5947L62.954 29.5065L58.5 25.0525V29.2288L60.8658 31.5947Z" fill="#4DBDF5"/>
<path d="M29.0303 49.5H20.25V45H33.5325L29.0303 49.5Z" fill="white"/>
<path d="M51.75 49.5H42.9697L47.4675 45H51.75V49.5Z" fill="white"/>
<path d="M38.0347 40.5H20.25V36H42.5347L38.0347 40.5Z" fill="white"/>
<path d="M47.0369 31.5H20.25V27H51.5391L47.0369 31.5Z" fill="white"/>
<path d="M42.75 22.5H20.25V18H42.75V22.5Z" fill="white"/>
<path d="M28.4408 50.2375C28.2754 50.5023 28.1406 50.7848 28.0421 51.083L25.5054 58.7523C25.2514 59.5201 25.9808 60.2505 26.7487 59.9956L34.4179 57.4588C34.7162 57.3604 34.9987 57.2246 35.2635 57.0602L28.4408 50.2375Z" fill="white"/>
<path fill-rule="evenodd" clip-rule="evenodd" d="M53.9052 24.6342L55.9934 22.546L58.4999 25.0525V29.2289L53.9052 24.6342Z" fill="white"/>
<path fill-rule="evenodd" clip-rule="evenodd" d="M44.9993 65.2499V51.7499H58.4993L44.9993 65.2499Z" fill="#0053E2"/>
<path d="M35.264 57.0619C35.1918 57.1066 35.3387 57.0215 35.264 57.0619L28.4415 50.2394C28.4415 50.2394 28.5617 49.97 28.9952 49.5362L53.9056 24.6346L60.8665 31.5956L35.9671 56.506C35.6937 56.7794 35.602 56.8803 35.264 57.0619Z" fill="#0053E2"/>
<path d="M58.6868 19.8556C60.2223 18.3202 62.7125 18.3204 64.2481 19.8556L65.6456 21.253C67.1812 22.7886 67.1811 25.2787 65.6456 26.8143L62.9517 29.506L55.993 22.5472L58.6868 19.8556Z" fill="#0053E2"/>
<path d="M26.6376 55.3257L25.5046 58.7523C25.2506 59.5201 25.98 60.2505 26.7478 59.9956L30.1744 58.8626L26.6376 55.3257Z" fill="#0053E2"/>
</svg>
