<svg width="72" height="72" viewBox="0 0 72 72" fill="none" xmlns="http://www.w3.org/2000/svg">
<path fill-rule="evenodd" clip-rule="evenodd" d="M66.6455 24.7949V33.4126H62.5959L60.8623 54.3833C60.7271 55.7328 60.0985 56.9706 59.1089 57.8704C58.1189 58.7703 56.8356 59.2876 55.4856 59.2876H13.1399C11.7904 59.2874 10.5086 58.7699 9.5188 57.8704C8.50652 56.9706 7.89836 55.7105 7.76318 54.3833L6.02954 33.4126H1.95801V24.7949H66.6455ZM14.8955 33.4346V52.5815H19.2153V33.4346H14.8955ZM26.3916 33.4346V52.5815H30.7114V33.4346H26.3916ZM37.9141 33.4346V52.5815H42.2339V33.4346H37.9141ZM49.4102 33.4346V45.6975H53.708V33.4346H49.4102Z" fill="#0053E2"/>
<path fill-rule="evenodd" clip-rule="evenodd" d="M57.1951 45.8777C62.7372 45.8777 67.2299 50.3705 67.23 55.9126C67.23 61.4548 62.7372 65.9475 57.1951 65.9475C51.6529 65.9475 47.1602 61.4547 47.1602 55.9126C47.1602 50.3705 51.653 45.8777 57.1951 45.8777ZM56.4282 50.6238C55.8663 50.7362 55.3493 50.9168 54.967 51.2764C54.4272 51.7712 54.1344 52.4916 54.1343 53.4363C54.1343 54.1788 54.2922 54.7198 54.5847 55.0798C54.8771 55.4395 55.2595 55.6865 55.7317 55.8665C56.0467 55.979 56.3395 56.0692 56.6545 56.1367C56.9695 56.2042 57.2618 56.2494 57.5093 56.3169C57.7792 56.3844 57.9824 56.4961 58.1399 56.6311C58.2973 56.7661 58.3859 56.9694 58.386 57.2617C58.386 57.4863 58.342 57.6888 58.23 57.8462C58.1176 58.0035 57.9597 58.1166 57.7576 58.2065C57.5551 58.274 57.3293 58.3186 57.0369 58.3186C56.3394 58.3186 55.7532 58.2079 55.3032 57.9604C54.8312 57.7356 54.4722 57.487 54.2024 57.2397V59.1975C54.4724 59.4448 54.8552 59.6466 55.3274 59.804C55.5971 59.8938 55.889 59.9392 56.2261 59.9841V61.4255H57.9136V59.9622C58.2286 59.9172 58.5225 59.8269 58.7925 59.6919C59.2643 59.4671 59.624 59.13 59.8713 58.7031C60.1413 58.2531 60.2537 57.7115 60.2537 57.0815C60.2536 56.5868 60.187 56.1594 60.0295 55.8445V55.8225C59.8947 55.5079 59.7146 55.2379 59.4451 55.0579C59.1977 54.8555 58.9051 54.6962 58.5903 54.5613C58.2753 54.4488 57.9583 54.3827 57.6433 54.3152C57.3286 54.2478 57.0359 54.2025 56.7886 54.135C56.5193 54.0677 56.3174 53.9773 56.1602 53.8428C56.0027 53.7078 55.9338 53.5261 55.9338 53.2561C55.934 52.8966 56.0469 52.6263 56.2942 52.4915C56.5415 52.3341 56.8565 52.2674 57.261 52.2673C57.711 52.2673 58.0946 52.313 58.4321 52.4255C58.7694 52.538 59.062 52.6729 59.2869 52.8079C59.534 52.9652 59.7364 53.0998 59.8713 53.2122V51.2324C59.6463 51.0299 59.3084 50.8489 58.8584 50.7139C58.6337 50.6465 58.3853 50.6028 58.1157 50.5579V49.1406H56.4282V50.6238Z" fill="#0053E2"/>
<path d="M30.0176 7.15373L24.8426 3.26123L8.62012 24.8612H16.6976L30.0176 7.13123V7.15373Z" fill="#4DBDF5"/>
<path d="M51.8648 24.7943H60.0323L43.8098 3.23926L38.6348 7.13176L51.8648 24.7943Z" fill="#4DBDF5"/>
<path fill-rule="evenodd" clip-rule="evenodd" d="M57.1951 43.0647C64.2905 43.0647 70.0424 48.8167 70.0425 55.9121C70.0425 63.0076 64.2905 68.7595 57.1951 68.7595C50.0996 68.7595 44.3477 63.0076 44.3477 55.9121C44.3477 48.8167 50.0997 43.0647 57.1951 43.0647ZM57.1951 45.8772C51.653 45.8772 47.1602 50.37 47.1602 55.9121C47.1602 61.4543 51.6529 65.947 57.1951 65.947C62.7372 65.947 67.23 61.4543 67.23 55.9121C67.2299 50.37 62.7372 45.8772 57.1951 45.8772Z" fill="#4DBDF5"/>
<path d="M60.0073 55.8221C59.8723 55.5071 59.6923 55.2371 59.4223 55.0571C59.1748 54.8546 58.8823 54.6971 58.5673 54.5621C58.2523 54.4496 57.9373 54.3821 57.6223 54.3146C57.3073 54.2471 57.0148 54.2021 56.7673 54.1346C56.4973 54.0671 56.2948 53.9771 56.1373 53.8421C55.9798 53.7071 55.9123 53.5271 55.9123 53.2571C55.9123 52.8971 56.0248 52.6271 56.2723 52.4921C56.5198 52.3346 56.8348 52.2671 57.2398 52.2671C57.6898 52.2671 58.0723 52.3121 58.4098 52.4246C58.7473 52.5371 59.0398 52.6721 59.2648 52.8071C59.5123 52.9646 59.7148 53.0996 59.8498 53.2121V51.2321C59.6248 51.0296 59.2873 50.8496 58.8373 50.7146C58.6123 50.6471 58.3648 50.6021 58.0948 50.5571V49.1396H56.4073V50.6246C55.8448 50.7371 55.3273 50.9171 54.9448 51.2771C54.4048 51.7721 54.1123 52.4921 54.1123 53.4371C54.1123 54.1796 54.2698 54.7196 54.5623 55.0796C54.8548 55.4396 55.2373 55.6871 55.7098 55.8671C56.0248 55.9796 56.3173 56.0696 56.6323 56.1371C56.9473 56.2046 57.2398 56.2496 57.4873 56.3171C57.7573 56.3846 57.9598 56.4971 58.1173 56.6321C58.2748 56.7671 58.3648 56.9696 58.3648 57.2621C58.3648 57.4871 58.3198 57.6896 58.2073 57.8471C58.0948 58.0046 57.9373 58.1171 57.7348 58.2071C57.5323 58.2746 57.3073 58.3196 57.0148 58.3196C56.3173 58.3196 55.7323 58.2071 55.2823 57.9596C54.8098 57.7346 54.4498 57.4871 54.1798 57.2396V59.1971C54.4498 59.4446 54.8323 59.6471 55.3048 59.8046C55.5748 59.8946 55.8673 59.9396 56.2048 59.9846V61.4246H57.8923V59.9621C58.2073 59.9171 58.4998 59.8271 58.7698 59.6921C59.2423 59.4671 59.6023 59.1296 59.8498 58.7021C60.1198 58.2521 60.2323 57.7121 60.2323 57.0821C60.2323 56.5871 60.1648 56.1596 60.0073 55.8446V55.8221Z" fill="white"/>
</svg>
