<svg width="72" height="72" viewBox="0 0 72 72" fill="none" xmlns="http://www.w3.org/2000/svg">
<path d="M36 4.5C42.2657 4.5 48.2753 6.98864 52.7058 11.4192C57.1364 15.8497 59.625 21.8593 59.625 28.125C59.625 51.75 36 67.5 36 67.5C36 67.5 12.375 51.75 12.375 28.125C12.375 21.8593 14.8636 15.8497 19.2942 11.4192C23.7247 6.98864 29.7343 4.5 36 4.5ZM36 15.75C29.1655 15.75 23.625 21.2905 23.625 28.125C23.625 34.9595 29.1655 40.5 36 40.5C42.8345 40.5 48.375 34.9595 48.375 28.125C48.375 21.2905 42.8345 15.75 36 15.75Z" fill="#0053E2"/>
<path d="M36 40.5C42.8345 40.5 48.375 34.9595 48.375 28.125C48.375 21.2905 42.8345 15.75 36 15.75C29.1655 15.75 23.625 21.2905 23.625 28.125C23.625 34.9595 29.1655 40.5 36 40.5Z" fill="#4DBDF5"/>
</svg>
