<svg width="72" height="72" viewBox="0 0 72 72" fill="none" xmlns="http://www.w3.org/2000/svg">
<path d="M9 38.4531V56.6556L20.25 56.6106V42.8406H51.75V56.4981L63 56.4531V38.4531H9Z" fill="#4DBDF5"/>
<path d="M51.75 41.4897H20.25V42.9297H51.75V41.4897Z" fill="#0053E2"/>
<path d="M30.7125 42.9522H29.25V56.4522H30.7125V42.9522Z" fill="#0053E2"/>
<path d="M42.75 42.9522H41.2875V56.4522H42.75V42.9522Z" fill="#0053E2"/>
<path d="M9 15.3447V38.4522H63V15.4347L9 15.3447Z" fill="#0053E2"/>
<path d="M34.3542 28.6195C34.1742 28.822 32.0817 30.307 31.8792 30.442C31.4067 30.712 30.7992 30.5544 30.5067 30.0819C30.2367 29.6094 30.3942 29.002 30.8667 28.732C31.0692 28.6195 33.4092 27.5395 33.6792 27.4945C33.9717 27.427 34.2867 27.5619 34.4442 27.8319C34.6017 28.1019 34.5567 28.417 34.3542 28.6645V28.6195Z" fill="white"/>
<path d="M34.4442 26.0095C34.2867 26.2795 33.9942 26.4144 33.6792 26.3469C33.4092 26.3019 31.0692 25.222 30.8667 25.1095C30.3942 24.8395 30.2367 24.232 30.5067 23.7595C30.7767 23.287 31.3842 23.1295 31.8792 23.3995C32.0817 23.512 34.1742 25.0194 34.3542 25.2219C34.5567 25.4469 34.6017 25.7845 34.4442 26.0545V26.0095Z" fill="white"/>
<path d="M35.9967 33.232C35.4567 33.232 35.0067 32.782 35.0067 32.242C35.0067 31.9945 35.2542 29.4295 35.3217 29.182C35.4117 28.8895 35.6817 28.687 35.9967 28.687C36.3117 28.687 36.5592 28.8895 36.6717 29.182C36.7617 29.4295 37.0092 31.9945 37.0092 32.242C37.0092 32.782 36.5592 33.232 36.0192 33.232H35.9967Z" fill="white"/>
<path d="M36.6717 24.6145C36.5817 24.907 36.3117 25.1095 35.9967 25.1095C35.6817 25.1095 35.4342 24.907 35.3217 24.6145C35.2317 24.367 35.0067 21.802 35.0067 21.5545C35.0067 21.0145 35.4567 20.5645 35.9967 20.5645C36.5367 20.5645 36.9867 21.0145 36.9867 21.5545C36.9867 21.802 36.7392 24.367 36.6492 24.6145H36.6717Z" fill="white"/>
<path d="M41.4867 30.0595C41.2167 30.532 40.6092 30.6895 40.1367 30.4195C39.9342 30.307 37.8417 28.7994 37.6617 28.5969C37.4592 28.3719 37.4142 28.0344 37.5717 27.7644C37.7292 27.4944 38.0217 27.3595 38.3367 27.427C38.6067 27.472 40.9467 28.552 41.1492 28.6645C41.6217 28.9345 41.7792 29.5419 41.5092 30.0144V30.0595H41.4867Z" fill="white"/>
<path d="M41.1267 25.087C40.9242 25.1995 38.5842 26.2795 38.3142 26.3245C38.0217 26.392 37.7067 26.257 37.5492 25.987C37.3917 25.717 37.4367 25.402 37.6392 25.1545C37.8192 24.952 39.9117 23.467 40.1142 23.332C40.5867 23.062 41.1942 23.2195 41.4642 23.692C41.7342 24.1645 41.5767 24.772 41.1042 25.042V25.087H41.1267Z" fill="white"/>
</svg>
