<svg width="72" height="72" viewBox="0 0 72 72" fill="none" xmlns="http://www.w3.org/2000/svg">
<path d="M65.25 40.5V49.5C65.25 50.7426 64.2426 51.75 63 51.75H9C7.75736 51.75 6.75 50.7426 6.75 49.5V18C6.75 16.7574 7.75736 15.75 9 15.75H27L65.25 40.5Z" fill="#0053E2"/>
<path d="M47.25 15.75L65.25 27V31.5L40.5 15.75H47.25Z" fill="#0053E2"/>
<path d="M63 15.75C64.2426 15.75 65.25 16.7574 65.25 18V22.5L54 15.75H63Z" fill="#0053E2"/>
<path fill-rule="evenodd" clip-rule="evenodd" d="M63 58.5H60.75L58.5 54H13.5L11.25 58.5H9V54C6.51472 54 4.5 51.9853 4.5 49.5V18C4.5 15.5147 6.51472 13.5 9 13.5H63C65.4853 13.5 67.5 15.5147 67.5 18V49.5C67.5 51.9853 65.4853 54 63 54V58.5ZM9 15.75C7.75736 15.75 6.75 16.7574 6.75 18V49.5C6.75 50.7426 7.75736 51.75 9 51.75H63C64.2426 51.75 65.25 50.7426 65.25 49.5V18C65.25 16.7574 64.2426 15.75 63 15.75H9Z" fill="#4DBDF5"/>
<path d="M65.25 31.5V40.5L27 15.75H40.5L65.25 31.5Z" fill="white"/>
<path d="M65.25 22.5V27L47.25 15.75H54L65.25 22.5Z" fill="white"/>
</svg>
