<svg width="72" height="72" viewBox="0 0 72 72" fill="none" xmlns="http://www.w3.org/2000/svg">
<path d="M42.75 57.376H60.75V25.876H42.75V57.376Z" fill="#4DBDF5"/>
<path d="M27.2106 33.2559C24.9156 33.2559 22.823 34.2009 21.3155 35.6859L19.9431 34.3134L18.4131 40.0509L24.1506 38.5209L22.7781 37.1483C23.9256 36.0233 25.4781 35.3259 27.2106 35.3259C30.6981 35.3259 33.5106 38.1384 33.5106 41.6259C33.5106 45.1134 30.6981 47.9259 27.2106 47.9259C25.4556 47.9259 23.8805 47.2059 22.733 46.0584L21.2706 47.5209C22.7781 49.0509 24.8931 49.9959 27.2106 49.9959C31.8456 49.9959 35.5806 46.2384 35.5806 41.6259C35.5806 37.0134 31.8231 33.2559 27.2106 33.2559Z" fill="white"/>
<path d="M47.25 14.6485L42.75 25.876H60.75L65.25 14.6485H47.25Z" fill="#0053E2"/>
<path d="M6.75 14.626L11.25 25.876V57.376H42.75V25.876L38.25 14.626H6.75ZM27.2026 49.996C24.8851 49.996 22.77 49.051 21.2625 47.521L22.725 46.0585C23.8725 47.206 25.4476 47.926 27.2026 47.926C30.6901 47.926 33.5025 45.1135 33.5025 41.626C33.5025 38.1385 30.6901 35.326 27.2026 35.326C25.4926 35.326 23.9176 36.0235 22.7701 37.1485L24.1425 38.521L18.4051 40.051L19.935 34.3135L21.3075 35.686C22.815 34.201 24.8851 33.256 27.2026 33.256C31.8151 33.256 35.5726 37.0135 35.5726 41.626C35.5726 46.2385 31.8376 49.996 27.2026 49.996Z" fill="#0053E2"/>
</svg>
