<svg width="72" height="72" viewBox="0 0 72 72" fill="none" xmlns="http://www.w3.org/2000/svg">
<path fill-rule="evenodd" clip-rule="evenodd" d="M36 4.5C53.3925 4.5 67.5 18.6075 67.5 36C67.5 53.3925 53.3925 67.5 36 67.5C18.6075 67.5 4.5 53.3925 4.5 36C4.5 18.6075 18.6075 4.5 36 4.5ZM36 13.5C23.6025 13.5 13.5 23.6025 13.5 36C13.5 48.3975 23.6025 58.5 36 58.5C48.3975 58.5 58.5 48.3975 58.5 36C58.5 23.6025 48.3975 13.5 36 13.5Z" fill="#0053E2"/>
<path fill-rule="evenodd" clip-rule="evenodd" d="M36 13.5C48.3975 13.5 58.5 23.6025 58.5 36C58.5 48.3975 48.3975 58.5 36 58.5C23.6025 58.5 13.5 48.3975 13.5 36C13.5 23.6025 23.6025 13.5 36 13.5ZM37.9578 44.4353C37.0801 42.9291 34.9216 42.9292 34.0664 44.4353H34.0422L30.7815 50.1064C30.6569 50.3254 30.5801 50.5534 30.5442 50.781C32.2442 51.4078 34.0828 51.75 36.0022 51.75C37.9195 51.75 39.7552 51.4065 41.4536 50.781C41.4177 50.5536 41.3452 50.3252 41.2207 50.1064L37.9578 44.4353ZM21.1729 38.5422C20.9235 38.5423 20.6909 38.5876 20.4785 38.6675C21.1224 42.4514 23.1109 45.7731 25.9387 48.1223C26.1136 47.978 26.2709 47.8017 26.3936 47.5862L29.6565 41.9392C30.5339 40.4319 29.4309 38.5646 27.6987 38.5642V38.5422H21.1729ZM44.2815 38.5422C42.5491 38.5422 41.4686 40.4081 42.3457 41.8931H42.3237L45.6086 47.5862C45.7327 47.8005 45.8892 47.9775 46.0657 48.1201C48.8939 45.7701 50.8806 42.4482 51.5237 38.6631C51.3172 38.5862 51.0921 38.5423 50.8513 38.5422H44.2815ZM36 33.75C34.7577 33.7504 33.75 34.7576 33.75 36C33.7506 37.2419 34.7581 38.2496 36 38.25C37.2423 38.25 38.2494 37.2422 38.25 36C38.25 34.7574 37.2426 33.75 36 33.75ZM25.9365 23.8799C23.111 26.2281 21.123 29.547 20.4785 33.3281C20.6911 33.4081 20.9233 33.4555 21.1729 33.4556H27.7427C29.4752 33.4556 30.556 31.5881 29.6785 30.0806V30.1047L26.3936 24.4116C26.2698 24.1979 26.1123 24.0224 25.9365 23.8799ZM46.0525 23.8667C45.8733 24.012 45.7146 24.1934 45.5867 24.4116L42.3237 30.0806C41.4462 31.5881 42.549 33.4556 44.2815 33.4556H50.8052C51.0632 33.4556 51.3031 33.4046 51.5215 33.3193C50.8742 29.5351 48.8839 26.2138 46.0525 23.8667ZM36.0022 20.25C34.083 20.25 32.244 20.5902 30.5442 21.2168C30.5785 21.4449 30.6552 21.6732 30.7815 21.8914L34.0664 27.5603C34.9214 29.0678 37.1028 29.0678 37.9578 27.5603L41.2427 21.8914C41.3673 21.6761 41.4419 21.4506 41.4778 21.2256C39.7728 20.5946 37.9283 20.25 36.0022 20.25Z" fill="#4DBDF5"/>
<path d="M34.0664 44.4353C34.9216 42.9292 37.0801 42.9291 37.9578 44.4353L41.2207 50.1064C41.3452 50.3252 41.4177 50.5536 41.4536 50.781C39.7552 51.4065 37.9195 51.75 36.0022 51.75C34.0828 51.75 32.2442 51.4078 30.5442 50.781C30.5801 50.5534 30.6569 50.3254 30.7815 50.1064L34.0422 44.4353H34.0664Z" fill="white"/>
<path d="M27.6987 38.5642C29.4309 38.5646 30.5339 40.4319 29.6565 41.9392L26.3936 47.5862C26.2709 47.8017 26.1136 47.978 25.9387 48.1223C23.1109 45.7731 21.1224 42.4514 20.4785 38.6675C20.6909 38.5876 20.9235 38.5423 21.1729 38.5422H27.6987V38.5642Z" fill="white"/>
<path d="M50.8513 38.5422C51.0921 38.5423 51.3172 38.5862 51.5237 38.6631C50.8806 42.4482 48.8939 45.7701 46.0657 48.1201C45.8892 47.9775 45.7327 47.8005 45.6086 47.5862L42.3237 41.8931H42.3457C41.4686 40.4081 42.5491 38.5422 44.2815 38.5422H50.8513Z" fill="white"/>
<path d="M36 33.75C37.2426 33.75 38.25 34.7574 38.25 36C38.2494 37.2422 37.2423 38.25 36 38.25C34.7581 38.2496 33.7506 37.2419 33.75 36C33.75 34.7576 34.7577 33.7504 36 33.75Z" fill="white"/>
<path d="M25.9365 23.8799C26.1123 24.0224 26.2698 24.1979 26.3936 24.4116L29.6785 30.1047V30.0806C30.556 31.5881 29.4752 33.4556 27.7427 33.4556H21.1729C20.9233 33.4555 20.6911 33.4081 20.4785 33.3281C21.123 29.547 23.111 26.2281 25.9365 23.8799Z" fill="white"/>
<path d="M46.0525 23.8667C48.8839 26.2138 50.8742 29.5351 51.5215 33.3193C51.3031 33.4046 51.0632 33.4556 50.8052 33.4556H44.2815C42.549 33.4556 41.4462 31.5881 42.3237 30.0806L45.5867 24.4116C45.7146 24.1934 45.8733 24.012 46.0525 23.8667Z" fill="white"/>
<path d="M36.0022 20.25C37.9283 20.25 39.7728 20.5946 41.4778 21.2256C41.4419 21.4506 41.3673 21.6761 41.2427 21.8914L37.9578 27.5603C37.1028 29.0678 34.9214 29.0678 34.0664 27.5603L30.7815 21.8914C30.6552 21.6732 30.5785 21.4449 30.5442 21.2168C32.244 20.5902 34.083 20.25 36.0022 20.25Z" fill="white"/>
</svg>
