<svg width="72" height="72" viewBox="0 0 72 72" fill="none" xmlns="http://www.w3.org/2000/svg">
<path d="M53.9496 11.25C56.5532 11.2522 59.0726 12.1774 61.0578 13.8604C63.0426 15.5432 64.3651 17.8754 64.791 20.4412L69.6052 49.2715C70.0147 51.622 69.5509 54.0427 68.3022 56.0764C67.0535 58.1096 65.1047 59.6168 62.8222 60.3171C60.5393 61.0176 58.0791 60.8627 55.903 59.8799C53.7271 58.897 51.9847 57.1548 51.0031 54.98L44.9518 42.7104H29.2084L23.2473 54.98C22.2656 57.1548 20.5233 58.897 18.3474 59.8799C16.1713 60.8627 13.711 61.0176 11.4282 60.3171C9.14567 59.6168 7.19691 58.1096 5.94818 56.0764C4.69948 54.0427 4.23564 51.622 4.64521 49.2715L9.45941 20.4412C9.88273 17.8902 11.1931 15.57 13.1596 13.8889C15.1261 12.208 17.6227 11.2733 20.2106 11.25H53.9496ZM49.9045 30.4189C49.468 30.3321 49.0148 30.3761 48.6037 30.5464C48.1929 30.7166 47.8423 31.0051 47.5952 31.3748C47.3479 31.7448 47.215 32.18 47.215 32.625C47.215 33.2217 47.4523 33.7939 47.8742 34.2158C48.2962 34.6378 48.8683 34.875 49.465 34.875C49.91 34.875 50.3453 34.7421 50.7153 34.4949C51.0849 34.2477 51.3734 33.8971 51.5436 33.4863C51.7139 33.0752 51.7579 32.622 51.6711 32.1855C51.5842 31.7493 51.3704 31.3487 51.0558 31.0342C50.7413 30.7197 50.3407 30.5058 49.9045 30.4189ZM22.5002 24.75H18.0002V29.25H22.5002V33.75H27.0002V29.25H31.5002V24.75H27.0002V20.25H22.5002V24.75ZM43.84 24.75C43.2433 24.75 42.6712 24.9872 42.2492 25.4092C41.8273 25.8311 41.59 26.4033 41.59 27C41.59 27.445 41.7229 27.8802 41.9702 28.2502C42.2173 28.6199 42.5679 28.9084 42.9787 29.0786C43.3898 29.2489 43.843 29.2929 44.2795 29.2061C44.7157 29.1192 45.1163 28.9053 45.4308 28.5908C45.7454 28.2763 45.9592 27.8757 46.0461 27.4395C46.1329 27.003 46.0889 26.5498 45.9186 26.1387C45.7484 25.7279 45.4599 25.3773 45.0903 25.1301C44.7203 24.8829 44.285 24.75 43.84 24.75ZM55.09 24.75C54.4933 24.75 53.9212 24.9872 53.4992 25.4092C53.0773 25.8311 52.84 26.4033 52.84 27C52.84 27.445 52.9729 27.8802 53.2202 28.2502C53.4673 28.6199 53.8179 28.9084 54.2287 29.0786C54.6398 29.2489 55.093 29.2929 55.5295 29.2061C55.9657 29.1192 56.3663 28.9053 56.6808 28.5908C56.9954 28.2763 57.2092 27.8757 57.2961 27.4395C57.3829 27.003 57.3389 26.5498 57.1686 26.1387C56.9984 25.7279 56.7099 25.3773 56.3403 25.1301C55.9703 24.8829 55.535 24.75 55.09 24.75ZM49.9045 19.1689C49.468 19.0821 49.0148 19.1261 48.6037 19.2964C48.1929 19.4666 47.8423 19.7551 47.5952 20.1248C47.3479 20.4948 47.215 20.93 47.215 21.375C47.215 21.9717 47.4523 22.5439 47.8742 22.9658C48.2962 23.3878 48.8683 23.625 49.465 23.625C49.91 23.625 50.3453 23.4921 50.7153 23.2449C51.0849 22.9977 51.3734 22.6471 51.5436 22.2363C51.7139 21.8252 51.7579 21.372 51.6711 20.9355C51.5842 20.4993 51.3704 20.0987 51.0558 19.7842C50.7413 19.4697 50.3407 19.2558 49.9045 19.1689Z" fill="#0053E2"/>
<path fill-rule="evenodd" clip-rule="evenodd" d="M27 20.25H22.5V24.75H18V29.25H22.5V33.75H27V29.25H31.5V24.75H27V20.25Z" fill="#4DBDF5"/>
<path fill-rule="evenodd" clip-rule="evenodd" d="M49.4648 23.625C49.9099 23.625 50.3449 23.493 50.7149 23.2458C51.0849 22.9986 51.3733 22.6472 51.5436 22.236C51.7139 21.8249 51.7584 21.3725 51.6716 20.936C51.5848 20.4996 51.3705 20.0987 51.0558 19.784C50.7412 19.4693 50.3403 19.2551 49.9038 19.1682C49.4673 19.0814 49.0149 19.126 48.6038 19.2963C48.1927 19.4666 47.8413 19.755 47.594 20.125C47.3468 20.495 47.2148 20.93 47.2148 21.375C47.2148 21.9717 47.4519 22.544 47.8739 22.966C48.2958 23.3879 48.8681 23.625 49.4648 23.625ZM49.4648 34.875C49.9099 34.875 50.3449 34.743 50.7149 34.4958C51.0849 34.2486 51.3733 33.8972 51.5436 33.486C51.7139 33.0749 51.7584 32.6225 51.6716 32.186C51.5848 31.7496 51.3705 31.3487 51.0558 31.034C50.7412 30.7193 50.3403 30.5051 49.9038 30.4182C49.4673 30.3314 49.0149 30.376 48.6038 30.5463C48.1927 30.7166 47.8413 31.005 47.594 31.375C47.3468 31.745 47.2148 32.18 47.2148 32.625C47.2148 33.2217 47.4519 33.794 47.8739 34.216C48.2958 34.6379 48.8681 34.875 49.4648 34.875Z" fill="white"/>
<path fill-rule="evenodd" clip-rule="evenodd" d="M52.8398 27C52.8398 27.445 52.9718 27.88 53.219 28.25C53.4663 28.62 53.8177 28.9084 54.2288 29.0787C54.6399 29.249 55.0923 29.2936 55.5288 29.2068C55.9653 29.12 56.3662 28.9057 56.6808 28.591C56.9955 28.2763 57.2098 27.8754 57.2966 27.439C57.3834 27.0025 57.3389 26.5501 57.1686 26.139C56.9983 25.7278 56.7099 25.3764 56.3399 25.1292C55.9699 24.882 55.5349 24.75 55.0898 24.75C54.4931 24.75 53.9208 24.9871 53.4989 25.409C53.0769 25.831 52.8398 26.4033 52.8398 27ZM41.5898 27C41.5898 27.445 41.7218 27.88 41.969 28.25C42.2163 28.62 42.5677 28.9084 42.9788 29.0787C43.3899 29.249 43.8423 29.2936 44.2788 29.2068C44.7153 29.12 45.1162 28.9057 45.4308 28.591C45.7455 28.2763 45.9598 27.8754 46.0466 27.439C46.1334 27.0025 46.0889 26.5501 45.9186 26.139C45.7483 25.7278 45.4599 25.3764 45.0899 25.1292C44.7199 24.882 44.2849 24.75 43.8398 24.75C43.2431 24.75 42.6708 24.9871 42.2489 25.409C41.8269 25.831 41.5898 26.4033 41.5898 27Z" fill="white"/>
</svg>
