<svg width="72" height="72" viewBox="0 0 72 72" fill="none" xmlns="http://www.w3.org/2000/svg">
<path d="M30.6865 17.7193C30.574 17.2018 30.4165 16.6842 30.1915 16.2117C29.539 14.7267 28.4591 13.5118 27.1541 12.6118C25.8266 14.7493 24.9491 17.3817 24.7466 20.2617H47.2241C46.8866 15.4242 44.6816 11.2842 41.5316 9.01175H30.6641V17.7193H30.6865Z" fill="#4DBDF5"/>
<path d="M22.1591 20.2617C22.3616 16.9767 23.3291 13.9617 24.8366 11.4417C24.6791 11.3967 24.5666 11.3068 24.4091 11.2843V7.86426H20.0441V11.2843C17.4341 11.9593 15.2966 13.7817 14.2391 16.2117C13.7666 17.2917 13.4966 18.4618 13.4966 19.7218V20.2617H22.1591Z" fill="#4DBDF5"/>
<path d="M45.4016 9.01175C47.9216 11.8467 49.5866 15.8292 49.8566 20.2617H58.4966V9.01175H45.379H45.4016Z" fill="#4DBDF5"/>
<path d="M31.8182 45.2142L30.5582 39.5667H28.3533L27.0933 45.2142L25.9683 39.5667H23.7183L25.5632 48.2067H28.1732L29.4332 42.4692L30.7157 48.2067H33.2808L35.1033 39.5667H32.9432L31.8182 45.2142Z" fill="white"/>
<path d="M39.4457 48.6342C39.0857 48.6342 38.7707 48.8592 38.6582 49.2192C38.5682 49.5117 38.2758 52.5492 38.2758 52.8417C38.2758 53.4942 38.7932 54.0117 39.4457 54.0117C40.0982 54.0117 40.6157 53.4942 40.6157 52.8417C40.6157 52.5492 40.3233 49.5342 40.2333 49.2192C40.1208 48.8817 39.8057 48.6342 39.4457 48.6342Z" fill="white"/>
<path d="M39.4457 39.1392C39.8057 39.1392 40.1208 38.9142 40.2333 38.5542C40.3233 38.2617 40.6157 35.2242 40.6157 34.9317C40.6157 34.2792 40.0982 33.7617 39.4457 33.7617C38.7932 33.7617 38.2758 34.2792 38.2758 34.9317C38.2758 35.2242 38.5682 38.2392 38.6582 38.5542C38.7707 38.8917 39.0857 39.1392 39.4457 39.1392Z" fill="white"/>
<path d="M44.3507 41.8842C44.6657 41.8167 47.4107 40.5342 47.6582 40.3767C48.2207 40.0392 48.4007 39.3192 48.0857 38.7567V38.8017C47.7482 38.2392 47.0282 38.0592 46.4657 38.3742C46.2182 38.5092 43.7657 40.2867 43.5407 40.5342C43.2932 40.8042 43.2707 41.2092 43.4507 41.5017C43.6307 41.7942 43.9907 41.9742 44.3507 41.8842Z" fill="white"/>
<path d="M47.7032 47.2842C47.4557 47.1492 44.6882 45.8892 44.3732 45.8217C44.0132 45.7542 43.6532 45.9117 43.4732 46.2267C43.2932 46.5192 43.3382 46.9017 43.5857 47.1717C43.8107 47.4192 46.2857 49.1742 46.5332 49.3092C47.0957 49.6467 47.7932 49.4442 48.1307 48.8817C48.4682 48.3192 48.2657 47.5992 47.7032 47.2842Z" fill="white"/>
<path d="M40.3682 40.2192H38.5007V42.9417H35.7782V44.8092H38.5007V47.5317H40.3682V44.8092H43.0907V42.9417H40.3682V40.2192Z" fill="white"/>
<path d="M49.8566 20.2617C49.3166 11.4642 43.3091 4.51172 35.9966 4.51172C28.6841 4.51172 22.6991 11.4642 22.1366 20.2617H13.4966V67.4892H58.4966V20.2617H49.8566ZM35.9966 7.12173C41.8916 7.12173 46.7291 12.9042 47.2466 20.2617H24.7691C25.2866 12.9042 30.1241 7.12173 36.0191 7.12173H35.9966ZM40.6091 34.9317C40.6091 35.2242 40.3166 38.2617 40.2266 38.5542C40.1141 38.9142 39.7991 39.1392 39.4391 39.1392C39.0791 39.1392 38.7641 38.8917 38.6516 38.5542C38.5616 38.2392 38.2691 35.2242 38.2691 34.9317C38.2691 34.2792 38.7866 33.7617 39.4391 33.7617C40.0916 33.7617 40.6091 34.2792 40.6091 34.9317ZM33.2741 48.2067H30.7091L29.4266 42.4692L28.1666 48.2067H25.5565L23.7116 39.5667H25.9616L27.0866 45.2142L28.3466 39.5667H30.5516L31.8115 45.2142L32.9365 39.5667H35.0966L33.2741 48.2067ZM39.4391 54.0117C38.7866 54.0117 38.2691 53.4942 38.2691 52.8417C38.2691 52.5492 38.5616 49.5117 38.6516 49.2192C38.7641 48.8592 39.0791 48.6342 39.4391 48.6342C39.7991 48.6342 40.1141 48.8817 40.2266 49.2192C40.3166 49.5342 40.6091 52.5492 40.6091 52.8417C40.6091 53.4942 40.0916 54.0117 39.4391 54.0117ZM43.0841 44.8092H40.3616V47.5317H38.494V44.8092H35.7716V42.9417H38.494V40.2192H40.3616V42.9417H43.0841V44.8092ZM43.5341 40.5342C43.7591 40.2867 46.2116 38.5092 46.4591 38.3742C47.0216 38.0592 47.7416 38.2392 48.0791 38.8017V38.7567C48.3941 39.3192 48.2141 40.0392 47.6516 40.3767C47.4041 40.5342 44.6591 41.8167 44.3441 41.8842C43.9841 41.9742 43.6241 41.7942 43.4441 41.5017C43.2641 41.2092 43.2866 40.8042 43.5341 40.5342ZM48.124 48.8817C47.7865 49.4442 47.0891 49.6467 46.5266 49.3092C46.2791 49.1742 43.8041 47.4192 43.5791 47.1717C43.3316 46.9017 43.2866 46.5192 43.4666 46.2042C43.6466 45.9117 44.0066 45.7542 44.3666 45.8217C44.6816 45.8892 47.449 47.1492 47.6965 47.2842C48.259 47.5992 48.4615 48.3192 48.124 48.8817Z" fill="#0053E2"/>
</svg>
