<svg width="72" height="72" viewBox="0 0 72 72" fill="none" xmlns="http://www.w3.org/2000/svg">
<path d="M67.5 51.761V27H4.5V51.761C4.5 55.4827 7.52208 58.4998 11.25 58.4998H60.75C64.4779 58.4998 67.5 55.4827 67.5 51.761Z" fill="#0053E2"/>
<path d="M60.75 13.5H11.25C7.52208 13.5 4.5 16.5221 4.5 20.25H67.5C67.5 16.5221 64.4779 13.5 60.75 13.5Z" fill="#0053E2"/>
<path d="M67.5 20.25H4.5V27H67.5V20.25Z" fill="#4DBDF5"/>
<path fill-rule="evenodd" clip-rule="evenodd" d="M34.4251 33.1424C34.4251 32.2649 35.1901 31.5674 36.0451 31.5674C36.9001 31.5674 37.6201 32.2874 37.6201 33.1424C37.6201 33.5249 37.2376 37.5974 37.1026 38.0024C36.9451 38.4749 36.5176 38.7674 36.0226 38.7674C35.5276 38.7674 35.1001 38.4524 34.9426 38.0024C34.8076 37.5974 34.4251 33.5249 34.4251 33.1424ZM44.1901 38.7674C43.8751 38.9474 40.1401 40.6574 39.7351 40.7474C39.2626 40.8374 38.7676 40.6349 38.5201 40.2299C38.2726 39.8024 38.3401 39.2849 38.6551 38.9024C38.9251 38.5874 42.2551 36.2249 42.6151 36.0224C43.3801 35.5949 44.3251 35.8424 44.7751 36.5849C45.2026 37.3499 44.9551 38.2949 44.2126 38.7449L44.1901 38.7674ZM39.7351 42.5249C40.1626 42.6149 43.8751 44.3024 44.1901 44.5049C44.9551 44.9324 45.2026 45.9224 44.7526 46.6649C44.3251 47.4299 43.3351 47.6774 42.5926 47.2274C42.2776 47.0474 38.9476 44.6624 38.6326 44.3474C38.3176 43.9649 38.2501 43.4474 38.4976 43.0199C38.7451 42.5924 39.2176 42.3899 39.7126 42.5024L39.7351 42.5249ZM36.0451 44.4824C35.5726 44.4824 35.1226 44.7974 34.9651 45.2474C34.8301 45.6524 34.4476 49.7249 34.4476 50.1074C34.4476 50.9849 35.1676 51.6824 36.0226 51.6824C36.8776 51.6824 37.5976 50.9624 37.5976 50.1074C37.5976 49.7249 37.2151 45.6524 37.0801 45.2474C36.9226 44.7749 36.4951 44.4824 36.0001 44.4824H36.0451ZM27.9226 44.5049C28.2376 44.3249 31.9726 42.6149 32.3776 42.5249C32.8501 42.4349 33.3451 42.6374 33.5926 43.0424C33.8401 43.4699 33.7726 43.9874 33.4576 44.3699C33.1876 44.6849 29.8576 47.0474 29.4976 47.2499C28.7326 47.6774 27.7876 47.4299 27.3376 46.6874C26.9101 45.9224 27.1576 44.9774 27.9001 44.5274L27.9226 44.5049ZM29.4976 36.0224C28.7326 35.5949 27.7876 35.8424 27.3376 36.5849C26.9101 37.3499 27.1576 38.2949 27.9001 38.7449C28.2151 38.9249 31.9501 40.6349 32.3551 40.7249C32.8276 40.8149 33.3226 40.6124 33.5701 40.2074C33.8176 39.7799 33.7501 39.2624 33.4351 38.8799C33.1651 38.5649 29.8351 36.2024 29.4751 35.9999L29.4976 36.0224Z" fill="white"/>
</svg>
