<svg width="72" height="72" viewBox="0 0 72 72" fill="none" xmlns="http://www.w3.org/2000/svg">
<path fill-rule="evenodd" clip-rule="evenodd" d="M20.25 18V13.5H4.5V58.5H20.25V54H9V18H20.25Z" fill="#4DBDF5"/>
<path fill-rule="evenodd" clip-rule="evenodd" d="M51.75 54V58.5H67.5V13.5H51.75V18H63V54H51.75Z" fill="#4DBDF5"/>
<path fill-rule="evenodd" clip-rule="evenodd" d="M33.5248 22.725C33.5248 22.0686 33.7856 21.4391 34.2498 20.9749C34.7139 20.5108 35.3434 20.25 35.9998 20.25C36.6562 20.25 37.2858 20.5108 37.7499 20.9749C38.2141 21.4391 38.4748 22.0686 38.4748 22.725C38.4748 23.3325 37.8673 29.6775 37.6648 30.33C37.5484 30.6795 37.3249 30.9835 37.0261 31.1989C36.7273 31.4143 36.3682 31.5302 35.9998 31.5302C35.6315 31.5302 35.2724 31.4143 34.9736 31.1989C34.6748 30.9835 34.4513 30.6795 34.3348 30.33C34.1323 29.6775 33.5248 23.3325 33.5248 22.725ZM48.7348 31.5C48.2173 31.815 42.4123 34.47 41.7598 34.605C41.3972 34.6839 41.019 34.6458 40.6794 34.4962C40.3398 34.3466 40.0564 34.0932 39.8698 33.7725C39.6833 33.4521 39.6045 33.0802 39.645 32.7117C39.6855 32.3431 39.8432 31.9973 40.0948 31.725C40.5223 31.2075 45.7423 27.5175 46.2598 27.225C46.8232 26.9456 47.4718 26.891 48.0739 27.0725C48.676 27.254 49.1865 27.6579 49.5016 28.2021C49.8167 28.7464 49.9128 29.3902 49.7704 30.0027C49.6279 30.6152 49.2577 31.1506 48.7348 31.5ZM41.7598 37.395C42.4123 37.53 48.2173 40.185 48.7348 40.5C49.038 40.6504 49.3071 40.8613 49.5255 41.1198C49.744 41.3783 49.907 41.6789 50.0047 42.0029C50.1024 42.3269 50.1326 42.6676 50.0934 43.0037C50.0542 43.3399 49.9465 43.6644 49.777 43.9573C49.6074 44.2502 49.3796 44.5052 49.1076 44.7065C48.8355 44.9078 48.5251 45.0513 48.1955 45.1279C47.8659 45.2046 47.524 45.2128 47.1911 45.1521C46.8582 45.0914 46.5412 44.963 46.2598 44.775C45.7423 44.4825 40.5223 40.7925 40.0948 40.275C39.8432 40.0027 39.6855 39.6569 39.645 39.2883C39.6045 38.9198 39.6833 38.5479 39.8698 38.2275C40.0564 37.9067 40.3398 37.6534 40.6794 37.5038C41.019 37.3542 41.3972 37.3161 41.7598 37.395ZM35.9998 40.5C35.6296 40.501 35.2692 40.6191 34.9702 40.8373C34.6711 41.0555 34.4488 41.3628 34.3348 41.715C34.1323 42.3675 33.5248 48.7125 33.5248 49.32C33.5248 49.9764 33.7856 50.6059 34.2498 51.0701C34.7139 51.5342 35.3434 51.795 35.9998 51.795C36.6562 51.795 37.2858 51.5342 37.7499 51.0701C38.2141 50.6059 38.4748 49.9764 38.4748 49.32C38.4748 48.7125 37.8673 42.3675 37.6648 41.715C37.5509 41.3628 37.3285 41.0555 37.0295 40.8373C36.7304 40.6191 36.37 40.501 35.9998 40.5ZM23.2648 40.5C23.7823 40.185 29.5873 37.53 30.2398 37.395C30.6024 37.3161 30.9807 37.3542 31.3203 37.5038C31.6598 37.6534 31.9433 37.9067 32.1298 38.2275C32.3164 38.5479 32.3952 38.9198 32.3547 39.2883C32.3142 39.6569 32.1565 40.0027 31.9048 40.275C31.4773 40.7925 26.2573 44.4825 25.7398 44.775C25.1765 45.0544 24.5279 45.109 23.9257 44.9275C23.3236 44.746 22.8132 44.3421 22.4981 43.7978C22.183 43.2536 22.0869 42.6098 22.2293 41.9973C22.3717 41.3848 22.742 40.8494 23.2648 40.5ZM25.7398 27.225C25.4585 27.037 25.1415 26.9086 24.8086 26.8479C24.4756 26.7872 24.1338 26.7954 23.8042 26.8721C23.4745 26.9487 23.1641 27.0921 22.8921 27.2935C22.6201 27.4948 22.3923 27.7498 22.2227 28.0427C22.0532 28.3356 21.9455 28.6601 21.9063 28.9963C21.8671 29.3324 21.8973 29.6731 21.995 29.9971C22.0926 30.3211 22.2557 30.6216 22.4741 30.8801C22.6926 31.1387 22.9617 31.3496 23.2648 31.5C23.7823 31.815 29.5873 34.47 30.2398 34.605C30.6024 34.6839 30.9807 34.6458 31.3203 34.4962C31.6598 34.3466 31.9433 34.0932 32.1298 33.7725C32.3164 33.4521 32.3952 33.0802 32.3547 32.7117C32.3142 32.3431 32.1565 31.9973 31.9048 31.725C31.4998 31.2075 26.2573 27.5175 25.7398 27.225Z" fill="#0053E2"/>
</svg>
