<svg width="72" height="72" viewBox="0 0 72 72" fill="none" xmlns="http://www.w3.org/2000/svg">
<path fill-rule="evenodd" clip-rule="evenodd" d="M51.75 15.75C54.2353 15.75 56.25 17.7647 56.25 20.25V58.5C56.25 60.8302 54.4787 62.7457 52.2092 62.9758L51.75 63C51.75 65.4853 49.7353 67.5 47.25 67.5C44.7647 67.5 42.75 65.4853 42.75 63H29.25C29.25 65.4853 27.2353 67.5 24.75 67.5C22.2647 67.5 20.25 65.4853 20.25 63L19.7908 62.9758C17.5213 62.7457 15.75 60.8302 15.75 58.5V20.25C15.75 17.7647 17.7647 15.75 20.25 15.75H51.75ZM24.75 60.75C23.5074 60.75 22.5 61.7574 22.5 63C22.5 64.2426 23.5074 65.25 24.75 65.25C25.9926 65.25 27 64.2426 27 63C27 61.7574 25.9926 60.75 24.75 60.75ZM47.25 60.75C46.0074 60.75 45 61.7574 45 63C45 64.2426 46.0074 65.25 47.25 65.25C48.4926 65.25 49.5 64.2426 49.5 63C49.5 61.7574 48.4926 60.75 47.25 60.75ZM20.25 56.25H51.75V54H20.25V56.25ZM20.25 49.5H51.75V47.25H20.25V49.5ZM20.25 42.75H51.75V40.5H20.25V42.75ZM47.25 22.5C46.0074 22.5 45 23.5074 45 24.75C45 25.9926 46.0074 27 47.25 27C48.4926 27 49.5 25.9926 49.5 24.75C49.5 23.5074 48.4926 22.5 47.25 22.5Z" fill="#0053E2"/>
<path d="M47.25 22.5C48.4926 22.5 49.5 23.5074 49.5 24.75C49.5 25.9926 48.4926 27 47.25 27C46.0074 27 45 25.9926 45 24.75C45 23.5074 46.0074 22.5 47.25 22.5Z" fill="#4DBDF5"/>
<path d="M41.625 4.5C44.7316 4.5 47.25 7.0184 47.25 10.125V15.75H45V10.125C45 8.26104 43.489 6.75 41.625 6.75H30.375C28.511 6.75 27 8.26104 27 10.125V15.75H24.75V10.125C24.75 7.0184 27.2684 4.5 30.375 4.5H41.625Z" fill="#4DBDF5"/>
<path d="M24.75 60.75C25.9926 60.75 27 61.7574 27 63C27 64.2426 25.9926 65.25 24.75 65.25C23.5074 65.25 22.5 64.2426 22.5 63C22.5 61.7574 23.5074 60.75 24.75 60.75Z" fill="white"/>
<path d="M47.25 60.75C48.4926 60.75 49.5 61.7574 49.5 63C49.5 64.2426 48.4926 65.25 47.25 65.25C46.0074 65.25 45 64.2426 45 63C45 61.7574 46.0074 60.75 47.25 60.75Z" fill="white"/>
<path d="M51.75 56.25H20.25V54H51.75V56.25Z" fill="white"/>
<path d="M51.75 49.5H20.25V47.25H51.75V49.5Z" fill="white"/>
<path d="M51.75 42.75H20.25V40.5H51.75V42.75Z" fill="white"/>
</svg>
