<svg width="72" height="72" viewBox="0 0 72 72" fill="none" xmlns="http://www.w3.org/2000/svg">
<path fill-rule="evenodd" clip-rule="evenodd" d="M60.75 18C64.485 18 67.5 21.015 67.5 24.75V45C67.5 46.9799 66.6223 48.7569 65.25 49.9944V56.25C65.25 59.985 62.235 63 58.5 63H13.5C9.765 63 6.75 59.985 6.75 56.25V49.9944C5.37768 48.7569 4.5 47.0024 4.5 45V24.75C4.5 21.015 7.515 18 11.25 18H60.75ZM64.259 50.7568C63.2355 51.3821 62.0372 51.75 60.75 51.75H11.25C9.96216 51.75 8.76264 51.3827 7.73877 50.7568C8.92384 52.6999 11.0576 54 13.5 54H58.5C60.942 54 63.0738 52.6993 64.259 50.7568Z" fill="#4DBDF5"/>
<path d="M45 6.75C48.7125 6.75 51.75 9.7875 51.75 13.5V18H47.25V13.5C47.25 12.2625 46.2375 11.25 45 11.25H27C25.7625 11.25 24.75 12.2625 24.75 13.5V18H20.25V13.5C20.25 9.7875 23.2875 6.75 27 6.75H45Z" fill="#0053E2"/>
<path d="M60.7488 51.75H49.4988V47.25H44.9988V51.75H26.9988V47.25H22.4988V51.75H11.2488C9.96627 51.75 8.75127 51.39 7.73877 50.76C8.93127 52.695 11.0688 54 13.4988 54H22.4988V58.5H26.9988V54H44.9988V58.5H49.4988V54H58.4988C60.9513 54 63.0663 52.695 64.2588 50.76C63.2463 51.39 62.0313 51.75 60.7488 51.75Z" fill="#0053E2"/>
<path fill-rule="evenodd" clip-rule="evenodd" d="M34.4024 26.865C34.4024 26.01 35.1674 25.3125 36.0224 25.3125C36.8774 25.3125 37.5974 26.01 37.5974 26.865C37.5974 27.2475 37.2149 31.2075 37.0799 31.635C36.9224 32.085 36.4949 32.4 35.9999 32.4C35.5049 32.4 35.0774 32.1075 34.9199 31.635C34.7849 31.23 34.4024 27.2475 34.4024 26.865ZM44.1899 32.355C43.8749 32.535 40.1399 34.2 39.7124 34.29C39.2399 34.38 38.7449 34.1775 38.4974 33.7725C38.2499 33.3675 38.3174 32.85 38.6324 32.49C38.9024 32.175 42.2549 29.8575 42.5924 29.6775C43.3574 29.25 44.3249 29.52 44.7749 30.24C45.2024 30.9825 44.9549 31.9275 44.1899 32.355ZM39.7349 36.045C40.1624 36.135 43.8749 37.7775 44.2124 37.98C44.9774 38.4075 45.2474 39.3525 44.7974 40.095C44.3699 40.8375 43.3799 41.085 42.6149 40.6575C42.2999 40.4775 38.9474 38.16 38.6549 37.845C38.3399 37.485 38.2724 36.9675 38.5199 36.5625C38.7674 36.1575 39.2399 35.9325 39.7349 36.045ZM36.0224 37.9575C35.5499 37.9575 35.0999 38.25 34.9424 38.7225C34.8074 39.1275 34.4249 43.11 34.4249 43.47C34.4249 44.325 35.1449 45.0225 35.9999 45.0225C36.8549 45.0225 37.5749 44.325 37.5749 43.47C37.5749 43.0875 37.1924 39.1275 37.0574 38.7225C36.8999 38.2725 36.4724 37.9575 35.9774 37.9575H36.0224ZM27.8774 37.98C28.1924 37.8 31.9274 36.135 32.3549 36.045C32.8274 35.955 33.3224 36.1575 33.5699 36.5625C33.8174 36.9675 33.7499 37.485 33.4349 37.845C33.1649 38.16 29.8124 40.4775 29.4749 40.6575C28.7099 41.085 27.7424 40.815 27.2924 40.095C26.8649 39.3525 27.1124 38.4075 27.8774 37.98ZM29.4524 29.6775C28.6874 29.25 27.7199 29.52 27.2699 30.24C26.8424 30.9825 27.0899 31.9275 27.8549 32.355C28.1699 32.535 31.9049 34.2 32.3324 34.29C32.8049 34.38 33.2999 34.1775 33.5474 33.7725C33.7949 33.3675 33.7274 32.85 33.4124 32.49C33.1424 32.175 29.7899 29.8575 29.4524 29.6775Z" fill="white"/>
</svg>
